%TF.GenerationSoftware,KiCad,Pcbnew,(5.1.9)-1*%
%TF.CreationDate,2021-05-17T20:36:20+02:00*%
%TF.ProjectId,TIMP_Bowes-Grebene,54494d50-5f42-46f7-9765-732d47726562,rev?*%
%TF.SameCoordinates,Original*%
%TF.FileFunction,Copper,L1,Top*%
%TF.FilePolarity,Positive*%
%FSLAX46Y46*%
G04 Gerber Fmt 4.6, Leading zero omitted, Abs format (unit mm)*
G04 Created by KiCad (PCBNEW (5.1.9)-1) date 2021-05-17 20:36:20*
%MOMM*%
%LPD*%
G01*
G04 APERTURE LIST*
%TA.AperFunction,ComponentPad*%
%ADD10R,1.500000X1.500000*%
%TD*%
%TA.AperFunction,SMDPad,CuDef*%
%ADD11R,1.500000X1.500000*%
%TD*%
%TA.AperFunction,SMDPad,CuDef*%
%ADD12R,0.900000X1.200000*%
%TD*%
%TA.AperFunction,SMDPad,CuDef*%
%ADD13R,0.600000X0.700000*%
%TD*%
%TA.AperFunction,ComponentPad*%
%ADD14C,6.400000*%
%TD*%
%TA.AperFunction,ComponentPad*%
%ADD15C,0.800000*%
%TD*%
%TA.AperFunction,ComponentPad*%
%ADD16O,2.500000X1.600000*%
%TD*%
%TA.AperFunction,ComponentPad*%
%ADD17O,7.000000X3.500000*%
%TD*%
%TA.AperFunction,ComponentPad*%
%ADD18R,1.700000X1.700000*%
%TD*%
%TA.AperFunction,ComponentPad*%
%ADD19O,1.700000X1.700000*%
%TD*%
%TA.AperFunction,SMDPad,CuDef*%
%ADD20R,0.800000X0.900000*%
%TD*%
%TA.AperFunction,ComponentPad*%
%ADD21C,2.340000*%
%TD*%
%TA.AperFunction,ViaPad*%
%ADD22C,0.800000*%
%TD*%
%TA.AperFunction,ViaPad*%
%ADD23C,1.000000*%
%TD*%
%TA.AperFunction,Conductor*%
%ADD24C,1.000000*%
%TD*%
%TA.AperFunction,Conductor*%
%ADD25C,0.381000*%
%TD*%
%TA.AperFunction,Conductor*%
%ADD26C,0.508000*%
%TD*%
%TA.AperFunction,Conductor*%
%ADD27C,0.762000*%
%TD*%
%TA.AperFunction,Conductor*%
%ADD28C,0.250000*%
%TD*%
%TA.AperFunction,Conductor*%
%ADD29C,0.254000*%
%TD*%
G04 APERTURE END LIST*
D10*
%TO.P,REF\u002A\u002A,1*%
%TO.N,GND*%
X115750000Y-119500000D03*
%TD*%
%TO.P,REF\u002A\u002A,1*%
%TO.N,GND*%
X102000000Y-90750000D03*
%TD*%
%TO.P,REF\u002A\u002A,1*%
%TO.N,GND*%
X117500000Y-99750000D03*
%TD*%
D11*
%TO.P,REF\u002A\u002A,1*%
%TO.N,Net-(C24-Pad2)*%
X115000000Y-89750000D03*
%TD*%
%TO.P,REF\u002A\u002A,1*%
%TO.N,Net-(C10-Pad2)*%
X124250000Y-74000000D03*
%TD*%
%TO.P,REF\u002A\u002A,1*%
%TO.N,/TRI-*%
X117500000Y-96500000D03*
%TD*%
%TO.P,REF\u002A\u002A,1*%
%TO.N,/TRI+*%
X102000000Y-93250000D03*
%TD*%
%TO.P,R41,2*%
%TO.N,Net-(R34-Pad1)*%
%TA.AperFunction,SMDPad,CuDef*%
G36*
G01*
X127100000Y-97374999D02*
X127100000Y-98625001D01*
G75*
G02*
X126850001Y-98875000I-249999J0D01*
G01*
X126224999Y-98875000D01*
G75*
G02*
X125975000Y-98625001I0J249999D01*
G01*
X125975000Y-97374999D01*
G75*
G02*
X126224999Y-97125000I249999J0D01*
G01*
X126850001Y-97125000D01*
G75*
G02*
X127100000Y-97374999I0J-249999D01*
G01*
G37*
%TD.AperFunction*%
%TO.P,R41,1*%
%TO.N,-12V*%
%TA.AperFunction,SMDPad,CuDef*%
G36*
G01*
X130025000Y-97374999D02*
X130025000Y-98625001D01*
G75*
G02*
X129775001Y-98875000I-249999J0D01*
G01*
X129149999Y-98875000D01*
G75*
G02*
X128900000Y-98625001I0J249999D01*
G01*
X128900000Y-97374999D01*
G75*
G02*
X129149999Y-97125000I249999J0D01*
G01*
X129775001Y-97125000D01*
G75*
G02*
X130025000Y-97374999I0J-249999D01*
G01*
G37*
%TD.AperFunction*%
%TD*%
%TO.P,R40,2*%
%TO.N,Net-(R33-Pad2)*%
%TA.AperFunction,SMDPad,CuDef*%
G36*
G01*
X129700001Y-91850000D02*
X128799999Y-91850000D01*
G75*
G02*
X128550000Y-91600001I0J249999D01*
G01*
X128550000Y-91074999D01*
G75*
G02*
X128799999Y-90825000I249999J0D01*
G01*
X129700001Y-90825000D01*
G75*
G02*
X129950000Y-91074999I0J-249999D01*
G01*
X129950000Y-91600001D01*
G75*
G02*
X129700001Y-91850000I-249999J0D01*
G01*
G37*
%TD.AperFunction*%
%TO.P,R40,1*%
%TO.N,Net-(R34-Pad2)*%
%TA.AperFunction,SMDPad,CuDef*%
G36*
G01*
X129700001Y-93675000D02*
X128799999Y-93675000D01*
G75*
G02*
X128550000Y-93425001I0J249999D01*
G01*
X128550000Y-92899999D01*
G75*
G02*
X128799999Y-92650000I249999J0D01*
G01*
X129700001Y-92650000D01*
G75*
G02*
X129950000Y-92899999I0J-249999D01*
G01*
X129950000Y-93425001D01*
G75*
G02*
X129700001Y-93675000I-249999J0D01*
G01*
G37*
%TD.AperFunction*%
%TD*%
%TO.P,R32,2*%
%TO.N,Net-(R32-Pad2)*%
%TA.AperFunction,SMDPad,CuDef*%
G36*
G01*
X124549999Y-110400000D02*
X125450001Y-110400000D01*
G75*
G02*
X125700000Y-110649999I0J-249999D01*
G01*
X125700000Y-111175001D01*
G75*
G02*
X125450001Y-111425000I-249999J0D01*
G01*
X124549999Y-111425000D01*
G75*
G02*
X124300000Y-111175001I0J249999D01*
G01*
X124300000Y-110649999D01*
G75*
G02*
X124549999Y-110400000I249999J0D01*
G01*
G37*
%TD.AperFunction*%
%TO.P,R32,1*%
%TO.N,Net-(R31-Pad2)*%
%TA.AperFunction,SMDPad,CuDef*%
G36*
G01*
X124549999Y-108575000D02*
X125450001Y-108575000D01*
G75*
G02*
X125700000Y-108824999I0J-249999D01*
G01*
X125700000Y-109350001D01*
G75*
G02*
X125450001Y-109600000I-249999J0D01*
G01*
X124549999Y-109600000D01*
G75*
G02*
X124300000Y-109350001I0J249999D01*
G01*
X124300000Y-108824999D01*
G75*
G02*
X124549999Y-108575000I249999J0D01*
G01*
G37*
%TD.AperFunction*%
%TD*%
%TO.P,C1,2*%
%TO.N,-12V*%
%TA.AperFunction,SMDPad,CuDef*%
G36*
G01*
X103975000Y-78800000D02*
X103025000Y-78800000D01*
G75*
G02*
X102775000Y-78550000I0J250000D01*
G01*
X102775000Y-78050000D01*
G75*
G02*
X103025000Y-77800000I250000J0D01*
G01*
X103975000Y-77800000D01*
G75*
G02*
X104225000Y-78050000I0J-250000D01*
G01*
X104225000Y-78550000D01*
G75*
G02*
X103975000Y-78800000I-250000J0D01*
G01*
G37*
%TD.AperFunction*%
%TO.P,C1,1*%
%TO.N,Net-(C1-Pad1)*%
%TA.AperFunction,SMDPad,CuDef*%
G36*
G01*
X103975000Y-80700000D02*
X103025000Y-80700000D01*
G75*
G02*
X102775000Y-80450000I0J250000D01*
G01*
X102775000Y-79950000D01*
G75*
G02*
X103025000Y-79700000I250000J0D01*
G01*
X103975000Y-79700000D01*
G75*
G02*
X104225000Y-79950000I0J-250000D01*
G01*
X104225000Y-80450000D01*
G75*
G02*
X103975000Y-80700000I-250000J0D01*
G01*
G37*
%TD.AperFunction*%
%TD*%
%TO.P,C2,2*%
%TO.N,-12V*%
%TA.AperFunction,SMDPad,CuDef*%
G36*
G01*
X107300000Y-104025000D02*
X107300000Y-104975000D01*
G75*
G02*
X107050000Y-105225000I-250000J0D01*
G01*
X106550000Y-105225000D01*
G75*
G02*
X106300000Y-104975000I0J250000D01*
G01*
X106300000Y-104025000D01*
G75*
G02*
X106550000Y-103775000I250000J0D01*
G01*
X107050000Y-103775000D01*
G75*
G02*
X107300000Y-104025000I0J-250000D01*
G01*
G37*
%TD.AperFunction*%
%TO.P,C2,1*%
%TO.N,Net-(C2-Pad1)*%
%TA.AperFunction,SMDPad,CuDef*%
G36*
G01*
X109200000Y-104025000D02*
X109200000Y-104975000D01*
G75*
G02*
X108950000Y-105225000I-250000J0D01*
G01*
X108450000Y-105225000D01*
G75*
G02*
X108200000Y-104975000I0J250000D01*
G01*
X108200000Y-104025000D01*
G75*
G02*
X108450000Y-103775000I250000J0D01*
G01*
X108950000Y-103775000D01*
G75*
G02*
X109200000Y-104025000I0J-250000D01*
G01*
G37*
%TD.AperFunction*%
%TD*%
%TO.P,C3,2*%
%TO.N,/TRI+*%
%TA.AperFunction,SMDPad,CuDef*%
G36*
G01*
X111300000Y-81275000D02*
X111300000Y-82225000D01*
G75*
G02*
X111050000Y-82475000I-250000J0D01*
G01*
X110550000Y-82475000D01*
G75*
G02*
X110300000Y-82225000I0J250000D01*
G01*
X110300000Y-81275000D01*
G75*
G02*
X110550000Y-81025000I250000J0D01*
G01*
X111050000Y-81025000D01*
G75*
G02*
X111300000Y-81275000I0J-250000D01*
G01*
G37*
%TD.AperFunction*%
%TO.P,C3,1*%
%TO.N,Net-(C3-Pad1)*%
%TA.AperFunction,SMDPad,CuDef*%
G36*
G01*
X113200000Y-81275000D02*
X113200000Y-82225000D01*
G75*
G02*
X112950000Y-82475000I-250000J0D01*
G01*
X112450000Y-82475000D01*
G75*
G02*
X112200000Y-82225000I0J250000D01*
G01*
X112200000Y-81275000D01*
G75*
G02*
X112450000Y-81025000I250000J0D01*
G01*
X112950000Y-81025000D01*
G75*
G02*
X113200000Y-81275000I0J-250000D01*
G01*
G37*
%TD.AperFunction*%
%TD*%
%TO.P,C4,1*%
%TO.N,Net-(C4-Pad1)*%
%TA.AperFunction,SMDPad,CuDef*%
G36*
G01*
X134025000Y-79550000D02*
X134975000Y-79550000D01*
G75*
G02*
X135225000Y-79800000I0J-250000D01*
G01*
X135225000Y-80300000D01*
G75*
G02*
X134975000Y-80550000I-250000J0D01*
G01*
X134025000Y-80550000D01*
G75*
G02*
X133775000Y-80300000I0J250000D01*
G01*
X133775000Y-79800000D01*
G75*
G02*
X134025000Y-79550000I250000J0D01*
G01*
G37*
%TD.AperFunction*%
%TO.P,C4,2*%
%TO.N,-12V*%
%TA.AperFunction,SMDPad,CuDef*%
G36*
G01*
X134025000Y-81450000D02*
X134975000Y-81450000D01*
G75*
G02*
X135225000Y-81700000I0J-250000D01*
G01*
X135225000Y-82200000D01*
G75*
G02*
X134975000Y-82450000I-250000J0D01*
G01*
X134025000Y-82450000D01*
G75*
G02*
X133775000Y-82200000I0J250000D01*
G01*
X133775000Y-81700000D01*
G75*
G02*
X134025000Y-81450000I250000J0D01*
G01*
G37*
%TD.AperFunction*%
%TD*%
%TO.P,C5,1*%
%TO.N,Net-(C5-Pad1)*%
%TA.AperFunction,SMDPad,CuDef*%
G36*
G01*
X137300000Y-107849999D02*
X137300000Y-109150001D01*
G75*
G02*
X137050001Y-109400000I-249999J0D01*
G01*
X136399999Y-109400000D01*
G75*
G02*
X136150000Y-109150001I0J249999D01*
G01*
X136150000Y-107849999D01*
G75*
G02*
X136399999Y-107600000I249999J0D01*
G01*
X137050001Y-107600000D01*
G75*
G02*
X137300000Y-107849999I0J-249999D01*
G01*
G37*
%TD.AperFunction*%
%TO.P,C5,2*%
%TO.N,Net-(C5-Pad2)*%
%TA.AperFunction,SMDPad,CuDef*%
G36*
G01*
X134350000Y-107849999D02*
X134350000Y-109150001D01*
G75*
G02*
X134100001Y-109400000I-249999J0D01*
G01*
X133449999Y-109400000D01*
G75*
G02*
X133200000Y-109150001I0J249999D01*
G01*
X133200000Y-107849999D01*
G75*
G02*
X133449999Y-107600000I249999J0D01*
G01*
X134100001Y-107600000D01*
G75*
G02*
X134350000Y-107849999I0J-249999D01*
G01*
G37*
%TD.AperFunction*%
%TD*%
%TO.P,C6,2*%
%TO.N,Net-(C6-Pad2)*%
%TA.AperFunction,SMDPad,CuDef*%
G36*
G01*
X134100000Y-88649999D02*
X134100000Y-89950001D01*
G75*
G02*
X133850001Y-90200000I-249999J0D01*
G01*
X133199999Y-90200000D01*
G75*
G02*
X132950000Y-89950001I0J249999D01*
G01*
X132950000Y-88649999D01*
G75*
G02*
X133199999Y-88400000I249999J0D01*
G01*
X133850001Y-88400000D01*
G75*
G02*
X134100000Y-88649999I0J-249999D01*
G01*
G37*
%TD.AperFunction*%
%TO.P,C6,1*%
%TO.N,Net-(C6-Pad1)*%
%TA.AperFunction,SMDPad,CuDef*%
G36*
G01*
X137050000Y-88649999D02*
X137050000Y-89950001D01*
G75*
G02*
X136800001Y-90200000I-249999J0D01*
G01*
X136149999Y-90200000D01*
G75*
G02*
X135900000Y-89950001I0J249999D01*
G01*
X135900000Y-88649999D01*
G75*
G02*
X136149999Y-88400000I249999J0D01*
G01*
X136800001Y-88400000D01*
G75*
G02*
X137050000Y-88649999I0J-249999D01*
G01*
G37*
%TD.AperFunction*%
%TD*%
%TO.P,C7,2*%
%TO.N,GND*%
%TA.AperFunction,SMDPad,CuDef*%
G36*
G01*
X91250000Y-83700000D02*
X89250000Y-83700000D01*
G75*
G02*
X89000000Y-83450000I0J250000D01*
G01*
X89000000Y-79950000D01*
G75*
G02*
X89250000Y-79700000I250000J0D01*
G01*
X91250000Y-79700000D01*
G75*
G02*
X91500000Y-79950000I0J-250000D01*
G01*
X91500000Y-83450000D01*
G75*
G02*
X91250000Y-83700000I-250000J0D01*
G01*
G37*
%TD.AperFunction*%
%TO.P,C7,1*%
%TO.N,+12V*%
%TA.AperFunction,SMDPad,CuDef*%
G36*
G01*
X91250000Y-89800000D02*
X89250000Y-89800000D01*
G75*
G02*
X89000000Y-89550000I0J250000D01*
G01*
X89000000Y-86050000D01*
G75*
G02*
X89250000Y-85800000I250000J0D01*
G01*
X91250000Y-85800000D01*
G75*
G02*
X91500000Y-86050000I0J-250000D01*
G01*
X91500000Y-89550000D01*
G75*
G02*
X91250000Y-89800000I-250000J0D01*
G01*
G37*
%TD.AperFunction*%
%TD*%
%TO.P,C8,2*%
%TO.N,+12V*%
%TA.AperFunction,SMDPad,CuDef*%
G36*
G01*
X95349999Y-87650000D02*
X96650001Y-87650000D01*
G75*
G02*
X96900000Y-87899999I0J-249999D01*
G01*
X96900000Y-88550001D01*
G75*
G02*
X96650001Y-88800000I-249999J0D01*
G01*
X95349999Y-88800000D01*
G75*
G02*
X95100000Y-88550001I0J249999D01*
G01*
X95100000Y-87899999D01*
G75*
G02*
X95349999Y-87650000I249999J0D01*
G01*
G37*
%TD.AperFunction*%
%TO.P,C8,1*%
%TO.N,GND*%
%TA.AperFunction,SMDPad,CuDef*%
G36*
G01*
X95349999Y-84700000D02*
X96650001Y-84700000D01*
G75*
G02*
X96900000Y-84949999I0J-249999D01*
G01*
X96900000Y-85600001D01*
G75*
G02*
X96650001Y-85850000I-249999J0D01*
G01*
X95349999Y-85850000D01*
G75*
G02*
X95100000Y-85600001I0J249999D01*
G01*
X95100000Y-84949999D01*
G75*
G02*
X95349999Y-84700000I249999J0D01*
G01*
G37*
%TD.AperFunction*%
%TD*%
%TO.P,C9,1*%
%TO.N,/TRI-*%
%TA.AperFunction,SMDPad,CuDef*%
G36*
G01*
X117700000Y-81275000D02*
X117700000Y-82225000D01*
G75*
G02*
X117450000Y-82475000I-250000J0D01*
G01*
X116950000Y-82475000D01*
G75*
G02*
X116700000Y-82225000I0J250000D01*
G01*
X116700000Y-81275000D01*
G75*
G02*
X116950000Y-81025000I250000J0D01*
G01*
X117450000Y-81025000D01*
G75*
G02*
X117700000Y-81275000I0J-250000D01*
G01*
G37*
%TD.AperFunction*%
%TO.P,C9,2*%
%TO.N,Net-(C3-Pad1)*%
%TA.AperFunction,SMDPad,CuDef*%
G36*
G01*
X115800000Y-81275000D02*
X115800000Y-82225000D01*
G75*
G02*
X115550000Y-82475000I-250000J0D01*
G01*
X115050000Y-82475000D01*
G75*
G02*
X114800000Y-82225000I0J250000D01*
G01*
X114800000Y-81275000D01*
G75*
G02*
X115050000Y-81025000I250000J0D01*
G01*
X115550000Y-81025000D01*
G75*
G02*
X115800000Y-81275000I0J-250000D01*
G01*
G37*
%TD.AperFunction*%
%TD*%
%TO.P,C10,1*%
%TO.N,Net-(C10-Pad1)*%
%TA.AperFunction,SMDPad,CuDef*%
G36*
G01*
X124900001Y-85550000D02*
X123599999Y-85550000D01*
G75*
G02*
X123350000Y-85300001I0J249999D01*
G01*
X123350000Y-84649999D01*
G75*
G02*
X123599999Y-84400000I249999J0D01*
G01*
X124900001Y-84400000D01*
G75*
G02*
X125150000Y-84649999I0J-249999D01*
G01*
X125150000Y-85300001D01*
G75*
G02*
X124900001Y-85550000I-249999J0D01*
G01*
G37*
%TD.AperFunction*%
%TO.P,C10,2*%
%TO.N,Net-(C10-Pad2)*%
%TA.AperFunction,SMDPad,CuDef*%
G36*
G01*
X124900001Y-82600000D02*
X123599999Y-82600000D01*
G75*
G02*
X123350000Y-82350001I0J249999D01*
G01*
X123350000Y-81699999D01*
G75*
G02*
X123599999Y-81450000I249999J0D01*
G01*
X124900001Y-81450000D01*
G75*
G02*
X125150000Y-81699999I0J-249999D01*
G01*
X125150000Y-82350001D01*
G75*
G02*
X124900001Y-82600000I-249999J0D01*
G01*
G37*
%TD.AperFunction*%
%TD*%
%TO.P,C11,1*%
%TO.N,-12V*%
%TA.AperFunction,SMDPad,CuDef*%
G36*
G01*
X101725000Y-76700000D02*
X100775000Y-76700000D01*
G75*
G02*
X100525000Y-76450000I0J250000D01*
G01*
X100525000Y-75950000D01*
G75*
G02*
X100775000Y-75700000I250000J0D01*
G01*
X101725000Y-75700000D01*
G75*
G02*
X101975000Y-75950000I0J-250000D01*
G01*
X101975000Y-76450000D01*
G75*
G02*
X101725000Y-76700000I-250000J0D01*
G01*
G37*
%TD.AperFunction*%
%TO.P,C11,2*%
%TO.N,GND*%
%TA.AperFunction,SMDPad,CuDef*%
G36*
G01*
X101725000Y-74800000D02*
X100775000Y-74800000D01*
G75*
G02*
X100525000Y-74550000I0J250000D01*
G01*
X100525000Y-74050000D01*
G75*
G02*
X100775000Y-73800000I250000J0D01*
G01*
X101725000Y-73800000D01*
G75*
G02*
X101975000Y-74050000I0J-250000D01*
G01*
X101975000Y-74550000D01*
G75*
G02*
X101725000Y-74800000I-250000J0D01*
G01*
G37*
%TD.AperFunction*%
%TD*%
%TO.P,C12,1*%
%TO.N,-12V*%
%TA.AperFunction,SMDPad,CuDef*%
G36*
G01*
X110300000Y-109725000D02*
X110300000Y-108775000D01*
G75*
G02*
X110550000Y-108525000I250000J0D01*
G01*
X111050000Y-108525000D01*
G75*
G02*
X111300000Y-108775000I0J-250000D01*
G01*
X111300000Y-109725000D01*
G75*
G02*
X111050000Y-109975000I-250000J0D01*
G01*
X110550000Y-109975000D01*
G75*
G02*
X110300000Y-109725000I0J250000D01*
G01*
G37*
%TD.AperFunction*%
%TO.P,C12,2*%
%TO.N,GND*%
%TA.AperFunction,SMDPad,CuDef*%
G36*
G01*
X112200000Y-109725000D02*
X112200000Y-108775000D01*
G75*
G02*
X112450000Y-108525000I250000J0D01*
G01*
X112950000Y-108525000D01*
G75*
G02*
X113200000Y-108775000I0J-250000D01*
G01*
X113200000Y-109725000D01*
G75*
G02*
X112950000Y-109975000I-250000J0D01*
G01*
X112450000Y-109975000D01*
G75*
G02*
X112200000Y-109725000I0J250000D01*
G01*
G37*
%TD.AperFunction*%
%TD*%
%TO.P,C13,2*%
%TO.N,+12V*%
%TA.AperFunction,SMDPad,CuDef*%
G36*
G01*
X103975000Y-74800000D02*
X103025000Y-74800000D01*
G75*
G02*
X102775000Y-74550000I0J250000D01*
G01*
X102775000Y-74050000D01*
G75*
G02*
X103025000Y-73800000I250000J0D01*
G01*
X103975000Y-73800000D01*
G75*
G02*
X104225000Y-74050000I0J-250000D01*
G01*
X104225000Y-74550000D01*
G75*
G02*
X103975000Y-74800000I-250000J0D01*
G01*
G37*
%TD.AperFunction*%
%TO.P,C13,1*%
%TO.N,GND*%
%TA.AperFunction,SMDPad,CuDef*%
G36*
G01*
X103975000Y-76700000D02*
X103025000Y-76700000D01*
G75*
G02*
X102775000Y-76450000I0J250000D01*
G01*
X102775000Y-75950000D01*
G75*
G02*
X103025000Y-75700000I250000J0D01*
G01*
X103975000Y-75700000D01*
G75*
G02*
X104225000Y-75950000I0J-250000D01*
G01*
X104225000Y-76450000D01*
G75*
G02*
X103975000Y-76700000I-250000J0D01*
G01*
G37*
%TD.AperFunction*%
%TD*%
%TO.P,C14,2*%
%TO.N,GND*%
%TA.AperFunction,SMDPad,CuDef*%
G36*
G01*
X102050000Y-85775000D02*
X102050000Y-86725000D01*
G75*
G02*
X101800000Y-86975000I-250000J0D01*
G01*
X101300000Y-86975000D01*
G75*
G02*
X101050000Y-86725000I0J250000D01*
G01*
X101050000Y-85775000D01*
G75*
G02*
X101300000Y-85525000I250000J0D01*
G01*
X101800000Y-85525000D01*
G75*
G02*
X102050000Y-85775000I0J-250000D01*
G01*
G37*
%TD.AperFunction*%
%TO.P,C14,1*%
%TO.N,-12V*%
%TA.AperFunction,SMDPad,CuDef*%
G36*
G01*
X103950000Y-85775000D02*
X103950000Y-86725000D01*
G75*
G02*
X103700000Y-86975000I-250000J0D01*
G01*
X103200000Y-86975000D01*
G75*
G02*
X102950000Y-86725000I0J250000D01*
G01*
X102950000Y-85775000D01*
G75*
G02*
X103200000Y-85525000I250000J0D01*
G01*
X103700000Y-85525000D01*
G75*
G02*
X103950000Y-85775000I0J-250000D01*
G01*
G37*
%TD.AperFunction*%
%TD*%
%TO.P,C15,2*%
%TO.N,+12V*%
%TA.AperFunction,SMDPad,CuDef*%
G36*
G01*
X105225000Y-89800000D02*
X104275000Y-89800000D01*
G75*
G02*
X104025000Y-89550000I0J250000D01*
G01*
X104025000Y-89050000D01*
G75*
G02*
X104275000Y-88800000I250000J0D01*
G01*
X105225000Y-88800000D01*
G75*
G02*
X105475000Y-89050000I0J-250000D01*
G01*
X105475000Y-89550000D01*
G75*
G02*
X105225000Y-89800000I-250000J0D01*
G01*
G37*
%TD.AperFunction*%
%TO.P,C15,1*%
%TO.N,GND*%
%TA.AperFunction,SMDPad,CuDef*%
G36*
G01*
X105225000Y-91700000D02*
X104275000Y-91700000D01*
G75*
G02*
X104025000Y-91450000I0J250000D01*
G01*
X104025000Y-90950000D01*
G75*
G02*
X104275000Y-90700000I250000J0D01*
G01*
X105225000Y-90700000D01*
G75*
G02*
X105475000Y-90950000I0J-250000D01*
G01*
X105475000Y-91450000D01*
G75*
G02*
X105225000Y-91700000I-250000J0D01*
G01*
G37*
%TD.AperFunction*%
%TD*%
%TO.P,C16,2*%
%TO.N,-12V*%
%TA.AperFunction,SMDPad,CuDef*%
G36*
G01*
X108200000Y-109725000D02*
X108200000Y-108775000D01*
G75*
G02*
X108450000Y-108525000I250000J0D01*
G01*
X108950000Y-108525000D01*
G75*
G02*
X109200000Y-108775000I0J-250000D01*
G01*
X109200000Y-109725000D01*
G75*
G02*
X108950000Y-109975000I-250000J0D01*
G01*
X108450000Y-109975000D01*
G75*
G02*
X108200000Y-109725000I0J250000D01*
G01*
G37*
%TD.AperFunction*%
%TO.P,C16,1*%
%TO.N,GND*%
%TA.AperFunction,SMDPad,CuDef*%
G36*
G01*
X106300000Y-109725000D02*
X106300000Y-108775000D01*
G75*
G02*
X106550000Y-108525000I250000J0D01*
G01*
X107050000Y-108525000D01*
G75*
G02*
X107300000Y-108775000I0J-250000D01*
G01*
X107300000Y-109725000D01*
G75*
G02*
X107050000Y-109975000I-250000J0D01*
G01*
X106550000Y-109975000D01*
G75*
G02*
X106300000Y-109725000I0J250000D01*
G01*
G37*
%TD.AperFunction*%
%TD*%
%TO.P,C17,1*%
%TO.N,-12V*%
%TA.AperFunction,SMDPad,CuDef*%
G36*
G01*
X129025000Y-84550000D02*
X129975000Y-84550000D01*
G75*
G02*
X130225000Y-84800000I0J-250000D01*
G01*
X130225000Y-85300000D01*
G75*
G02*
X129975000Y-85550000I-250000J0D01*
G01*
X129025000Y-85550000D01*
G75*
G02*
X128775000Y-85300000I0J250000D01*
G01*
X128775000Y-84800000D01*
G75*
G02*
X129025000Y-84550000I250000J0D01*
G01*
G37*
%TD.AperFunction*%
%TO.P,C17,2*%
%TO.N,GND*%
%TA.AperFunction,SMDPad,CuDef*%
G36*
G01*
X129025000Y-86450000D02*
X129975000Y-86450000D01*
G75*
G02*
X130225000Y-86700000I0J-250000D01*
G01*
X130225000Y-87200000D01*
G75*
G02*
X129975000Y-87450000I-250000J0D01*
G01*
X129025000Y-87450000D01*
G75*
G02*
X128775000Y-87200000I0J250000D01*
G01*
X128775000Y-86700000D01*
G75*
G02*
X129025000Y-86450000I250000J0D01*
G01*
G37*
%TD.AperFunction*%
%TD*%
%TO.P,C18,1*%
%TO.N,+12V*%
%TA.AperFunction,SMDPad,CuDef*%
G36*
G01*
X109775000Y-88800000D02*
X110725000Y-88800000D01*
G75*
G02*
X110975000Y-89050000I0J-250000D01*
G01*
X110975000Y-89550000D01*
G75*
G02*
X110725000Y-89800000I-250000J0D01*
G01*
X109775000Y-89800000D01*
G75*
G02*
X109525000Y-89550000I0J250000D01*
G01*
X109525000Y-89050000D01*
G75*
G02*
X109775000Y-88800000I250000J0D01*
G01*
G37*
%TD.AperFunction*%
%TO.P,C18,2*%
%TO.N,GND*%
%TA.AperFunction,SMDPad,CuDef*%
G36*
G01*
X109775000Y-90700000D02*
X110725000Y-90700000D01*
G75*
G02*
X110975000Y-90950000I0J-250000D01*
G01*
X110975000Y-91450000D01*
G75*
G02*
X110725000Y-91700000I-250000J0D01*
G01*
X109775000Y-91700000D01*
G75*
G02*
X109525000Y-91450000I0J250000D01*
G01*
X109525000Y-90950000D01*
G75*
G02*
X109775000Y-90700000I250000J0D01*
G01*
G37*
%TD.AperFunction*%
%TD*%
%TO.P,C19,1*%
%TO.N,+12V*%
%TA.AperFunction,SMDPad,CuDef*%
G36*
G01*
X126275000Y-73050000D02*
X127225000Y-73050000D01*
G75*
G02*
X127475000Y-73300000I0J-250000D01*
G01*
X127475000Y-73800000D01*
G75*
G02*
X127225000Y-74050000I-250000J0D01*
G01*
X126275000Y-74050000D01*
G75*
G02*
X126025000Y-73800000I0J250000D01*
G01*
X126025000Y-73300000D01*
G75*
G02*
X126275000Y-73050000I250000J0D01*
G01*
G37*
%TD.AperFunction*%
%TO.P,C19,2*%
%TO.N,GND*%
%TA.AperFunction,SMDPad,CuDef*%
G36*
G01*
X126275000Y-74950000D02*
X127225000Y-74950000D01*
G75*
G02*
X127475000Y-75200000I0J-250000D01*
G01*
X127475000Y-75700000D01*
G75*
G02*
X127225000Y-75950000I-250000J0D01*
G01*
X126275000Y-75950000D01*
G75*
G02*
X126025000Y-75700000I0J250000D01*
G01*
X126025000Y-75200000D01*
G75*
G02*
X126275000Y-74950000I250000J0D01*
G01*
G37*
%TD.AperFunction*%
%TD*%
%TO.P,C20,2*%
%TO.N,GND*%
%TA.AperFunction,SMDPad,CuDef*%
G36*
G01*
X126775000Y-86450000D02*
X127725000Y-86450000D01*
G75*
G02*
X127975000Y-86700000I0J-250000D01*
G01*
X127975000Y-87200000D01*
G75*
G02*
X127725000Y-87450000I-250000J0D01*
G01*
X126775000Y-87450000D01*
G75*
G02*
X126525000Y-87200000I0J250000D01*
G01*
X126525000Y-86700000D01*
G75*
G02*
X126775000Y-86450000I250000J0D01*
G01*
G37*
%TD.AperFunction*%
%TO.P,C20,1*%
%TO.N,-12V*%
%TA.AperFunction,SMDPad,CuDef*%
G36*
G01*
X126775000Y-84550000D02*
X127725000Y-84550000D01*
G75*
G02*
X127975000Y-84800000I0J-250000D01*
G01*
X127975000Y-85300000D01*
G75*
G02*
X127725000Y-85550000I-250000J0D01*
G01*
X126775000Y-85550000D01*
G75*
G02*
X126525000Y-85300000I0J250000D01*
G01*
X126525000Y-84800000D01*
G75*
G02*
X126775000Y-84550000I250000J0D01*
G01*
G37*
%TD.AperFunction*%
%TD*%
%TO.P,C21,2*%
%TO.N,GND*%
%TA.AperFunction,SMDPad,CuDef*%
G36*
G01*
X123800000Y-101775000D02*
X123800000Y-102725000D01*
G75*
G02*
X123550000Y-102975000I-250000J0D01*
G01*
X123050000Y-102975000D01*
G75*
G02*
X122800000Y-102725000I0J250000D01*
G01*
X122800000Y-101775000D01*
G75*
G02*
X123050000Y-101525000I250000J0D01*
G01*
X123550000Y-101525000D01*
G75*
G02*
X123800000Y-101775000I0J-250000D01*
G01*
G37*
%TD.AperFunction*%
%TO.P,C21,1*%
%TO.N,+12V*%
%TA.AperFunction,SMDPad,CuDef*%
G36*
G01*
X125700000Y-101775000D02*
X125700000Y-102725000D01*
G75*
G02*
X125450000Y-102975000I-250000J0D01*
G01*
X124950000Y-102975000D01*
G75*
G02*
X124700000Y-102725000I0J250000D01*
G01*
X124700000Y-101775000D01*
G75*
G02*
X124950000Y-101525000I250000J0D01*
G01*
X125450000Y-101525000D01*
G75*
G02*
X125700000Y-101775000I0J-250000D01*
G01*
G37*
%TD.AperFunction*%
%TD*%
%TO.P,C22,1*%
%TO.N,Net-(C22-Pad1)*%
%TA.AperFunction,SMDPad,CuDef*%
G36*
G01*
X121200000Y-88775000D02*
X121200000Y-89725000D01*
G75*
G02*
X120950000Y-89975000I-250000J0D01*
G01*
X120450000Y-89975000D01*
G75*
G02*
X120200000Y-89725000I0J250000D01*
G01*
X120200000Y-88775000D01*
G75*
G02*
X120450000Y-88525000I250000J0D01*
G01*
X120950000Y-88525000D01*
G75*
G02*
X121200000Y-88775000I0J-250000D01*
G01*
G37*
%TD.AperFunction*%
%TO.P,C22,2*%
%TO.N,GND*%
%TA.AperFunction,SMDPad,CuDef*%
G36*
G01*
X119300000Y-88775000D02*
X119300000Y-89725000D01*
G75*
G02*
X119050000Y-89975000I-250000J0D01*
G01*
X118550000Y-89975000D01*
G75*
G02*
X118300000Y-89725000I0J250000D01*
G01*
X118300000Y-88775000D01*
G75*
G02*
X118550000Y-88525000I250000J0D01*
G01*
X119050000Y-88525000D01*
G75*
G02*
X119300000Y-88775000I0J-250000D01*
G01*
G37*
%TD.AperFunction*%
%TD*%
%TO.P,C23,1*%
%TO.N,-12V*%
%TA.AperFunction,SMDPad,CuDef*%
G36*
G01*
X131525000Y-97300000D02*
X132475000Y-97300000D01*
G75*
G02*
X132725000Y-97550000I0J-250000D01*
G01*
X132725000Y-98050000D01*
G75*
G02*
X132475000Y-98300000I-250000J0D01*
G01*
X131525000Y-98300000D01*
G75*
G02*
X131275000Y-98050000I0J250000D01*
G01*
X131275000Y-97550000D01*
G75*
G02*
X131525000Y-97300000I250000J0D01*
G01*
G37*
%TD.AperFunction*%
%TO.P,C23,2*%
%TO.N,GND*%
%TA.AperFunction,SMDPad,CuDef*%
G36*
G01*
X131525000Y-99200000D02*
X132475000Y-99200000D01*
G75*
G02*
X132725000Y-99450000I0J-250000D01*
G01*
X132725000Y-99950000D01*
G75*
G02*
X132475000Y-100200000I-250000J0D01*
G01*
X131525000Y-100200000D01*
G75*
G02*
X131275000Y-99950000I0J250000D01*
G01*
X131275000Y-99450000D01*
G75*
G02*
X131525000Y-99200000I250000J0D01*
G01*
G37*
%TD.AperFunction*%
%TD*%
%TO.P,C24,1*%
%TO.N,Net-(C24-Pad1)*%
%TA.AperFunction,SMDPad,CuDef*%
G36*
G01*
X123150001Y-108050000D02*
X121849999Y-108050000D01*
G75*
G02*
X121600000Y-107800001I0J249999D01*
G01*
X121600000Y-107149999D01*
G75*
G02*
X121849999Y-106900000I249999J0D01*
G01*
X123150001Y-106900000D01*
G75*
G02*
X123400000Y-107149999I0J-249999D01*
G01*
X123400000Y-107800001D01*
G75*
G02*
X123150001Y-108050000I-249999J0D01*
G01*
G37*
%TD.AperFunction*%
%TO.P,C24,2*%
%TO.N,Net-(C24-Pad2)*%
%TA.AperFunction,SMDPad,CuDef*%
G36*
G01*
X123150001Y-105100000D02*
X121849999Y-105100000D01*
G75*
G02*
X121600000Y-104850001I0J249999D01*
G01*
X121600000Y-104199999D01*
G75*
G02*
X121849999Y-103950000I249999J0D01*
G01*
X123150001Y-103950000D01*
G75*
G02*
X123400000Y-104199999I0J-249999D01*
G01*
X123400000Y-104850001D01*
G75*
G02*
X123150001Y-105100000I-249999J0D01*
G01*
G37*
%TD.AperFunction*%
%TD*%
%TO.P,C25,1*%
%TO.N,GND*%
%TA.AperFunction,SMDPad,CuDef*%
G36*
G01*
X122275000Y-113800000D02*
X123225000Y-113800000D01*
G75*
G02*
X123475000Y-114050000I0J-250000D01*
G01*
X123475000Y-114550000D01*
G75*
G02*
X123225000Y-114800000I-250000J0D01*
G01*
X122275000Y-114800000D01*
G75*
G02*
X122025000Y-114550000I0J250000D01*
G01*
X122025000Y-114050000D01*
G75*
G02*
X122275000Y-113800000I250000J0D01*
G01*
G37*
%TD.AperFunction*%
%TO.P,C25,2*%
%TO.N,-12V*%
%TA.AperFunction,SMDPad,CuDef*%
G36*
G01*
X122275000Y-115700000D02*
X123225000Y-115700000D01*
G75*
G02*
X123475000Y-115950000I0J-250000D01*
G01*
X123475000Y-116450000D01*
G75*
G02*
X123225000Y-116700000I-250000J0D01*
G01*
X122275000Y-116700000D01*
G75*
G02*
X122025000Y-116450000I0J250000D01*
G01*
X122025000Y-115950000D01*
G75*
G02*
X122275000Y-115700000I250000J0D01*
G01*
G37*
%TD.AperFunction*%
%TD*%
%TO.P,C26,1*%
%TO.N,GND*%
%TA.AperFunction,SMDPad,CuDef*%
G36*
G01*
X91250000Y-111300000D02*
X89250000Y-111300000D01*
G75*
G02*
X89000000Y-111050000I0J250000D01*
G01*
X89000000Y-107550000D01*
G75*
G02*
X89250000Y-107300000I250000J0D01*
G01*
X91250000Y-107300000D01*
G75*
G02*
X91500000Y-107550000I0J-250000D01*
G01*
X91500000Y-111050000D01*
G75*
G02*
X91250000Y-111300000I-250000J0D01*
G01*
G37*
%TD.AperFunction*%
%TO.P,C26,2*%
%TO.N,-12V*%
%TA.AperFunction,SMDPad,CuDef*%
G36*
G01*
X91250000Y-105200000D02*
X89250000Y-105200000D01*
G75*
G02*
X89000000Y-104950000I0J250000D01*
G01*
X89000000Y-101450000D01*
G75*
G02*
X89250000Y-101200000I250000J0D01*
G01*
X91250000Y-101200000D01*
G75*
G02*
X91500000Y-101450000I0J-250000D01*
G01*
X91500000Y-104950000D01*
G75*
G02*
X91250000Y-105200000I-250000J0D01*
G01*
G37*
%TD.AperFunction*%
%TD*%
%TO.P,C27,2*%
%TO.N,+12V*%
%TA.AperFunction,SMDPad,CuDef*%
G36*
G01*
X98099999Y-87650000D02*
X99400001Y-87650000D01*
G75*
G02*
X99650000Y-87899999I0J-249999D01*
G01*
X99650000Y-88550001D01*
G75*
G02*
X99400001Y-88800000I-249999J0D01*
G01*
X98099999Y-88800000D01*
G75*
G02*
X97850000Y-88550001I0J249999D01*
G01*
X97850000Y-87899999D01*
G75*
G02*
X98099999Y-87650000I249999J0D01*
G01*
G37*
%TD.AperFunction*%
%TO.P,C27,1*%
%TO.N,GND*%
%TA.AperFunction,SMDPad,CuDef*%
G36*
G01*
X98099999Y-84700000D02*
X99400001Y-84700000D01*
G75*
G02*
X99650000Y-84949999I0J-249999D01*
G01*
X99650000Y-85600001D01*
G75*
G02*
X99400001Y-85850000I-249999J0D01*
G01*
X98099999Y-85850000D01*
G75*
G02*
X97850000Y-85600001I0J249999D01*
G01*
X97850000Y-84949999D01*
G75*
G02*
X98099999Y-84700000I249999J0D01*
G01*
G37*
%TD.AperFunction*%
%TD*%
%TO.P,C28,2*%
%TO.N,GND*%
%TA.AperFunction,SMDPad,CuDef*%
G36*
G01*
X97050000Y-113775000D02*
X97050000Y-114725000D01*
G75*
G02*
X96800000Y-114975000I-250000J0D01*
G01*
X96300000Y-114975000D01*
G75*
G02*
X96050000Y-114725000I0J250000D01*
G01*
X96050000Y-113775000D01*
G75*
G02*
X96300000Y-113525000I250000J0D01*
G01*
X96800000Y-113525000D01*
G75*
G02*
X97050000Y-113775000I0J-250000D01*
G01*
G37*
%TD.AperFunction*%
%TO.P,C28,1*%
%TO.N,Net-(C28-Pad1)*%
%TA.AperFunction,SMDPad,CuDef*%
G36*
G01*
X98950000Y-113775000D02*
X98950000Y-114725000D01*
G75*
G02*
X98700000Y-114975000I-250000J0D01*
G01*
X98200000Y-114975000D01*
G75*
G02*
X97950000Y-114725000I0J250000D01*
G01*
X97950000Y-113775000D01*
G75*
G02*
X98200000Y-113525000I250000J0D01*
G01*
X98700000Y-113525000D01*
G75*
G02*
X98950000Y-113775000I0J-250000D01*
G01*
G37*
%TD.AperFunction*%
%TD*%
%TO.P,C29,1*%
%TO.N,-12V*%
%TA.AperFunction,SMDPad,CuDef*%
G36*
G01*
X98599999Y-102950000D02*
X99900001Y-102950000D01*
G75*
G02*
X100150000Y-103199999I0J-249999D01*
G01*
X100150000Y-103850001D01*
G75*
G02*
X99900001Y-104100000I-249999J0D01*
G01*
X98599999Y-104100000D01*
G75*
G02*
X98350000Y-103850001I0J249999D01*
G01*
X98350000Y-103199999D01*
G75*
G02*
X98599999Y-102950000I249999J0D01*
G01*
G37*
%TD.AperFunction*%
%TO.P,C29,2*%
%TO.N,GND*%
%TA.AperFunction,SMDPad,CuDef*%
G36*
G01*
X98599999Y-105900000D02*
X99900001Y-105900000D01*
G75*
G02*
X100150000Y-106149999I0J-249999D01*
G01*
X100150000Y-106800001D01*
G75*
G02*
X99900001Y-107050000I-249999J0D01*
G01*
X98599999Y-107050000D01*
G75*
G02*
X98350000Y-106800001I0J249999D01*
G01*
X98350000Y-106149999D01*
G75*
G02*
X98599999Y-105900000I249999J0D01*
G01*
G37*
%TD.AperFunction*%
%TD*%
%TO.P,C30,2*%
%TO.N,GND*%
%TA.AperFunction,SMDPad,CuDef*%
G36*
G01*
X95599999Y-105900000D02*
X96900001Y-105900000D01*
G75*
G02*
X97150000Y-106149999I0J-249999D01*
G01*
X97150000Y-106800001D01*
G75*
G02*
X96900001Y-107050000I-249999J0D01*
G01*
X95599999Y-107050000D01*
G75*
G02*
X95350000Y-106800001I0J249999D01*
G01*
X95350000Y-106149999D01*
G75*
G02*
X95599999Y-105900000I249999J0D01*
G01*
G37*
%TD.AperFunction*%
%TO.P,C30,1*%
%TO.N,-12V*%
%TA.AperFunction,SMDPad,CuDef*%
G36*
G01*
X95599999Y-102950000D02*
X96900001Y-102950000D01*
G75*
G02*
X97150000Y-103199999I0J-249999D01*
G01*
X97150000Y-103850001D01*
G75*
G02*
X96900001Y-104100000I-249999J0D01*
G01*
X95599999Y-104100000D01*
G75*
G02*
X95350000Y-103850001I0J249999D01*
G01*
X95350000Y-103199999D01*
G75*
G02*
X95599999Y-102950000I249999J0D01*
G01*
G37*
%TD.AperFunction*%
%TD*%
D12*
%TO.P,D1,2*%
%TO.N,Net-(D1-Pad2)*%
X113150000Y-77000000D03*
%TO.P,D1,1*%
%TO.N,Net-(D1-Pad1)*%
X109850000Y-77000000D03*
%TD*%
%TO.P,D2,1*%
%TO.N,Net-(C10-Pad2)*%
X118150000Y-77000000D03*
%TO.P,D2,2*%
%TO.N,Net-(D2-Pad2)*%
X114850000Y-77000000D03*
%TD*%
D13*
%TO.P,D3,2*%
%TO.N,/TRI+*%
X110800000Y-83750000D03*
%TO.P,D3,1*%
%TO.N,Net-(C3-Pad1)*%
X112200000Y-83750000D03*
%TD*%
%TO.P,D4,1*%
%TO.N,Net-(C3-Pad1)*%
X116050000Y-83750000D03*
%TO.P,D4,2*%
%TO.N,/TRI-*%
X117450000Y-83750000D03*
%TD*%
D12*
%TO.P,D5,1*%
%TO.N,Net-(C28-Pad1)*%
X98400000Y-111750000D03*
%TO.P,D5,2*%
%TO.N,GND*%
X95100000Y-111750000D03*
%TD*%
%TO.P,D6,2*%
%TO.N,Net-(D6-Pad2)*%
%TA.AperFunction,SMDPad,CuDef*%
G36*
G01*
X95625000Y-97225000D02*
X94375000Y-97225000D01*
G75*
G02*
X94125000Y-96975000I0J250000D01*
G01*
X94125000Y-96225000D01*
G75*
G02*
X94375000Y-95975000I250000J0D01*
G01*
X95625000Y-95975000D01*
G75*
G02*
X95875000Y-96225000I0J-250000D01*
G01*
X95875000Y-96975000D01*
G75*
G02*
X95625000Y-97225000I-250000J0D01*
G01*
G37*
%TD.AperFunction*%
%TO.P,D6,1*%
%TO.N,GND*%
%TA.AperFunction,SMDPad,CuDef*%
G36*
G01*
X95625000Y-100025000D02*
X94375000Y-100025000D01*
G75*
G02*
X94125000Y-99775000I0J250000D01*
G01*
X94125000Y-99025000D01*
G75*
G02*
X94375000Y-98775000I250000J0D01*
G01*
X95625000Y-98775000D01*
G75*
G02*
X95875000Y-99025000I0J-250000D01*
G01*
X95875000Y-99775000D01*
G75*
G02*
X95625000Y-100025000I-250000J0D01*
G01*
G37*
%TD.AperFunction*%
%TD*%
%TO.P,D7,1*%
%TO.N,-12V*%
%TA.AperFunction,SMDPad,CuDef*%
G36*
G01*
X99625000Y-100025000D02*
X98375000Y-100025000D01*
G75*
G02*
X98125000Y-99775000I0J250000D01*
G01*
X98125000Y-99025000D01*
G75*
G02*
X98375000Y-98775000I250000J0D01*
G01*
X99625000Y-98775000D01*
G75*
G02*
X99875000Y-99025000I0J-250000D01*
G01*
X99875000Y-99775000D01*
G75*
G02*
X99625000Y-100025000I-250000J0D01*
G01*
G37*
%TD.AperFunction*%
%TO.P,D7,2*%
%TO.N,Net-(D7-Pad2)*%
%TA.AperFunction,SMDPad,CuDef*%
G36*
G01*
X99625000Y-97225000D02*
X98375000Y-97225000D01*
G75*
G02*
X98125000Y-96975000I0J250000D01*
G01*
X98125000Y-96225000D01*
G75*
G02*
X98375000Y-95975000I250000J0D01*
G01*
X99625000Y-95975000D01*
G75*
G02*
X99875000Y-96225000I0J-250000D01*
G01*
X99875000Y-96975000D01*
G75*
G02*
X99625000Y-97225000I-250000J0D01*
G01*
G37*
%TD.AperFunction*%
%TD*%
D14*
%TO.P,H1,1*%
%TO.N,GND*%
X135000000Y-74750000D03*
D15*
X137400000Y-74750000D03*
X136697056Y-76447056D03*
X135000000Y-77150000D03*
X133302944Y-76447056D03*
X132600000Y-74750000D03*
X133302944Y-73052944D03*
X135000000Y-72350000D03*
X136697056Y-73052944D03*
%TD*%
%TO.P,H2,1*%
%TO.N,GND*%
X92947056Y-73302944D03*
X91250000Y-72600000D03*
X89552944Y-73302944D03*
X88850000Y-75000000D03*
X89552944Y-76697056D03*
X91250000Y-77400000D03*
X92947056Y-76697056D03*
X93650000Y-75000000D03*
D14*
X91250000Y-75000000D03*
%TD*%
%TO.P,H3,1*%
%TO.N,GND*%
X134750000Y-116500000D03*
D15*
X137150000Y-116500000D03*
X136447056Y-118197056D03*
X134750000Y-118900000D03*
X133052944Y-118197056D03*
X132350000Y-116500000D03*
X133052944Y-114802944D03*
X134750000Y-114100000D03*
X136447056Y-114802944D03*
%TD*%
%TO.P,H4,1*%
%TO.N,GND*%
X92697056Y-115802944D03*
X91000000Y-115100000D03*
X89302944Y-115802944D03*
X88600000Y-117500000D03*
X89302944Y-119197056D03*
X91000000Y-119900000D03*
X92697056Y-119197056D03*
X93400000Y-117500000D03*
D14*
X91250000Y-117500000D03*
%TD*%
D16*
%TO.P,J1,2*%
%TO.N,GND*%
X141750000Y-105710000D03*
%TO.P,J1,1*%
%TO.N,Net-(C5-Pad1)*%
X141750000Y-108250000D03*
D17*
%TO.P,J1,2*%
%TO.N,GND*%
X146830000Y-113330000D03*
X146830000Y-103170000D03*
%TD*%
%TO.P,J2,2*%
%TO.N,GND*%
X146830000Y-79170000D03*
X146830000Y-89330000D03*
D16*
%TO.P,J2,1*%
%TO.N,Net-(C6-Pad1)*%
X141750000Y-84250000D03*
%TO.P,J2,2*%
%TO.N,GND*%
X141750000Y-81710000D03*
%TD*%
D18*
%TO.P,J3,1*%
%TO.N,+12V*%
X90000000Y-93000000D03*
D19*
%TO.P,J3,2*%
%TO.N,GND*%
X90000000Y-95540000D03*
%TO.P,J3,3*%
%TO.N,-12V*%
X90000000Y-98080000D03*
%TD*%
D20*
%TO.P,Q1,1*%
%TO.N,Net-(Q1-Pad1)*%
X106050000Y-84250000D03*
%TO.P,Q1,2*%
%TO.N,Net-(Q1-Pad2)*%
X107950000Y-84250000D03*
%TO.P,Q1,3*%
%TO.N,Net-(Q1-Pad3)*%
X107000000Y-82250000D03*
%TD*%
%TO.P,Q2,1*%
%TO.N,Net-(Q2-Pad1)*%
X106050000Y-78250000D03*
%TO.P,Q2,2*%
%TO.N,/TRI+*%
X107950000Y-78250000D03*
%TO.P,Q2,3*%
%TO.N,Net-(D1-Pad1)*%
X107000000Y-76250000D03*
%TD*%
%TO.P,Q3,3*%
%TO.N,Net-(C10-Pad2)*%
X121000000Y-75750000D03*
%TO.P,Q3,2*%
%TO.N,/TRI-*%
X121950000Y-77750000D03*
%TO.P,Q3,1*%
%TO.N,Net-(Q3-Pad1)*%
X120050000Y-77750000D03*
%TD*%
%TO.P,Q4,3*%
%TO.N,Net-(Q4-Pad3)*%
X121000000Y-81750000D03*
%TO.P,Q4,2*%
%TO.N,Net-(Q4-Pad2)*%
X121950000Y-83750000D03*
%TO.P,Q4,1*%
%TO.N,Net-(Q4-Pad1)*%
X120050000Y-83750000D03*
%TD*%
%TO.P,Q5,1*%
%TO.N,Net-(Q5-Pad1)*%
X124450000Y-91250000D03*
%TO.P,Q5,2*%
%TO.N,Net-(Q5-Pad2)*%
X122550000Y-91250000D03*
%TO.P,Q5,3*%
%TO.N,Net-(C22-Pad1)*%
X123500000Y-93250000D03*
%TD*%
%TO.P,Q6,1*%
%TO.N,Net-(Q6-Pad1)*%
X106800000Y-95250000D03*
%TO.P,Q6,2*%
%TO.N,Net-(Q6-Pad2)*%
X108700000Y-95250000D03*
%TO.P,Q6,3*%
%TO.N,Net-(Q6-Pad3)*%
X107750000Y-93250000D03*
%TD*%
%TO.P,Q7,1*%
%TO.N,Net-(Q7-Pad1)*%
X110800000Y-103750000D03*
%TO.P,Q7,2*%
%TO.N,Net-(Q7-Pad2)*%
X112700000Y-103750000D03*
%TO.P,Q7,3*%
%TO.N,Net-(Q7-Pad3)*%
X111750000Y-101750000D03*
%TD*%
%TO.P,Q8,3*%
%TO.N,Net-(C24-Pad2)*%
X111750000Y-93250000D03*
%TO.P,Q8,2*%
%TO.N,Net-(Q8-Pad2)*%
X112700000Y-95250000D03*
%TO.P,Q8,1*%
%TO.N,Net-(Q8-Pad1)*%
X110800000Y-95250000D03*
%TD*%
%TO.P,Q9,3*%
%TO.N,Net-(Q9-Pad3)*%
X128000000Y-104250000D03*
%TO.P,Q9,2*%
%TO.N,Net-(Q9-Pad2)*%
X128950000Y-106250000D03*
%TO.P,Q9,1*%
%TO.N,Net-(Q9-Pad1)*%
X127050000Y-106250000D03*
%TD*%
%TO.P,R1,2*%
%TO.N,GND*%
%TA.AperFunction,SMDPad,CuDef*%
G36*
G01*
X100799999Y-83650000D02*
X101700001Y-83650000D01*
G75*
G02*
X101950000Y-83899999I0J-249999D01*
G01*
X101950000Y-84425001D01*
G75*
G02*
X101700001Y-84675000I-249999J0D01*
G01*
X100799999Y-84675000D01*
G75*
G02*
X100550000Y-84425001I0J249999D01*
G01*
X100550000Y-83899999D01*
G75*
G02*
X100799999Y-83650000I249999J0D01*
G01*
G37*
%TD.AperFunction*%
%TO.P,R1,1*%
%TO.N,Net-(C1-Pad1)*%
%TA.AperFunction,SMDPad,CuDef*%
G36*
G01*
X100799999Y-81825000D02*
X101700001Y-81825000D01*
G75*
G02*
X101950000Y-82074999I0J-249999D01*
G01*
X101950000Y-82600001D01*
G75*
G02*
X101700001Y-82850000I-249999J0D01*
G01*
X100799999Y-82850000D01*
G75*
G02*
X100550000Y-82600001I0J249999D01*
G01*
X100550000Y-82074999D01*
G75*
G02*
X100799999Y-81825000I249999J0D01*
G01*
G37*
%TD.AperFunction*%
%TD*%
%TO.P,R2,1*%
%TO.N,-12V*%
%TA.AperFunction,SMDPad,CuDef*%
G36*
G01*
X100799999Y-77825000D02*
X101700001Y-77825000D01*
G75*
G02*
X101950000Y-78074999I0J-249999D01*
G01*
X101950000Y-78600001D01*
G75*
G02*
X101700001Y-78850000I-249999J0D01*
G01*
X100799999Y-78850000D01*
G75*
G02*
X100550000Y-78600001I0J249999D01*
G01*
X100550000Y-78074999D01*
G75*
G02*
X100799999Y-77825000I249999J0D01*
G01*
G37*
%TD.AperFunction*%
%TO.P,R2,2*%
%TO.N,Net-(C1-Pad1)*%
%TA.AperFunction,SMDPad,CuDef*%
G36*
G01*
X100799999Y-79650000D02*
X101700001Y-79650000D01*
G75*
G02*
X101950000Y-79899999I0J-249999D01*
G01*
X101950000Y-80425001D01*
G75*
G02*
X101700001Y-80675000I-249999J0D01*
G01*
X100799999Y-80675000D01*
G75*
G02*
X100550000Y-80425001I0J249999D01*
G01*
X100550000Y-79899999D01*
G75*
G02*
X100799999Y-79650000I249999J0D01*
G01*
G37*
%TD.AperFunction*%
%TD*%
%TO.P,R3,1*%
%TO.N,Net-(Q1-Pad1)*%
%TA.AperFunction,SMDPad,CuDef*%
G36*
G01*
X103950001Y-84675000D02*
X103049999Y-84675000D01*
G75*
G02*
X102800000Y-84425001I0J249999D01*
G01*
X102800000Y-83899999D01*
G75*
G02*
X103049999Y-83650000I249999J0D01*
G01*
X103950001Y-83650000D01*
G75*
G02*
X104200000Y-83899999I0J-249999D01*
G01*
X104200000Y-84425001D01*
G75*
G02*
X103950001Y-84675000I-249999J0D01*
G01*
G37*
%TD.AperFunction*%
%TO.P,R3,2*%
%TO.N,Net-(C1-Pad1)*%
%TA.AperFunction,SMDPad,CuDef*%
G36*
G01*
X103950001Y-82850000D02*
X103049999Y-82850000D01*
G75*
G02*
X102800000Y-82600001I0J249999D01*
G01*
X102800000Y-82074999D01*
G75*
G02*
X103049999Y-81825000I249999J0D01*
G01*
X103950001Y-81825000D01*
G75*
G02*
X104200000Y-82074999I0J-249999D01*
G01*
X104200000Y-82600001D01*
G75*
G02*
X103950001Y-82850000I-249999J0D01*
G01*
G37*
%TD.AperFunction*%
%TD*%
%TO.P,R4,1*%
%TO.N,Net-(C2-Pad1)*%
%TA.AperFunction,SMDPad,CuDef*%
G36*
G01*
X109175000Y-99049999D02*
X109175000Y-99950001D01*
G75*
G02*
X108925001Y-100200000I-249999J0D01*
G01*
X108399999Y-100200000D01*
G75*
G02*
X108150000Y-99950001I0J249999D01*
G01*
X108150000Y-99049999D01*
G75*
G02*
X108399999Y-98800000I249999J0D01*
G01*
X108925001Y-98800000D01*
G75*
G02*
X109175000Y-99049999I0J-249999D01*
G01*
G37*
%TD.AperFunction*%
%TO.P,R4,2*%
%TO.N,GND*%
%TA.AperFunction,SMDPad,CuDef*%
G36*
G01*
X107350000Y-99049999D02*
X107350000Y-99950001D01*
G75*
G02*
X107100001Y-100200000I-249999J0D01*
G01*
X106574999Y-100200000D01*
G75*
G02*
X106325000Y-99950001I0J249999D01*
G01*
X106325000Y-99049999D01*
G75*
G02*
X106574999Y-98800000I249999J0D01*
G01*
X107100001Y-98800000D01*
G75*
G02*
X107350000Y-99049999I0J-249999D01*
G01*
G37*
%TD.AperFunction*%
%TD*%
%TO.P,R5,2*%
%TO.N,Net-(C2-Pad1)*%
%TA.AperFunction,SMDPad,CuDef*%
G36*
G01*
X108150000Y-102450001D02*
X108150000Y-101549999D01*
G75*
G02*
X108399999Y-101300000I249999J0D01*
G01*
X108925001Y-101300000D01*
G75*
G02*
X109175000Y-101549999I0J-249999D01*
G01*
X109175000Y-102450001D01*
G75*
G02*
X108925001Y-102700000I-249999J0D01*
G01*
X108399999Y-102700000D01*
G75*
G02*
X108150000Y-102450001I0J249999D01*
G01*
G37*
%TD.AperFunction*%
%TO.P,R5,1*%
%TO.N,-12V*%
%TA.AperFunction,SMDPad,CuDef*%
G36*
G01*
X106325000Y-102450001D02*
X106325000Y-101549999D01*
G75*
G02*
X106574999Y-101300000I249999J0D01*
G01*
X107100001Y-101300000D01*
G75*
G02*
X107350000Y-101549999I0J-249999D01*
G01*
X107350000Y-102450001D01*
G75*
G02*
X107100001Y-102700000I-249999J0D01*
G01*
X106574999Y-102700000D01*
G75*
G02*
X106325000Y-102450001I0J249999D01*
G01*
G37*
%TD.AperFunction*%
%TD*%
%TO.P,R6,2*%
%TO.N,Net-(D1-Pad1)*%
%TA.AperFunction,SMDPad,CuDef*%
G36*
G01*
X107400000Y-74700001D02*
X107400000Y-73799999D01*
G75*
G02*
X107649999Y-73550000I249999J0D01*
G01*
X108175001Y-73550000D01*
G75*
G02*
X108425000Y-73799999I0J-249999D01*
G01*
X108425000Y-74700001D01*
G75*
G02*
X108175001Y-74950000I-249999J0D01*
G01*
X107649999Y-74950000D01*
G75*
G02*
X107400000Y-74700001I0J249999D01*
G01*
G37*
%TD.AperFunction*%
%TO.P,R6,1*%
%TO.N,+12V*%
%TA.AperFunction,SMDPad,CuDef*%
G36*
G01*
X105575000Y-74700001D02*
X105575000Y-73799999D01*
G75*
G02*
X105824999Y-73550000I249999J0D01*
G01*
X106350001Y-73550000D01*
G75*
G02*
X106600000Y-73799999I0J-249999D01*
G01*
X106600000Y-74700001D01*
G75*
G02*
X106350001Y-74950000I-249999J0D01*
G01*
X105824999Y-74950000D01*
G75*
G02*
X105575000Y-74700001I0J249999D01*
G01*
G37*
%TD.AperFunction*%
%TD*%
%TO.P,R7,2*%
%TO.N,Net-(Q1-Pad3)*%
%TA.AperFunction,SMDPad,CuDef*%
G36*
G01*
X106600000Y-79799999D02*
X106600000Y-80700001D01*
G75*
G02*
X106350001Y-80950000I-249999J0D01*
G01*
X105824999Y-80950000D01*
G75*
G02*
X105575000Y-80700001I0J249999D01*
G01*
X105575000Y-79799999D01*
G75*
G02*
X105824999Y-79550000I249999J0D01*
G01*
X106350001Y-79550000D01*
G75*
G02*
X106600000Y-79799999I0J-249999D01*
G01*
G37*
%TD.AperFunction*%
%TO.P,R7,1*%
%TO.N,/TRI+*%
%TA.AperFunction,SMDPad,CuDef*%
G36*
G01*
X108425000Y-79799999D02*
X108425000Y-80700001D01*
G75*
G02*
X108175001Y-80950000I-249999J0D01*
G01*
X107649999Y-80950000D01*
G75*
G02*
X107400000Y-80700001I0J249999D01*
G01*
X107400000Y-79799999D01*
G75*
G02*
X107649999Y-79550000I249999J0D01*
G01*
X108175001Y-79550000D01*
G75*
G02*
X108425000Y-79799999I0J-249999D01*
G01*
G37*
%TD.AperFunction*%
%TD*%
%TO.P,R8,1*%
%TO.N,-12V*%
%TA.AperFunction,SMDPad,CuDef*%
G36*
G01*
X105575000Y-86700001D02*
X105575000Y-85799999D01*
G75*
G02*
X105824999Y-85550000I249999J0D01*
G01*
X106350001Y-85550000D01*
G75*
G02*
X106600000Y-85799999I0J-249999D01*
G01*
X106600000Y-86700001D01*
G75*
G02*
X106350001Y-86950000I-249999J0D01*
G01*
X105824999Y-86950000D01*
G75*
G02*
X105575000Y-86700001I0J249999D01*
G01*
G37*
%TD.AperFunction*%
%TO.P,R8,2*%
%TO.N,Net-(Q1-Pad2)*%
%TA.AperFunction,SMDPad,CuDef*%
G36*
G01*
X107400000Y-86700001D02*
X107400000Y-85799999D01*
G75*
G02*
X107649999Y-85550000I249999J0D01*
G01*
X108175001Y-85550000D01*
G75*
G02*
X108425000Y-85799999I0J-249999D01*
G01*
X108425000Y-86700001D01*
G75*
G02*
X108175001Y-86950000I-249999J0D01*
G01*
X107649999Y-86950000D01*
G75*
G02*
X107400000Y-86700001I0J249999D01*
G01*
G37*
%TD.AperFunction*%
%TD*%
%TO.P,R9,2*%
%TO.N,/TRI+*%
%TA.AperFunction,SMDPad,CuDef*%
G36*
G01*
X104950001Y-93850000D02*
X104049999Y-93850000D01*
G75*
G02*
X103800000Y-93600001I0J249999D01*
G01*
X103800000Y-93074999D01*
G75*
G02*
X104049999Y-92825000I249999J0D01*
G01*
X104950001Y-92825000D01*
G75*
G02*
X105200000Y-93074999I0J-249999D01*
G01*
X105200000Y-93600001D01*
G75*
G02*
X104950001Y-93850000I-249999J0D01*
G01*
G37*
%TD.AperFunction*%
%TO.P,R9,1*%
%TO.N,Net-(Q6-Pad1)*%
%TA.AperFunction,SMDPad,CuDef*%
G36*
G01*
X104950001Y-95675000D02*
X104049999Y-95675000D01*
G75*
G02*
X103800000Y-95425001I0J249999D01*
G01*
X103800000Y-94899999D01*
G75*
G02*
X104049999Y-94650000I249999J0D01*
G01*
X104950001Y-94650000D01*
G75*
G02*
X105200000Y-94899999I0J-249999D01*
G01*
X105200000Y-95425001D01*
G75*
G02*
X104950001Y-95675000I-249999J0D01*
G01*
G37*
%TD.AperFunction*%
%TD*%
%TO.P,R10,2*%
%TO.N,Net-(Q2-Pad1)*%
%TA.AperFunction,SMDPad,CuDef*%
G36*
G01*
X111350000Y-79049999D02*
X111350000Y-79950001D01*
G75*
G02*
X111100001Y-80200000I-249999J0D01*
G01*
X110574999Y-80200000D01*
G75*
G02*
X110325000Y-79950001I0J249999D01*
G01*
X110325000Y-79049999D01*
G75*
G02*
X110574999Y-78800000I249999J0D01*
G01*
X111100001Y-78800000D01*
G75*
G02*
X111350000Y-79049999I0J-249999D01*
G01*
G37*
%TD.AperFunction*%
%TO.P,R10,1*%
%TO.N,Net-(D2-Pad2)*%
%TA.AperFunction,SMDPad,CuDef*%
G36*
G01*
X113175000Y-79049999D02*
X113175000Y-79950001D01*
G75*
G02*
X112925001Y-80200000I-249999J0D01*
G01*
X112399999Y-80200000D01*
G75*
G02*
X112150000Y-79950001I0J249999D01*
G01*
X112150000Y-79049999D01*
G75*
G02*
X112399999Y-78800000I249999J0D01*
G01*
X112925001Y-78800000D01*
G75*
G02*
X113175000Y-79049999I0J-249999D01*
G01*
G37*
%TD.AperFunction*%
%TD*%
%TO.P,R11,1*%
%TO.N,Net-(Q6-Pad3)*%
%TA.AperFunction,SMDPad,CuDef*%
G36*
G01*
X108200001Y-91675000D02*
X107299999Y-91675000D01*
G75*
G02*
X107050000Y-91425001I0J249999D01*
G01*
X107050000Y-90899999D01*
G75*
G02*
X107299999Y-90650000I249999J0D01*
G01*
X108200001Y-90650000D01*
G75*
G02*
X108450000Y-90899999I0J-249999D01*
G01*
X108450000Y-91425001D01*
G75*
G02*
X108200001Y-91675000I-249999J0D01*
G01*
G37*
%TD.AperFunction*%
%TO.P,R11,2*%
%TO.N,+12V*%
%TA.AperFunction,SMDPad,CuDef*%
G36*
G01*
X108200001Y-89850000D02*
X107299999Y-89850000D01*
G75*
G02*
X107050000Y-89600001I0J249999D01*
G01*
X107050000Y-89074999D01*
G75*
G02*
X107299999Y-88825000I249999J0D01*
G01*
X108200001Y-88825000D01*
G75*
G02*
X108450000Y-89074999I0J-249999D01*
G01*
X108450000Y-89600001D01*
G75*
G02*
X108200001Y-89850000I-249999J0D01*
G01*
G37*
%TD.AperFunction*%
%TD*%
%TO.P,R12,1*%
%TO.N,Net-(Q7-Pad1)*%
%TA.AperFunction,SMDPad,CuDef*%
G36*
G01*
X109175000Y-106549999D02*
X109175000Y-107450001D01*
G75*
G02*
X108925001Y-107700000I-249999J0D01*
G01*
X108399999Y-107700000D01*
G75*
G02*
X108150000Y-107450001I0J249999D01*
G01*
X108150000Y-106549999D01*
G75*
G02*
X108399999Y-106300000I249999J0D01*
G01*
X108925001Y-106300000D01*
G75*
G02*
X109175000Y-106549999I0J-249999D01*
G01*
G37*
%TD.AperFunction*%
%TO.P,R12,2*%
%TO.N,Net-(C2-Pad1)*%
%TA.AperFunction,SMDPad,CuDef*%
G36*
G01*
X107350000Y-106549999D02*
X107350000Y-107450001D01*
G75*
G02*
X107100001Y-107700000I-249999J0D01*
G01*
X106574999Y-107700000D01*
G75*
G02*
X106325000Y-107450001I0J249999D01*
G01*
X106325000Y-106549999D01*
G75*
G02*
X106574999Y-106300000I249999J0D01*
G01*
X107100001Y-106300000D01*
G75*
G02*
X107350000Y-106549999I0J-249999D01*
G01*
G37*
%TD.AperFunction*%
%TD*%
%TO.P,R13,1*%
%TO.N,-12V*%
%TA.AperFunction,SMDPad,CuDef*%
G36*
G01*
X113425000Y-74049999D02*
X113425000Y-74950001D01*
G75*
G02*
X113175001Y-75200000I-249999J0D01*
G01*
X112649999Y-75200000D01*
G75*
G02*
X112400000Y-74950001I0J249999D01*
G01*
X112400000Y-74049999D01*
G75*
G02*
X112649999Y-73800000I249999J0D01*
G01*
X113175001Y-73800000D01*
G75*
G02*
X113425000Y-74049999I0J-249999D01*
G01*
G37*
%TD.AperFunction*%
%TO.P,R13,2*%
%TO.N,Net-(D1-Pad2)*%
%TA.AperFunction,SMDPad,CuDef*%
G36*
G01*
X111600000Y-74049999D02*
X111600000Y-74950001D01*
G75*
G02*
X111350001Y-75200000I-249999J0D01*
G01*
X110824999Y-75200000D01*
G75*
G02*
X110575000Y-74950001I0J249999D01*
G01*
X110575000Y-74049999D01*
G75*
G02*
X110824999Y-73800000I249999J0D01*
G01*
X111350001Y-73800000D01*
G75*
G02*
X111600000Y-74049999I0J-249999D01*
G01*
G37*
%TD.AperFunction*%
%TD*%
%TO.P,R14,1*%
%TO.N,Net-(R14-Pad1)*%
%TA.AperFunction,SMDPad,CuDef*%
G36*
G01*
X109175000Y-96799999D02*
X109175000Y-97700001D01*
G75*
G02*
X108925001Y-97950000I-249999J0D01*
G01*
X108399999Y-97950000D01*
G75*
G02*
X108150000Y-97700001I0J249999D01*
G01*
X108150000Y-96799999D01*
G75*
G02*
X108399999Y-96550000I249999J0D01*
G01*
X108925001Y-96550000D01*
G75*
G02*
X109175000Y-96799999I0J-249999D01*
G01*
G37*
%TD.AperFunction*%
%TO.P,R14,2*%
%TO.N,Net-(Q6-Pad2)*%
%TA.AperFunction,SMDPad,CuDef*%
G36*
G01*
X107350000Y-96799999D02*
X107350000Y-97700001D01*
G75*
G02*
X107100001Y-97950000I-249999J0D01*
G01*
X106574999Y-97950000D01*
G75*
G02*
X106325000Y-97700001I0J249999D01*
G01*
X106325000Y-96799999D01*
G75*
G02*
X106574999Y-96550000I249999J0D01*
G01*
X107100001Y-96550000D01*
G75*
G02*
X107350000Y-96799999I0J-249999D01*
G01*
G37*
%TD.AperFunction*%
%TD*%
%TO.P,R15,1*%
%TO.N,Net-(R14-Pad1)*%
%TA.AperFunction,SMDPad,CuDef*%
G36*
G01*
X110325000Y-99950001D02*
X110325000Y-99049999D01*
G75*
G02*
X110574999Y-98800000I249999J0D01*
G01*
X111100001Y-98800000D01*
G75*
G02*
X111350000Y-99049999I0J-249999D01*
G01*
X111350000Y-99950001D01*
G75*
G02*
X111100001Y-100200000I-249999J0D01*
G01*
X110574999Y-100200000D01*
G75*
G02*
X110325000Y-99950001I0J249999D01*
G01*
G37*
%TD.AperFunction*%
%TO.P,R15,2*%
%TO.N,Net-(Q7-Pad3)*%
%TA.AperFunction,SMDPad,CuDef*%
G36*
G01*
X112150000Y-99950001D02*
X112150000Y-99049999D01*
G75*
G02*
X112399999Y-98800000I249999J0D01*
G01*
X112925001Y-98800000D01*
G75*
G02*
X113175000Y-99049999I0J-249999D01*
G01*
X113175000Y-99950001D01*
G75*
G02*
X112925001Y-100200000I-249999J0D01*
G01*
X112399999Y-100200000D01*
G75*
G02*
X112150000Y-99950001I0J249999D01*
G01*
G37*
%TD.AperFunction*%
%TD*%
%TO.P,R16,2*%
%TO.N,Net-(Q7-Pad2)*%
%TA.AperFunction,SMDPad,CuDef*%
G36*
G01*
X112150000Y-107450001D02*
X112150000Y-106549999D01*
G75*
G02*
X112399999Y-106300000I249999J0D01*
G01*
X112925001Y-106300000D01*
G75*
G02*
X113175000Y-106549999I0J-249999D01*
G01*
X113175000Y-107450001D01*
G75*
G02*
X112925001Y-107700000I-249999J0D01*
G01*
X112399999Y-107700000D01*
G75*
G02*
X112150000Y-107450001I0J249999D01*
G01*
G37*
%TD.AperFunction*%
%TO.P,R16,1*%
%TO.N,-12V*%
%TA.AperFunction,SMDPad,CuDef*%
G36*
G01*
X110325000Y-107450001D02*
X110325000Y-106549999D01*
G75*
G02*
X110574999Y-106300000I249999J0D01*
G01*
X111100001Y-106300000D01*
G75*
G02*
X111350000Y-106549999I0J-249999D01*
G01*
X111350000Y-107450001D01*
G75*
G02*
X111100001Y-107700000I-249999J0D01*
G01*
X110574999Y-107700000D01*
G75*
G02*
X110325000Y-107450001I0J249999D01*
G01*
G37*
%TD.AperFunction*%
%TD*%
%TO.P,R17,2*%
%TO.N,Net-(D2-Pad2)*%
%TA.AperFunction,SMDPad,CuDef*%
G36*
G01*
X116400000Y-74950001D02*
X116400000Y-74049999D01*
G75*
G02*
X116649999Y-73800000I249999J0D01*
G01*
X117175001Y-73800000D01*
G75*
G02*
X117425000Y-74049999I0J-249999D01*
G01*
X117425000Y-74950001D01*
G75*
G02*
X117175001Y-75200000I-249999J0D01*
G01*
X116649999Y-75200000D01*
G75*
G02*
X116400000Y-74950001I0J249999D01*
G01*
G37*
%TD.AperFunction*%
%TO.P,R17,1*%
%TO.N,-12V*%
%TA.AperFunction,SMDPad,CuDef*%
G36*
G01*
X114575000Y-74950001D02*
X114575000Y-74049999D01*
G75*
G02*
X114824999Y-73800000I249999J0D01*
G01*
X115350001Y-73800000D01*
G75*
G02*
X115600000Y-74049999I0J-249999D01*
G01*
X115600000Y-74950001D01*
G75*
G02*
X115350001Y-75200000I-249999J0D01*
G01*
X114824999Y-75200000D01*
G75*
G02*
X114575000Y-74950001I0J249999D01*
G01*
G37*
%TD.AperFunction*%
%TD*%
%TO.P,R18,2*%
%TO.N,Net-(R14-Pad1)*%
%TA.AperFunction,SMDPad,CuDef*%
G36*
G01*
X111350000Y-96799999D02*
X111350000Y-97700001D01*
G75*
G02*
X111100001Y-97950000I-249999J0D01*
G01*
X110574999Y-97950000D01*
G75*
G02*
X110325000Y-97700001I0J249999D01*
G01*
X110325000Y-96799999D01*
G75*
G02*
X110574999Y-96550000I249999J0D01*
G01*
X111100001Y-96550000D01*
G75*
G02*
X111350000Y-96799999I0J-249999D01*
G01*
G37*
%TD.AperFunction*%
%TO.P,R18,1*%
%TO.N,Net-(Q8-Pad2)*%
%TA.AperFunction,SMDPad,CuDef*%
G36*
G01*
X113175000Y-96799999D02*
X113175000Y-97700001D01*
G75*
G02*
X112925001Y-97950000I-249999J0D01*
G01*
X112399999Y-97950000D01*
G75*
G02*
X112150000Y-97700001I0J249999D01*
G01*
X112150000Y-96799999D01*
G75*
G02*
X112399999Y-96550000I249999J0D01*
G01*
X112925001Y-96550000D01*
G75*
G02*
X113175000Y-96799999I0J-249999D01*
G01*
G37*
%TD.AperFunction*%
%TD*%
%TO.P,R19,2*%
%TO.N,Net-(D1-Pad2)*%
%TA.AperFunction,SMDPad,CuDef*%
G36*
G01*
X115850000Y-79049999D02*
X115850000Y-79950001D01*
G75*
G02*
X115600001Y-80200000I-249999J0D01*
G01*
X115074999Y-80200000D01*
G75*
G02*
X114825000Y-79950001I0J249999D01*
G01*
X114825000Y-79049999D01*
G75*
G02*
X115074999Y-78800000I249999J0D01*
G01*
X115600001Y-78800000D01*
G75*
G02*
X115850000Y-79049999I0J-249999D01*
G01*
G37*
%TD.AperFunction*%
%TO.P,R19,1*%
%TO.N,Net-(Q3-Pad1)*%
%TA.AperFunction,SMDPad,CuDef*%
G36*
G01*
X117675000Y-79049999D02*
X117675000Y-79950001D01*
G75*
G02*
X117425001Y-80200000I-249999J0D01*
G01*
X116899999Y-80200000D01*
G75*
G02*
X116650000Y-79950001I0J249999D01*
G01*
X116650000Y-79049999D01*
G75*
G02*
X116899999Y-78800000I249999J0D01*
G01*
X117425001Y-78800000D01*
G75*
G02*
X117675000Y-79049999I0J-249999D01*
G01*
G37*
%TD.AperFunction*%
%TD*%
%TO.P,R20,1*%
%TO.N,Net-(C24-Pad2)*%
%TA.AperFunction,SMDPad,CuDef*%
G36*
G01*
X112950001Y-91675000D02*
X112049999Y-91675000D01*
G75*
G02*
X111800000Y-91425001I0J249999D01*
G01*
X111800000Y-90899999D01*
G75*
G02*
X112049999Y-90650000I249999J0D01*
G01*
X112950001Y-90650000D01*
G75*
G02*
X113200000Y-90899999I0J-249999D01*
G01*
X113200000Y-91425001D01*
G75*
G02*
X112950001Y-91675000I-249999J0D01*
G01*
G37*
%TD.AperFunction*%
%TO.P,R20,2*%
%TO.N,+12V*%
%TA.AperFunction,SMDPad,CuDef*%
G36*
G01*
X112950001Y-89850000D02*
X112049999Y-89850000D01*
G75*
G02*
X111800000Y-89600001I0J249999D01*
G01*
X111800000Y-89074999D01*
G75*
G02*
X112049999Y-88825000I249999J0D01*
G01*
X112950001Y-88825000D01*
G75*
G02*
X113200000Y-89074999I0J-249999D01*
G01*
X113200000Y-89600001D01*
G75*
G02*
X112950001Y-89850000I-249999J0D01*
G01*
G37*
%TD.AperFunction*%
%TD*%
%TO.P,R21,2*%
%TO.N,Net-(C10-Pad2)*%
%TA.AperFunction,SMDPad,CuDef*%
G36*
G01*
X121400000Y-74200001D02*
X121400000Y-73299999D01*
G75*
G02*
X121649999Y-73050000I249999J0D01*
G01*
X122175001Y-73050000D01*
G75*
G02*
X122425000Y-73299999I0J-249999D01*
G01*
X122425000Y-74200001D01*
G75*
G02*
X122175001Y-74450000I-249999J0D01*
G01*
X121649999Y-74450000D01*
G75*
G02*
X121400000Y-74200001I0J249999D01*
G01*
G37*
%TD.AperFunction*%
%TO.P,R21,1*%
%TO.N,+12V*%
%TA.AperFunction,SMDPad,CuDef*%
G36*
G01*
X119575000Y-74200001D02*
X119575000Y-73299999D01*
G75*
G02*
X119824999Y-73050000I249999J0D01*
G01*
X120350001Y-73050000D01*
G75*
G02*
X120600000Y-73299999I0J-249999D01*
G01*
X120600000Y-74200001D01*
G75*
G02*
X120350001Y-74450000I-249999J0D01*
G01*
X119824999Y-74450000D01*
G75*
G02*
X119575000Y-74200001I0J249999D01*
G01*
G37*
%TD.AperFunction*%
%TD*%
%TO.P,R22,1*%
%TO.N,/TRI-*%
%TA.AperFunction,SMDPad,CuDef*%
G36*
G01*
X119575000Y-80200001D02*
X119575000Y-79299999D01*
G75*
G02*
X119824999Y-79050000I249999J0D01*
G01*
X120350001Y-79050000D01*
G75*
G02*
X120600000Y-79299999I0J-249999D01*
G01*
X120600000Y-80200001D01*
G75*
G02*
X120350001Y-80450000I-249999J0D01*
G01*
X119824999Y-80450000D01*
G75*
G02*
X119575000Y-80200001I0J249999D01*
G01*
G37*
%TD.AperFunction*%
%TO.P,R22,2*%
%TO.N,Net-(Q4-Pad3)*%
%TA.AperFunction,SMDPad,CuDef*%
G36*
G01*
X121400000Y-80200001D02*
X121400000Y-79299999D01*
G75*
G02*
X121649999Y-79050000I249999J0D01*
G01*
X122175001Y-79050000D01*
G75*
G02*
X122425000Y-79299999I0J-249999D01*
G01*
X122425000Y-80200001D01*
G75*
G02*
X122175001Y-80450000I-249999J0D01*
G01*
X121649999Y-80450000D01*
G75*
G02*
X121400000Y-80200001I0J249999D01*
G01*
G37*
%TD.AperFunction*%
%TD*%
%TO.P,R23,1*%
%TO.N,-12V*%
%TA.AperFunction,SMDPad,CuDef*%
G36*
G01*
X122425000Y-85299999D02*
X122425000Y-86200001D01*
G75*
G02*
X122175001Y-86450000I-249999J0D01*
G01*
X121649999Y-86450000D01*
G75*
G02*
X121400000Y-86200001I0J249999D01*
G01*
X121400000Y-85299999D01*
G75*
G02*
X121649999Y-85050000I249999J0D01*
G01*
X122175001Y-85050000D01*
G75*
G02*
X122425000Y-85299999I0J-249999D01*
G01*
G37*
%TD.AperFunction*%
%TO.P,R23,2*%
%TO.N,Net-(Q4-Pad2)*%
%TA.AperFunction,SMDPad,CuDef*%
G36*
G01*
X120600000Y-85299999D02*
X120600000Y-86200001D01*
G75*
G02*
X120350001Y-86450000I-249999J0D01*
G01*
X119824999Y-86450000D01*
G75*
G02*
X119575000Y-86200001I0J249999D01*
G01*
X119575000Y-85299999D01*
G75*
G02*
X119824999Y-85050000I249999J0D01*
G01*
X120350001Y-85050000D01*
G75*
G02*
X120600000Y-85299999I0J-249999D01*
G01*
G37*
%TD.AperFunction*%
%TD*%
%TO.P,R24,1*%
%TO.N,/TRI-*%
%TA.AperFunction,SMDPad,CuDef*%
G36*
G01*
X114549999Y-92825000D02*
X115450001Y-92825000D01*
G75*
G02*
X115700000Y-93074999I0J-249999D01*
G01*
X115700000Y-93600001D01*
G75*
G02*
X115450001Y-93850000I-249999J0D01*
G01*
X114549999Y-93850000D01*
G75*
G02*
X114300000Y-93600001I0J249999D01*
G01*
X114300000Y-93074999D01*
G75*
G02*
X114549999Y-92825000I249999J0D01*
G01*
G37*
%TD.AperFunction*%
%TO.P,R24,2*%
%TO.N,Net-(Q8-Pad1)*%
%TA.AperFunction,SMDPad,CuDef*%
G36*
G01*
X114549999Y-94650000D02*
X115450001Y-94650000D01*
G75*
G02*
X115700000Y-94899999I0J-249999D01*
G01*
X115700000Y-95425001D01*
G75*
G02*
X115450001Y-95675000I-249999J0D01*
G01*
X114549999Y-95675000D01*
G75*
G02*
X114300000Y-95425001I0J249999D01*
G01*
X114300000Y-94899999D01*
G75*
G02*
X114549999Y-94650000I249999J0D01*
G01*
G37*
%TD.AperFunction*%
%TD*%
%TO.P,R25,1*%
%TO.N,Net-(C4-Pad1)*%
%TA.AperFunction,SMDPad,CuDef*%
G36*
G01*
X128200001Y-82425000D02*
X127299999Y-82425000D01*
G75*
G02*
X127050000Y-82175001I0J249999D01*
G01*
X127050000Y-81649999D01*
G75*
G02*
X127299999Y-81400000I249999J0D01*
G01*
X128200001Y-81400000D01*
G75*
G02*
X128450000Y-81649999I0J-249999D01*
G01*
X128450000Y-82175001D01*
G75*
G02*
X128200001Y-82425000I-249999J0D01*
G01*
G37*
%TD.AperFunction*%
%TO.P,R25,2*%
%TO.N,Net-(Q4-Pad1)*%
%TA.AperFunction,SMDPad,CuDef*%
G36*
G01*
X128200001Y-80600000D02*
X127299999Y-80600000D01*
G75*
G02*
X127050000Y-80350001I0J249999D01*
G01*
X127050000Y-79824999D01*
G75*
G02*
X127299999Y-79575000I249999J0D01*
G01*
X128200001Y-79575000D01*
G75*
G02*
X128450000Y-79824999I0J-249999D01*
G01*
X128450000Y-80350001D01*
G75*
G02*
X128200001Y-80600000I-249999J0D01*
G01*
G37*
%TD.AperFunction*%
%TD*%
%TO.P,R26,2*%
%TO.N,GND*%
%TA.AperFunction,SMDPad,CuDef*%
G36*
G01*
X130450001Y-80600000D02*
X129549999Y-80600000D01*
G75*
G02*
X129300000Y-80350001I0J249999D01*
G01*
X129300000Y-79824999D01*
G75*
G02*
X129549999Y-79575000I249999J0D01*
G01*
X130450001Y-79575000D01*
G75*
G02*
X130700000Y-79824999I0J-249999D01*
G01*
X130700000Y-80350001D01*
G75*
G02*
X130450001Y-80600000I-249999J0D01*
G01*
G37*
%TD.AperFunction*%
%TO.P,R26,1*%
%TO.N,Net-(C4-Pad1)*%
%TA.AperFunction,SMDPad,CuDef*%
G36*
G01*
X130450001Y-82425000D02*
X129549999Y-82425000D01*
G75*
G02*
X129300000Y-82175001I0J249999D01*
G01*
X129300000Y-81649999D01*
G75*
G02*
X129549999Y-81400000I249999J0D01*
G01*
X130450001Y-81400000D01*
G75*
G02*
X130700000Y-81649999I0J-249999D01*
G01*
X130700000Y-82175001D01*
G75*
G02*
X130450001Y-82425000I-249999J0D01*
G01*
G37*
%TD.AperFunction*%
%TD*%
%TO.P,R27,1*%
%TO.N,-12V*%
%TA.AperFunction,SMDPad,CuDef*%
G36*
G01*
X132700001Y-82425000D02*
X131799999Y-82425000D01*
G75*
G02*
X131550000Y-82175001I0J249999D01*
G01*
X131550000Y-81649999D01*
G75*
G02*
X131799999Y-81400000I249999J0D01*
G01*
X132700001Y-81400000D01*
G75*
G02*
X132950000Y-81649999I0J-249999D01*
G01*
X132950000Y-82175001D01*
G75*
G02*
X132700001Y-82425000I-249999J0D01*
G01*
G37*
%TD.AperFunction*%
%TO.P,R27,2*%
%TO.N,Net-(C4-Pad1)*%
%TA.AperFunction,SMDPad,CuDef*%
G36*
G01*
X132700001Y-80600000D02*
X131799999Y-80600000D01*
G75*
G02*
X131550000Y-80350001I0J249999D01*
G01*
X131550000Y-79824999D01*
G75*
G02*
X131799999Y-79575000I249999J0D01*
G01*
X132700001Y-79575000D01*
G75*
G02*
X132950000Y-79824999I0J-249999D01*
G01*
X132950000Y-80350001D01*
G75*
G02*
X132700001Y-80600000I-249999J0D01*
G01*
G37*
%TD.AperFunction*%
%TD*%
%TO.P,R28,1*%
%TO.N,Net-(C3-Pad1)*%
%TA.AperFunction,SMDPad,CuDef*%
G36*
G01*
X113549999Y-83325000D02*
X114450001Y-83325000D01*
G75*
G02*
X114700000Y-83574999I0J-249999D01*
G01*
X114700000Y-84100001D01*
G75*
G02*
X114450001Y-84350000I-249999J0D01*
G01*
X113549999Y-84350000D01*
G75*
G02*
X113300000Y-84100001I0J249999D01*
G01*
X113300000Y-83574999D01*
G75*
G02*
X113549999Y-83325000I249999J0D01*
G01*
G37*
%TD.AperFunction*%
%TO.P,R28,2*%
%TO.N,Net-(R28-Pad2)*%
%TA.AperFunction,SMDPad,CuDef*%
G36*
G01*
X113549999Y-85150000D02*
X114450001Y-85150000D01*
G75*
G02*
X114700000Y-85399999I0J-249999D01*
G01*
X114700000Y-85925001D01*
G75*
G02*
X114450001Y-86175000I-249999J0D01*
G01*
X113549999Y-86175000D01*
G75*
G02*
X113300000Y-85925001I0J249999D01*
G01*
X113300000Y-85399999D01*
G75*
G02*
X113549999Y-85150000I249999J0D01*
G01*
G37*
%TD.AperFunction*%
%TD*%
%TO.P,R29,1*%
%TO.N,Net-(Q9-Pad1)*%
%TA.AperFunction,SMDPad,CuDef*%
G36*
G01*
X125450001Y-107425000D02*
X124549999Y-107425000D01*
G75*
G02*
X124300000Y-107175001I0J249999D01*
G01*
X124300000Y-106649999D01*
G75*
G02*
X124549999Y-106400000I249999J0D01*
G01*
X125450001Y-106400000D01*
G75*
G02*
X125700000Y-106649999I0J-249999D01*
G01*
X125700000Y-107175001D01*
G75*
G02*
X125450001Y-107425000I-249999J0D01*
G01*
G37*
%TD.AperFunction*%
%TO.P,R29,2*%
%TO.N,Net-(C24-Pad1)*%
%TA.AperFunction,SMDPad,CuDef*%
G36*
G01*
X125450001Y-105600000D02*
X124549999Y-105600000D01*
G75*
G02*
X124300000Y-105350001I0J249999D01*
G01*
X124300000Y-104824999D01*
G75*
G02*
X124549999Y-104575000I249999J0D01*
G01*
X125450001Y-104575000D01*
G75*
G02*
X125700000Y-104824999I0J-249999D01*
G01*
X125700000Y-105350001D01*
G75*
G02*
X125450001Y-105600000I-249999J0D01*
G01*
G37*
%TD.AperFunction*%
%TD*%
%TO.P,R30,2*%
%TO.N,Net-(C10-Pad1)*%
%TA.AperFunction,SMDPad,CuDef*%
G36*
G01*
X123900000Y-89700001D02*
X123900000Y-88799999D01*
G75*
G02*
X124149999Y-88550000I249999J0D01*
G01*
X124675001Y-88550000D01*
G75*
G02*
X124925000Y-88799999I0J-249999D01*
G01*
X124925000Y-89700001D01*
G75*
G02*
X124675001Y-89950000I-249999J0D01*
G01*
X124149999Y-89950000D01*
G75*
G02*
X123900000Y-89700001I0J249999D01*
G01*
G37*
%TD.AperFunction*%
%TO.P,R30,1*%
%TO.N,Net-(Q5-Pad1)*%
%TA.AperFunction,SMDPad,CuDef*%
G36*
G01*
X122075000Y-89700001D02*
X122075000Y-88799999D01*
G75*
G02*
X122324999Y-88550000I249999J0D01*
G01*
X122850001Y-88550000D01*
G75*
G02*
X123100000Y-88799999I0J-249999D01*
G01*
X123100000Y-89700001D01*
G75*
G02*
X122850001Y-89950000I-249999J0D01*
G01*
X122324999Y-89950000D01*
G75*
G02*
X122075000Y-89700001I0J249999D01*
G01*
G37*
%TD.AperFunction*%
%TD*%
%TO.P,R31,2*%
%TO.N,Net-(R31-Pad2)*%
%TA.AperFunction,SMDPad,CuDef*%
G36*
G01*
X127600000Y-107799999D02*
X127600000Y-108700001D01*
G75*
G02*
X127350001Y-108950000I-249999J0D01*
G01*
X126824999Y-108950000D01*
G75*
G02*
X126575000Y-108700001I0J249999D01*
G01*
X126575000Y-107799999D01*
G75*
G02*
X126824999Y-107550000I249999J0D01*
G01*
X127350001Y-107550000D01*
G75*
G02*
X127600000Y-107799999I0J-249999D01*
G01*
G37*
%TD.AperFunction*%
%TO.P,R31,1*%
%TO.N,Net-(Q9-Pad2)*%
%TA.AperFunction,SMDPad,CuDef*%
G36*
G01*
X129425000Y-107799999D02*
X129425000Y-108700001D01*
G75*
G02*
X129175001Y-108950000I-249999J0D01*
G01*
X128649999Y-108950000D01*
G75*
G02*
X128400000Y-108700001I0J249999D01*
G01*
X128400000Y-107799999D01*
G75*
G02*
X128649999Y-107550000I249999J0D01*
G01*
X129175001Y-107550000D01*
G75*
G02*
X129425000Y-107799999I0J-249999D01*
G01*
G37*
%TD.AperFunction*%
%TD*%
%TO.P,R33,2*%
%TO.N,Net-(R33-Pad2)*%
%TA.AperFunction,SMDPad,CuDef*%
G36*
G01*
X127200001Y-91850000D02*
X126299999Y-91850000D01*
G75*
G02*
X126050000Y-91600001I0J249999D01*
G01*
X126050000Y-91074999D01*
G75*
G02*
X126299999Y-90825000I249999J0D01*
G01*
X127200001Y-90825000D01*
G75*
G02*
X127450000Y-91074999I0J-249999D01*
G01*
X127450000Y-91600001D01*
G75*
G02*
X127200001Y-91850000I-249999J0D01*
G01*
G37*
%TD.AperFunction*%
%TO.P,R33,1*%
%TO.N,Net-(Q5-Pad2)*%
%TA.AperFunction,SMDPad,CuDef*%
G36*
G01*
X127200001Y-93675000D02*
X126299999Y-93675000D01*
G75*
G02*
X126050000Y-93425001I0J249999D01*
G01*
X126050000Y-92899999D01*
G75*
G02*
X126299999Y-92650000I249999J0D01*
G01*
X127200001Y-92650000D01*
G75*
G02*
X127450000Y-92899999I0J-249999D01*
G01*
X127450000Y-93425001D01*
G75*
G02*
X127200001Y-93675000I-249999J0D01*
G01*
G37*
%TD.AperFunction*%
%TD*%
%TO.P,R34,2*%
%TO.N,Net-(R34-Pad2)*%
%TA.AperFunction,SMDPad,CuDef*%
G36*
G01*
X128900000Y-96125001D02*
X128900000Y-94874999D01*
G75*
G02*
X129149999Y-94625000I249999J0D01*
G01*
X129775001Y-94625000D01*
G75*
G02*
X130025000Y-94874999I0J-249999D01*
G01*
X130025000Y-96125001D01*
G75*
G02*
X129775001Y-96375000I-249999J0D01*
G01*
X129149999Y-96375000D01*
G75*
G02*
X128900000Y-96125001I0J249999D01*
G01*
G37*
%TD.AperFunction*%
%TO.P,R34,1*%
%TO.N,Net-(R34-Pad1)*%
%TA.AperFunction,SMDPad,CuDef*%
G36*
G01*
X125975000Y-96125001D02*
X125975000Y-94874999D01*
G75*
G02*
X126224999Y-94625000I249999J0D01*
G01*
X126850001Y-94625000D01*
G75*
G02*
X127100000Y-94874999I0J-249999D01*
G01*
X127100000Y-96125001D01*
G75*
G02*
X126850001Y-96375000I-249999J0D01*
G01*
X126224999Y-96375000D01*
G75*
G02*
X125975000Y-96125001I0J249999D01*
G01*
G37*
%TD.AperFunction*%
%TD*%
%TO.P,R35,1*%
%TO.N,Net-(C5-Pad2)*%
%TA.AperFunction,SMDPad,CuDef*%
G36*
G01*
X129425000Y-110049999D02*
X129425000Y-110950001D01*
G75*
G02*
X129175001Y-111200000I-249999J0D01*
G01*
X128649999Y-111200000D01*
G75*
G02*
X128400000Y-110950001I0J249999D01*
G01*
X128400000Y-110049999D01*
G75*
G02*
X128649999Y-109800000I249999J0D01*
G01*
X129175001Y-109800000D01*
G75*
G02*
X129425000Y-110049999I0J-249999D01*
G01*
G37*
%TD.AperFunction*%
%TO.P,R35,2*%
%TO.N,Net-(R31-Pad2)*%
%TA.AperFunction,SMDPad,CuDef*%
G36*
G01*
X127600000Y-110049999D02*
X127600000Y-110950001D01*
G75*
G02*
X127350001Y-111200000I-249999J0D01*
G01*
X126824999Y-111200000D01*
G75*
G02*
X126575000Y-110950001I0J249999D01*
G01*
X126575000Y-110049999D01*
G75*
G02*
X126824999Y-109800000I249999J0D01*
G01*
X127350001Y-109800000D01*
G75*
G02*
X127600000Y-110049999I0J-249999D01*
G01*
G37*
%TD.AperFunction*%
%TD*%
%TO.P,R36,2*%
%TO.N,Net-(C6-Pad2)*%
%TA.AperFunction,SMDPad,CuDef*%
G36*
G01*
X130650000Y-89700001D02*
X130650000Y-88799999D01*
G75*
G02*
X130899999Y-88550000I249999J0D01*
G01*
X131425001Y-88550000D01*
G75*
G02*
X131675000Y-88799999I0J-249999D01*
G01*
X131675000Y-89700001D01*
G75*
G02*
X131425001Y-89950000I-249999J0D01*
G01*
X130899999Y-89950000D01*
G75*
G02*
X130650000Y-89700001I0J249999D01*
G01*
G37*
%TD.AperFunction*%
%TO.P,R36,1*%
%TO.N,Net-(R33-Pad2)*%
%TA.AperFunction,SMDPad,CuDef*%
G36*
G01*
X128825000Y-89700001D02*
X128825000Y-88799999D01*
G75*
G02*
X129074999Y-88550000I249999J0D01*
G01*
X129600001Y-88550000D01*
G75*
G02*
X129850000Y-88799999I0J-249999D01*
G01*
X129850000Y-89700001D01*
G75*
G02*
X129600001Y-89950000I-249999J0D01*
G01*
X129074999Y-89950000D01*
G75*
G02*
X128825000Y-89700001I0J249999D01*
G01*
G37*
%TD.AperFunction*%
%TD*%
%TO.P,R37,2*%
%TO.N,+12V*%
%TA.AperFunction,SMDPad,CuDef*%
G36*
G01*
X97900000Y-109700001D02*
X97900000Y-108799999D01*
G75*
G02*
X98149999Y-108550000I249999J0D01*
G01*
X98675001Y-108550000D01*
G75*
G02*
X98925000Y-108799999I0J-249999D01*
G01*
X98925000Y-109700001D01*
G75*
G02*
X98675001Y-109950000I-249999J0D01*
G01*
X98149999Y-109950000D01*
G75*
G02*
X97900000Y-109700001I0J249999D01*
G01*
G37*
%TD.AperFunction*%
%TO.P,R37,1*%
%TO.N,Net-(C28-Pad1)*%
%TA.AperFunction,SMDPad,CuDef*%
G36*
G01*
X96075000Y-109700001D02*
X96075000Y-108799999D01*
G75*
G02*
X96324999Y-108550000I249999J0D01*
G01*
X96850001Y-108550000D01*
G75*
G02*
X97100000Y-108799999I0J-249999D01*
G01*
X97100000Y-109700001D01*
G75*
G02*
X96850001Y-109950000I-249999J0D01*
G01*
X96324999Y-109950000D01*
G75*
G02*
X96075000Y-109700001I0J249999D01*
G01*
G37*
%TD.AperFunction*%
%TD*%
%TO.P,R38,1*%
%TO.N,Net-(C10-Pad1)*%
%TA.AperFunction,SMDPad,CuDef*%
G36*
G01*
X122075000Y-98450001D02*
X122075000Y-97549999D01*
G75*
G02*
X122324999Y-97300000I249999J0D01*
G01*
X122850001Y-97300000D01*
G75*
G02*
X123100000Y-97549999I0J-249999D01*
G01*
X123100000Y-98450001D01*
G75*
G02*
X122850001Y-98700000I-249999J0D01*
G01*
X122324999Y-98700000D01*
G75*
G02*
X122075000Y-98450001I0J249999D01*
G01*
G37*
%TD.AperFunction*%
%TO.P,R38,2*%
%TO.N,GND*%
%TA.AperFunction,SMDPad,CuDef*%
G36*
G01*
X123900000Y-98450001D02*
X123900000Y-97549999D01*
G75*
G02*
X124149999Y-97300000I249999J0D01*
G01*
X124675001Y-97300000D01*
G75*
G02*
X124925000Y-97549999I0J-249999D01*
G01*
X124925000Y-98450001D01*
G75*
G02*
X124675001Y-98700000I-249999J0D01*
G01*
X124149999Y-98700000D01*
G75*
G02*
X123900000Y-98450001I0J249999D01*
G01*
G37*
%TD.AperFunction*%
%TD*%
%TO.P,R39,2*%
%TO.N,Net-(C22-Pad1)*%
%TA.AperFunction,SMDPad,CuDef*%
G36*
G01*
X123900000Y-95950001D02*
X123900000Y-95049999D01*
G75*
G02*
X124149999Y-94800000I249999J0D01*
G01*
X124675001Y-94800000D01*
G75*
G02*
X124925000Y-95049999I0J-249999D01*
G01*
X124925000Y-95950001D01*
G75*
G02*
X124675001Y-96200000I-249999J0D01*
G01*
X124149999Y-96200000D01*
G75*
G02*
X123900000Y-95950001I0J249999D01*
G01*
G37*
%TD.AperFunction*%
%TO.P,R39,1*%
%TO.N,+12V*%
%TA.AperFunction,SMDPad,CuDef*%
G36*
G01*
X122075000Y-95950001D02*
X122075000Y-95049999D01*
G75*
G02*
X122324999Y-94800000I249999J0D01*
G01*
X122850001Y-94800000D01*
G75*
G02*
X123100000Y-95049999I0J-249999D01*
G01*
X123100000Y-95950001D01*
G75*
G02*
X122850001Y-96200000I-249999J0D01*
G01*
X122324999Y-96200000D01*
G75*
G02*
X122075000Y-95950001I0J249999D01*
G01*
G37*
%TD.AperFunction*%
%TD*%
%TO.P,R42,2*%
%TO.N,GND*%
%TA.AperFunction,SMDPad,CuDef*%
G36*
G01*
X122299999Y-110650000D02*
X123200001Y-110650000D01*
G75*
G02*
X123450000Y-110899999I0J-249999D01*
G01*
X123450000Y-111425001D01*
G75*
G02*
X123200001Y-111675000I-249999J0D01*
G01*
X122299999Y-111675000D01*
G75*
G02*
X122050000Y-111425001I0J249999D01*
G01*
X122050000Y-110899999D01*
G75*
G02*
X122299999Y-110650000I249999J0D01*
G01*
G37*
%TD.AperFunction*%
%TO.P,R42,1*%
%TO.N,Net-(C24-Pad1)*%
%TA.AperFunction,SMDPad,CuDef*%
G36*
G01*
X122299999Y-108825000D02*
X123200001Y-108825000D01*
G75*
G02*
X123450000Y-109074999I0J-249999D01*
G01*
X123450000Y-109600001D01*
G75*
G02*
X123200001Y-109850000I-249999J0D01*
G01*
X122299999Y-109850000D01*
G75*
G02*
X122050000Y-109600001I0J249999D01*
G01*
X122050000Y-109074999D01*
G75*
G02*
X122299999Y-108825000I249999J0D01*
G01*
G37*
%TD.AperFunction*%
%TD*%
%TO.P,R43,2*%
%TO.N,Net-(Q9-Pad3)*%
%TA.AperFunction,SMDPad,CuDef*%
G36*
G01*
X128400000Y-102700001D02*
X128400000Y-101799999D01*
G75*
G02*
X128649999Y-101550000I249999J0D01*
G01*
X129175001Y-101550000D01*
G75*
G02*
X129425000Y-101799999I0J-249999D01*
G01*
X129425000Y-102700001D01*
G75*
G02*
X129175001Y-102950000I-249999J0D01*
G01*
X128649999Y-102950000D01*
G75*
G02*
X128400000Y-102700001I0J249999D01*
G01*
G37*
%TD.AperFunction*%
%TO.P,R43,1*%
%TO.N,+12V*%
%TA.AperFunction,SMDPad,CuDef*%
G36*
G01*
X126575000Y-102700001D02*
X126575000Y-101799999D01*
G75*
G02*
X126824999Y-101550000I249999J0D01*
G01*
X127350001Y-101550000D01*
G75*
G02*
X127600000Y-101799999I0J-249999D01*
G01*
X127600000Y-102700001D01*
G75*
G02*
X127350001Y-102950000I-249999J0D01*
G01*
X126824999Y-102950000D01*
G75*
G02*
X126575000Y-102700001I0J249999D01*
G01*
G37*
%TD.AperFunction*%
%TD*%
%TO.P,R44,2*%
%TO.N,Net-(R44-Pad2)*%
%TA.AperFunction,SMDPad,CuDef*%
G36*
G01*
X128150000Y-113625001D02*
X128150000Y-112374999D01*
G75*
G02*
X128399999Y-112125000I249999J0D01*
G01*
X129025001Y-112125000D01*
G75*
G02*
X129275000Y-112374999I0J-249999D01*
G01*
X129275000Y-113625001D01*
G75*
G02*
X129025001Y-113875000I-249999J0D01*
G01*
X128399999Y-113875000D01*
G75*
G02*
X128150000Y-113625001I0J249999D01*
G01*
G37*
%TD.AperFunction*%
%TO.P,R44,1*%
%TO.N,Net-(R32-Pad2)*%
%TA.AperFunction,SMDPad,CuDef*%
G36*
G01*
X125225000Y-113625001D02*
X125225000Y-112374999D01*
G75*
G02*
X125474999Y-112125000I249999J0D01*
G01*
X126100001Y-112125000D01*
G75*
G02*
X126350000Y-112374999I0J-249999D01*
G01*
X126350000Y-113625001D01*
G75*
G02*
X126100001Y-113875000I-249999J0D01*
G01*
X125474999Y-113875000D01*
G75*
G02*
X125225000Y-113625001I0J249999D01*
G01*
G37*
%TD.AperFunction*%
%TD*%
%TO.P,R45,1*%
%TO.N,Net-(R44-Pad2)*%
%TA.AperFunction,SMDPad,CuDef*%
G36*
G01*
X129275000Y-115124999D02*
X129275000Y-116375001D01*
G75*
G02*
X129025001Y-116625000I-249999J0D01*
G01*
X128399999Y-116625000D01*
G75*
G02*
X128150000Y-116375001I0J249999D01*
G01*
X128150000Y-115124999D01*
G75*
G02*
X128399999Y-114875000I249999J0D01*
G01*
X129025001Y-114875000D01*
G75*
G02*
X129275000Y-115124999I0J-249999D01*
G01*
G37*
%TD.AperFunction*%
%TO.P,R45,2*%
%TO.N,-12V*%
%TA.AperFunction,SMDPad,CuDef*%
G36*
G01*
X126350000Y-115124999D02*
X126350000Y-116375001D01*
G75*
G02*
X126100001Y-116625000I-249999J0D01*
G01*
X125474999Y-116625000D01*
G75*
G02*
X125225000Y-116375001I0J249999D01*
G01*
X125225000Y-115124999D01*
G75*
G02*
X125474999Y-114875000I249999J0D01*
G01*
X126100001Y-114875000D01*
G75*
G02*
X126350000Y-115124999I0J-249999D01*
G01*
G37*
%TD.AperFunction*%
%TD*%
%TO.P,R46,1*%
%TO.N,+12V*%
%TA.AperFunction,SMDPad,CuDef*%
G36*
G01*
X94549999Y-91575000D02*
X95450001Y-91575000D01*
G75*
G02*
X95700000Y-91824999I0J-249999D01*
G01*
X95700000Y-92350001D01*
G75*
G02*
X95450001Y-92600000I-249999J0D01*
G01*
X94549999Y-92600000D01*
G75*
G02*
X94300000Y-92350001I0J249999D01*
G01*
X94300000Y-91824999D01*
G75*
G02*
X94549999Y-91575000I249999J0D01*
G01*
G37*
%TD.AperFunction*%
%TO.P,R46,2*%
%TO.N,Net-(D6-Pad2)*%
%TA.AperFunction,SMDPad,CuDef*%
G36*
G01*
X94549999Y-93400000D02*
X95450001Y-93400000D01*
G75*
G02*
X95700000Y-93649999I0J-249999D01*
G01*
X95700000Y-94175001D01*
G75*
G02*
X95450001Y-94425000I-249999J0D01*
G01*
X94549999Y-94425000D01*
G75*
G02*
X94300000Y-94175001I0J249999D01*
G01*
X94300000Y-93649999D01*
G75*
G02*
X94549999Y-93400000I249999J0D01*
G01*
G37*
%TD.AperFunction*%
%TD*%
%TO.P,R47,2*%
%TO.N,Net-(D7-Pad2)*%
%TA.AperFunction,SMDPad,CuDef*%
G36*
G01*
X98549999Y-93400000D02*
X99450001Y-93400000D01*
G75*
G02*
X99700000Y-93649999I0J-249999D01*
G01*
X99700000Y-94175001D01*
G75*
G02*
X99450001Y-94425000I-249999J0D01*
G01*
X98549999Y-94425000D01*
G75*
G02*
X98300000Y-94175001I0J249999D01*
G01*
X98300000Y-93649999D01*
G75*
G02*
X98549999Y-93400000I249999J0D01*
G01*
G37*
%TD.AperFunction*%
%TO.P,R47,1*%
%TO.N,GND*%
%TA.AperFunction,SMDPad,CuDef*%
G36*
G01*
X98549999Y-91575000D02*
X99450001Y-91575000D01*
G75*
G02*
X99700000Y-91824999I0J-249999D01*
G01*
X99700000Y-92350001D01*
G75*
G02*
X99450001Y-92600000I-249999J0D01*
G01*
X98549999Y-92600000D01*
G75*
G02*
X98300000Y-92350001I0J249999D01*
G01*
X98300000Y-91824999D01*
G75*
G02*
X98549999Y-91575000I249999J0D01*
G01*
G37*
%TD.AperFunction*%
%TD*%
D21*
%TO.P,RV1,3*%
%TO.N,Net-(C28-Pad1)*%
X101500000Y-120250000D03*
%TO.P,RV1,2*%
%TO.N,Net-(R28-Pad2)*%
X106500000Y-117750000D03*
%TO.P,RV1,1*%
%TO.N,+12V*%
X101500000Y-115250000D03*
%TD*%
D22*
%TO.N,-12V*%
X114000000Y-74500000D03*
D23*
X132000000Y-110750000D03*
X132000000Y-107000000D03*
D22*
X104750000Y-86250000D03*
D23*
X87000000Y-82500000D03*
X99000000Y-77250000D03*
D22*
X123500000Y-86500000D03*
X126000000Y-84000000D03*
D23*
X134500000Y-91300002D03*
X134500005Y-86800001D03*
D22*
%TO.N,/TRI+*%
X106000000Y-93250000D03*
X111250000Y-86750000D03*
%TO.N,GND*%
X112750000Y-110500000D03*
X110500000Y-92250000D03*
X103500000Y-99500000D03*
X107250000Y-110500000D03*
X122750000Y-112750000D03*
X118500000Y-87250000D03*
X126750000Y-77500000D03*
X99750000Y-74250000D03*
X127250000Y-88500000D03*
X96000000Y-82500000D03*
X98000000Y-82500000D03*
X121750000Y-102250000D03*
X133250000Y-101000000D03*
X94000000Y-105000000D03*
%TO.N,+12V*%
X101250000Y-111000000D03*
%TO.N,/TRI-*%
X117000000Y-93500000D03*
X117500000Y-86500000D03*
%TO.N,Net-(C10-Pad1)*%
X125000000Y-88000000D03*
X122500000Y-99500000D03*
%TO.N,Net-(D2-Pad2)*%
X111750000Y-78000000D03*
X116000000Y-77750000D03*
%TO.N,Net-(R28-Pad2)*%
X115750000Y-85750000D03*
X115500000Y-113500000D03*
X115500000Y-110750000D03*
X115750000Y-96500000D03*
%TD*%
D24*
%TO.N,-12V*%
X90000000Y-102950000D02*
X90250000Y-103200000D01*
X90000000Y-98080000D02*
X90000000Y-102950000D01*
X90250000Y-103200000D02*
X92550000Y-103200000D01*
X94000000Y-101750000D02*
X96500000Y-101750000D01*
X92550000Y-103200000D02*
X94000000Y-101750000D01*
D25*
X99000000Y-99400000D02*
X99000000Y-102000000D01*
X99250000Y-102000000D02*
X99500000Y-101750000D01*
X99250000Y-103525000D02*
X99250000Y-102000000D01*
D24*
X99500000Y-101750000D02*
X103750000Y-101750000D01*
X103750000Y-101750000D02*
X104500000Y-101750000D01*
X104500000Y-101750000D02*
X105000000Y-102250000D01*
D25*
X96250000Y-102000000D02*
X96500000Y-101750000D01*
X96250000Y-103525000D02*
X96250000Y-102000000D01*
D24*
X96500000Y-101750000D02*
X99500000Y-101750000D01*
D25*
X105250000Y-104500000D02*
X105000000Y-104250000D01*
X106800000Y-104500000D02*
X105250000Y-104500000D01*
D24*
X105000000Y-102250000D02*
X105000000Y-104250000D01*
D25*
X105250000Y-102000000D02*
X105000000Y-102250000D01*
X106837500Y-102000000D02*
X105250000Y-102000000D01*
X108700000Y-111950000D02*
X108750000Y-112000000D01*
X108700000Y-109250000D02*
X108700000Y-111950000D01*
D24*
X108750000Y-112000000D02*
X111000000Y-112000000D01*
X111000000Y-112000000D02*
X118000000Y-112000000D01*
X119500000Y-118250000D02*
X123000000Y-118250000D01*
X118750000Y-117500000D02*
X119500000Y-118250000D01*
X118750000Y-112750000D02*
X118750000Y-117500000D01*
X118000000Y-112000000D02*
X118750000Y-112750000D01*
D25*
X122750000Y-118000000D02*
X123000000Y-118250000D01*
X122750000Y-116200000D02*
X122750000Y-118000000D01*
D24*
X123000000Y-118250000D02*
X125750000Y-118250000D01*
D26*
X125787500Y-118212500D02*
X125750000Y-118250000D01*
X125787500Y-115750000D02*
X125787500Y-118212500D01*
X110837500Y-111837500D02*
X111000000Y-112000000D01*
X110837500Y-107000000D02*
X110837500Y-111837500D01*
D24*
X106750000Y-112000000D02*
X108750000Y-112000000D01*
X105000000Y-104250000D02*
X105000000Y-110250000D01*
X105000000Y-110250000D02*
X106750000Y-112000000D01*
D25*
X112912500Y-74500000D02*
X114000000Y-74500000D01*
X114000000Y-74500000D02*
X115087500Y-74500000D01*
D27*
X125787500Y-118212500D02*
X129787500Y-118212500D01*
X130500000Y-113500000D02*
X132000000Y-112000000D01*
X130500000Y-117500000D02*
X130500000Y-113500000D01*
X129787500Y-118212500D02*
X130500000Y-117500000D01*
X132000000Y-112000000D02*
X132000000Y-111500000D01*
X134500000Y-103500000D02*
X134500000Y-96250000D01*
X132000000Y-106000000D02*
X134500000Y-103500000D01*
X132000000Y-107000000D02*
X132000000Y-106000000D01*
X132000000Y-112000000D02*
X132000000Y-110750000D01*
X129462500Y-98000000D02*
X131212500Y-96250000D01*
X131212500Y-96250000D02*
X132000000Y-96250000D01*
D25*
X132000000Y-97800000D02*
X132050000Y-97800000D01*
X132000000Y-97750000D02*
X132000000Y-96250000D01*
X132050000Y-97800000D02*
X132000000Y-97750000D01*
D27*
X132000000Y-96250000D02*
X134500000Y-96250000D01*
D25*
X127250000Y-84250000D02*
X127000000Y-84000000D01*
X127250000Y-85050000D02*
X127250000Y-84250000D01*
X129500000Y-85050000D02*
X129500000Y-84250000D01*
X106087500Y-86250000D02*
X104750000Y-86250000D01*
X103450000Y-86250000D02*
X104750000Y-86250000D01*
D24*
X90000000Y-98080000D02*
X88080000Y-98080000D01*
X88080000Y-98080000D02*
X87000000Y-97000000D01*
X87000000Y-97000000D02*
X87000000Y-82500000D01*
D26*
X101000000Y-77250000D02*
X101250000Y-77500000D01*
X99000000Y-77250000D02*
X101000000Y-77250000D01*
X101250000Y-77500000D02*
X101250000Y-78337500D01*
X101250000Y-76200000D02*
X101250000Y-77500000D01*
X103462500Y-78337500D02*
X103500000Y-78300000D01*
X101250000Y-78337500D02*
X103462500Y-78337500D01*
D28*
X122750000Y-85750000D02*
X123500000Y-86500000D01*
X121912500Y-85750000D02*
X122750000Y-85750000D01*
D26*
X126000000Y-84000000D02*
X127000000Y-84000000D01*
D27*
X134500000Y-96250000D02*
X134500000Y-91300002D01*
D26*
X134500000Y-81950000D02*
X134500000Y-84200000D01*
X134300000Y-84000000D02*
X134500000Y-84200000D01*
X134500000Y-86799996D02*
X134500005Y-86800001D01*
X134500000Y-84200000D02*
X134500000Y-86799996D01*
X132250000Y-83950000D02*
X132300000Y-84000000D01*
X132250000Y-81912500D02*
X132250000Y-83950000D01*
X132300000Y-84000000D02*
X134300000Y-84000000D01*
X127000000Y-84000000D02*
X132300000Y-84000000D01*
D28*
%TO.N,Net-(C1-Pad1)*%
X103462500Y-80162500D02*
X103500000Y-80200000D01*
X101250000Y-80162500D02*
X103462500Y-80162500D01*
X103500000Y-82337500D02*
X101250000Y-82337500D01*
X101250000Y-80162500D02*
X101250000Y-82337500D01*
X103500000Y-82337500D02*
X103500000Y-80200000D01*
%TO.N,Net-(C2-Pad1)*%
X108662500Y-104462500D02*
X108700000Y-104500000D01*
X108662500Y-99500000D02*
X108662500Y-104462500D01*
X106837500Y-106362500D02*
X106837500Y-107000000D01*
X108700000Y-104500000D02*
X106837500Y-106362500D01*
%TO.N,/TRI+*%
X107950000Y-80212500D02*
X107912500Y-80250000D01*
X107912500Y-80250000D02*
X107912500Y-80412500D01*
D25*
X107912500Y-78287500D02*
X107950000Y-78250000D01*
X107912500Y-80250000D02*
X107912500Y-78287500D01*
D29*
X102000000Y-93250000D02*
X106000000Y-93250000D01*
D25*
X109750000Y-85250000D02*
X111250000Y-86750000D01*
X109750000Y-83750000D02*
X109750000Y-85250000D01*
X110800000Y-83750000D02*
X109750000Y-83750000D01*
X107912500Y-80250000D02*
X109250000Y-80250000D01*
X109250000Y-80250000D02*
X109750000Y-80750000D01*
X110800000Y-81750000D02*
X109750000Y-81750000D01*
X109750000Y-81750000D02*
X109750000Y-83750000D01*
X109750000Y-80750000D02*
X109750000Y-81750000D01*
D28*
%TO.N,Net-(C3-Pad1)*%
X112700000Y-81750000D02*
X115300000Y-81750000D01*
X112700000Y-81750000D02*
X112700000Y-82300000D01*
X112200000Y-82800000D02*
X112200000Y-83750000D01*
X112700000Y-82300000D02*
X112200000Y-82800000D01*
X115300000Y-81750000D02*
X116000000Y-82450000D01*
X116000000Y-83700000D02*
X116050000Y-83750000D01*
X116000000Y-82450000D02*
X116000000Y-83700000D01*
X112200000Y-83750000D02*
X116050000Y-83750000D01*
D25*
%TO.N,Net-(C4-Pad1)*%
X134462500Y-80087500D02*
X134500000Y-80050000D01*
X134500000Y-80050000D02*
X133500000Y-80050000D01*
X132250000Y-80087500D02*
X134462500Y-80087500D01*
D29*
X130000000Y-81912500D02*
X130587500Y-81912500D01*
X131662500Y-80250000D02*
X130000000Y-81912500D01*
X132250000Y-80250000D02*
X131662500Y-80250000D01*
X129587500Y-81912500D02*
X127750000Y-81912500D01*
D25*
%TO.N,Net-(C5-Pad1)*%
X141500000Y-108500000D02*
X141750000Y-108250000D01*
X136725000Y-108500000D02*
X141500000Y-108500000D01*
%TO.N,Net-(C5-Pad2)*%
X128912500Y-110500000D02*
X130250000Y-110500000D01*
X132250000Y-108500000D02*
X133775000Y-108500000D01*
X130250000Y-110500000D02*
X132250000Y-108500000D01*
D29*
%TO.N,Net-(C6-Pad2)*%
X132162500Y-89250000D02*
X133500000Y-89250000D01*
X133500000Y-89250000D02*
X134025000Y-88725000D01*
D28*
X132162500Y-89250000D02*
X131162500Y-89250000D01*
D29*
%TO.N,Net-(C6-Pad1)*%
X141500000Y-84500000D02*
X141750000Y-84250000D01*
X136975000Y-84500000D02*
X141500000Y-84500000D01*
D28*
X136475000Y-85000000D02*
X136975000Y-84500000D01*
X136475000Y-89300000D02*
X136475000Y-85000000D01*
D24*
%TO.N,GND*%
X90250000Y-76000000D02*
X91250000Y-75000000D01*
X90250000Y-81700000D02*
X90250000Y-76000000D01*
X90250000Y-116500000D02*
X91250000Y-117500000D01*
D25*
X99250000Y-106475000D02*
X96250000Y-106475000D01*
D24*
X90250000Y-113250000D02*
X90250000Y-116500000D01*
X90250000Y-109300000D02*
X90250000Y-113250000D01*
D25*
X96250000Y-106475000D02*
X94275000Y-106475000D01*
D29*
X112700000Y-110450000D02*
X112750000Y-110500000D01*
X112700000Y-109250000D02*
X112700000Y-110450000D01*
D28*
X104750000Y-91200000D02*
X105200000Y-91200000D01*
X110250000Y-92000000D02*
X110500000Y-92250000D01*
X110250000Y-91200000D02*
X110250000Y-92000000D01*
X106837500Y-99500000D02*
X103500000Y-99500000D01*
D29*
X106800000Y-109250000D02*
X106800000Y-110050000D01*
X106800000Y-110050000D02*
X107250000Y-110500000D01*
X122750000Y-114300000D02*
X122750000Y-112750000D01*
X122750000Y-111162500D02*
X122750000Y-112750000D01*
X126750000Y-78000000D02*
X126750000Y-77500000D01*
X127500000Y-78750000D02*
X126750000Y-78000000D01*
X126750000Y-75450000D02*
X126750000Y-77500000D01*
X101600000Y-74300000D02*
X101250000Y-74300000D01*
X103500000Y-76200000D02*
X101600000Y-74300000D01*
X99800000Y-74300000D02*
X99750000Y-74250000D01*
X101250000Y-74300000D02*
X99800000Y-74300000D01*
X127250000Y-86950000D02*
X127250000Y-88500000D01*
X129500000Y-86950000D02*
X127250000Y-86950000D01*
X102950000Y-91200000D02*
X102250000Y-90500000D01*
X104750000Y-91200000D02*
X102950000Y-91200000D01*
X100662500Y-92087500D02*
X102250000Y-90500000D01*
X99000000Y-92087500D02*
X100662500Y-92087500D01*
D25*
X95000000Y-99400000D02*
X93150000Y-99400000D01*
X93150000Y-99400000D02*
X92250000Y-98500000D01*
X92250000Y-98500000D02*
X92250000Y-96000000D01*
X91790000Y-95540000D02*
X90000000Y-95540000D01*
X92250000Y-96000000D02*
X91790000Y-95540000D01*
D29*
X118800000Y-87550000D02*
X118500000Y-87250000D01*
X118800000Y-89250000D02*
X118800000Y-87550000D01*
D25*
X101550000Y-84462500D02*
X101250000Y-84162500D01*
X101550000Y-86250000D02*
X101550000Y-84462500D01*
X96000000Y-85275000D02*
X96000000Y-82500000D01*
X98750000Y-83250000D02*
X98000000Y-82500000D01*
X98837500Y-84162500D02*
X98750000Y-84250000D01*
X101250000Y-84162500D02*
X98837500Y-84162500D01*
X98750000Y-84250000D02*
X98750000Y-83250000D01*
X98750000Y-85275000D02*
X98750000Y-84250000D01*
X123300000Y-102250000D02*
X121750000Y-102250000D01*
X124412500Y-98000000D02*
X124412500Y-99162500D01*
X124412500Y-99162500D02*
X125000000Y-99750000D01*
X129500000Y-101000000D02*
X128250000Y-99750000D01*
X125000000Y-99750000D02*
X128250000Y-99750000D01*
X132000000Y-99700000D02*
X132000000Y-101000000D01*
X132000000Y-101000000D02*
X129500000Y-101000000D01*
X133250000Y-101000000D02*
X132000000Y-101000000D01*
X91750000Y-113250000D02*
X90250000Y-113250000D01*
X93250000Y-111750000D02*
X91750000Y-113250000D01*
X96250000Y-111750000D02*
X93250000Y-111750000D01*
X96550000Y-112050000D02*
X96250000Y-111750000D01*
X96550000Y-114250000D02*
X96550000Y-112050000D01*
X90250000Y-108500000D02*
X90250000Y-109300000D01*
X92275000Y-106475000D02*
X90250000Y-108500000D01*
X94025000Y-105025000D02*
X94000000Y-105000000D01*
X94025000Y-106475000D02*
X94025000Y-105025000D01*
X96250000Y-106475000D02*
X94025000Y-106475000D01*
X94025000Y-106475000D02*
X92275000Y-106475000D01*
D28*
X130000000Y-80087500D02*
X130000000Y-79000000D01*
X129750000Y-78750000D02*
X130000000Y-79000000D01*
X127500000Y-78750000D02*
X129750000Y-78750000D01*
D24*
%TO.N,+12V*%
X90000000Y-88050000D02*
X90250000Y-87800000D01*
X90000000Y-90750000D02*
X93500000Y-90750000D01*
X90000000Y-93000000D02*
X90000000Y-90750000D01*
X90000000Y-90750000D02*
X90000000Y-88050000D01*
X93500000Y-90750000D02*
X94000000Y-90250000D01*
X99750000Y-90250000D02*
X102000000Y-88000000D01*
D25*
X112500000Y-89337500D02*
X112500000Y-88000000D01*
X110250000Y-89300000D02*
X110250000Y-88500000D01*
X110250000Y-88500000D02*
X110750000Y-88000000D01*
D24*
X110750000Y-88000000D02*
X112500000Y-88000000D01*
D25*
X107750000Y-88250000D02*
X107500000Y-88000000D01*
D24*
X107500000Y-88000000D02*
X110750000Y-88000000D01*
D25*
X107750000Y-89337500D02*
X107750000Y-88250000D01*
X104750000Y-89300000D02*
X104750000Y-88250000D01*
D24*
X105000000Y-88000000D02*
X107500000Y-88000000D01*
D25*
X104750000Y-88250000D02*
X105000000Y-88000000D01*
D24*
X102000000Y-88000000D02*
X105000000Y-88000000D01*
D25*
X95000000Y-92087500D02*
X95000000Y-90250000D01*
D24*
X94000000Y-90250000D02*
X95000000Y-90250000D01*
D25*
X96000000Y-88225000D02*
X96000000Y-90250000D01*
D24*
X95000000Y-90250000D02*
X96000000Y-90250000D01*
D25*
X98750000Y-88225000D02*
X98750000Y-90250000D01*
D24*
X98750000Y-90250000D02*
X99750000Y-90250000D01*
X96000000Y-90250000D02*
X98750000Y-90250000D01*
D27*
X121000000Y-100250000D02*
X121000000Y-100500000D01*
X121000000Y-100500000D02*
X121250000Y-100750000D01*
D25*
X125200000Y-101050000D02*
X125500000Y-100750000D01*
X125200000Y-102250000D02*
X125200000Y-101050000D01*
D27*
X125500000Y-100750000D02*
X127000000Y-100750000D01*
X121250000Y-100750000D02*
X125500000Y-100750000D01*
D25*
X127087500Y-100837500D02*
X127000000Y-100750000D01*
X127087500Y-102250000D02*
X127087500Y-100837500D01*
X121250000Y-95500000D02*
X121000000Y-95250000D01*
D26*
X122587500Y-95500000D02*
X121250000Y-95500000D01*
D27*
X121000000Y-95250000D02*
X121000000Y-100250000D01*
X121000000Y-93750000D02*
X121000000Y-95250000D01*
X117250000Y-90000000D02*
X121000000Y-93750000D01*
X117250000Y-88500000D02*
X117250000Y-90000000D01*
X116750000Y-88000000D02*
X117250000Y-88500000D01*
X112500000Y-88000000D02*
X116750000Y-88000000D01*
D24*
X93500000Y-90750000D02*
X93500000Y-82500000D01*
X93500000Y-82500000D02*
X93500000Y-81750000D01*
X93500000Y-81750000D02*
X96750000Y-78500000D01*
X96750000Y-78500000D02*
X96750000Y-75621998D01*
X96750000Y-75621998D02*
X96750000Y-73250000D01*
X96750000Y-73250000D02*
X97750000Y-72250000D01*
D25*
X126750000Y-72500000D02*
X126500000Y-72250000D01*
X126750000Y-73550000D02*
X126750000Y-72500000D01*
X120087500Y-72412500D02*
X120250000Y-72250000D01*
D24*
X120250000Y-72250000D02*
X126500000Y-72250000D01*
D25*
X120087500Y-73750000D02*
X120087500Y-72412500D01*
X106087500Y-72337500D02*
X106000000Y-72250000D01*
X106087500Y-74250000D02*
X106087500Y-72337500D01*
D24*
X106000000Y-72250000D02*
X120250000Y-72250000D01*
D25*
X103500000Y-72500000D02*
X103250000Y-72250000D01*
X103500000Y-74300000D02*
X103500000Y-72500000D01*
D24*
X103250000Y-72250000D02*
X106000000Y-72250000D01*
X97750000Y-72250000D02*
X103250000Y-72250000D01*
D26*
X98412500Y-109250000D02*
X101000000Y-109250000D01*
X101250000Y-109500000D02*
X101250000Y-111000000D01*
X101000000Y-109250000D02*
X101250000Y-109500000D01*
X101250000Y-115000000D02*
X101500000Y-115250000D01*
X101250000Y-111000000D02*
X101250000Y-115000000D01*
D28*
%TO.N,/TRI-*%
X117450000Y-82000000D02*
X117200000Y-81750000D01*
X117450000Y-83750000D02*
X117450000Y-82000000D01*
X118087500Y-81750000D02*
X120087500Y-79750000D01*
X117200000Y-81750000D02*
X118087500Y-81750000D01*
X121950000Y-77800000D02*
X121950000Y-77750000D01*
X120087500Y-79750000D02*
X120087500Y-79662500D01*
D25*
X121950000Y-77887500D02*
X120087500Y-79750000D01*
X121950000Y-77750000D02*
X121950000Y-77887500D01*
D29*
X115000000Y-93337500D02*
X116837500Y-93337500D01*
D25*
X117500000Y-94000000D02*
X117000000Y-93500000D01*
X117500000Y-96500000D02*
X117500000Y-94000000D01*
D29*
X116837500Y-93337500D02*
X117000000Y-93500000D01*
D25*
X117500000Y-83800000D02*
X117450000Y-83750000D01*
X117500000Y-86500000D02*
X117500000Y-83800000D01*
D29*
%TO.N,Net-(C10-Pad1)*%
X122500000Y-98087500D02*
X122587500Y-98000000D01*
X122500000Y-99500000D02*
X122500000Y-98087500D01*
D28*
X124250000Y-89087500D02*
X124412500Y-89250000D01*
X124750000Y-87750000D02*
X125000000Y-88000000D01*
X124250000Y-87750000D02*
X124750000Y-87750000D01*
X124250000Y-84975000D02*
X124250000Y-87750000D01*
X124250000Y-87750000D02*
X124250000Y-89087500D01*
D29*
%TO.N,Net-(C10-Pad2)*%
X124250000Y-81475000D02*
X124750000Y-81975000D01*
X118150000Y-77000000D02*
X118750000Y-77000000D01*
X120000000Y-75750000D02*
X121000000Y-75750000D01*
X118750000Y-77000000D02*
X120000000Y-75750000D01*
X122162500Y-74000000D02*
X121912500Y-73750000D01*
X124250000Y-74000000D02*
X122162500Y-74000000D01*
D25*
X121912500Y-74837500D02*
X121000000Y-75750000D01*
X121912500Y-73750000D02*
X121912500Y-74837500D01*
D29*
X124250000Y-78525000D02*
X124250000Y-74000000D01*
D28*
X124250000Y-78525000D02*
X124250000Y-82025000D01*
D26*
%TO.N,Net-(C22-Pad1)*%
X124412500Y-94162500D02*
X123500000Y-93250000D01*
X124412500Y-95500000D02*
X124412500Y-94162500D01*
D29*
X122500000Y-93250000D02*
X123500000Y-93250000D01*
X122450000Y-93200000D02*
X122500000Y-93250000D01*
X120700000Y-91700000D02*
X120700000Y-89250000D01*
X122250000Y-93250000D02*
X120700000Y-91700000D01*
X123500000Y-93250000D02*
X122250000Y-93250000D01*
%TO.N,Net-(C24-Pad1)*%
X124887500Y-105087500D02*
X125000000Y-105087500D01*
X122500000Y-107475000D02*
X124887500Y-105087500D01*
X122500000Y-109087500D02*
X122750000Y-109337500D01*
X122500000Y-107475000D02*
X122500000Y-109087500D01*
D25*
%TO.N,Net-(C24-Pad2)*%
X112500000Y-92500000D02*
X111750000Y-93250000D01*
X112500000Y-91162500D02*
X112500000Y-92500000D01*
X115000000Y-89750000D02*
X115000000Y-91000000D01*
X119500000Y-103500000D02*
X120525000Y-104525000D01*
X119500000Y-94250000D02*
X119500000Y-103500000D01*
X120525000Y-104525000D02*
X122500000Y-104525000D01*
X116412500Y-91162500D02*
X119500000Y-94250000D01*
X112500000Y-91162500D02*
X116412500Y-91162500D01*
D28*
%TO.N,Net-(C28-Pad1)*%
X98412500Y-114212500D02*
X98450000Y-114250000D01*
X98400000Y-111750000D02*
X98412500Y-114212500D01*
D29*
X98400000Y-111750000D02*
X97750000Y-111750000D01*
X96587500Y-110587500D02*
X96587500Y-109250000D01*
X97750000Y-111750000D02*
X96587500Y-110587500D01*
X98450000Y-117200000D02*
X98450000Y-114250000D01*
X101500000Y-120250000D02*
X98450000Y-117200000D01*
%TO.N,Net-(D1-Pad2)*%
X115337500Y-79500000D02*
X115000000Y-79500000D01*
X113150000Y-77650000D02*
X113150000Y-77000000D01*
X115000000Y-79500000D02*
X113150000Y-77650000D01*
X113150000Y-76562500D02*
X113150000Y-77000000D01*
X111087500Y-74500000D02*
X113150000Y-76562500D01*
%TO.N,Net-(D1-Pad1)*%
X109850000Y-77000000D02*
X109750000Y-77000000D01*
X108000000Y-74337500D02*
X107912500Y-74250000D01*
D25*
X107000000Y-76250000D02*
X107000000Y-76000000D01*
X107912500Y-75087500D02*
X107912500Y-74250000D01*
X107000000Y-76000000D02*
X107912500Y-75087500D01*
X109850000Y-77000000D02*
X109850000Y-74600000D01*
X109500000Y-74250000D02*
X107912500Y-74250000D01*
X109850000Y-74600000D02*
X109500000Y-74250000D01*
D29*
%TO.N,Net-(D2-Pad2)*%
X116912500Y-74937500D02*
X114850000Y-77000000D01*
X116912500Y-74500000D02*
X116912500Y-74937500D01*
X112662500Y-79500000D02*
X112500000Y-79500000D01*
X112500000Y-78750000D02*
X111750000Y-78000000D01*
X112500000Y-79500000D02*
X112500000Y-78750000D01*
X115600000Y-77750000D02*
X114850000Y-77000000D01*
X116000000Y-77750000D02*
X115600000Y-77750000D01*
D25*
%TO.N,Net-(D6-Pad2)*%
X95000000Y-96600000D02*
X95000000Y-96500000D01*
X95000000Y-96500000D02*
X95000000Y-93912500D01*
%TO.N,Net-(D7-Pad2)*%
X99000000Y-96600000D02*
X99000000Y-96500000D01*
X99000000Y-96500000D02*
X99000000Y-93912500D01*
D28*
%TO.N,Net-(Q1-Pad1)*%
X105962500Y-84162500D02*
X106050000Y-84250000D01*
X103500000Y-84162500D02*
X105962500Y-84162500D01*
D25*
%TO.N,Net-(Q1-Pad2)*%
X107950000Y-86212500D02*
X107912500Y-86250000D01*
X107950000Y-84250000D02*
X107950000Y-86212500D01*
D28*
%TO.N,Net-(Q1-Pad3)*%
X107000000Y-82250000D02*
X107000000Y-82000000D01*
D25*
X107000000Y-81162500D02*
X106087500Y-80250000D01*
X107000000Y-82250000D02*
X107000000Y-81162500D01*
D29*
%TO.N,Net-(Q2-Pad1)*%
X109000000Y-79250000D02*
X109250000Y-79500000D01*
X108750000Y-77250000D02*
X109000000Y-77500000D01*
X109000000Y-77500000D02*
X109000000Y-79250000D01*
X107500000Y-77250000D02*
X108750000Y-77250000D01*
X106500000Y-78250000D02*
X107500000Y-77250000D01*
X109250000Y-79500000D02*
X110837500Y-79500000D01*
X106050000Y-78250000D02*
X106500000Y-78250000D01*
D28*
%TO.N,Net-(Q3-Pad1)*%
X118300000Y-79500000D02*
X120050000Y-77750000D01*
X117162500Y-79500000D02*
X118300000Y-79500000D01*
D25*
%TO.N,Net-(Q4-Pad3)*%
X121912500Y-80837500D02*
X121000000Y-81750000D01*
X121912500Y-79750000D02*
X121912500Y-80837500D01*
%TO.N,Net-(Q4-Pad2)*%
X121950000Y-83887500D02*
X120087500Y-85750000D01*
X121950000Y-83750000D02*
X121950000Y-83887500D01*
D29*
%TO.N,Net-(Q4-Pad1)*%
X120050000Y-83750000D02*
X120438602Y-83750000D01*
D28*
X127750000Y-80087500D02*
X126912500Y-80087500D01*
X126912500Y-80087500D02*
X126000000Y-81000000D01*
X126000000Y-81000000D02*
X126000000Y-82931157D01*
X126000000Y-82931157D02*
X125431157Y-83500000D01*
X125431157Y-83500000D02*
X123500000Y-83500000D01*
X122594301Y-82594301D02*
X121594301Y-82594301D01*
X123500000Y-83500000D02*
X122594301Y-82594301D01*
D29*
X120438602Y-83750000D02*
X121594301Y-82594301D01*
%TO.N,Net-(Q5-Pad1)*%
X122587500Y-89387500D02*
X124450000Y-91250000D01*
X122587500Y-89250000D02*
X122587500Y-89387500D01*
D25*
%TO.N,Net-(Q5-Pad2)*%
X125837500Y-92250000D02*
X126750000Y-93162500D01*
X123550000Y-92250000D02*
X125837500Y-92250000D01*
X122550000Y-91250000D02*
X123550000Y-92250000D01*
D28*
%TO.N,Net-(Q6-Pad1)*%
X106712500Y-95162500D02*
X106800000Y-95250000D01*
X104750000Y-95162500D02*
X106712500Y-95162500D01*
D25*
%TO.N,Net-(Q6-Pad2)*%
X108700000Y-95387500D02*
X106837500Y-97250000D01*
X108700000Y-95250000D02*
X108700000Y-95387500D01*
%TO.N,Net-(Q6-Pad3)*%
X107750000Y-93250000D02*
X107750000Y-91162500D01*
D28*
%TO.N,Net-(Q7-Pad1)*%
X108662500Y-107000000D02*
X108750000Y-107000000D01*
X110800000Y-104950000D02*
X110800000Y-103750000D01*
X108750000Y-107000000D02*
X110800000Y-104950000D01*
D25*
%TO.N,Net-(Q7-Pad2)*%
X112700000Y-106962500D02*
X112662500Y-107000000D01*
X112700000Y-103750000D02*
X112700000Y-106962500D01*
%TO.N,Net-(Q7-Pad3)*%
X111750000Y-101750000D02*
X111750000Y-101500000D01*
X112662500Y-100587500D02*
X112662500Y-99500000D01*
X111750000Y-101500000D02*
X112662500Y-100587500D01*
%TO.N,Net-(Q8-Pad2)*%
X112662500Y-95287500D02*
X112700000Y-95250000D01*
X112662500Y-97250000D02*
X112662500Y-95287500D01*
%TO.N,Net-(Q8-Pad1)*%
X110800000Y-95250000D02*
X111800000Y-94250000D01*
X114087500Y-94250000D02*
X115000000Y-95162500D01*
X111800000Y-94250000D02*
X114087500Y-94250000D01*
%TO.N,Net-(Q9-Pad2)*%
X128950000Y-108212500D02*
X128912500Y-108250000D01*
X128950000Y-106250000D02*
X128950000Y-108212500D01*
%TO.N,Net-(Q9-Pad1)*%
X125662500Y-106250000D02*
X125000000Y-106912500D01*
X127050000Y-106250000D02*
X125662500Y-106250000D01*
D28*
%TO.N,Net-(R14-Pad1)*%
X108662500Y-97250000D02*
X110837500Y-97250000D01*
D25*
X110837500Y-99500000D02*
X110837500Y-97250000D01*
D29*
%TO.N,Net-(R28-Pad2)*%
X115662500Y-85662500D02*
X115750000Y-85750000D01*
X114000000Y-85662500D02*
X115662500Y-85662500D01*
X115500000Y-96750000D02*
X115750000Y-96500000D01*
X115500000Y-110750000D02*
X115500000Y-96750000D01*
X106500000Y-117750000D02*
X114250000Y-117750000D01*
X115500000Y-116500000D02*
X115500000Y-113500000D01*
X114250000Y-117750000D02*
X115500000Y-116500000D01*
D26*
%TO.N,Net-(R31-Pad2)*%
X125837500Y-108250000D02*
X125000000Y-109087500D01*
X127087500Y-108250000D02*
X125837500Y-108250000D01*
D25*
X127087500Y-108250000D02*
X127087500Y-110500000D01*
D26*
%TO.N,Net-(R32-Pad2)*%
X125000000Y-112212500D02*
X125787500Y-113000000D01*
X125000000Y-110750000D02*
X125000000Y-112212500D01*
D25*
%TO.N,Net-(R34-Pad2)*%
X129250000Y-95287500D02*
X129462500Y-95500000D01*
X129250000Y-93162500D02*
X129250000Y-95287500D01*
%TO.N,Net-(R34-Pad1)*%
X126537500Y-95500000D02*
X126537500Y-98000000D01*
D26*
%TO.N,Net-(R44-Pad2)*%
X128712500Y-113000000D02*
X128712500Y-115750000D01*
D25*
%TO.N,Net-(Q9-Pad3)*%
X128000000Y-104250000D02*
X129000000Y-103250000D01*
X128912500Y-103162500D02*
X128912500Y-102250000D01*
X129000000Y-103250000D02*
X128912500Y-103162500D01*
D29*
%TO.N,Net-(R33-Pad2)*%
X126750000Y-91337500D02*
X129412500Y-91337500D01*
D26*
X126750000Y-91337500D02*
X129250000Y-91337500D01*
D29*
X129250000Y-89337500D02*
X129337500Y-89250000D01*
X129250000Y-91337500D02*
X129250000Y-89337500D01*
%TD*%
M02*
