%TF.GenerationSoftware,KiCad,Pcbnew,(5.1.9)-1*%
%TF.CreationDate,2021-05-17T20:36:20+02:00*%
%TF.ProjectId,TIMP_Bowes-Grebene,54494d50-5f42-46f7-9765-732d47726562,rev?*%
%TF.SameCoordinates,Original*%
%TF.FileFunction,Legend,Top*%
%TF.FilePolarity,Positive*%
%FSLAX46Y46*%
G04 Gerber Fmt 4.6, Leading zero omitted, Abs format (unit mm)*
G04 Created by KiCad (PCBNEW (5.1.9)-1) date 2021-05-17 20:36:20*
%MOMM*%
%LPD*%
G01*
G04 APERTURE LIST*
%ADD10C,0.040000*%
%ADD11C,0.300000*%
%ADD12C,0.500000*%
%ADD13C,0.120000*%
%ADD14C,0.150000*%
G04 APERTURE END LIST*
D10*
X86458571Y-84456428D02*
X86458571Y-85035000D01*
X86420000Y-85150714D01*
X86342857Y-85227857D01*
X86227142Y-85266428D01*
X86150000Y-85266428D01*
X87230000Y-85266428D02*
X86844285Y-85266428D01*
X86844285Y-84456428D01*
X87962857Y-85189285D02*
X87924285Y-85227857D01*
X87808571Y-85266428D01*
X87731428Y-85266428D01*
X87615714Y-85227857D01*
X87538571Y-85150714D01*
X87500000Y-85073571D01*
X87461428Y-84919285D01*
X87461428Y-84803571D01*
X87500000Y-84649285D01*
X87538571Y-84572142D01*
X87615714Y-84495000D01*
X87731428Y-84456428D01*
X87808571Y-84456428D01*
X87924285Y-84495000D01*
X87962857Y-84533571D01*
X88541428Y-84456428D02*
X88541428Y-85035000D01*
X88502857Y-85150714D01*
X88425714Y-85227857D01*
X88310000Y-85266428D01*
X88232857Y-85266428D01*
X89312857Y-85266428D02*
X88927142Y-85266428D01*
X88927142Y-84456428D01*
X90045714Y-85189285D02*
X90007142Y-85227857D01*
X89891428Y-85266428D01*
X89814285Y-85266428D01*
X89698571Y-85227857D01*
X89621428Y-85150714D01*
X89582857Y-85073571D01*
X89544285Y-84919285D01*
X89544285Y-84803571D01*
X89582857Y-84649285D01*
X89621428Y-84572142D01*
X89698571Y-84495000D01*
X89814285Y-84456428D01*
X89891428Y-84456428D01*
X90007142Y-84495000D01*
X90045714Y-84533571D01*
X90624285Y-84456428D02*
X90624285Y-85035000D01*
X90585714Y-85150714D01*
X90508571Y-85227857D01*
X90392857Y-85266428D01*
X90315714Y-85266428D01*
X91395714Y-85266428D02*
X91010000Y-85266428D01*
X91010000Y-84456428D01*
X92128571Y-85189285D02*
X92090000Y-85227857D01*
X91974285Y-85266428D01*
X91897142Y-85266428D01*
X91781428Y-85227857D01*
X91704285Y-85150714D01*
X91665714Y-85073571D01*
X91627142Y-84919285D01*
X91627142Y-84803571D01*
X91665714Y-84649285D01*
X91704285Y-84572142D01*
X91781428Y-84495000D01*
X91897142Y-84456428D01*
X91974285Y-84456428D01*
X92090000Y-84495000D01*
X92128571Y-84533571D01*
X92707142Y-84456428D02*
X92707142Y-85035000D01*
X92668571Y-85150714D01*
X92591428Y-85227857D01*
X92475714Y-85266428D01*
X92398571Y-85266428D01*
X93478571Y-85266428D02*
X93092857Y-85266428D01*
X93092857Y-84456428D01*
X94211428Y-85189285D02*
X94172857Y-85227857D01*
X94057142Y-85266428D01*
X93980000Y-85266428D01*
X93864285Y-85227857D01*
X93787142Y-85150714D01*
X93748571Y-85073571D01*
X93710000Y-84919285D01*
X93710000Y-84803571D01*
X93748571Y-84649285D01*
X93787142Y-84572142D01*
X93864285Y-84495000D01*
X93980000Y-84456428D01*
X94057142Y-84456428D01*
X94172857Y-84495000D01*
X94211428Y-84533571D01*
D11*
X109821428Y-123178571D02*
X109321428Y-122464285D01*
X108964285Y-123178571D02*
X108964285Y-121678571D01*
X109535714Y-121678571D01*
X109678571Y-121750000D01*
X109750000Y-121821428D01*
X109821428Y-121964285D01*
X109821428Y-122178571D01*
X109750000Y-122321428D01*
X109678571Y-122392857D01*
X109535714Y-122464285D01*
X108964285Y-122464285D01*
X110464285Y-123178571D02*
X110464285Y-121678571D01*
X111321428Y-123178571D02*
X110678571Y-122321428D01*
X111321428Y-121678571D02*
X110464285Y-122535714D01*
X113892857Y-121750000D02*
X113750000Y-121678571D01*
X113535714Y-121678571D01*
X113321428Y-121750000D01*
X113178571Y-121892857D01*
X113107142Y-122035714D01*
X113035714Y-122321428D01*
X113035714Y-122535714D01*
X113107142Y-122821428D01*
X113178571Y-122964285D01*
X113321428Y-123107142D01*
X113535714Y-123178571D01*
X113678571Y-123178571D01*
X113892857Y-123107142D01*
X113964285Y-123035714D01*
X113964285Y-122535714D01*
X113678571Y-122535714D01*
X115178571Y-123107142D02*
X115035714Y-123178571D01*
X114750000Y-123178571D01*
X114607142Y-123107142D01*
X114535714Y-122964285D01*
X114535714Y-122392857D01*
X114607142Y-122250000D01*
X114750000Y-122178571D01*
X115035714Y-122178571D01*
X115178571Y-122250000D01*
X115250000Y-122392857D01*
X115250000Y-122535714D01*
X114535714Y-122678571D01*
X115892857Y-122178571D02*
X115892857Y-123178571D01*
X115892857Y-122321428D02*
X115964285Y-122250000D01*
X116107142Y-122178571D01*
X116321428Y-122178571D01*
X116464285Y-122250000D01*
X116535714Y-122392857D01*
X116535714Y-123178571D01*
X117821428Y-123107142D02*
X117678571Y-123178571D01*
X117392857Y-123178571D01*
X117250000Y-123107142D01*
X117178571Y-122964285D01*
X117178571Y-122392857D01*
X117250000Y-122250000D01*
X117392857Y-122178571D01*
X117678571Y-122178571D01*
X117821428Y-122250000D01*
X117892857Y-122392857D01*
X117892857Y-122535714D01*
X117178571Y-122678571D01*
X118535714Y-123178571D02*
X118535714Y-122178571D01*
X118535714Y-122464285D02*
X118607142Y-122321428D01*
X118678571Y-122250000D01*
X118821428Y-122178571D01*
X118964285Y-122178571D01*
X120107142Y-123178571D02*
X120107142Y-122392857D01*
X120035714Y-122250000D01*
X119892857Y-122178571D01*
X119607142Y-122178571D01*
X119464285Y-122250000D01*
X120107142Y-123107142D02*
X119964285Y-123178571D01*
X119607142Y-123178571D01*
X119464285Y-123107142D01*
X119392857Y-122964285D01*
X119392857Y-122821428D01*
X119464285Y-122678571D01*
X119607142Y-122607142D01*
X119964285Y-122607142D01*
X120107142Y-122535714D01*
X120607142Y-122178571D02*
X121178571Y-122178571D01*
X120821428Y-121678571D02*
X120821428Y-122964285D01*
X120892857Y-123107142D01*
X121035714Y-123178571D01*
X121178571Y-123178571D01*
X121892857Y-123178571D02*
X121750000Y-123107142D01*
X121678571Y-123035714D01*
X121607142Y-122892857D01*
X121607142Y-122464285D01*
X121678571Y-122321428D01*
X121750000Y-122250000D01*
X121892857Y-122178571D01*
X122107142Y-122178571D01*
X122250000Y-122250000D01*
X122321428Y-122321428D01*
X122392857Y-122464285D01*
X122392857Y-122892857D01*
X122321428Y-123035714D01*
X122250000Y-123107142D01*
X122107142Y-123178571D01*
X121892857Y-123178571D01*
X123035714Y-123178571D02*
X123035714Y-122178571D01*
X123035714Y-122464285D02*
X123107142Y-122321428D01*
X123178571Y-122250000D01*
X123321428Y-122178571D01*
X123464285Y-122178571D01*
X125607142Y-122392857D02*
X125821428Y-122464285D01*
X125892857Y-122535714D01*
X125964285Y-122678571D01*
X125964285Y-122892857D01*
X125892857Y-123035714D01*
X125821428Y-123107142D01*
X125678571Y-123178571D01*
X125107142Y-123178571D01*
X125107142Y-121678571D01*
X125607142Y-121678571D01*
X125750000Y-121750000D01*
X125821428Y-121821428D01*
X125892857Y-121964285D01*
X125892857Y-122107142D01*
X125821428Y-122250000D01*
X125750000Y-122321428D01*
X125607142Y-122392857D01*
X125107142Y-122392857D01*
X126607142Y-122607142D02*
X127750000Y-122607142D01*
X129250000Y-121750000D02*
X129107142Y-121678571D01*
X128892857Y-121678571D01*
X128678571Y-121750000D01*
X128535714Y-121892857D01*
X128464285Y-122035714D01*
X128392857Y-122321428D01*
X128392857Y-122535714D01*
X128464285Y-122821428D01*
X128535714Y-122964285D01*
X128678571Y-123107142D01*
X128892857Y-123178571D01*
X129035714Y-123178571D01*
X129250000Y-123107142D01*
X129321428Y-123035714D01*
X129321428Y-122535714D01*
X129035714Y-122535714D01*
X130892857Y-121678571D02*
X131750000Y-121678571D01*
X131321428Y-123178571D02*
X131321428Y-121678571D01*
X132250000Y-123178571D02*
X132250000Y-121678571D01*
X132964285Y-123178571D02*
X132964285Y-121678571D01*
X133464285Y-122750000D01*
X133964285Y-121678571D01*
X133964285Y-123178571D01*
X134678571Y-123178571D02*
X134678571Y-121678571D01*
X135250000Y-121678571D01*
X135392857Y-121750000D01*
X135464285Y-121821428D01*
X135535714Y-121964285D01*
X135535714Y-122178571D01*
X135464285Y-122321428D01*
X135392857Y-122392857D01*
X135250000Y-122464285D01*
X134678571Y-122464285D01*
X137250000Y-121821428D02*
X137321428Y-121750000D01*
X137464285Y-121678571D01*
X137821428Y-121678571D01*
X137964285Y-121750000D01*
X138035714Y-121821428D01*
X138107142Y-121964285D01*
X138107142Y-122107142D01*
X138035714Y-122321428D01*
X137178571Y-123178571D01*
X138107142Y-123178571D01*
X139035714Y-121678571D02*
X139178571Y-121678571D01*
X139321428Y-121750000D01*
X139392857Y-121821428D01*
X139464285Y-121964285D01*
X139535714Y-122250000D01*
X139535714Y-122607142D01*
X139464285Y-122892857D01*
X139392857Y-123035714D01*
X139321428Y-123107142D01*
X139178571Y-123178571D01*
X139035714Y-123178571D01*
X138892857Y-123107142D01*
X138821428Y-123035714D01*
X138750000Y-122892857D01*
X138678571Y-122607142D01*
X138678571Y-122250000D01*
X138750000Y-121964285D01*
X138821428Y-121821428D01*
X138892857Y-121750000D01*
X139035714Y-121678571D01*
X140107142Y-121821428D02*
X140178571Y-121750000D01*
X140321428Y-121678571D01*
X140678571Y-121678571D01*
X140821428Y-121750000D01*
X140892857Y-121821428D01*
X140964285Y-121964285D01*
X140964285Y-122107142D01*
X140892857Y-122321428D01*
X140035714Y-123178571D01*
X140964285Y-123178571D01*
X142392857Y-123178571D02*
X141535714Y-123178571D01*
X141964285Y-123178571D02*
X141964285Y-121678571D01*
X141821428Y-121892857D01*
X141678571Y-122035714D01*
X141535714Y-122107142D01*
X144035714Y-122178571D02*
X144392857Y-123178571D01*
X144750000Y-122178571D01*
X146107142Y-123178571D02*
X145250000Y-123178571D01*
X145678571Y-123178571D02*
X145678571Y-121678571D01*
X145535714Y-121892857D01*
X145392857Y-122035714D01*
X145250000Y-122107142D01*
D12*
X143678571Y-117857142D02*
X145392857Y-117857142D01*
X144535714Y-120857142D02*
X144535714Y-117857142D01*
X148107142Y-120857142D02*
X147107142Y-119428571D01*
X146392857Y-120857142D02*
X146392857Y-117857142D01*
X147535714Y-117857142D01*
X147821428Y-118000000D01*
X147964285Y-118142857D01*
X148107142Y-118428571D01*
X148107142Y-118857142D01*
X147964285Y-119142857D01*
X147821428Y-119285714D01*
X147535714Y-119428571D01*
X146392857Y-119428571D01*
X149392857Y-120857142D02*
X149392857Y-117857142D01*
X142571428Y-74964285D02*
X143000000Y-75107142D01*
X143714285Y-75107142D01*
X144000000Y-74964285D01*
X144142857Y-74821428D01*
X144285714Y-74535714D01*
X144285714Y-74250000D01*
X144142857Y-73964285D01*
X144000000Y-73821428D01*
X143714285Y-73678571D01*
X143142857Y-73535714D01*
X142857142Y-73392857D01*
X142714285Y-73250000D01*
X142571428Y-72964285D01*
X142571428Y-72678571D01*
X142714285Y-72392857D01*
X142857142Y-72250000D01*
X143142857Y-72107142D01*
X143857142Y-72107142D01*
X144285714Y-72250000D01*
X147571428Y-75392857D02*
X147285714Y-75250000D01*
X147000000Y-74964285D01*
X146571428Y-74535714D01*
X146285714Y-74392857D01*
X146000000Y-74392857D01*
X146142857Y-75107142D02*
X145857142Y-74964285D01*
X145571428Y-74678571D01*
X145428571Y-74107142D01*
X145428571Y-73107142D01*
X145571428Y-72535714D01*
X145857142Y-72250000D01*
X146142857Y-72107142D01*
X146714285Y-72107142D01*
X147000000Y-72250000D01*
X147285714Y-72535714D01*
X147428571Y-73107142D01*
X147428571Y-74107142D01*
X147285714Y-74678571D01*
X147000000Y-74964285D01*
X146714285Y-75107142D01*
X146142857Y-75107142D01*
X150428571Y-75107142D02*
X149428571Y-73678571D01*
X148714285Y-75107142D02*
X148714285Y-72107142D01*
X149857142Y-72107142D01*
X150142857Y-72250000D01*
X150285714Y-72392857D01*
X150428571Y-72678571D01*
X150428571Y-73107142D01*
X150285714Y-73392857D01*
X150142857Y-73535714D01*
X149857142Y-73678571D01*
X148714285Y-73678571D01*
D13*
%TO.C,REF\u002A\u002A*%
X114800000Y-120450000D02*
X114800000Y-118550000D01*
X116700000Y-120450000D02*
X114800000Y-120450000D01*
X116700000Y-118550000D02*
X116700000Y-120450000D01*
X114800000Y-118550000D02*
X116700000Y-118550000D01*
X101050000Y-91700000D02*
X101050000Y-89800000D01*
X102950000Y-91700000D02*
X101050000Y-91700000D01*
X102950000Y-89800000D02*
X102950000Y-91700000D01*
X101050000Y-89800000D02*
X102950000Y-89800000D01*
X116550000Y-100700000D02*
X116550000Y-98800000D01*
X118450000Y-100700000D02*
X116550000Y-100700000D01*
X118450000Y-98800000D02*
X118450000Y-100700000D01*
X116550000Y-98800000D02*
X118450000Y-98800000D01*
X114050000Y-90700000D02*
X114050000Y-88800000D01*
X115950000Y-90700000D02*
X114050000Y-90700000D01*
X115950000Y-88800000D02*
X115950000Y-90700000D01*
X114050000Y-88800000D02*
X115950000Y-88800000D01*
X123300000Y-74950000D02*
X123300000Y-73050000D01*
X125200000Y-74950000D02*
X123300000Y-74950000D01*
X125200000Y-73050000D02*
X125200000Y-74950000D01*
X123300000Y-73050000D02*
X125200000Y-73050000D01*
X116550000Y-97450000D02*
X116550000Y-95550000D01*
X118450000Y-97450000D02*
X116550000Y-97450000D01*
X118450000Y-95550000D02*
X118450000Y-97450000D01*
X116550000Y-95550000D02*
X118450000Y-95550000D01*
X101050000Y-94200000D02*
X101050000Y-92300000D01*
X102950000Y-94200000D02*
X101050000Y-94200000D01*
X102950000Y-92300000D02*
X102950000Y-94200000D01*
X101050000Y-92300000D02*
X102950000Y-92300000D01*
%TO.C,R41*%
X128727064Y-98910000D02*
X127272936Y-98910000D01*
X128727064Y-97090000D02*
X127272936Y-97090000D01*
%TO.C,R40*%
X128515000Y-92477064D02*
X128515000Y-92022936D01*
X129985000Y-92477064D02*
X129985000Y-92022936D01*
%TO.C,R32*%
X125735000Y-109772936D02*
X125735000Y-110227064D01*
X124265000Y-109772936D02*
X124265000Y-110227064D01*
%TO.C,C1*%
X102765000Y-79511252D02*
X102765000Y-78988748D01*
X104235000Y-79511252D02*
X104235000Y-78988748D01*
%TO.C,C2*%
X108011252Y-105235000D02*
X107488748Y-105235000D01*
X108011252Y-103765000D02*
X107488748Y-103765000D01*
%TO.C,C3*%
X112011252Y-82485000D02*
X111488748Y-82485000D01*
X112011252Y-81015000D02*
X111488748Y-81015000D01*
%TO.C,C4*%
X133765000Y-80738748D02*
X133765000Y-81261252D01*
X135235000Y-80738748D02*
X135235000Y-81261252D01*
%TO.C,C5*%
X135961252Y-107590000D02*
X134538748Y-107590000D01*
X135961252Y-109410000D02*
X134538748Y-109410000D01*
%TO.C,C6*%
X135711252Y-90210000D02*
X134288748Y-90210000D01*
X135711252Y-88390000D02*
X134288748Y-88390000D01*
%TO.C,C7*%
X94510000Y-80490000D02*
X91760000Y-80490000D01*
X85990000Y-80490000D02*
X88740000Y-80490000D01*
X85990000Y-87945563D02*
X85990000Y-80490000D01*
X94510000Y-87945563D02*
X94510000Y-80490000D01*
X93445563Y-89010000D02*
X91760000Y-89010000D01*
X87054437Y-89010000D02*
X88740000Y-89010000D01*
X87054437Y-89010000D02*
X85990000Y-87945563D01*
X93445563Y-89010000D02*
X94510000Y-87945563D01*
X87740000Y-90250000D02*
X87740000Y-89250000D01*
X87240000Y-89750000D02*
X88240000Y-89750000D01*
%TO.C,C8*%
X96910000Y-86038748D02*
X96910000Y-87461252D01*
X95090000Y-86038748D02*
X95090000Y-87461252D01*
%TO.C,C9*%
X116511252Y-81015000D02*
X115988748Y-81015000D01*
X116511252Y-82485000D02*
X115988748Y-82485000D01*
%TO.C,C10*%
X125160000Y-84211252D02*
X125160000Y-82788748D01*
X123340000Y-84211252D02*
X123340000Y-82788748D01*
%TO.C,C11*%
X101985000Y-75511252D02*
X101985000Y-74988748D01*
X100515000Y-75511252D02*
X100515000Y-74988748D01*
%TO.C,C12*%
X111488748Y-109985000D02*
X112011252Y-109985000D01*
X111488748Y-108515000D02*
X112011252Y-108515000D01*
%TO.C,C13*%
X102765000Y-75511252D02*
X102765000Y-74988748D01*
X104235000Y-75511252D02*
X104235000Y-74988748D01*
%TO.C,C14*%
X102761252Y-86985000D02*
X102238748Y-86985000D01*
X102761252Y-85515000D02*
X102238748Y-85515000D01*
%TO.C,C15*%
X104015000Y-90511252D02*
X104015000Y-89988748D01*
X105485000Y-90511252D02*
X105485000Y-89988748D01*
%TO.C,C16*%
X107488748Y-108515000D02*
X108011252Y-108515000D01*
X107488748Y-109985000D02*
X108011252Y-109985000D01*
%TO.C,C17*%
X128765000Y-85738748D02*
X128765000Y-86261252D01*
X130235000Y-85738748D02*
X130235000Y-86261252D01*
%TO.C,C18*%
X109515000Y-89988748D02*
X109515000Y-90511252D01*
X110985000Y-89988748D02*
X110985000Y-90511252D01*
%TO.C,C19*%
X126015000Y-74238748D02*
X126015000Y-74761252D01*
X127485000Y-74238748D02*
X127485000Y-74761252D01*
%TO.C,C20*%
X127985000Y-85738748D02*
X127985000Y-86261252D01*
X126515000Y-85738748D02*
X126515000Y-86261252D01*
%TO.C,C21*%
X124511252Y-102985000D02*
X123988748Y-102985000D01*
X124511252Y-101515000D02*
X123988748Y-101515000D01*
%TO.C,C22*%
X120011252Y-88515000D02*
X119488748Y-88515000D01*
X120011252Y-89985000D02*
X119488748Y-89985000D01*
%TO.C,C23*%
X131265000Y-98488748D02*
X131265000Y-99011252D01*
X132735000Y-98488748D02*
X132735000Y-99011252D01*
%TO.C,C24*%
X123410000Y-106711252D02*
X123410000Y-105288748D01*
X121590000Y-106711252D02*
X121590000Y-105288748D01*
%TO.C,C25*%
X122015000Y-114988748D02*
X122015000Y-115511252D01*
X123485000Y-114988748D02*
X123485000Y-115511252D01*
%TO.C,C26*%
X87240000Y-111250000D02*
X88240000Y-111250000D01*
X87740000Y-111750000D02*
X87740000Y-110750000D01*
X93445563Y-110510000D02*
X94510000Y-109445563D01*
X87054437Y-110510000D02*
X85990000Y-109445563D01*
X87054437Y-110510000D02*
X88740000Y-110510000D01*
X93445563Y-110510000D02*
X91760000Y-110510000D01*
X94510000Y-109445563D02*
X94510000Y-101990000D01*
X85990000Y-109445563D02*
X85990000Y-101990000D01*
X85990000Y-101990000D02*
X88740000Y-101990000D01*
X94510000Y-101990000D02*
X91760000Y-101990000D01*
%TO.C,C27*%
X99660000Y-86038748D02*
X99660000Y-87461252D01*
X97840000Y-86038748D02*
X97840000Y-87461252D01*
%TO.C,C28*%
X97761252Y-114985000D02*
X97238748Y-114985000D01*
X97761252Y-113515000D02*
X97238748Y-113515000D01*
%TO.C,C29*%
X98340000Y-104288748D02*
X98340000Y-105711252D01*
X100160000Y-104288748D02*
X100160000Y-105711252D01*
%TO.C,C30*%
X97160000Y-104288748D02*
X97160000Y-105711252D01*
X95340000Y-104288748D02*
X95340000Y-105711252D01*
%TO.C,D1*%
X109250000Y-76000000D02*
X109250000Y-78000000D01*
X109250000Y-78000000D02*
X113150000Y-78000000D01*
X109250000Y-76000000D02*
X113150000Y-76000000D01*
%TO.C,D2*%
X118750000Y-78000000D02*
X114850000Y-78000000D01*
X118750000Y-76000000D02*
X114850000Y-76000000D01*
X118750000Y-78000000D02*
X118750000Y-76000000D01*
%TO.C,D3*%
X110800000Y-83150000D02*
X112650000Y-83150000D01*
X110800000Y-84350000D02*
X112650000Y-84350000D01*
X112650000Y-84350000D02*
X112650000Y-83150000D01*
%TO.C,D4*%
X115600000Y-83150000D02*
X115600000Y-84350000D01*
X117450000Y-83150000D02*
X115600000Y-83150000D01*
X117450000Y-84350000D02*
X115600000Y-84350000D01*
%TO.C,D5*%
X99000000Y-112750000D02*
X95100000Y-112750000D01*
X99000000Y-110750000D02*
X95100000Y-110750000D01*
X99000000Y-112750000D02*
X99000000Y-110750000D01*
%TO.C,D6*%
X93865000Y-96400000D02*
X93865000Y-100285000D01*
X93865000Y-100285000D02*
X96135000Y-100285000D01*
X96135000Y-100285000D02*
X96135000Y-96400000D01*
%TO.C,D7*%
X100135000Y-100285000D02*
X100135000Y-96400000D01*
X97865000Y-100285000D02*
X100135000Y-100285000D01*
X97865000Y-96400000D02*
X97865000Y-100285000D01*
%TO.C,J1*%
X154450000Y-100750000D02*
X154450000Y-115750000D01*
X154450000Y-115750000D02*
X139450000Y-115750000D01*
X139450000Y-115750000D02*
X139450000Y-100750000D01*
X139450000Y-100750000D02*
X154450000Y-100750000D01*
X154250000Y-108250000D02*
X153250000Y-107250000D01*
X154250000Y-108250000D02*
X153250000Y-109250000D01*
%TO.C,J2*%
X154250000Y-84250000D02*
X153250000Y-85250000D01*
X154250000Y-84250000D02*
X153250000Y-83250000D01*
X139450000Y-76750000D02*
X154450000Y-76750000D01*
X139450000Y-91750000D02*
X139450000Y-76750000D01*
X154450000Y-91750000D02*
X139450000Y-91750000D01*
X154450000Y-76750000D02*
X154450000Y-91750000D01*
%TO.C,J3*%
X88670000Y-91670000D02*
X90000000Y-91670000D01*
X88670000Y-93000000D02*
X88670000Y-91670000D01*
X88670000Y-94270000D02*
X91330000Y-94270000D01*
X91330000Y-94270000D02*
X91330000Y-99410000D01*
X88670000Y-94270000D02*
X88670000Y-99410000D01*
X88670000Y-99410000D02*
X91330000Y-99410000D01*
%TO.C,Q1*%
X108580000Y-82490000D02*
X108580000Y-83950000D01*
X105420000Y-82490000D02*
X105420000Y-84650000D01*
X105420000Y-82490000D02*
X106350000Y-82490000D01*
X108580000Y-82490000D02*
X107650000Y-82490000D01*
%TO.C,Q2*%
X108580000Y-76490000D02*
X108580000Y-77950000D01*
X105420000Y-76490000D02*
X105420000Y-78650000D01*
X105420000Y-76490000D02*
X106350000Y-76490000D01*
X108580000Y-76490000D02*
X107650000Y-76490000D01*
%TO.C,Q3*%
X122580000Y-75990000D02*
X121650000Y-75990000D01*
X119420000Y-75990000D02*
X120350000Y-75990000D01*
X119420000Y-75990000D02*
X119420000Y-78150000D01*
X122580000Y-75990000D02*
X122580000Y-77450000D01*
%TO.C,Q4*%
X122580000Y-81990000D02*
X121650000Y-81990000D01*
X119420000Y-81990000D02*
X120350000Y-81990000D01*
X119420000Y-81990000D02*
X119420000Y-84150000D01*
X122580000Y-81990000D02*
X122580000Y-83450000D01*
%TO.C,Q5*%
X121920000Y-93010000D02*
X121920000Y-91550000D01*
X125080000Y-93010000D02*
X125080000Y-90850000D01*
X125080000Y-93010000D02*
X124150000Y-93010000D01*
X121920000Y-93010000D02*
X122850000Y-93010000D01*
%TO.C,Q6*%
X109330000Y-93490000D02*
X109330000Y-94950000D01*
X106170000Y-93490000D02*
X106170000Y-95650000D01*
X106170000Y-93490000D02*
X107100000Y-93490000D01*
X109330000Y-93490000D02*
X108400000Y-93490000D01*
%TO.C,Q7*%
X113330000Y-101990000D02*
X113330000Y-103450000D01*
X110170000Y-101990000D02*
X110170000Y-104150000D01*
X110170000Y-101990000D02*
X111100000Y-101990000D01*
X113330000Y-101990000D02*
X112400000Y-101990000D01*
%TO.C,Q8*%
X113330000Y-93490000D02*
X112400000Y-93490000D01*
X110170000Y-93490000D02*
X111100000Y-93490000D01*
X110170000Y-93490000D02*
X110170000Y-95650000D01*
X113330000Y-93490000D02*
X113330000Y-94950000D01*
%TO.C,Q9*%
X129580000Y-104490000D02*
X128650000Y-104490000D01*
X126420000Y-104490000D02*
X127350000Y-104490000D01*
X126420000Y-104490000D02*
X126420000Y-106650000D01*
X129580000Y-104490000D02*
X129580000Y-105950000D01*
%TO.C,R1*%
X101985000Y-83022936D02*
X101985000Y-83477064D01*
X100515000Y-83022936D02*
X100515000Y-83477064D01*
%TO.C,R2*%
X100515000Y-79022936D02*
X100515000Y-79477064D01*
X101985000Y-79022936D02*
X101985000Y-79477064D01*
%TO.C,R3*%
X104235000Y-83477064D02*
X104235000Y-83022936D01*
X102765000Y-83477064D02*
X102765000Y-83022936D01*
%TO.C,R4*%
X107977064Y-98765000D02*
X107522936Y-98765000D01*
X107977064Y-100235000D02*
X107522936Y-100235000D01*
%TO.C,R5*%
X107522936Y-101265000D02*
X107977064Y-101265000D01*
X107522936Y-102735000D02*
X107977064Y-102735000D01*
%TO.C,R6*%
X106772936Y-73515000D02*
X107227064Y-73515000D01*
X106772936Y-74985000D02*
X107227064Y-74985000D01*
%TO.C,R7*%
X107227064Y-80985000D02*
X106772936Y-80985000D01*
X107227064Y-79515000D02*
X106772936Y-79515000D01*
%TO.C,R8*%
X106772936Y-86985000D02*
X107227064Y-86985000D01*
X106772936Y-85515000D02*
X107227064Y-85515000D01*
%TO.C,R9*%
X103765000Y-94477064D02*
X103765000Y-94022936D01*
X105235000Y-94477064D02*
X105235000Y-94022936D01*
%TO.C,R10*%
X111977064Y-80235000D02*
X111522936Y-80235000D01*
X111977064Y-78765000D02*
X111522936Y-78765000D01*
%TO.C,R11*%
X108485000Y-90477064D02*
X108485000Y-90022936D01*
X107015000Y-90477064D02*
X107015000Y-90022936D01*
%TO.C,R12*%
X107977064Y-106265000D02*
X107522936Y-106265000D01*
X107977064Y-107735000D02*
X107522936Y-107735000D01*
%TO.C,R13*%
X112227064Y-73765000D02*
X111772936Y-73765000D01*
X112227064Y-75235000D02*
X111772936Y-75235000D01*
%TO.C,R14*%
X107977064Y-96515000D02*
X107522936Y-96515000D01*
X107977064Y-97985000D02*
X107522936Y-97985000D01*
%TO.C,R15*%
X111522936Y-100235000D02*
X111977064Y-100235000D01*
X111522936Y-98765000D02*
X111977064Y-98765000D01*
%TO.C,R16*%
X111522936Y-106265000D02*
X111977064Y-106265000D01*
X111522936Y-107735000D02*
X111977064Y-107735000D01*
%TO.C,R17*%
X115772936Y-73765000D02*
X116227064Y-73765000D01*
X115772936Y-75235000D02*
X116227064Y-75235000D01*
%TO.C,R18*%
X111977064Y-97985000D02*
X111522936Y-97985000D01*
X111977064Y-96515000D02*
X111522936Y-96515000D01*
%TO.C,R19*%
X116477064Y-80235000D02*
X116022936Y-80235000D01*
X116477064Y-78765000D02*
X116022936Y-78765000D01*
%TO.C,R20*%
X113235000Y-90477064D02*
X113235000Y-90022936D01*
X111765000Y-90477064D02*
X111765000Y-90022936D01*
%TO.C,R21*%
X120772936Y-73015000D02*
X121227064Y-73015000D01*
X120772936Y-74485000D02*
X121227064Y-74485000D01*
%TO.C,R22*%
X120772936Y-80485000D02*
X121227064Y-80485000D01*
X120772936Y-79015000D02*
X121227064Y-79015000D01*
%TO.C,R23*%
X121227064Y-85015000D02*
X120772936Y-85015000D01*
X121227064Y-86485000D02*
X120772936Y-86485000D01*
%TO.C,R24*%
X114265000Y-94022936D02*
X114265000Y-94477064D01*
X115735000Y-94022936D02*
X115735000Y-94477064D01*
%TO.C,R25*%
X128485000Y-81227064D02*
X128485000Y-80772936D01*
X127015000Y-81227064D02*
X127015000Y-80772936D01*
%TO.C,R26*%
X129265000Y-81227064D02*
X129265000Y-80772936D01*
X130735000Y-81227064D02*
X130735000Y-80772936D01*
%TO.C,R27*%
X132985000Y-81227064D02*
X132985000Y-80772936D01*
X131515000Y-81227064D02*
X131515000Y-80772936D01*
%TO.C,R28*%
X113265000Y-84522936D02*
X113265000Y-84977064D01*
X114735000Y-84522936D02*
X114735000Y-84977064D01*
%TO.C,R29*%
X125735000Y-106227064D02*
X125735000Y-105772936D01*
X124265000Y-106227064D02*
X124265000Y-105772936D01*
%TO.C,R30*%
X123272936Y-88515000D02*
X123727064Y-88515000D01*
X123272936Y-89985000D02*
X123727064Y-89985000D01*
%TO.C,R31*%
X128227064Y-108985000D02*
X127772936Y-108985000D01*
X128227064Y-107515000D02*
X127772936Y-107515000D01*
%TO.C,R33*%
X126015000Y-92477064D02*
X126015000Y-92022936D01*
X127485000Y-92477064D02*
X127485000Y-92022936D01*
%TO.C,R34*%
X127272936Y-94590000D02*
X128727064Y-94590000D01*
X127272936Y-96410000D02*
X128727064Y-96410000D01*
%TO.C,R35*%
X128227064Y-109765000D02*
X127772936Y-109765000D01*
X128227064Y-111235000D02*
X127772936Y-111235000D01*
%TO.C,R36*%
X130022936Y-88515000D02*
X130477064Y-88515000D01*
X130022936Y-89985000D02*
X130477064Y-89985000D01*
%TO.C,R37*%
X97272936Y-108515000D02*
X97727064Y-108515000D01*
X97272936Y-109985000D02*
X97727064Y-109985000D01*
%TO.C,R38*%
X123272936Y-98735000D02*
X123727064Y-98735000D01*
X123272936Y-97265000D02*
X123727064Y-97265000D01*
%TO.C,R39*%
X123272936Y-94765000D02*
X123727064Y-94765000D01*
X123272936Y-96235000D02*
X123727064Y-96235000D01*
%TO.C,R42*%
X123485000Y-110022936D02*
X123485000Y-110477064D01*
X122015000Y-110022936D02*
X122015000Y-110477064D01*
%TO.C,R43*%
X127772936Y-101515000D02*
X128227064Y-101515000D01*
X127772936Y-102985000D02*
X128227064Y-102985000D01*
%TO.C,R44*%
X126522936Y-112090000D02*
X127977064Y-112090000D01*
X126522936Y-113910000D02*
X127977064Y-113910000D01*
%TO.C,R45*%
X127977064Y-114840000D02*
X126522936Y-114840000D01*
X127977064Y-116660000D02*
X126522936Y-116660000D01*
%TO.C,R46*%
X94265000Y-92772936D02*
X94265000Y-93227064D01*
X95735000Y-92772936D02*
X95735000Y-93227064D01*
%TO.C,R47*%
X99735000Y-92772936D02*
X99735000Y-93227064D01*
X98265000Y-92772936D02*
X98265000Y-93227064D01*
%TO.C,RV1*%
X106420000Y-119175000D02*
X106420000Y-119370000D01*
X106420000Y-116130000D02*
X106420000Y-116325000D01*
X101379000Y-116676000D02*
X101379000Y-118825000D01*
X102737000Y-119370000D02*
X106420000Y-119370000D01*
X102737000Y-116130000D02*
X106420000Y-116130000D01*
X101379000Y-116676000D02*
X101379000Y-118825000D01*
X101379000Y-112729000D02*
X101379000Y-113824000D01*
X101379000Y-121675000D02*
X101379000Y-122770000D01*
X106420000Y-119175000D02*
X106420000Y-122770000D01*
X106420000Y-112729000D02*
X106420000Y-116325000D01*
X101379000Y-122770000D02*
X106420000Y-122770000D01*
X101379000Y-112729000D02*
X106420000Y-112729000D01*
%TO.C,R41*%
D14*
X127357142Y-100272380D02*
X127023809Y-99796190D01*
X126785714Y-100272380D02*
X126785714Y-99272380D01*
X127166666Y-99272380D01*
X127261904Y-99320000D01*
X127309523Y-99367619D01*
X127357142Y-99462857D01*
X127357142Y-99605714D01*
X127309523Y-99700952D01*
X127261904Y-99748571D01*
X127166666Y-99796190D01*
X126785714Y-99796190D01*
X128214285Y-99605714D02*
X128214285Y-100272380D01*
X127976190Y-99224761D02*
X127738095Y-99939047D01*
X128357142Y-99939047D01*
X129261904Y-100272380D02*
X128690476Y-100272380D01*
X128976190Y-100272380D02*
X128976190Y-99272380D01*
X128880952Y-99415238D01*
X128785714Y-99510476D01*
X128690476Y-99558095D01*
%TO.C,R40*%
X131702380Y-92892857D02*
X131226190Y-93226190D01*
X131702380Y-93464285D02*
X130702380Y-93464285D01*
X130702380Y-93083333D01*
X130750000Y-92988095D01*
X130797619Y-92940476D01*
X130892857Y-92892857D01*
X131035714Y-92892857D01*
X131130952Y-92940476D01*
X131178571Y-92988095D01*
X131226190Y-93083333D01*
X131226190Y-93464285D01*
X131035714Y-92035714D02*
X131702380Y-92035714D01*
X130654761Y-92273809D02*
X131369047Y-92511904D01*
X131369047Y-91892857D01*
X130702380Y-91321428D02*
X130702380Y-91226190D01*
X130750000Y-91130952D01*
X130797619Y-91083333D01*
X130892857Y-91035714D01*
X131083333Y-90988095D01*
X131321428Y-90988095D01*
X131511904Y-91035714D01*
X131607142Y-91083333D01*
X131654761Y-91130952D01*
X131702380Y-91226190D01*
X131702380Y-91321428D01*
X131654761Y-91416666D01*
X131607142Y-91464285D01*
X131511904Y-91511904D01*
X131321428Y-91559523D01*
X131083333Y-91559523D01*
X130892857Y-91511904D01*
X130797619Y-91464285D01*
X130750000Y-91416666D01*
X130702380Y-91321428D01*
%TO.C,R32*%
X124107142Y-108702380D02*
X123773809Y-108226190D01*
X123535714Y-108702380D02*
X123535714Y-107702380D01*
X123916666Y-107702380D01*
X124011904Y-107750000D01*
X124059523Y-107797619D01*
X124107142Y-107892857D01*
X124107142Y-108035714D01*
X124059523Y-108130952D01*
X124011904Y-108178571D01*
X123916666Y-108226190D01*
X123535714Y-108226190D01*
X124440476Y-107702380D02*
X125059523Y-107702380D01*
X124726190Y-108083333D01*
X124869047Y-108083333D01*
X124964285Y-108130952D01*
X125011904Y-108178571D01*
X125059523Y-108273809D01*
X125059523Y-108511904D01*
X125011904Y-108607142D01*
X124964285Y-108654761D01*
X124869047Y-108702380D01*
X124583333Y-108702380D01*
X124488095Y-108654761D01*
X124440476Y-108607142D01*
X125440476Y-107797619D02*
X125488095Y-107750000D01*
X125583333Y-107702380D01*
X125821428Y-107702380D01*
X125916666Y-107750000D01*
X125964285Y-107797619D01*
X126011904Y-107892857D01*
X126011904Y-107988095D01*
X125964285Y-108130952D01*
X125392857Y-108702380D01*
X126011904Y-108702380D01*
%TO.C,C1*%
X105357142Y-78166666D02*
X105404761Y-78214285D01*
X105452380Y-78357142D01*
X105452380Y-78452380D01*
X105404761Y-78595238D01*
X105309523Y-78690476D01*
X105214285Y-78738095D01*
X105023809Y-78785714D01*
X104880952Y-78785714D01*
X104690476Y-78738095D01*
X104595238Y-78690476D01*
X104500000Y-78595238D01*
X104452380Y-78452380D01*
X104452380Y-78357142D01*
X104500000Y-78214285D01*
X104547619Y-78166666D01*
X105452380Y-77214285D02*
X105452380Y-77785714D01*
X105452380Y-77500000D02*
X104452380Y-77500000D01*
X104595238Y-77595238D01*
X104690476Y-77690476D01*
X104738095Y-77785714D01*
%TO.C,C2*%
X104583333Y-105107142D02*
X104535714Y-105154761D01*
X104392857Y-105202380D01*
X104297619Y-105202380D01*
X104154761Y-105154761D01*
X104059523Y-105059523D01*
X104011904Y-104964285D01*
X103964285Y-104773809D01*
X103964285Y-104630952D01*
X104011904Y-104440476D01*
X104059523Y-104345238D01*
X104154761Y-104250000D01*
X104297619Y-104202380D01*
X104392857Y-104202380D01*
X104535714Y-104250000D01*
X104583333Y-104297619D01*
X104964285Y-104297619D02*
X105011904Y-104250000D01*
X105107142Y-104202380D01*
X105345238Y-104202380D01*
X105440476Y-104250000D01*
X105488095Y-104297619D01*
X105535714Y-104392857D01*
X105535714Y-104488095D01*
X105488095Y-104630952D01*
X104916666Y-105202380D01*
X105535714Y-105202380D01*
%TO.C,C3*%
X109083333Y-82107142D02*
X109035714Y-82154761D01*
X108892857Y-82202380D01*
X108797619Y-82202380D01*
X108654761Y-82154761D01*
X108559523Y-82059523D01*
X108511904Y-81964285D01*
X108464285Y-81773809D01*
X108464285Y-81630952D01*
X108511904Y-81440476D01*
X108559523Y-81345238D01*
X108654761Y-81250000D01*
X108797619Y-81202380D01*
X108892857Y-81202380D01*
X109035714Y-81250000D01*
X109083333Y-81297619D01*
X109416666Y-81202380D02*
X110035714Y-81202380D01*
X109702380Y-81583333D01*
X109845238Y-81583333D01*
X109940476Y-81630952D01*
X109988095Y-81678571D01*
X110035714Y-81773809D01*
X110035714Y-82011904D01*
X109988095Y-82107142D01*
X109940476Y-82154761D01*
X109845238Y-82202380D01*
X109559523Y-82202380D01*
X109464285Y-82154761D01*
X109416666Y-82107142D01*
%TO.C,C4*%
X136333333Y-81257142D02*
X136285714Y-81304761D01*
X136142857Y-81352380D01*
X136047619Y-81352380D01*
X135904761Y-81304761D01*
X135809523Y-81209523D01*
X135761904Y-81114285D01*
X135714285Y-80923809D01*
X135714285Y-80780952D01*
X135761904Y-80590476D01*
X135809523Y-80495238D01*
X135904761Y-80400000D01*
X136047619Y-80352380D01*
X136142857Y-80352380D01*
X136285714Y-80400000D01*
X136333333Y-80447619D01*
X137190476Y-80685714D02*
X137190476Y-81352380D01*
X136952380Y-80304761D02*
X136714285Y-81019047D01*
X137333333Y-81019047D01*
%TO.C,C5*%
X135083333Y-110707142D02*
X135035714Y-110754761D01*
X134892857Y-110802380D01*
X134797619Y-110802380D01*
X134654761Y-110754761D01*
X134559523Y-110659523D01*
X134511904Y-110564285D01*
X134464285Y-110373809D01*
X134464285Y-110230952D01*
X134511904Y-110040476D01*
X134559523Y-109945238D01*
X134654761Y-109850000D01*
X134797619Y-109802380D01*
X134892857Y-109802380D01*
X135035714Y-109850000D01*
X135083333Y-109897619D01*
X135988095Y-109802380D02*
X135511904Y-109802380D01*
X135464285Y-110278571D01*
X135511904Y-110230952D01*
X135607142Y-110183333D01*
X135845238Y-110183333D01*
X135940476Y-110230952D01*
X135988095Y-110278571D01*
X136035714Y-110373809D01*
X136035714Y-110611904D01*
X135988095Y-110707142D01*
X135940476Y-110754761D01*
X135845238Y-110802380D01*
X135607142Y-110802380D01*
X135511904Y-110754761D01*
X135464285Y-110707142D01*
%TO.C,C6*%
X136433333Y-87907142D02*
X136385714Y-87954761D01*
X136242857Y-88002380D01*
X136147619Y-88002380D01*
X136004761Y-87954761D01*
X135909523Y-87859523D01*
X135861904Y-87764285D01*
X135814285Y-87573809D01*
X135814285Y-87430952D01*
X135861904Y-87240476D01*
X135909523Y-87145238D01*
X136004761Y-87050000D01*
X136147619Y-87002380D01*
X136242857Y-87002380D01*
X136385714Y-87050000D01*
X136433333Y-87097619D01*
X137290476Y-87002380D02*
X137100000Y-87002380D01*
X137004761Y-87050000D01*
X136957142Y-87097619D01*
X136861904Y-87240476D01*
X136814285Y-87430952D01*
X136814285Y-87811904D01*
X136861904Y-87907142D01*
X136909523Y-87954761D01*
X137004761Y-88002380D01*
X137195238Y-88002380D01*
X137290476Y-87954761D01*
X137338095Y-87907142D01*
X137385714Y-87811904D01*
X137385714Y-87573809D01*
X137338095Y-87478571D01*
X137290476Y-87430952D01*
X137195238Y-87383333D01*
X137004761Y-87383333D01*
X136909523Y-87430952D01*
X136861904Y-87478571D01*
X136814285Y-87573809D01*
%TO.C,C7*%
X86833333Y-80107142D02*
X86785714Y-80154761D01*
X86642857Y-80202380D01*
X86547619Y-80202380D01*
X86404761Y-80154761D01*
X86309523Y-80059523D01*
X86261904Y-79964285D01*
X86214285Y-79773809D01*
X86214285Y-79630952D01*
X86261904Y-79440476D01*
X86309523Y-79345238D01*
X86404761Y-79250000D01*
X86547619Y-79202380D01*
X86642857Y-79202380D01*
X86785714Y-79250000D01*
X86833333Y-79297619D01*
X87166666Y-79202380D02*
X87833333Y-79202380D01*
X87404761Y-80202380D01*
%TO.C,C8*%
X95833333Y-84107142D02*
X95785714Y-84154761D01*
X95642857Y-84202380D01*
X95547619Y-84202380D01*
X95404761Y-84154761D01*
X95309523Y-84059523D01*
X95261904Y-83964285D01*
X95214285Y-83773809D01*
X95214285Y-83630952D01*
X95261904Y-83440476D01*
X95309523Y-83345238D01*
X95404761Y-83250000D01*
X95547619Y-83202380D01*
X95642857Y-83202380D01*
X95785714Y-83250000D01*
X95833333Y-83297619D01*
X96404761Y-83630952D02*
X96309523Y-83583333D01*
X96261904Y-83535714D01*
X96214285Y-83440476D01*
X96214285Y-83392857D01*
X96261904Y-83297619D01*
X96309523Y-83250000D01*
X96404761Y-83202380D01*
X96595238Y-83202380D01*
X96690476Y-83250000D01*
X96738095Y-83297619D01*
X96785714Y-83392857D01*
X96785714Y-83440476D01*
X96738095Y-83535714D01*
X96690476Y-83583333D01*
X96595238Y-83630952D01*
X96404761Y-83630952D01*
X96309523Y-83678571D01*
X96261904Y-83726190D01*
X96214285Y-83821428D01*
X96214285Y-84011904D01*
X96261904Y-84107142D01*
X96309523Y-84154761D01*
X96404761Y-84202380D01*
X96595238Y-84202380D01*
X96690476Y-84154761D01*
X96738095Y-84107142D01*
X96785714Y-84011904D01*
X96785714Y-83821428D01*
X96738095Y-83726190D01*
X96690476Y-83678571D01*
X96595238Y-83630952D01*
%TO.C,C9*%
X114357142Y-82166666D02*
X114404761Y-82214285D01*
X114452380Y-82357142D01*
X114452380Y-82452380D01*
X114404761Y-82595238D01*
X114309523Y-82690476D01*
X114214285Y-82738095D01*
X114023809Y-82785714D01*
X113880952Y-82785714D01*
X113690476Y-82738095D01*
X113595238Y-82690476D01*
X113500000Y-82595238D01*
X113452380Y-82452380D01*
X113452380Y-82357142D01*
X113500000Y-82214285D01*
X113547619Y-82166666D01*
X114452380Y-81690476D02*
X114452380Y-81500000D01*
X114404761Y-81404761D01*
X114357142Y-81357142D01*
X114214285Y-81261904D01*
X114023809Y-81214285D01*
X113642857Y-81214285D01*
X113547619Y-81261904D01*
X113500000Y-81309523D01*
X113452380Y-81404761D01*
X113452380Y-81595238D01*
X113500000Y-81690476D01*
X113547619Y-81738095D01*
X113642857Y-81785714D01*
X113880952Y-81785714D01*
X113976190Y-81738095D01*
X114023809Y-81690476D01*
X114071428Y-81595238D01*
X114071428Y-81404761D01*
X114023809Y-81309523D01*
X113976190Y-81261904D01*
X113880952Y-81214285D01*
%TO.C,C10*%
X123857142Y-80857142D02*
X123809523Y-80904761D01*
X123666666Y-80952380D01*
X123571428Y-80952380D01*
X123428571Y-80904761D01*
X123333333Y-80809523D01*
X123285714Y-80714285D01*
X123238095Y-80523809D01*
X123238095Y-80380952D01*
X123285714Y-80190476D01*
X123333333Y-80095238D01*
X123428571Y-80000000D01*
X123571428Y-79952380D01*
X123666666Y-79952380D01*
X123809523Y-80000000D01*
X123857142Y-80047619D01*
X124809523Y-80952380D02*
X124238095Y-80952380D01*
X124523809Y-80952380D02*
X124523809Y-79952380D01*
X124428571Y-80095238D01*
X124333333Y-80190476D01*
X124238095Y-80238095D01*
X125428571Y-79952380D02*
X125523809Y-79952380D01*
X125619047Y-80000000D01*
X125666666Y-80047619D01*
X125714285Y-80142857D01*
X125761904Y-80333333D01*
X125761904Y-80571428D01*
X125714285Y-80761904D01*
X125666666Y-80857142D01*
X125619047Y-80904761D01*
X125523809Y-80952380D01*
X125428571Y-80952380D01*
X125333333Y-80904761D01*
X125285714Y-80857142D01*
X125238095Y-80761904D01*
X125190476Y-80571428D01*
X125190476Y-80333333D01*
X125238095Y-80142857D01*
X125285714Y-80047619D01*
X125333333Y-80000000D01*
X125428571Y-79952380D01*
%TO.C,C11*%
X99857142Y-73107142D02*
X99809523Y-73154761D01*
X99666666Y-73202380D01*
X99571428Y-73202380D01*
X99428571Y-73154761D01*
X99333333Y-73059523D01*
X99285714Y-72964285D01*
X99238095Y-72773809D01*
X99238095Y-72630952D01*
X99285714Y-72440476D01*
X99333333Y-72345238D01*
X99428571Y-72250000D01*
X99571428Y-72202380D01*
X99666666Y-72202380D01*
X99809523Y-72250000D01*
X99857142Y-72297619D01*
X100809523Y-73202380D02*
X100238095Y-73202380D01*
X100523809Y-73202380D02*
X100523809Y-72202380D01*
X100428571Y-72345238D01*
X100333333Y-72440476D01*
X100238095Y-72488095D01*
X101761904Y-73202380D02*
X101190476Y-73202380D01*
X101476190Y-73202380D02*
X101476190Y-72202380D01*
X101380952Y-72345238D01*
X101285714Y-72440476D01*
X101190476Y-72488095D01*
%TO.C,C12*%
X114607142Y-109857142D02*
X114559523Y-109904761D01*
X114416666Y-109952380D01*
X114321428Y-109952380D01*
X114178571Y-109904761D01*
X114083333Y-109809523D01*
X114035714Y-109714285D01*
X113988095Y-109523809D01*
X113988095Y-109380952D01*
X114035714Y-109190476D01*
X114083333Y-109095238D01*
X114178571Y-109000000D01*
X114321428Y-108952380D01*
X114416666Y-108952380D01*
X114559523Y-109000000D01*
X114607142Y-109047619D01*
X115559523Y-109952380D02*
X114988095Y-109952380D01*
X115273809Y-109952380D02*
X115273809Y-108952380D01*
X115178571Y-109095238D01*
X115083333Y-109190476D01*
X114988095Y-109238095D01*
X115940476Y-109047619D02*
X115988095Y-109000000D01*
X116083333Y-108952380D01*
X116321428Y-108952380D01*
X116416666Y-109000000D01*
X116464285Y-109047619D01*
X116511904Y-109142857D01*
X116511904Y-109238095D01*
X116464285Y-109380952D01*
X115892857Y-109952380D01*
X116511904Y-109952380D01*
%TO.C,C13*%
X102607142Y-73107142D02*
X102559523Y-73154761D01*
X102416666Y-73202380D01*
X102321428Y-73202380D01*
X102178571Y-73154761D01*
X102083333Y-73059523D01*
X102035714Y-72964285D01*
X101988095Y-72773809D01*
X101988095Y-72630952D01*
X102035714Y-72440476D01*
X102083333Y-72345238D01*
X102178571Y-72250000D01*
X102321428Y-72202380D01*
X102416666Y-72202380D01*
X102559523Y-72250000D01*
X102607142Y-72297619D01*
X103559523Y-73202380D02*
X102988095Y-73202380D01*
X103273809Y-73202380D02*
X103273809Y-72202380D01*
X103178571Y-72345238D01*
X103083333Y-72440476D01*
X102988095Y-72488095D01*
X103892857Y-72202380D02*
X104511904Y-72202380D01*
X104178571Y-72583333D01*
X104321428Y-72583333D01*
X104416666Y-72630952D01*
X104464285Y-72678571D01*
X104511904Y-72773809D01*
X104511904Y-73011904D01*
X104464285Y-73107142D01*
X104416666Y-73154761D01*
X104321428Y-73202380D01*
X104035714Y-73202380D01*
X103940476Y-73154761D01*
X103892857Y-73107142D01*
%TO.C,C14*%
X101857142Y-88287142D02*
X101809523Y-88334761D01*
X101666666Y-88382380D01*
X101571428Y-88382380D01*
X101428571Y-88334761D01*
X101333333Y-88239523D01*
X101285714Y-88144285D01*
X101238095Y-87953809D01*
X101238095Y-87810952D01*
X101285714Y-87620476D01*
X101333333Y-87525238D01*
X101428571Y-87430000D01*
X101571428Y-87382380D01*
X101666666Y-87382380D01*
X101809523Y-87430000D01*
X101857142Y-87477619D01*
X102809523Y-88382380D02*
X102238095Y-88382380D01*
X102523809Y-88382380D02*
X102523809Y-87382380D01*
X102428571Y-87525238D01*
X102333333Y-87620476D01*
X102238095Y-87668095D01*
X103666666Y-87715714D02*
X103666666Y-88382380D01*
X103428571Y-87334761D02*
X103190476Y-88049047D01*
X103809523Y-88049047D01*
%TO.C,C15*%
X103607142Y-90892857D02*
X103654761Y-90940476D01*
X103702380Y-91083333D01*
X103702380Y-91178571D01*
X103654761Y-91321428D01*
X103559523Y-91416666D01*
X103464285Y-91464285D01*
X103273809Y-91511904D01*
X103130952Y-91511904D01*
X102940476Y-91464285D01*
X102845238Y-91416666D01*
X102750000Y-91321428D01*
X102702380Y-91178571D01*
X102702380Y-91083333D01*
X102750000Y-90940476D01*
X102797619Y-90892857D01*
X103702380Y-89940476D02*
X103702380Y-90511904D01*
X103702380Y-90226190D02*
X102702380Y-90226190D01*
X102845238Y-90321428D01*
X102940476Y-90416666D01*
X102988095Y-90511904D01*
X102702380Y-89035714D02*
X102702380Y-89511904D01*
X103178571Y-89559523D01*
X103130952Y-89511904D01*
X103083333Y-89416666D01*
X103083333Y-89178571D01*
X103130952Y-89083333D01*
X103178571Y-89035714D01*
X103273809Y-88988095D01*
X103511904Y-88988095D01*
X103607142Y-89035714D01*
X103654761Y-89083333D01*
X103702380Y-89178571D01*
X103702380Y-89416666D01*
X103654761Y-89511904D01*
X103607142Y-89559523D01*
%TO.C,C16*%
X103357142Y-109607142D02*
X103309523Y-109654761D01*
X103166666Y-109702380D01*
X103071428Y-109702380D01*
X102928571Y-109654761D01*
X102833333Y-109559523D01*
X102785714Y-109464285D01*
X102738095Y-109273809D01*
X102738095Y-109130952D01*
X102785714Y-108940476D01*
X102833333Y-108845238D01*
X102928571Y-108750000D01*
X103071428Y-108702380D01*
X103166666Y-108702380D01*
X103309523Y-108750000D01*
X103357142Y-108797619D01*
X104309523Y-109702380D02*
X103738095Y-109702380D01*
X104023809Y-109702380D02*
X104023809Y-108702380D01*
X103928571Y-108845238D01*
X103833333Y-108940476D01*
X103738095Y-108988095D01*
X105166666Y-108702380D02*
X104976190Y-108702380D01*
X104880952Y-108750000D01*
X104833333Y-108797619D01*
X104738095Y-108940476D01*
X104690476Y-109130952D01*
X104690476Y-109511904D01*
X104738095Y-109607142D01*
X104785714Y-109654761D01*
X104880952Y-109702380D01*
X105071428Y-109702380D01*
X105166666Y-109654761D01*
X105214285Y-109607142D01*
X105261904Y-109511904D01*
X105261904Y-109273809D01*
X105214285Y-109178571D01*
X105166666Y-109130952D01*
X105071428Y-109083333D01*
X104880952Y-109083333D01*
X104785714Y-109130952D01*
X104738095Y-109178571D01*
X104690476Y-109273809D01*
%TO.C,C17*%
X131457142Y-85642857D02*
X131504761Y-85690476D01*
X131552380Y-85833333D01*
X131552380Y-85928571D01*
X131504761Y-86071428D01*
X131409523Y-86166666D01*
X131314285Y-86214285D01*
X131123809Y-86261904D01*
X130980952Y-86261904D01*
X130790476Y-86214285D01*
X130695238Y-86166666D01*
X130600000Y-86071428D01*
X130552380Y-85928571D01*
X130552380Y-85833333D01*
X130600000Y-85690476D01*
X130647619Y-85642857D01*
X131552380Y-84690476D02*
X131552380Y-85261904D01*
X131552380Y-84976190D02*
X130552380Y-84976190D01*
X130695238Y-85071428D01*
X130790476Y-85166666D01*
X130838095Y-85261904D01*
X130552380Y-84357142D02*
X130552380Y-83690476D01*
X131552380Y-84119047D01*
%TO.C,C18*%
X108857142Y-88607142D02*
X108809523Y-88654761D01*
X108666666Y-88702380D01*
X108571428Y-88702380D01*
X108428571Y-88654761D01*
X108333333Y-88559523D01*
X108285714Y-88464285D01*
X108238095Y-88273809D01*
X108238095Y-88130952D01*
X108285714Y-87940476D01*
X108333333Y-87845238D01*
X108428571Y-87750000D01*
X108571428Y-87702380D01*
X108666666Y-87702380D01*
X108809523Y-87750000D01*
X108857142Y-87797619D01*
X109809523Y-88702380D02*
X109238095Y-88702380D01*
X109523809Y-88702380D02*
X109523809Y-87702380D01*
X109428571Y-87845238D01*
X109333333Y-87940476D01*
X109238095Y-87988095D01*
X110380952Y-88130952D02*
X110285714Y-88083333D01*
X110238095Y-88035714D01*
X110190476Y-87940476D01*
X110190476Y-87892857D01*
X110238095Y-87797619D01*
X110285714Y-87750000D01*
X110380952Y-87702380D01*
X110571428Y-87702380D01*
X110666666Y-87750000D01*
X110714285Y-87797619D01*
X110761904Y-87892857D01*
X110761904Y-87940476D01*
X110714285Y-88035714D01*
X110666666Y-88083333D01*
X110571428Y-88130952D01*
X110380952Y-88130952D01*
X110285714Y-88178571D01*
X110238095Y-88226190D01*
X110190476Y-88321428D01*
X110190476Y-88511904D01*
X110238095Y-88607142D01*
X110285714Y-88654761D01*
X110380952Y-88702380D01*
X110571428Y-88702380D01*
X110666666Y-88654761D01*
X110714285Y-88607142D01*
X110761904Y-88511904D01*
X110761904Y-88321428D01*
X110714285Y-88226190D01*
X110666666Y-88178571D01*
X110571428Y-88130952D01*
%TO.C,C19*%
X128857142Y-75642857D02*
X128904761Y-75690476D01*
X128952380Y-75833333D01*
X128952380Y-75928571D01*
X128904761Y-76071428D01*
X128809523Y-76166666D01*
X128714285Y-76214285D01*
X128523809Y-76261904D01*
X128380952Y-76261904D01*
X128190476Y-76214285D01*
X128095238Y-76166666D01*
X128000000Y-76071428D01*
X127952380Y-75928571D01*
X127952380Y-75833333D01*
X128000000Y-75690476D01*
X128047619Y-75642857D01*
X128952380Y-74690476D02*
X128952380Y-75261904D01*
X128952380Y-74976190D02*
X127952380Y-74976190D01*
X128095238Y-75071428D01*
X128190476Y-75166666D01*
X128238095Y-75261904D01*
X128952380Y-74214285D02*
X128952380Y-74023809D01*
X128904761Y-73928571D01*
X128857142Y-73880952D01*
X128714285Y-73785714D01*
X128523809Y-73738095D01*
X128142857Y-73738095D01*
X128047619Y-73785714D01*
X128000000Y-73833333D01*
X127952380Y-73928571D01*
X127952380Y-74119047D01*
X128000000Y-74214285D01*
X128047619Y-74261904D01*
X128142857Y-74309523D01*
X128380952Y-74309523D01*
X128476190Y-74261904D01*
X128523809Y-74214285D01*
X128571428Y-74119047D01*
X128571428Y-73928571D01*
X128523809Y-73833333D01*
X128476190Y-73785714D01*
X128380952Y-73738095D01*
%TO.C,C20*%
X126157142Y-86942857D02*
X126204761Y-86990476D01*
X126252380Y-87133333D01*
X126252380Y-87228571D01*
X126204761Y-87371428D01*
X126109523Y-87466666D01*
X126014285Y-87514285D01*
X125823809Y-87561904D01*
X125680952Y-87561904D01*
X125490476Y-87514285D01*
X125395238Y-87466666D01*
X125300000Y-87371428D01*
X125252380Y-87228571D01*
X125252380Y-87133333D01*
X125300000Y-86990476D01*
X125347619Y-86942857D01*
X125347619Y-86561904D02*
X125300000Y-86514285D01*
X125252380Y-86419047D01*
X125252380Y-86180952D01*
X125300000Y-86085714D01*
X125347619Y-86038095D01*
X125442857Y-85990476D01*
X125538095Y-85990476D01*
X125680952Y-86038095D01*
X126252380Y-86609523D01*
X126252380Y-85990476D01*
X125252380Y-85371428D02*
X125252380Y-85276190D01*
X125300000Y-85180952D01*
X125347619Y-85133333D01*
X125442857Y-85085714D01*
X125633333Y-85038095D01*
X125871428Y-85038095D01*
X126061904Y-85085714D01*
X126157142Y-85133333D01*
X126204761Y-85180952D01*
X126252380Y-85276190D01*
X126252380Y-85371428D01*
X126204761Y-85466666D01*
X126157142Y-85514285D01*
X126061904Y-85561904D01*
X125871428Y-85609523D01*
X125633333Y-85609523D01*
X125442857Y-85561904D01*
X125347619Y-85514285D01*
X125300000Y-85466666D01*
X125252380Y-85371428D01*
%TO.C,C21*%
X123607142Y-100607142D02*
X123559523Y-100654761D01*
X123416666Y-100702380D01*
X123321428Y-100702380D01*
X123178571Y-100654761D01*
X123083333Y-100559523D01*
X123035714Y-100464285D01*
X122988095Y-100273809D01*
X122988095Y-100130952D01*
X123035714Y-99940476D01*
X123083333Y-99845238D01*
X123178571Y-99750000D01*
X123321428Y-99702380D01*
X123416666Y-99702380D01*
X123559523Y-99750000D01*
X123607142Y-99797619D01*
X123988095Y-99797619D02*
X124035714Y-99750000D01*
X124130952Y-99702380D01*
X124369047Y-99702380D01*
X124464285Y-99750000D01*
X124511904Y-99797619D01*
X124559523Y-99892857D01*
X124559523Y-99988095D01*
X124511904Y-100130952D01*
X123940476Y-100702380D01*
X124559523Y-100702380D01*
X125511904Y-100702380D02*
X124940476Y-100702380D01*
X125226190Y-100702380D02*
X125226190Y-99702380D01*
X125130952Y-99845238D01*
X125035714Y-99940476D01*
X124940476Y-99988095D01*
%TO.C,C22*%
X117857142Y-91107142D02*
X117809523Y-91154761D01*
X117666666Y-91202380D01*
X117571428Y-91202380D01*
X117428571Y-91154761D01*
X117333333Y-91059523D01*
X117285714Y-90964285D01*
X117238095Y-90773809D01*
X117238095Y-90630952D01*
X117285714Y-90440476D01*
X117333333Y-90345238D01*
X117428571Y-90250000D01*
X117571428Y-90202380D01*
X117666666Y-90202380D01*
X117809523Y-90250000D01*
X117857142Y-90297619D01*
X118238095Y-90297619D02*
X118285714Y-90250000D01*
X118380952Y-90202380D01*
X118619047Y-90202380D01*
X118714285Y-90250000D01*
X118761904Y-90297619D01*
X118809523Y-90392857D01*
X118809523Y-90488095D01*
X118761904Y-90630952D01*
X118190476Y-91202380D01*
X118809523Y-91202380D01*
X119190476Y-90297619D02*
X119238095Y-90250000D01*
X119333333Y-90202380D01*
X119571428Y-90202380D01*
X119666666Y-90250000D01*
X119714285Y-90297619D01*
X119761904Y-90392857D01*
X119761904Y-90488095D01*
X119714285Y-90630952D01*
X119142857Y-91202380D01*
X119761904Y-91202380D01*
%TO.C,C23*%
X134037142Y-99392857D02*
X134084761Y-99440476D01*
X134132380Y-99583333D01*
X134132380Y-99678571D01*
X134084761Y-99821428D01*
X133989523Y-99916666D01*
X133894285Y-99964285D01*
X133703809Y-100011904D01*
X133560952Y-100011904D01*
X133370476Y-99964285D01*
X133275238Y-99916666D01*
X133180000Y-99821428D01*
X133132380Y-99678571D01*
X133132380Y-99583333D01*
X133180000Y-99440476D01*
X133227619Y-99392857D01*
X133227619Y-99011904D02*
X133180000Y-98964285D01*
X133132380Y-98869047D01*
X133132380Y-98630952D01*
X133180000Y-98535714D01*
X133227619Y-98488095D01*
X133322857Y-98440476D01*
X133418095Y-98440476D01*
X133560952Y-98488095D01*
X134132380Y-99059523D01*
X134132380Y-98440476D01*
X133132380Y-98107142D02*
X133132380Y-97488095D01*
X133513333Y-97821428D01*
X133513333Y-97678571D01*
X133560952Y-97583333D01*
X133608571Y-97535714D01*
X133703809Y-97488095D01*
X133941904Y-97488095D01*
X134037142Y-97535714D01*
X134084761Y-97583333D01*
X134132380Y-97678571D01*
X134132380Y-97964285D01*
X134084761Y-98059523D01*
X134037142Y-98107142D01*
%TO.C,C24*%
X121007142Y-106642857D02*
X121054761Y-106690476D01*
X121102380Y-106833333D01*
X121102380Y-106928571D01*
X121054761Y-107071428D01*
X120959523Y-107166666D01*
X120864285Y-107214285D01*
X120673809Y-107261904D01*
X120530952Y-107261904D01*
X120340476Y-107214285D01*
X120245238Y-107166666D01*
X120150000Y-107071428D01*
X120102380Y-106928571D01*
X120102380Y-106833333D01*
X120150000Y-106690476D01*
X120197619Y-106642857D01*
X120197619Y-106261904D02*
X120150000Y-106214285D01*
X120102380Y-106119047D01*
X120102380Y-105880952D01*
X120150000Y-105785714D01*
X120197619Y-105738095D01*
X120292857Y-105690476D01*
X120388095Y-105690476D01*
X120530952Y-105738095D01*
X121102380Y-106309523D01*
X121102380Y-105690476D01*
X120435714Y-104833333D02*
X121102380Y-104833333D01*
X120054761Y-105071428D02*
X120769047Y-105309523D01*
X120769047Y-104690476D01*
%TO.C,C25*%
X121107142Y-115892857D02*
X121154761Y-115940476D01*
X121202380Y-116083333D01*
X121202380Y-116178571D01*
X121154761Y-116321428D01*
X121059523Y-116416666D01*
X120964285Y-116464285D01*
X120773809Y-116511904D01*
X120630952Y-116511904D01*
X120440476Y-116464285D01*
X120345238Y-116416666D01*
X120250000Y-116321428D01*
X120202380Y-116178571D01*
X120202380Y-116083333D01*
X120250000Y-115940476D01*
X120297619Y-115892857D01*
X120297619Y-115511904D02*
X120250000Y-115464285D01*
X120202380Y-115369047D01*
X120202380Y-115130952D01*
X120250000Y-115035714D01*
X120297619Y-114988095D01*
X120392857Y-114940476D01*
X120488095Y-114940476D01*
X120630952Y-114988095D01*
X121202380Y-115559523D01*
X121202380Y-114940476D01*
X120202380Y-114035714D02*
X120202380Y-114511904D01*
X120678571Y-114559523D01*
X120630952Y-114511904D01*
X120583333Y-114416666D01*
X120583333Y-114178571D01*
X120630952Y-114083333D01*
X120678571Y-114035714D01*
X120773809Y-113988095D01*
X121011904Y-113988095D01*
X121107142Y-114035714D01*
X121154761Y-114083333D01*
X121202380Y-114178571D01*
X121202380Y-114416666D01*
X121154761Y-114511904D01*
X121107142Y-114559523D01*
%TO.C,C26*%
X86107142Y-101607142D02*
X86059523Y-101654761D01*
X85916666Y-101702380D01*
X85821428Y-101702380D01*
X85678571Y-101654761D01*
X85583333Y-101559523D01*
X85535714Y-101464285D01*
X85488095Y-101273809D01*
X85488095Y-101130952D01*
X85535714Y-100940476D01*
X85583333Y-100845238D01*
X85678571Y-100750000D01*
X85821428Y-100702380D01*
X85916666Y-100702380D01*
X86059523Y-100750000D01*
X86107142Y-100797619D01*
X86488095Y-100797619D02*
X86535714Y-100750000D01*
X86630952Y-100702380D01*
X86869047Y-100702380D01*
X86964285Y-100750000D01*
X87011904Y-100797619D01*
X87059523Y-100892857D01*
X87059523Y-100988095D01*
X87011904Y-101130952D01*
X86440476Y-101702380D01*
X87059523Y-101702380D01*
X87916666Y-100702380D02*
X87726190Y-100702380D01*
X87630952Y-100750000D01*
X87583333Y-100797619D01*
X87488095Y-100940476D01*
X87440476Y-101130952D01*
X87440476Y-101511904D01*
X87488095Y-101607142D01*
X87535714Y-101654761D01*
X87630952Y-101702380D01*
X87821428Y-101702380D01*
X87916666Y-101654761D01*
X87964285Y-101607142D01*
X88011904Y-101511904D01*
X88011904Y-101273809D01*
X87964285Y-101178571D01*
X87916666Y-101130952D01*
X87821428Y-101083333D01*
X87630952Y-101083333D01*
X87535714Y-101130952D01*
X87488095Y-101178571D01*
X87440476Y-101273809D01*
%TO.C,C27*%
X98107142Y-84107142D02*
X98059523Y-84154761D01*
X97916666Y-84202380D01*
X97821428Y-84202380D01*
X97678571Y-84154761D01*
X97583333Y-84059523D01*
X97535714Y-83964285D01*
X97488095Y-83773809D01*
X97488095Y-83630952D01*
X97535714Y-83440476D01*
X97583333Y-83345238D01*
X97678571Y-83250000D01*
X97821428Y-83202380D01*
X97916666Y-83202380D01*
X98059523Y-83250000D01*
X98107142Y-83297619D01*
X98488095Y-83297619D02*
X98535714Y-83250000D01*
X98630952Y-83202380D01*
X98869047Y-83202380D01*
X98964285Y-83250000D01*
X99011904Y-83297619D01*
X99059523Y-83392857D01*
X99059523Y-83488095D01*
X99011904Y-83630952D01*
X98440476Y-84202380D01*
X99059523Y-84202380D01*
X99392857Y-83202380D02*
X100059523Y-83202380D01*
X99630952Y-84202380D01*
%TO.C,C28*%
X96857142Y-116287142D02*
X96809523Y-116334761D01*
X96666666Y-116382380D01*
X96571428Y-116382380D01*
X96428571Y-116334761D01*
X96333333Y-116239523D01*
X96285714Y-116144285D01*
X96238095Y-115953809D01*
X96238095Y-115810952D01*
X96285714Y-115620476D01*
X96333333Y-115525238D01*
X96428571Y-115430000D01*
X96571428Y-115382380D01*
X96666666Y-115382380D01*
X96809523Y-115430000D01*
X96857142Y-115477619D01*
X97238095Y-115477619D02*
X97285714Y-115430000D01*
X97380952Y-115382380D01*
X97619047Y-115382380D01*
X97714285Y-115430000D01*
X97761904Y-115477619D01*
X97809523Y-115572857D01*
X97809523Y-115668095D01*
X97761904Y-115810952D01*
X97190476Y-116382380D01*
X97809523Y-116382380D01*
X98380952Y-115810952D02*
X98285714Y-115763333D01*
X98238095Y-115715714D01*
X98190476Y-115620476D01*
X98190476Y-115572857D01*
X98238095Y-115477619D01*
X98285714Y-115430000D01*
X98380952Y-115382380D01*
X98571428Y-115382380D01*
X98666666Y-115430000D01*
X98714285Y-115477619D01*
X98761904Y-115572857D01*
X98761904Y-115620476D01*
X98714285Y-115715714D01*
X98666666Y-115763333D01*
X98571428Y-115810952D01*
X98380952Y-115810952D01*
X98285714Y-115858571D01*
X98238095Y-115906190D01*
X98190476Y-116001428D01*
X98190476Y-116191904D01*
X98238095Y-116287142D01*
X98285714Y-116334761D01*
X98380952Y-116382380D01*
X98571428Y-116382380D01*
X98666666Y-116334761D01*
X98714285Y-116287142D01*
X98761904Y-116191904D01*
X98761904Y-116001428D01*
X98714285Y-115906190D01*
X98666666Y-115858571D01*
X98571428Y-115810952D01*
%TO.C,C29*%
X101607142Y-105642857D02*
X101654761Y-105690476D01*
X101702380Y-105833333D01*
X101702380Y-105928571D01*
X101654761Y-106071428D01*
X101559523Y-106166666D01*
X101464285Y-106214285D01*
X101273809Y-106261904D01*
X101130952Y-106261904D01*
X100940476Y-106214285D01*
X100845238Y-106166666D01*
X100750000Y-106071428D01*
X100702380Y-105928571D01*
X100702380Y-105833333D01*
X100750000Y-105690476D01*
X100797619Y-105642857D01*
X100797619Y-105261904D02*
X100750000Y-105214285D01*
X100702380Y-105119047D01*
X100702380Y-104880952D01*
X100750000Y-104785714D01*
X100797619Y-104738095D01*
X100892857Y-104690476D01*
X100988095Y-104690476D01*
X101130952Y-104738095D01*
X101702380Y-105309523D01*
X101702380Y-104690476D01*
X101702380Y-104214285D02*
X101702380Y-104023809D01*
X101654761Y-103928571D01*
X101607142Y-103880952D01*
X101464285Y-103785714D01*
X101273809Y-103738095D01*
X100892857Y-103738095D01*
X100797619Y-103785714D01*
X100750000Y-103833333D01*
X100702380Y-103928571D01*
X100702380Y-104119047D01*
X100750000Y-104214285D01*
X100797619Y-104261904D01*
X100892857Y-104309523D01*
X101130952Y-104309523D01*
X101226190Y-104261904D01*
X101273809Y-104214285D01*
X101321428Y-104119047D01*
X101321428Y-103928571D01*
X101273809Y-103833333D01*
X101226190Y-103785714D01*
X101130952Y-103738095D01*
%TO.C,C30*%
X95607142Y-102357142D02*
X95559523Y-102404761D01*
X95416666Y-102452380D01*
X95321428Y-102452380D01*
X95178571Y-102404761D01*
X95083333Y-102309523D01*
X95035714Y-102214285D01*
X94988095Y-102023809D01*
X94988095Y-101880952D01*
X95035714Y-101690476D01*
X95083333Y-101595238D01*
X95178571Y-101500000D01*
X95321428Y-101452380D01*
X95416666Y-101452380D01*
X95559523Y-101500000D01*
X95607142Y-101547619D01*
X95940476Y-101452380D02*
X96559523Y-101452380D01*
X96226190Y-101833333D01*
X96369047Y-101833333D01*
X96464285Y-101880952D01*
X96511904Y-101928571D01*
X96559523Y-102023809D01*
X96559523Y-102261904D01*
X96511904Y-102357142D01*
X96464285Y-102404761D01*
X96369047Y-102452380D01*
X96083333Y-102452380D01*
X95988095Y-102404761D01*
X95940476Y-102357142D01*
X97178571Y-101452380D02*
X97273809Y-101452380D01*
X97369047Y-101500000D01*
X97416666Y-101547619D01*
X97464285Y-101642857D01*
X97511904Y-101833333D01*
X97511904Y-102071428D01*
X97464285Y-102261904D01*
X97416666Y-102357142D01*
X97369047Y-102404761D01*
X97273809Y-102452380D01*
X97178571Y-102452380D01*
X97083333Y-102404761D01*
X97035714Y-102357142D01*
X96988095Y-102261904D01*
X96940476Y-102071428D01*
X96940476Y-101833333D01*
X96988095Y-101642857D01*
X97035714Y-101547619D01*
X97083333Y-101500000D01*
X97178571Y-101452380D01*
%TO.C,D1*%
X109011904Y-75702380D02*
X109011904Y-74702380D01*
X109250000Y-74702380D01*
X109392857Y-74750000D01*
X109488095Y-74845238D01*
X109535714Y-74940476D01*
X109583333Y-75130952D01*
X109583333Y-75273809D01*
X109535714Y-75464285D01*
X109488095Y-75559523D01*
X109392857Y-75654761D01*
X109250000Y-75702380D01*
X109011904Y-75702380D01*
X110535714Y-75702380D02*
X109964285Y-75702380D01*
X110250000Y-75702380D02*
X110250000Y-74702380D01*
X110154761Y-74845238D01*
X110059523Y-74940476D01*
X109964285Y-74988095D01*
%TO.C,D2*%
X118011904Y-75702380D02*
X118011904Y-74702380D01*
X118250000Y-74702380D01*
X118392857Y-74750000D01*
X118488095Y-74845238D01*
X118535714Y-74940476D01*
X118583333Y-75130952D01*
X118583333Y-75273809D01*
X118535714Y-75464285D01*
X118488095Y-75559523D01*
X118392857Y-75654761D01*
X118250000Y-75702380D01*
X118011904Y-75702380D01*
X118964285Y-74797619D02*
X119011904Y-74750000D01*
X119107142Y-74702380D01*
X119345238Y-74702380D01*
X119440476Y-74750000D01*
X119488095Y-74797619D01*
X119535714Y-74892857D01*
X119535714Y-74988095D01*
X119488095Y-75130952D01*
X118916666Y-75702380D01*
X119535714Y-75702380D01*
%TO.C,D3*%
X111011904Y-85702380D02*
X111011904Y-84702380D01*
X111250000Y-84702380D01*
X111392857Y-84750000D01*
X111488095Y-84845238D01*
X111535714Y-84940476D01*
X111583333Y-85130952D01*
X111583333Y-85273809D01*
X111535714Y-85464285D01*
X111488095Y-85559523D01*
X111392857Y-85654761D01*
X111250000Y-85702380D01*
X111011904Y-85702380D01*
X111916666Y-84702380D02*
X112535714Y-84702380D01*
X112202380Y-85083333D01*
X112345238Y-85083333D01*
X112440476Y-85130952D01*
X112488095Y-85178571D01*
X112535714Y-85273809D01*
X112535714Y-85511904D01*
X112488095Y-85607142D01*
X112440476Y-85654761D01*
X112345238Y-85702380D01*
X112059523Y-85702380D01*
X111964285Y-85654761D01*
X111916666Y-85607142D01*
%TO.C,D4*%
X117011904Y-85702380D02*
X117011904Y-84702380D01*
X117250000Y-84702380D01*
X117392857Y-84750000D01*
X117488095Y-84845238D01*
X117535714Y-84940476D01*
X117583333Y-85130952D01*
X117583333Y-85273809D01*
X117535714Y-85464285D01*
X117488095Y-85559523D01*
X117392857Y-85654761D01*
X117250000Y-85702380D01*
X117011904Y-85702380D01*
X118440476Y-85035714D02*
X118440476Y-85702380D01*
X118202380Y-84654761D02*
X117964285Y-85369047D01*
X118583333Y-85369047D01*
%TO.C,D5*%
X99261904Y-112202380D02*
X99261904Y-111202380D01*
X99500000Y-111202380D01*
X99642857Y-111250000D01*
X99738095Y-111345238D01*
X99785714Y-111440476D01*
X99833333Y-111630952D01*
X99833333Y-111773809D01*
X99785714Y-111964285D01*
X99738095Y-112059523D01*
X99642857Y-112154761D01*
X99500000Y-112202380D01*
X99261904Y-112202380D01*
X100738095Y-111202380D02*
X100261904Y-111202380D01*
X100214285Y-111678571D01*
X100261904Y-111630952D01*
X100357142Y-111583333D01*
X100595238Y-111583333D01*
X100690476Y-111630952D01*
X100738095Y-111678571D01*
X100785714Y-111773809D01*
X100785714Y-112011904D01*
X100738095Y-112107142D01*
X100690476Y-112154761D01*
X100595238Y-112202380D01*
X100357142Y-112202380D01*
X100261904Y-112154761D01*
X100214285Y-112107142D01*
%TO.C,D6*%
X93632380Y-98738095D02*
X92632380Y-98738095D01*
X92632380Y-98500000D01*
X92680000Y-98357142D01*
X92775238Y-98261904D01*
X92870476Y-98214285D01*
X93060952Y-98166666D01*
X93203809Y-98166666D01*
X93394285Y-98214285D01*
X93489523Y-98261904D01*
X93584761Y-98357142D01*
X93632380Y-98500000D01*
X93632380Y-98738095D01*
X92632380Y-97309523D02*
X92632380Y-97500000D01*
X92680000Y-97595238D01*
X92727619Y-97642857D01*
X92870476Y-97738095D01*
X93060952Y-97785714D01*
X93441904Y-97785714D01*
X93537142Y-97738095D01*
X93584761Y-97690476D01*
X93632380Y-97595238D01*
X93632380Y-97404761D01*
X93584761Y-97309523D01*
X93537142Y-97261904D01*
X93441904Y-97214285D01*
X93203809Y-97214285D01*
X93108571Y-97261904D01*
X93060952Y-97309523D01*
X93013333Y-97404761D01*
X93013333Y-97595238D01*
X93060952Y-97690476D01*
X93108571Y-97738095D01*
X93203809Y-97785714D01*
%TO.C,D7*%
X97632380Y-98738095D02*
X96632380Y-98738095D01*
X96632380Y-98500000D01*
X96680000Y-98357142D01*
X96775238Y-98261904D01*
X96870476Y-98214285D01*
X97060952Y-98166666D01*
X97203809Y-98166666D01*
X97394285Y-98214285D01*
X97489523Y-98261904D01*
X97584761Y-98357142D01*
X97632380Y-98500000D01*
X97632380Y-98738095D01*
X96632380Y-97833333D02*
X96632380Y-97166666D01*
X97632380Y-97595238D01*
%TO.C,J1*%
X140452380Y-111333333D02*
X141166666Y-111333333D01*
X141309523Y-111380952D01*
X141404761Y-111476190D01*
X141452380Y-111619047D01*
X141452380Y-111714285D01*
X141452380Y-110333333D02*
X141452380Y-110904761D01*
X141452380Y-110619047D02*
X140452380Y-110619047D01*
X140595238Y-110714285D01*
X140690476Y-110809523D01*
X140738095Y-110904761D01*
%TO.C,J2*%
X139952380Y-86833333D02*
X140666666Y-86833333D01*
X140809523Y-86880952D01*
X140904761Y-86976190D01*
X140952380Y-87119047D01*
X140952380Y-87214285D01*
X140047619Y-86404761D02*
X140000000Y-86357142D01*
X139952380Y-86261904D01*
X139952380Y-86023809D01*
X140000000Y-85928571D01*
X140047619Y-85880952D01*
X140142857Y-85833333D01*
X140238095Y-85833333D01*
X140380952Y-85880952D01*
X140952380Y-86452380D01*
X140952380Y-85833333D01*
%TO.C,J3*%
X92166666Y-90702380D02*
X92166666Y-91416666D01*
X92119047Y-91559523D01*
X92023809Y-91654761D01*
X91880952Y-91702380D01*
X91785714Y-91702380D01*
X92547619Y-90702380D02*
X93166666Y-90702380D01*
X92833333Y-91083333D01*
X92976190Y-91083333D01*
X93071428Y-91130952D01*
X93119047Y-91178571D01*
X93166666Y-91273809D01*
X93166666Y-91511904D01*
X93119047Y-91607142D01*
X93071428Y-91654761D01*
X92976190Y-91702380D01*
X92690476Y-91702380D01*
X92595238Y-91654761D01*
X92547619Y-91607142D01*
%TO.C,Q1*%
X109404761Y-85297619D02*
X109309523Y-85250000D01*
X109214285Y-85154761D01*
X109071428Y-85011904D01*
X108976190Y-84964285D01*
X108880952Y-84964285D01*
X108928571Y-85202380D02*
X108833333Y-85154761D01*
X108738095Y-85059523D01*
X108690476Y-84869047D01*
X108690476Y-84535714D01*
X108738095Y-84345238D01*
X108833333Y-84250000D01*
X108928571Y-84202380D01*
X109119047Y-84202380D01*
X109214285Y-84250000D01*
X109309523Y-84345238D01*
X109357142Y-84535714D01*
X109357142Y-84869047D01*
X109309523Y-85059523D01*
X109214285Y-85154761D01*
X109119047Y-85202380D01*
X108928571Y-85202380D01*
X110309523Y-85202380D02*
X109738095Y-85202380D01*
X110023809Y-85202380D02*
X110023809Y-84202380D01*
X109928571Y-84345238D01*
X109833333Y-84440476D01*
X109738095Y-84488095D01*
%TO.C,Q2*%
X105404761Y-76297619D02*
X105309523Y-76250000D01*
X105214285Y-76154761D01*
X105071428Y-76011904D01*
X104976190Y-75964285D01*
X104880952Y-75964285D01*
X104928571Y-76202380D02*
X104833333Y-76154761D01*
X104738095Y-76059523D01*
X104690476Y-75869047D01*
X104690476Y-75535714D01*
X104738095Y-75345238D01*
X104833333Y-75250000D01*
X104928571Y-75202380D01*
X105119047Y-75202380D01*
X105214285Y-75250000D01*
X105309523Y-75345238D01*
X105357142Y-75535714D01*
X105357142Y-75869047D01*
X105309523Y-76059523D01*
X105214285Y-76154761D01*
X105119047Y-76202380D01*
X104928571Y-76202380D01*
X105738095Y-75297619D02*
X105785714Y-75250000D01*
X105880952Y-75202380D01*
X106119047Y-75202380D01*
X106214285Y-75250000D01*
X106261904Y-75297619D01*
X106309523Y-75392857D01*
X106309523Y-75488095D01*
X106261904Y-75630952D01*
X105690476Y-76202380D01*
X106309523Y-76202380D01*
%TO.C,Q3*%
X122654761Y-76047619D02*
X122559523Y-76000000D01*
X122464285Y-75904761D01*
X122321428Y-75761904D01*
X122226190Y-75714285D01*
X122130952Y-75714285D01*
X122178571Y-75952380D02*
X122083333Y-75904761D01*
X121988095Y-75809523D01*
X121940476Y-75619047D01*
X121940476Y-75285714D01*
X121988095Y-75095238D01*
X122083333Y-75000000D01*
X122178571Y-74952380D01*
X122369047Y-74952380D01*
X122464285Y-75000000D01*
X122559523Y-75095238D01*
X122607142Y-75285714D01*
X122607142Y-75619047D01*
X122559523Y-75809523D01*
X122464285Y-75904761D01*
X122369047Y-75952380D01*
X122178571Y-75952380D01*
X122940476Y-74952380D02*
X123559523Y-74952380D01*
X123226190Y-75333333D01*
X123369047Y-75333333D01*
X123464285Y-75380952D01*
X123511904Y-75428571D01*
X123559523Y-75523809D01*
X123559523Y-75761904D01*
X123511904Y-75857142D01*
X123464285Y-75904761D01*
X123369047Y-75952380D01*
X123083333Y-75952380D01*
X122988095Y-75904761D01*
X122940476Y-75857142D01*
%TO.C,Q4*%
X119047619Y-82845238D02*
X119000000Y-82940476D01*
X118904761Y-83035714D01*
X118761904Y-83178571D01*
X118714285Y-83273809D01*
X118714285Y-83369047D01*
X118952380Y-83321428D02*
X118904761Y-83416666D01*
X118809523Y-83511904D01*
X118619047Y-83559523D01*
X118285714Y-83559523D01*
X118095238Y-83511904D01*
X118000000Y-83416666D01*
X117952380Y-83321428D01*
X117952380Y-83130952D01*
X118000000Y-83035714D01*
X118095238Y-82940476D01*
X118285714Y-82892857D01*
X118619047Y-82892857D01*
X118809523Y-82940476D01*
X118904761Y-83035714D01*
X118952380Y-83130952D01*
X118952380Y-83321428D01*
X118285714Y-82035714D02*
X118952380Y-82035714D01*
X117904761Y-82273809D02*
X118619047Y-82511904D01*
X118619047Y-81892857D01*
%TO.C,Q5*%
X120904761Y-92297619D02*
X120809523Y-92250000D01*
X120714285Y-92154761D01*
X120571428Y-92011904D01*
X120476190Y-91964285D01*
X120380952Y-91964285D01*
X120428571Y-92202380D02*
X120333333Y-92154761D01*
X120238095Y-92059523D01*
X120190476Y-91869047D01*
X120190476Y-91535714D01*
X120238095Y-91345238D01*
X120333333Y-91250000D01*
X120428571Y-91202380D01*
X120619047Y-91202380D01*
X120714285Y-91250000D01*
X120809523Y-91345238D01*
X120857142Y-91535714D01*
X120857142Y-91869047D01*
X120809523Y-92059523D01*
X120714285Y-92154761D01*
X120619047Y-92202380D01*
X120428571Y-92202380D01*
X121761904Y-91202380D02*
X121285714Y-91202380D01*
X121238095Y-91678571D01*
X121285714Y-91630952D01*
X121380952Y-91583333D01*
X121619047Y-91583333D01*
X121714285Y-91630952D01*
X121761904Y-91678571D01*
X121809523Y-91773809D01*
X121809523Y-92011904D01*
X121761904Y-92107142D01*
X121714285Y-92154761D01*
X121619047Y-92202380D01*
X121380952Y-92202380D01*
X121285714Y-92154761D01*
X121238095Y-92107142D01*
%TO.C,Q6*%
X109154761Y-93297619D02*
X109059523Y-93250000D01*
X108964285Y-93154761D01*
X108821428Y-93011904D01*
X108726190Y-92964285D01*
X108630952Y-92964285D01*
X108678571Y-93202380D02*
X108583333Y-93154761D01*
X108488095Y-93059523D01*
X108440476Y-92869047D01*
X108440476Y-92535714D01*
X108488095Y-92345238D01*
X108583333Y-92250000D01*
X108678571Y-92202380D01*
X108869047Y-92202380D01*
X108964285Y-92250000D01*
X109059523Y-92345238D01*
X109107142Y-92535714D01*
X109107142Y-92869047D01*
X109059523Y-93059523D01*
X108964285Y-93154761D01*
X108869047Y-93202380D01*
X108678571Y-93202380D01*
X109964285Y-92202380D02*
X109773809Y-92202380D01*
X109678571Y-92250000D01*
X109630952Y-92297619D01*
X109535714Y-92440476D01*
X109488095Y-92630952D01*
X109488095Y-93011904D01*
X109535714Y-93107142D01*
X109583333Y-93154761D01*
X109678571Y-93202380D01*
X109869047Y-93202380D01*
X109964285Y-93154761D01*
X110011904Y-93107142D01*
X110059523Y-93011904D01*
X110059523Y-92773809D01*
X110011904Y-92678571D01*
X109964285Y-92630952D01*
X109869047Y-92583333D01*
X109678571Y-92583333D01*
X109583333Y-92630952D01*
X109535714Y-92678571D01*
X109488095Y-92773809D01*
%TO.C,Q7*%
X114404761Y-103297619D02*
X114309523Y-103250000D01*
X114214285Y-103154761D01*
X114071428Y-103011904D01*
X113976190Y-102964285D01*
X113880952Y-102964285D01*
X113928571Y-103202380D02*
X113833333Y-103154761D01*
X113738095Y-103059523D01*
X113690476Y-102869047D01*
X113690476Y-102535714D01*
X113738095Y-102345238D01*
X113833333Y-102250000D01*
X113928571Y-102202380D01*
X114119047Y-102202380D01*
X114214285Y-102250000D01*
X114309523Y-102345238D01*
X114357142Y-102535714D01*
X114357142Y-102869047D01*
X114309523Y-103059523D01*
X114214285Y-103154761D01*
X114119047Y-103202380D01*
X113928571Y-103202380D01*
X114690476Y-102202380D02*
X115357142Y-102202380D01*
X114928571Y-103202380D01*
%TO.C,Q8*%
X113154761Y-93297619D02*
X113059523Y-93250000D01*
X112964285Y-93154761D01*
X112821428Y-93011904D01*
X112726190Y-92964285D01*
X112630952Y-92964285D01*
X112678571Y-93202380D02*
X112583333Y-93154761D01*
X112488095Y-93059523D01*
X112440476Y-92869047D01*
X112440476Y-92535714D01*
X112488095Y-92345238D01*
X112583333Y-92250000D01*
X112678571Y-92202380D01*
X112869047Y-92202380D01*
X112964285Y-92250000D01*
X113059523Y-92345238D01*
X113107142Y-92535714D01*
X113107142Y-92869047D01*
X113059523Y-93059523D01*
X112964285Y-93154761D01*
X112869047Y-93202380D01*
X112678571Y-93202380D01*
X113678571Y-92630952D02*
X113583333Y-92583333D01*
X113535714Y-92535714D01*
X113488095Y-92440476D01*
X113488095Y-92392857D01*
X113535714Y-92297619D01*
X113583333Y-92250000D01*
X113678571Y-92202380D01*
X113869047Y-92202380D01*
X113964285Y-92250000D01*
X114011904Y-92297619D01*
X114059523Y-92392857D01*
X114059523Y-92440476D01*
X114011904Y-92535714D01*
X113964285Y-92583333D01*
X113869047Y-92630952D01*
X113678571Y-92630952D01*
X113583333Y-92678571D01*
X113535714Y-92726190D01*
X113488095Y-92821428D01*
X113488095Y-93011904D01*
X113535714Y-93107142D01*
X113583333Y-93154761D01*
X113678571Y-93202380D01*
X113869047Y-93202380D01*
X113964285Y-93154761D01*
X114011904Y-93107142D01*
X114059523Y-93011904D01*
X114059523Y-92821428D01*
X114011904Y-92726190D01*
X113964285Y-92678571D01*
X113869047Y-92630952D01*
%TO.C,Q9*%
X130654761Y-105047619D02*
X130559523Y-105000000D01*
X130464285Y-104904761D01*
X130321428Y-104761904D01*
X130226190Y-104714285D01*
X130130952Y-104714285D01*
X130178571Y-104952380D02*
X130083333Y-104904761D01*
X129988095Y-104809523D01*
X129940476Y-104619047D01*
X129940476Y-104285714D01*
X129988095Y-104095238D01*
X130083333Y-104000000D01*
X130178571Y-103952380D01*
X130369047Y-103952380D01*
X130464285Y-104000000D01*
X130559523Y-104095238D01*
X130607142Y-104285714D01*
X130607142Y-104619047D01*
X130559523Y-104809523D01*
X130464285Y-104904761D01*
X130369047Y-104952380D01*
X130178571Y-104952380D01*
X131083333Y-104952380D02*
X131273809Y-104952380D01*
X131369047Y-104904761D01*
X131416666Y-104857142D01*
X131511904Y-104714285D01*
X131559523Y-104523809D01*
X131559523Y-104142857D01*
X131511904Y-104047619D01*
X131464285Y-104000000D01*
X131369047Y-103952380D01*
X131178571Y-103952380D01*
X131083333Y-104000000D01*
X131035714Y-104047619D01*
X130988095Y-104142857D01*
X130988095Y-104380952D01*
X131035714Y-104476190D01*
X131083333Y-104523809D01*
X131178571Y-104571428D01*
X131369047Y-104571428D01*
X131464285Y-104523809D01*
X131511904Y-104476190D01*
X131559523Y-104380952D01*
%TO.C,R1*%
X99952380Y-82166666D02*
X99476190Y-82500000D01*
X99952380Y-82738095D02*
X98952380Y-82738095D01*
X98952380Y-82357142D01*
X99000000Y-82261904D01*
X99047619Y-82214285D01*
X99142857Y-82166666D01*
X99285714Y-82166666D01*
X99380952Y-82214285D01*
X99428571Y-82261904D01*
X99476190Y-82357142D01*
X99476190Y-82738095D01*
X99952380Y-81214285D02*
X99952380Y-81785714D01*
X99952380Y-81500000D02*
X98952380Y-81500000D01*
X99095238Y-81595238D01*
X99190476Y-81690476D01*
X99238095Y-81785714D01*
%TO.C,R2*%
X99952380Y-79416666D02*
X99476190Y-79750000D01*
X99952380Y-79988095D02*
X98952380Y-79988095D01*
X98952380Y-79607142D01*
X99000000Y-79511904D01*
X99047619Y-79464285D01*
X99142857Y-79416666D01*
X99285714Y-79416666D01*
X99380952Y-79464285D01*
X99428571Y-79511904D01*
X99476190Y-79607142D01*
X99476190Y-79988095D01*
X99047619Y-79035714D02*
X99000000Y-78988095D01*
X98952380Y-78892857D01*
X98952380Y-78654761D01*
X99000000Y-78559523D01*
X99047619Y-78511904D01*
X99142857Y-78464285D01*
X99238095Y-78464285D01*
X99380952Y-78511904D01*
X99952380Y-79083333D01*
X99952380Y-78464285D01*
%TO.C,R3*%
X105452380Y-83166666D02*
X104976190Y-83500000D01*
X105452380Y-83738095D02*
X104452380Y-83738095D01*
X104452380Y-83357142D01*
X104500000Y-83261904D01*
X104547619Y-83214285D01*
X104642857Y-83166666D01*
X104785714Y-83166666D01*
X104880952Y-83214285D01*
X104928571Y-83261904D01*
X104976190Y-83357142D01*
X104976190Y-83738095D01*
X104452380Y-82833333D02*
X104452380Y-82214285D01*
X104833333Y-82547619D01*
X104833333Y-82404761D01*
X104880952Y-82309523D01*
X104928571Y-82261904D01*
X105023809Y-82214285D01*
X105261904Y-82214285D01*
X105357142Y-82261904D01*
X105404761Y-82309523D01*
X105452380Y-82404761D01*
X105452380Y-82690476D01*
X105404761Y-82785714D01*
X105357142Y-82833333D01*
%TO.C,R4*%
X104833333Y-99952380D02*
X104500000Y-99476190D01*
X104261904Y-99952380D02*
X104261904Y-98952380D01*
X104642857Y-98952380D01*
X104738095Y-99000000D01*
X104785714Y-99047619D01*
X104833333Y-99142857D01*
X104833333Y-99285714D01*
X104785714Y-99380952D01*
X104738095Y-99428571D01*
X104642857Y-99476190D01*
X104261904Y-99476190D01*
X105690476Y-99285714D02*
X105690476Y-99952380D01*
X105452380Y-98904761D02*
X105214285Y-99619047D01*
X105833333Y-99619047D01*
%TO.C,R5*%
X104583333Y-102702380D02*
X104250000Y-102226190D01*
X104011904Y-102702380D02*
X104011904Y-101702380D01*
X104392857Y-101702380D01*
X104488095Y-101750000D01*
X104535714Y-101797619D01*
X104583333Y-101892857D01*
X104583333Y-102035714D01*
X104535714Y-102130952D01*
X104488095Y-102178571D01*
X104392857Y-102226190D01*
X104011904Y-102226190D01*
X105488095Y-101702380D02*
X105011904Y-101702380D01*
X104964285Y-102178571D01*
X105011904Y-102130952D01*
X105107142Y-102083333D01*
X105345238Y-102083333D01*
X105440476Y-102130952D01*
X105488095Y-102178571D01*
X105535714Y-102273809D01*
X105535714Y-102511904D01*
X105488095Y-102607142D01*
X105440476Y-102654761D01*
X105345238Y-102702380D01*
X105107142Y-102702380D01*
X105011904Y-102654761D01*
X104964285Y-102607142D01*
%TO.C,R6*%
X106833333Y-73052380D02*
X106500000Y-72576190D01*
X106261904Y-73052380D02*
X106261904Y-72052380D01*
X106642857Y-72052380D01*
X106738095Y-72100000D01*
X106785714Y-72147619D01*
X106833333Y-72242857D01*
X106833333Y-72385714D01*
X106785714Y-72480952D01*
X106738095Y-72528571D01*
X106642857Y-72576190D01*
X106261904Y-72576190D01*
X107690476Y-72052380D02*
X107500000Y-72052380D01*
X107404761Y-72100000D01*
X107357142Y-72147619D01*
X107261904Y-72290476D01*
X107214285Y-72480952D01*
X107214285Y-72861904D01*
X107261904Y-72957142D01*
X107309523Y-73004761D01*
X107404761Y-73052380D01*
X107595238Y-73052380D01*
X107690476Y-73004761D01*
X107738095Y-72957142D01*
X107785714Y-72861904D01*
X107785714Y-72623809D01*
X107738095Y-72528571D01*
X107690476Y-72480952D01*
X107595238Y-72433333D01*
X107404761Y-72433333D01*
X107309523Y-72480952D01*
X107261904Y-72528571D01*
X107214285Y-72623809D01*
%TO.C,R7*%
X105452380Y-80416666D02*
X104976190Y-80750000D01*
X105452380Y-80988095D02*
X104452380Y-80988095D01*
X104452380Y-80607142D01*
X104500000Y-80511904D01*
X104547619Y-80464285D01*
X104642857Y-80416666D01*
X104785714Y-80416666D01*
X104880952Y-80464285D01*
X104928571Y-80511904D01*
X104976190Y-80607142D01*
X104976190Y-80988095D01*
X104452380Y-80083333D02*
X104452380Y-79416666D01*
X105452380Y-79845238D01*
%TO.C,R8*%
X109583333Y-87202380D02*
X109250000Y-86726190D01*
X109011904Y-87202380D02*
X109011904Y-86202380D01*
X109392857Y-86202380D01*
X109488095Y-86250000D01*
X109535714Y-86297619D01*
X109583333Y-86392857D01*
X109583333Y-86535714D01*
X109535714Y-86630952D01*
X109488095Y-86678571D01*
X109392857Y-86726190D01*
X109011904Y-86726190D01*
X110154761Y-86630952D02*
X110059523Y-86583333D01*
X110011904Y-86535714D01*
X109964285Y-86440476D01*
X109964285Y-86392857D01*
X110011904Y-86297619D01*
X110059523Y-86250000D01*
X110154761Y-86202380D01*
X110345238Y-86202380D01*
X110440476Y-86250000D01*
X110488095Y-86297619D01*
X110535714Y-86392857D01*
X110535714Y-86440476D01*
X110488095Y-86535714D01*
X110440476Y-86583333D01*
X110345238Y-86630952D01*
X110154761Y-86630952D01*
X110059523Y-86678571D01*
X110011904Y-86726190D01*
X109964285Y-86821428D01*
X109964285Y-87011904D01*
X110011904Y-87107142D01*
X110059523Y-87154761D01*
X110154761Y-87202380D01*
X110345238Y-87202380D01*
X110440476Y-87154761D01*
X110488095Y-87107142D01*
X110535714Y-87011904D01*
X110535714Y-86821428D01*
X110488095Y-86726190D01*
X110440476Y-86678571D01*
X110345238Y-86630952D01*
%TO.C,R9*%
X102333333Y-95702380D02*
X102000000Y-95226190D01*
X101761904Y-95702380D02*
X101761904Y-94702380D01*
X102142857Y-94702380D01*
X102238095Y-94750000D01*
X102285714Y-94797619D01*
X102333333Y-94892857D01*
X102333333Y-95035714D01*
X102285714Y-95130952D01*
X102238095Y-95178571D01*
X102142857Y-95226190D01*
X101761904Y-95226190D01*
X102809523Y-95702380D02*
X103000000Y-95702380D01*
X103095238Y-95654761D01*
X103142857Y-95607142D01*
X103238095Y-95464285D01*
X103285714Y-95273809D01*
X103285714Y-94892857D01*
X103238095Y-94797619D01*
X103190476Y-94750000D01*
X103095238Y-94702380D01*
X102904761Y-94702380D01*
X102809523Y-94750000D01*
X102761904Y-94797619D01*
X102714285Y-94892857D01*
X102714285Y-95130952D01*
X102761904Y-95226190D01*
X102809523Y-95273809D01*
X102904761Y-95321428D01*
X103095238Y-95321428D01*
X103190476Y-95273809D01*
X103238095Y-95226190D01*
X103285714Y-95130952D01*
%TO.C,R10*%
X109952380Y-80142857D02*
X109476190Y-80476190D01*
X109952380Y-80714285D02*
X108952380Y-80714285D01*
X108952380Y-80333333D01*
X109000000Y-80238095D01*
X109047619Y-80190476D01*
X109142857Y-80142857D01*
X109285714Y-80142857D01*
X109380952Y-80190476D01*
X109428571Y-80238095D01*
X109476190Y-80333333D01*
X109476190Y-80714285D01*
X109952380Y-79190476D02*
X109952380Y-79761904D01*
X109952380Y-79476190D02*
X108952380Y-79476190D01*
X109095238Y-79571428D01*
X109190476Y-79666666D01*
X109238095Y-79761904D01*
X108952380Y-78571428D02*
X108952380Y-78476190D01*
X109000000Y-78380952D01*
X109047619Y-78333333D01*
X109142857Y-78285714D01*
X109333333Y-78238095D01*
X109571428Y-78238095D01*
X109761904Y-78285714D01*
X109857142Y-78333333D01*
X109904761Y-78380952D01*
X109952380Y-78476190D01*
X109952380Y-78571428D01*
X109904761Y-78666666D01*
X109857142Y-78714285D01*
X109761904Y-78761904D01*
X109571428Y-78809523D01*
X109333333Y-78809523D01*
X109142857Y-78761904D01*
X109047619Y-78714285D01*
X109000000Y-78666666D01*
X108952380Y-78571428D01*
%TO.C,R11*%
X106552380Y-90892857D02*
X106076190Y-91226190D01*
X106552380Y-91464285D02*
X105552380Y-91464285D01*
X105552380Y-91083333D01*
X105600000Y-90988095D01*
X105647619Y-90940476D01*
X105742857Y-90892857D01*
X105885714Y-90892857D01*
X105980952Y-90940476D01*
X106028571Y-90988095D01*
X106076190Y-91083333D01*
X106076190Y-91464285D01*
X106552380Y-89940476D02*
X106552380Y-90511904D01*
X106552380Y-90226190D02*
X105552380Y-90226190D01*
X105695238Y-90321428D01*
X105790476Y-90416666D01*
X105838095Y-90511904D01*
X106552380Y-88988095D02*
X106552380Y-89559523D01*
X106552380Y-89273809D02*
X105552380Y-89273809D01*
X105695238Y-89369047D01*
X105790476Y-89464285D01*
X105838095Y-89559523D01*
%TO.C,R12*%
X103607142Y-107702380D02*
X103273809Y-107226190D01*
X103035714Y-107702380D02*
X103035714Y-106702380D01*
X103416666Y-106702380D01*
X103511904Y-106750000D01*
X103559523Y-106797619D01*
X103607142Y-106892857D01*
X103607142Y-107035714D01*
X103559523Y-107130952D01*
X103511904Y-107178571D01*
X103416666Y-107226190D01*
X103035714Y-107226190D01*
X104559523Y-107702380D02*
X103988095Y-107702380D01*
X104273809Y-107702380D02*
X104273809Y-106702380D01*
X104178571Y-106845238D01*
X104083333Y-106940476D01*
X103988095Y-106988095D01*
X104940476Y-106797619D02*
X104988095Y-106750000D01*
X105083333Y-106702380D01*
X105321428Y-106702380D01*
X105416666Y-106750000D01*
X105464285Y-106797619D01*
X105511904Y-106892857D01*
X105511904Y-106988095D01*
X105464285Y-107130952D01*
X104892857Y-107702380D01*
X105511904Y-107702380D01*
%TO.C,R13*%
X111107142Y-73202380D02*
X110773809Y-72726190D01*
X110535714Y-73202380D02*
X110535714Y-72202380D01*
X110916666Y-72202380D01*
X111011904Y-72250000D01*
X111059523Y-72297619D01*
X111107142Y-72392857D01*
X111107142Y-72535714D01*
X111059523Y-72630952D01*
X111011904Y-72678571D01*
X110916666Y-72726190D01*
X110535714Y-72726190D01*
X112059523Y-73202380D02*
X111488095Y-73202380D01*
X111773809Y-73202380D02*
X111773809Y-72202380D01*
X111678571Y-72345238D01*
X111583333Y-72440476D01*
X111488095Y-72488095D01*
X112392857Y-72202380D02*
X113011904Y-72202380D01*
X112678571Y-72583333D01*
X112821428Y-72583333D01*
X112916666Y-72630952D01*
X112964285Y-72678571D01*
X113011904Y-72773809D01*
X113011904Y-73011904D01*
X112964285Y-73107142D01*
X112916666Y-73154761D01*
X112821428Y-73202380D01*
X112535714Y-73202380D01*
X112440476Y-73154761D01*
X112392857Y-73107142D01*
%TO.C,R14*%
X103857142Y-97952380D02*
X103523809Y-97476190D01*
X103285714Y-97952380D02*
X103285714Y-96952380D01*
X103666666Y-96952380D01*
X103761904Y-97000000D01*
X103809523Y-97047619D01*
X103857142Y-97142857D01*
X103857142Y-97285714D01*
X103809523Y-97380952D01*
X103761904Y-97428571D01*
X103666666Y-97476190D01*
X103285714Y-97476190D01*
X104809523Y-97952380D02*
X104238095Y-97952380D01*
X104523809Y-97952380D02*
X104523809Y-96952380D01*
X104428571Y-97095238D01*
X104333333Y-97190476D01*
X104238095Y-97238095D01*
X105666666Y-97285714D02*
X105666666Y-97952380D01*
X105428571Y-96904761D02*
X105190476Y-97619047D01*
X105809523Y-97619047D01*
%TO.C,R15*%
X114357142Y-100202380D02*
X114023809Y-99726190D01*
X113785714Y-100202380D02*
X113785714Y-99202380D01*
X114166666Y-99202380D01*
X114261904Y-99250000D01*
X114309523Y-99297619D01*
X114357142Y-99392857D01*
X114357142Y-99535714D01*
X114309523Y-99630952D01*
X114261904Y-99678571D01*
X114166666Y-99726190D01*
X113785714Y-99726190D01*
X115309523Y-100202380D02*
X114738095Y-100202380D01*
X115023809Y-100202380D02*
X115023809Y-99202380D01*
X114928571Y-99345238D01*
X114833333Y-99440476D01*
X114738095Y-99488095D01*
X116214285Y-99202380D02*
X115738095Y-99202380D01*
X115690476Y-99678571D01*
X115738095Y-99630952D01*
X115833333Y-99583333D01*
X116071428Y-99583333D01*
X116166666Y-99630952D01*
X116214285Y-99678571D01*
X116261904Y-99773809D01*
X116261904Y-100011904D01*
X116214285Y-100107142D01*
X116166666Y-100154761D01*
X116071428Y-100202380D01*
X115833333Y-100202380D01*
X115738095Y-100154761D01*
X115690476Y-100107142D01*
%TO.C,R16*%
X114607142Y-107452380D02*
X114273809Y-106976190D01*
X114035714Y-107452380D02*
X114035714Y-106452380D01*
X114416666Y-106452380D01*
X114511904Y-106500000D01*
X114559523Y-106547619D01*
X114607142Y-106642857D01*
X114607142Y-106785714D01*
X114559523Y-106880952D01*
X114511904Y-106928571D01*
X114416666Y-106976190D01*
X114035714Y-106976190D01*
X115559523Y-107452380D02*
X114988095Y-107452380D01*
X115273809Y-107452380D02*
X115273809Y-106452380D01*
X115178571Y-106595238D01*
X115083333Y-106690476D01*
X114988095Y-106738095D01*
X116416666Y-106452380D02*
X116226190Y-106452380D01*
X116130952Y-106500000D01*
X116083333Y-106547619D01*
X115988095Y-106690476D01*
X115940476Y-106880952D01*
X115940476Y-107261904D01*
X115988095Y-107357142D01*
X116035714Y-107404761D01*
X116130952Y-107452380D01*
X116321428Y-107452380D01*
X116416666Y-107404761D01*
X116464285Y-107357142D01*
X116511904Y-107261904D01*
X116511904Y-107023809D01*
X116464285Y-106928571D01*
X116416666Y-106880952D01*
X116321428Y-106833333D01*
X116130952Y-106833333D01*
X116035714Y-106880952D01*
X115988095Y-106928571D01*
X115940476Y-107023809D01*
%TO.C,R17*%
X115357142Y-73452380D02*
X115023809Y-72976190D01*
X114785714Y-73452380D02*
X114785714Y-72452380D01*
X115166666Y-72452380D01*
X115261904Y-72500000D01*
X115309523Y-72547619D01*
X115357142Y-72642857D01*
X115357142Y-72785714D01*
X115309523Y-72880952D01*
X115261904Y-72928571D01*
X115166666Y-72976190D01*
X114785714Y-72976190D01*
X116309523Y-73452380D02*
X115738095Y-73452380D01*
X116023809Y-73452380D02*
X116023809Y-72452380D01*
X115928571Y-72595238D01*
X115833333Y-72690476D01*
X115738095Y-72738095D01*
X116642857Y-72452380D02*
X117309523Y-72452380D01*
X116880952Y-73452380D01*
%TO.C,R18*%
X114357142Y-97952380D02*
X114023809Y-97476190D01*
X113785714Y-97952380D02*
X113785714Y-96952380D01*
X114166666Y-96952380D01*
X114261904Y-97000000D01*
X114309523Y-97047619D01*
X114357142Y-97142857D01*
X114357142Y-97285714D01*
X114309523Y-97380952D01*
X114261904Y-97428571D01*
X114166666Y-97476190D01*
X113785714Y-97476190D01*
X115309523Y-97952380D02*
X114738095Y-97952380D01*
X115023809Y-97952380D02*
X115023809Y-96952380D01*
X114928571Y-97095238D01*
X114833333Y-97190476D01*
X114738095Y-97238095D01*
X115880952Y-97380952D02*
X115785714Y-97333333D01*
X115738095Y-97285714D01*
X115690476Y-97190476D01*
X115690476Y-97142857D01*
X115738095Y-97047619D01*
X115785714Y-97000000D01*
X115880952Y-96952380D01*
X116071428Y-96952380D01*
X116166666Y-97000000D01*
X116214285Y-97047619D01*
X116261904Y-97142857D01*
X116261904Y-97190476D01*
X116214285Y-97285714D01*
X116166666Y-97333333D01*
X116071428Y-97380952D01*
X115880952Y-97380952D01*
X115785714Y-97428571D01*
X115738095Y-97476190D01*
X115690476Y-97571428D01*
X115690476Y-97761904D01*
X115738095Y-97857142D01*
X115785714Y-97904761D01*
X115880952Y-97952380D01*
X116071428Y-97952380D01*
X116166666Y-97904761D01*
X116214285Y-97857142D01*
X116261904Y-97761904D01*
X116261904Y-97571428D01*
X116214285Y-97476190D01*
X116166666Y-97428571D01*
X116071428Y-97380952D01*
%TO.C,R19*%
X114452380Y-80142857D02*
X113976190Y-80476190D01*
X114452380Y-80714285D02*
X113452380Y-80714285D01*
X113452380Y-80333333D01*
X113500000Y-80238095D01*
X113547619Y-80190476D01*
X113642857Y-80142857D01*
X113785714Y-80142857D01*
X113880952Y-80190476D01*
X113928571Y-80238095D01*
X113976190Y-80333333D01*
X113976190Y-80714285D01*
X114452380Y-79190476D02*
X114452380Y-79761904D01*
X114452380Y-79476190D02*
X113452380Y-79476190D01*
X113595238Y-79571428D01*
X113690476Y-79666666D01*
X113738095Y-79761904D01*
X114452380Y-78714285D02*
X114452380Y-78523809D01*
X114404761Y-78428571D01*
X114357142Y-78380952D01*
X114214285Y-78285714D01*
X114023809Y-78238095D01*
X113642857Y-78238095D01*
X113547619Y-78285714D01*
X113500000Y-78333333D01*
X113452380Y-78428571D01*
X113452380Y-78619047D01*
X113500000Y-78714285D01*
X113547619Y-78761904D01*
X113642857Y-78809523D01*
X113880952Y-78809523D01*
X113976190Y-78761904D01*
X114023809Y-78714285D01*
X114071428Y-78619047D01*
X114071428Y-78428571D01*
X114023809Y-78333333D01*
X113976190Y-78285714D01*
X113880952Y-78238095D01*
%TO.C,R20*%
X112107142Y-88702380D02*
X111773809Y-88226190D01*
X111535714Y-88702380D02*
X111535714Y-87702380D01*
X111916666Y-87702380D01*
X112011904Y-87750000D01*
X112059523Y-87797619D01*
X112107142Y-87892857D01*
X112107142Y-88035714D01*
X112059523Y-88130952D01*
X112011904Y-88178571D01*
X111916666Y-88226190D01*
X111535714Y-88226190D01*
X112488095Y-87797619D02*
X112535714Y-87750000D01*
X112630952Y-87702380D01*
X112869047Y-87702380D01*
X112964285Y-87750000D01*
X113011904Y-87797619D01*
X113059523Y-87892857D01*
X113059523Y-87988095D01*
X113011904Y-88130952D01*
X112440476Y-88702380D01*
X113059523Y-88702380D01*
X113678571Y-87702380D02*
X113773809Y-87702380D01*
X113869047Y-87750000D01*
X113916666Y-87797619D01*
X113964285Y-87892857D01*
X114011904Y-88083333D01*
X114011904Y-88321428D01*
X113964285Y-88511904D01*
X113916666Y-88607142D01*
X113869047Y-88654761D01*
X113773809Y-88702380D01*
X113678571Y-88702380D01*
X113583333Y-88654761D01*
X113535714Y-88607142D01*
X113488095Y-88511904D01*
X113440476Y-88321428D01*
X113440476Y-88083333D01*
X113488095Y-87892857D01*
X113535714Y-87797619D01*
X113583333Y-87750000D01*
X113678571Y-87702380D01*
%TO.C,R21*%
X120107142Y-72452380D02*
X119773809Y-71976190D01*
X119535714Y-72452380D02*
X119535714Y-71452380D01*
X119916666Y-71452380D01*
X120011904Y-71500000D01*
X120059523Y-71547619D01*
X120107142Y-71642857D01*
X120107142Y-71785714D01*
X120059523Y-71880952D01*
X120011904Y-71928571D01*
X119916666Y-71976190D01*
X119535714Y-71976190D01*
X120488095Y-71547619D02*
X120535714Y-71500000D01*
X120630952Y-71452380D01*
X120869047Y-71452380D01*
X120964285Y-71500000D01*
X121011904Y-71547619D01*
X121059523Y-71642857D01*
X121059523Y-71738095D01*
X121011904Y-71880952D01*
X120440476Y-72452380D01*
X121059523Y-72452380D01*
X122011904Y-72452380D02*
X121440476Y-72452380D01*
X121726190Y-72452380D02*
X121726190Y-71452380D01*
X121630952Y-71595238D01*
X121535714Y-71690476D01*
X121440476Y-71738095D01*
%TO.C,R22*%
X119202380Y-80392857D02*
X118726190Y-80726190D01*
X119202380Y-80964285D02*
X118202380Y-80964285D01*
X118202380Y-80583333D01*
X118250000Y-80488095D01*
X118297619Y-80440476D01*
X118392857Y-80392857D01*
X118535714Y-80392857D01*
X118630952Y-80440476D01*
X118678571Y-80488095D01*
X118726190Y-80583333D01*
X118726190Y-80964285D01*
X118297619Y-80011904D02*
X118250000Y-79964285D01*
X118202380Y-79869047D01*
X118202380Y-79630952D01*
X118250000Y-79535714D01*
X118297619Y-79488095D01*
X118392857Y-79440476D01*
X118488095Y-79440476D01*
X118630952Y-79488095D01*
X119202380Y-80059523D01*
X119202380Y-79440476D01*
X118297619Y-79059523D02*
X118250000Y-79011904D01*
X118202380Y-78916666D01*
X118202380Y-78678571D01*
X118250000Y-78583333D01*
X118297619Y-78535714D01*
X118392857Y-78488095D01*
X118488095Y-78488095D01*
X118630952Y-78535714D01*
X119202380Y-79107142D01*
X119202380Y-78488095D01*
%TO.C,R23*%
X119857142Y-87852380D02*
X119523809Y-87376190D01*
X119285714Y-87852380D02*
X119285714Y-86852380D01*
X119666666Y-86852380D01*
X119761904Y-86900000D01*
X119809523Y-86947619D01*
X119857142Y-87042857D01*
X119857142Y-87185714D01*
X119809523Y-87280952D01*
X119761904Y-87328571D01*
X119666666Y-87376190D01*
X119285714Y-87376190D01*
X120238095Y-86947619D02*
X120285714Y-86900000D01*
X120380952Y-86852380D01*
X120619047Y-86852380D01*
X120714285Y-86900000D01*
X120761904Y-86947619D01*
X120809523Y-87042857D01*
X120809523Y-87138095D01*
X120761904Y-87280952D01*
X120190476Y-87852380D01*
X120809523Y-87852380D01*
X121142857Y-86852380D02*
X121761904Y-86852380D01*
X121428571Y-87233333D01*
X121571428Y-87233333D01*
X121666666Y-87280952D01*
X121714285Y-87328571D01*
X121761904Y-87423809D01*
X121761904Y-87661904D01*
X121714285Y-87757142D01*
X121666666Y-87804761D01*
X121571428Y-87852380D01*
X121285714Y-87852380D01*
X121190476Y-87804761D01*
X121142857Y-87757142D01*
%TO.C,R24*%
X115357142Y-92452380D02*
X115023809Y-91976190D01*
X114785714Y-92452380D02*
X114785714Y-91452380D01*
X115166666Y-91452380D01*
X115261904Y-91500000D01*
X115309523Y-91547619D01*
X115357142Y-91642857D01*
X115357142Y-91785714D01*
X115309523Y-91880952D01*
X115261904Y-91928571D01*
X115166666Y-91976190D01*
X114785714Y-91976190D01*
X115738095Y-91547619D02*
X115785714Y-91500000D01*
X115880952Y-91452380D01*
X116119047Y-91452380D01*
X116214285Y-91500000D01*
X116261904Y-91547619D01*
X116309523Y-91642857D01*
X116309523Y-91738095D01*
X116261904Y-91880952D01*
X115690476Y-92452380D01*
X116309523Y-92452380D01*
X117166666Y-91785714D02*
X117166666Y-92452380D01*
X116928571Y-91404761D02*
X116690476Y-92119047D01*
X117309523Y-92119047D01*
%TO.C,R25*%
X126357142Y-79152380D02*
X126023809Y-78676190D01*
X125785714Y-79152380D02*
X125785714Y-78152380D01*
X126166666Y-78152380D01*
X126261904Y-78200000D01*
X126309523Y-78247619D01*
X126357142Y-78342857D01*
X126357142Y-78485714D01*
X126309523Y-78580952D01*
X126261904Y-78628571D01*
X126166666Y-78676190D01*
X125785714Y-78676190D01*
X126738095Y-78247619D02*
X126785714Y-78200000D01*
X126880952Y-78152380D01*
X127119047Y-78152380D01*
X127214285Y-78200000D01*
X127261904Y-78247619D01*
X127309523Y-78342857D01*
X127309523Y-78438095D01*
X127261904Y-78580952D01*
X126690476Y-79152380D01*
X127309523Y-79152380D01*
X128214285Y-78152380D02*
X127738095Y-78152380D01*
X127690476Y-78628571D01*
X127738095Y-78580952D01*
X127833333Y-78533333D01*
X128071428Y-78533333D01*
X128166666Y-78580952D01*
X128214285Y-78628571D01*
X128261904Y-78723809D01*
X128261904Y-78961904D01*
X128214285Y-79057142D01*
X128166666Y-79104761D01*
X128071428Y-79152380D01*
X127833333Y-79152380D01*
X127738095Y-79104761D01*
X127690476Y-79057142D01*
%TO.C,R26*%
X129357142Y-79152380D02*
X129023809Y-78676190D01*
X128785714Y-79152380D02*
X128785714Y-78152380D01*
X129166666Y-78152380D01*
X129261904Y-78200000D01*
X129309523Y-78247619D01*
X129357142Y-78342857D01*
X129357142Y-78485714D01*
X129309523Y-78580952D01*
X129261904Y-78628571D01*
X129166666Y-78676190D01*
X128785714Y-78676190D01*
X129738095Y-78247619D02*
X129785714Y-78200000D01*
X129880952Y-78152380D01*
X130119047Y-78152380D01*
X130214285Y-78200000D01*
X130261904Y-78247619D01*
X130309523Y-78342857D01*
X130309523Y-78438095D01*
X130261904Y-78580952D01*
X129690476Y-79152380D01*
X130309523Y-79152380D01*
X131166666Y-78152380D02*
X130976190Y-78152380D01*
X130880952Y-78200000D01*
X130833333Y-78247619D01*
X130738095Y-78390476D01*
X130690476Y-78580952D01*
X130690476Y-78961904D01*
X130738095Y-79057142D01*
X130785714Y-79104761D01*
X130880952Y-79152380D01*
X131071428Y-79152380D01*
X131166666Y-79104761D01*
X131214285Y-79057142D01*
X131261904Y-78961904D01*
X131261904Y-78723809D01*
X131214285Y-78628571D01*
X131166666Y-78580952D01*
X131071428Y-78533333D01*
X130880952Y-78533333D01*
X130785714Y-78580952D01*
X130738095Y-78628571D01*
X130690476Y-78723809D01*
%TO.C,R27*%
X132357142Y-79202380D02*
X132023809Y-78726190D01*
X131785714Y-79202380D02*
X131785714Y-78202380D01*
X132166666Y-78202380D01*
X132261904Y-78250000D01*
X132309523Y-78297619D01*
X132357142Y-78392857D01*
X132357142Y-78535714D01*
X132309523Y-78630952D01*
X132261904Y-78678571D01*
X132166666Y-78726190D01*
X131785714Y-78726190D01*
X132738095Y-78297619D02*
X132785714Y-78250000D01*
X132880952Y-78202380D01*
X133119047Y-78202380D01*
X133214285Y-78250000D01*
X133261904Y-78297619D01*
X133309523Y-78392857D01*
X133309523Y-78488095D01*
X133261904Y-78630952D01*
X132690476Y-79202380D01*
X133309523Y-79202380D01*
X133642857Y-78202380D02*
X134309523Y-78202380D01*
X133880952Y-79202380D01*
%TO.C,R28*%
X114607142Y-87452380D02*
X114273809Y-86976190D01*
X114035714Y-87452380D02*
X114035714Y-86452380D01*
X114416666Y-86452380D01*
X114511904Y-86500000D01*
X114559523Y-86547619D01*
X114607142Y-86642857D01*
X114607142Y-86785714D01*
X114559523Y-86880952D01*
X114511904Y-86928571D01*
X114416666Y-86976190D01*
X114035714Y-86976190D01*
X114988095Y-86547619D02*
X115035714Y-86500000D01*
X115130952Y-86452380D01*
X115369047Y-86452380D01*
X115464285Y-86500000D01*
X115511904Y-86547619D01*
X115559523Y-86642857D01*
X115559523Y-86738095D01*
X115511904Y-86880952D01*
X114940476Y-87452380D01*
X115559523Y-87452380D01*
X116130952Y-86880952D02*
X116035714Y-86833333D01*
X115988095Y-86785714D01*
X115940476Y-86690476D01*
X115940476Y-86642857D01*
X115988095Y-86547619D01*
X116035714Y-86500000D01*
X116130952Y-86452380D01*
X116321428Y-86452380D01*
X116416666Y-86500000D01*
X116464285Y-86547619D01*
X116511904Y-86642857D01*
X116511904Y-86690476D01*
X116464285Y-86785714D01*
X116416666Y-86833333D01*
X116321428Y-86880952D01*
X116130952Y-86880952D01*
X116035714Y-86928571D01*
X115988095Y-86976190D01*
X115940476Y-87071428D01*
X115940476Y-87261904D01*
X115988095Y-87357142D01*
X116035714Y-87404761D01*
X116130952Y-87452380D01*
X116321428Y-87452380D01*
X116416666Y-87404761D01*
X116464285Y-87357142D01*
X116511904Y-87261904D01*
X116511904Y-87071428D01*
X116464285Y-86976190D01*
X116416666Y-86928571D01*
X116321428Y-86880952D01*
%TO.C,R29*%
X124857142Y-104452380D02*
X124523809Y-103976190D01*
X124285714Y-104452380D02*
X124285714Y-103452380D01*
X124666666Y-103452380D01*
X124761904Y-103500000D01*
X124809523Y-103547619D01*
X124857142Y-103642857D01*
X124857142Y-103785714D01*
X124809523Y-103880952D01*
X124761904Y-103928571D01*
X124666666Y-103976190D01*
X124285714Y-103976190D01*
X125238095Y-103547619D02*
X125285714Y-103500000D01*
X125380952Y-103452380D01*
X125619047Y-103452380D01*
X125714285Y-103500000D01*
X125761904Y-103547619D01*
X125809523Y-103642857D01*
X125809523Y-103738095D01*
X125761904Y-103880952D01*
X125190476Y-104452380D01*
X125809523Y-104452380D01*
X126285714Y-104452380D02*
X126476190Y-104452380D01*
X126571428Y-104404761D01*
X126619047Y-104357142D01*
X126714285Y-104214285D01*
X126761904Y-104023809D01*
X126761904Y-103642857D01*
X126714285Y-103547619D01*
X126666666Y-103500000D01*
X126571428Y-103452380D01*
X126380952Y-103452380D01*
X126285714Y-103500000D01*
X126238095Y-103547619D01*
X126190476Y-103642857D01*
X126190476Y-103880952D01*
X126238095Y-103976190D01*
X126285714Y-104023809D01*
X126380952Y-104071428D01*
X126571428Y-104071428D01*
X126666666Y-104023809D01*
X126714285Y-103976190D01*
X126761904Y-103880952D01*
%TO.C,R30*%
X122857142Y-88052380D02*
X122523809Y-87576190D01*
X122285714Y-88052380D02*
X122285714Y-87052380D01*
X122666666Y-87052380D01*
X122761904Y-87100000D01*
X122809523Y-87147619D01*
X122857142Y-87242857D01*
X122857142Y-87385714D01*
X122809523Y-87480952D01*
X122761904Y-87528571D01*
X122666666Y-87576190D01*
X122285714Y-87576190D01*
X123190476Y-87052380D02*
X123809523Y-87052380D01*
X123476190Y-87433333D01*
X123619047Y-87433333D01*
X123714285Y-87480952D01*
X123761904Y-87528571D01*
X123809523Y-87623809D01*
X123809523Y-87861904D01*
X123761904Y-87957142D01*
X123714285Y-88004761D01*
X123619047Y-88052380D01*
X123333333Y-88052380D01*
X123238095Y-88004761D01*
X123190476Y-87957142D01*
X124428571Y-87052380D02*
X124523809Y-87052380D01*
X124619047Y-87100000D01*
X124666666Y-87147619D01*
X124714285Y-87242857D01*
X124761904Y-87433333D01*
X124761904Y-87671428D01*
X124714285Y-87861904D01*
X124666666Y-87957142D01*
X124619047Y-88004761D01*
X124523809Y-88052380D01*
X124428571Y-88052380D01*
X124333333Y-88004761D01*
X124285714Y-87957142D01*
X124238095Y-87861904D01*
X124190476Y-87671428D01*
X124190476Y-87433333D01*
X124238095Y-87242857D01*
X124285714Y-87147619D01*
X124333333Y-87100000D01*
X124428571Y-87052380D01*
%TO.C,R31*%
X130357142Y-108452380D02*
X130023809Y-107976190D01*
X129785714Y-108452380D02*
X129785714Y-107452380D01*
X130166666Y-107452380D01*
X130261904Y-107500000D01*
X130309523Y-107547619D01*
X130357142Y-107642857D01*
X130357142Y-107785714D01*
X130309523Y-107880952D01*
X130261904Y-107928571D01*
X130166666Y-107976190D01*
X129785714Y-107976190D01*
X130690476Y-107452380D02*
X131309523Y-107452380D01*
X130976190Y-107833333D01*
X131119047Y-107833333D01*
X131214285Y-107880952D01*
X131261904Y-107928571D01*
X131309523Y-108023809D01*
X131309523Y-108261904D01*
X131261904Y-108357142D01*
X131214285Y-108404761D01*
X131119047Y-108452380D01*
X130833333Y-108452380D01*
X130738095Y-108404761D01*
X130690476Y-108357142D01*
X132261904Y-108452380D02*
X131690476Y-108452380D01*
X131976190Y-108452380D02*
X131976190Y-107452380D01*
X131880952Y-107595238D01*
X131785714Y-107690476D01*
X131690476Y-107738095D01*
%TO.C,R33*%
X126107142Y-90202380D02*
X125773809Y-89726190D01*
X125535714Y-90202380D02*
X125535714Y-89202380D01*
X125916666Y-89202380D01*
X126011904Y-89250000D01*
X126059523Y-89297619D01*
X126107142Y-89392857D01*
X126107142Y-89535714D01*
X126059523Y-89630952D01*
X126011904Y-89678571D01*
X125916666Y-89726190D01*
X125535714Y-89726190D01*
X126440476Y-89202380D02*
X127059523Y-89202380D01*
X126726190Y-89583333D01*
X126869047Y-89583333D01*
X126964285Y-89630952D01*
X127011904Y-89678571D01*
X127059523Y-89773809D01*
X127059523Y-90011904D01*
X127011904Y-90107142D01*
X126964285Y-90154761D01*
X126869047Y-90202380D01*
X126583333Y-90202380D01*
X126488095Y-90154761D01*
X126440476Y-90107142D01*
X127392857Y-89202380D02*
X128011904Y-89202380D01*
X127678571Y-89583333D01*
X127821428Y-89583333D01*
X127916666Y-89630952D01*
X127964285Y-89678571D01*
X128011904Y-89773809D01*
X128011904Y-90011904D01*
X127964285Y-90107142D01*
X127916666Y-90154761D01*
X127821428Y-90202380D01*
X127535714Y-90202380D01*
X127440476Y-90154761D01*
X127392857Y-90107142D01*
%TO.C,R34*%
X131107142Y-95202380D02*
X130773809Y-94726190D01*
X130535714Y-95202380D02*
X130535714Y-94202380D01*
X130916666Y-94202380D01*
X131011904Y-94250000D01*
X131059523Y-94297619D01*
X131107142Y-94392857D01*
X131107142Y-94535714D01*
X131059523Y-94630952D01*
X131011904Y-94678571D01*
X130916666Y-94726190D01*
X130535714Y-94726190D01*
X131440476Y-94202380D02*
X132059523Y-94202380D01*
X131726190Y-94583333D01*
X131869047Y-94583333D01*
X131964285Y-94630952D01*
X132011904Y-94678571D01*
X132059523Y-94773809D01*
X132059523Y-95011904D01*
X132011904Y-95107142D01*
X131964285Y-95154761D01*
X131869047Y-95202380D01*
X131583333Y-95202380D01*
X131488095Y-95154761D01*
X131440476Y-95107142D01*
X132916666Y-94535714D02*
X132916666Y-95202380D01*
X132678571Y-94154761D02*
X132440476Y-94869047D01*
X133059523Y-94869047D01*
%TO.C,R35*%
X130952380Y-110892857D02*
X130476190Y-111226190D01*
X130952380Y-111464285D02*
X129952380Y-111464285D01*
X129952380Y-111083333D01*
X130000000Y-110988095D01*
X130047619Y-110940476D01*
X130142857Y-110892857D01*
X130285714Y-110892857D01*
X130380952Y-110940476D01*
X130428571Y-110988095D01*
X130476190Y-111083333D01*
X130476190Y-111464285D01*
X129952380Y-110559523D02*
X129952380Y-109940476D01*
X130333333Y-110273809D01*
X130333333Y-110130952D01*
X130380952Y-110035714D01*
X130428571Y-109988095D01*
X130523809Y-109940476D01*
X130761904Y-109940476D01*
X130857142Y-109988095D01*
X130904761Y-110035714D01*
X130952380Y-110130952D01*
X130952380Y-110416666D01*
X130904761Y-110511904D01*
X130857142Y-110559523D01*
X129952380Y-109035714D02*
X129952380Y-109511904D01*
X130428571Y-109559523D01*
X130380952Y-109511904D01*
X130333333Y-109416666D01*
X130333333Y-109178571D01*
X130380952Y-109083333D01*
X130428571Y-109035714D01*
X130523809Y-108988095D01*
X130761904Y-108988095D01*
X130857142Y-109035714D01*
X130904761Y-109083333D01*
X130952380Y-109178571D01*
X130952380Y-109416666D01*
X130904761Y-109511904D01*
X130857142Y-109559523D01*
%TO.C,R36*%
X131557142Y-88052380D02*
X131223809Y-87576190D01*
X130985714Y-88052380D02*
X130985714Y-87052380D01*
X131366666Y-87052380D01*
X131461904Y-87100000D01*
X131509523Y-87147619D01*
X131557142Y-87242857D01*
X131557142Y-87385714D01*
X131509523Y-87480952D01*
X131461904Y-87528571D01*
X131366666Y-87576190D01*
X130985714Y-87576190D01*
X131890476Y-87052380D02*
X132509523Y-87052380D01*
X132176190Y-87433333D01*
X132319047Y-87433333D01*
X132414285Y-87480952D01*
X132461904Y-87528571D01*
X132509523Y-87623809D01*
X132509523Y-87861904D01*
X132461904Y-87957142D01*
X132414285Y-88004761D01*
X132319047Y-88052380D01*
X132033333Y-88052380D01*
X131938095Y-88004761D01*
X131890476Y-87957142D01*
X133366666Y-87052380D02*
X133176190Y-87052380D01*
X133080952Y-87100000D01*
X133033333Y-87147619D01*
X132938095Y-87290476D01*
X132890476Y-87480952D01*
X132890476Y-87861904D01*
X132938095Y-87957142D01*
X132985714Y-88004761D01*
X133080952Y-88052380D01*
X133271428Y-88052380D01*
X133366666Y-88004761D01*
X133414285Y-87957142D01*
X133461904Y-87861904D01*
X133461904Y-87623809D01*
X133414285Y-87528571D01*
X133366666Y-87480952D01*
X133271428Y-87433333D01*
X133080952Y-87433333D01*
X132985714Y-87480952D01*
X132938095Y-87528571D01*
X132890476Y-87623809D01*
%TO.C,R37*%
X96857142Y-108202380D02*
X96523809Y-107726190D01*
X96285714Y-108202380D02*
X96285714Y-107202380D01*
X96666666Y-107202380D01*
X96761904Y-107250000D01*
X96809523Y-107297619D01*
X96857142Y-107392857D01*
X96857142Y-107535714D01*
X96809523Y-107630952D01*
X96761904Y-107678571D01*
X96666666Y-107726190D01*
X96285714Y-107726190D01*
X97190476Y-107202380D02*
X97809523Y-107202380D01*
X97476190Y-107583333D01*
X97619047Y-107583333D01*
X97714285Y-107630952D01*
X97761904Y-107678571D01*
X97809523Y-107773809D01*
X97809523Y-108011904D01*
X97761904Y-108107142D01*
X97714285Y-108154761D01*
X97619047Y-108202380D01*
X97333333Y-108202380D01*
X97238095Y-108154761D01*
X97190476Y-108107142D01*
X98142857Y-107202380D02*
X98809523Y-107202380D01*
X98380952Y-108202380D01*
%TO.C,R38*%
X119857142Y-98702380D02*
X119523809Y-98226190D01*
X119285714Y-98702380D02*
X119285714Y-97702380D01*
X119666666Y-97702380D01*
X119761904Y-97750000D01*
X119809523Y-97797619D01*
X119857142Y-97892857D01*
X119857142Y-98035714D01*
X119809523Y-98130952D01*
X119761904Y-98178571D01*
X119666666Y-98226190D01*
X119285714Y-98226190D01*
X120190476Y-97702380D02*
X120809523Y-97702380D01*
X120476190Y-98083333D01*
X120619047Y-98083333D01*
X120714285Y-98130952D01*
X120761904Y-98178571D01*
X120809523Y-98273809D01*
X120809523Y-98511904D01*
X120761904Y-98607142D01*
X120714285Y-98654761D01*
X120619047Y-98702380D01*
X120333333Y-98702380D01*
X120238095Y-98654761D01*
X120190476Y-98607142D01*
X121380952Y-98130952D02*
X121285714Y-98083333D01*
X121238095Y-98035714D01*
X121190476Y-97940476D01*
X121190476Y-97892857D01*
X121238095Y-97797619D01*
X121285714Y-97750000D01*
X121380952Y-97702380D01*
X121571428Y-97702380D01*
X121666666Y-97750000D01*
X121714285Y-97797619D01*
X121761904Y-97892857D01*
X121761904Y-97940476D01*
X121714285Y-98035714D01*
X121666666Y-98083333D01*
X121571428Y-98130952D01*
X121380952Y-98130952D01*
X121285714Y-98178571D01*
X121238095Y-98226190D01*
X121190476Y-98321428D01*
X121190476Y-98511904D01*
X121238095Y-98607142D01*
X121285714Y-98654761D01*
X121380952Y-98702380D01*
X121571428Y-98702380D01*
X121666666Y-98654761D01*
X121714285Y-98607142D01*
X121761904Y-98511904D01*
X121761904Y-98321428D01*
X121714285Y-98226190D01*
X121666666Y-98178571D01*
X121571428Y-98130952D01*
%TO.C,R39*%
X119857142Y-96702380D02*
X119523809Y-96226190D01*
X119285714Y-96702380D02*
X119285714Y-95702380D01*
X119666666Y-95702380D01*
X119761904Y-95750000D01*
X119809523Y-95797619D01*
X119857142Y-95892857D01*
X119857142Y-96035714D01*
X119809523Y-96130952D01*
X119761904Y-96178571D01*
X119666666Y-96226190D01*
X119285714Y-96226190D01*
X120190476Y-95702380D02*
X120809523Y-95702380D01*
X120476190Y-96083333D01*
X120619047Y-96083333D01*
X120714285Y-96130952D01*
X120761904Y-96178571D01*
X120809523Y-96273809D01*
X120809523Y-96511904D01*
X120761904Y-96607142D01*
X120714285Y-96654761D01*
X120619047Y-96702380D01*
X120333333Y-96702380D01*
X120238095Y-96654761D01*
X120190476Y-96607142D01*
X121285714Y-96702380D02*
X121476190Y-96702380D01*
X121571428Y-96654761D01*
X121619047Y-96607142D01*
X121714285Y-96464285D01*
X121761904Y-96273809D01*
X121761904Y-95892857D01*
X121714285Y-95797619D01*
X121666666Y-95750000D01*
X121571428Y-95702380D01*
X121380952Y-95702380D01*
X121285714Y-95750000D01*
X121238095Y-95797619D01*
X121190476Y-95892857D01*
X121190476Y-96130952D01*
X121238095Y-96226190D01*
X121285714Y-96273809D01*
X121380952Y-96321428D01*
X121571428Y-96321428D01*
X121666666Y-96273809D01*
X121714285Y-96226190D01*
X121761904Y-96130952D01*
%TO.C,R42*%
X121452380Y-110892857D02*
X120976190Y-111226190D01*
X121452380Y-111464285D02*
X120452380Y-111464285D01*
X120452380Y-111083333D01*
X120500000Y-110988095D01*
X120547619Y-110940476D01*
X120642857Y-110892857D01*
X120785714Y-110892857D01*
X120880952Y-110940476D01*
X120928571Y-110988095D01*
X120976190Y-111083333D01*
X120976190Y-111464285D01*
X120785714Y-110035714D02*
X121452380Y-110035714D01*
X120404761Y-110273809D02*
X121119047Y-110511904D01*
X121119047Y-109892857D01*
X120547619Y-109559523D02*
X120500000Y-109511904D01*
X120452380Y-109416666D01*
X120452380Y-109178571D01*
X120500000Y-109083333D01*
X120547619Y-109035714D01*
X120642857Y-108988095D01*
X120738095Y-108988095D01*
X120880952Y-109035714D01*
X121452380Y-109607142D01*
X121452380Y-108988095D01*
%TO.C,R43*%
X130607142Y-102702380D02*
X130273809Y-102226190D01*
X130035714Y-102702380D02*
X130035714Y-101702380D01*
X130416666Y-101702380D01*
X130511904Y-101750000D01*
X130559523Y-101797619D01*
X130607142Y-101892857D01*
X130607142Y-102035714D01*
X130559523Y-102130952D01*
X130511904Y-102178571D01*
X130416666Y-102226190D01*
X130035714Y-102226190D01*
X131464285Y-102035714D02*
X131464285Y-102702380D01*
X131226190Y-101654761D02*
X130988095Y-102369047D01*
X131607142Y-102369047D01*
X131892857Y-101702380D02*
X132511904Y-101702380D01*
X132178571Y-102083333D01*
X132321428Y-102083333D01*
X132416666Y-102130952D01*
X132464285Y-102178571D01*
X132511904Y-102273809D01*
X132511904Y-102511904D01*
X132464285Y-102607142D01*
X132416666Y-102654761D01*
X132321428Y-102702380D01*
X132035714Y-102702380D01*
X131940476Y-102654761D01*
X131892857Y-102607142D01*
%TO.C,R44*%
X130357142Y-113452380D02*
X130023809Y-112976190D01*
X129785714Y-113452380D02*
X129785714Y-112452380D01*
X130166666Y-112452380D01*
X130261904Y-112500000D01*
X130309523Y-112547619D01*
X130357142Y-112642857D01*
X130357142Y-112785714D01*
X130309523Y-112880952D01*
X130261904Y-112928571D01*
X130166666Y-112976190D01*
X129785714Y-112976190D01*
X131214285Y-112785714D02*
X131214285Y-113452380D01*
X130976190Y-112404761D02*
X130738095Y-113119047D01*
X131357142Y-113119047D01*
X132166666Y-112785714D02*
X132166666Y-113452380D01*
X131928571Y-112404761D02*
X131690476Y-113119047D01*
X132309523Y-113119047D01*
%TO.C,R45*%
X126607142Y-118022380D02*
X126273809Y-117546190D01*
X126035714Y-118022380D02*
X126035714Y-117022380D01*
X126416666Y-117022380D01*
X126511904Y-117070000D01*
X126559523Y-117117619D01*
X126607142Y-117212857D01*
X126607142Y-117355714D01*
X126559523Y-117450952D01*
X126511904Y-117498571D01*
X126416666Y-117546190D01*
X126035714Y-117546190D01*
X127464285Y-117355714D02*
X127464285Y-118022380D01*
X127226190Y-116974761D02*
X126988095Y-117689047D01*
X127607142Y-117689047D01*
X128464285Y-117022380D02*
X127988095Y-117022380D01*
X127940476Y-117498571D01*
X127988095Y-117450952D01*
X128083333Y-117403333D01*
X128321428Y-117403333D01*
X128416666Y-117450952D01*
X128464285Y-117498571D01*
X128511904Y-117593809D01*
X128511904Y-117831904D01*
X128464285Y-117927142D01*
X128416666Y-117974761D01*
X128321428Y-118022380D01*
X128083333Y-118022380D01*
X127988095Y-117974761D01*
X127940476Y-117927142D01*
%TO.C,R46*%
X97102380Y-93642857D02*
X96626190Y-93976190D01*
X97102380Y-94214285D02*
X96102380Y-94214285D01*
X96102380Y-93833333D01*
X96150000Y-93738095D01*
X96197619Y-93690476D01*
X96292857Y-93642857D01*
X96435714Y-93642857D01*
X96530952Y-93690476D01*
X96578571Y-93738095D01*
X96626190Y-93833333D01*
X96626190Y-94214285D01*
X96435714Y-92785714D02*
X97102380Y-92785714D01*
X96054761Y-93023809D02*
X96769047Y-93261904D01*
X96769047Y-92642857D01*
X96102380Y-91833333D02*
X96102380Y-92023809D01*
X96150000Y-92119047D01*
X96197619Y-92166666D01*
X96340476Y-92261904D01*
X96530952Y-92309523D01*
X96911904Y-92309523D01*
X97007142Y-92261904D01*
X97054761Y-92214285D01*
X97102380Y-92119047D01*
X97102380Y-91928571D01*
X97054761Y-91833333D01*
X97007142Y-91785714D01*
X96911904Y-91738095D01*
X96673809Y-91738095D01*
X96578571Y-91785714D01*
X96530952Y-91833333D01*
X96483333Y-91928571D01*
X96483333Y-92119047D01*
X96530952Y-92214285D01*
X96578571Y-92261904D01*
X96673809Y-92309523D01*
%TO.C,R47*%
X98357142Y-91452380D02*
X98023809Y-90976190D01*
X97785714Y-91452380D02*
X97785714Y-90452380D01*
X98166666Y-90452380D01*
X98261904Y-90500000D01*
X98309523Y-90547619D01*
X98357142Y-90642857D01*
X98357142Y-90785714D01*
X98309523Y-90880952D01*
X98261904Y-90928571D01*
X98166666Y-90976190D01*
X97785714Y-90976190D01*
X99214285Y-90785714D02*
X99214285Y-91452380D01*
X98976190Y-90404761D02*
X98738095Y-91119047D01*
X99357142Y-91119047D01*
X99642857Y-90452380D02*
X100309523Y-90452380D01*
X99880952Y-91452380D01*
%TO.C,RV1*%
X102904761Y-118202380D02*
X102571428Y-117726190D01*
X102333333Y-118202380D02*
X102333333Y-117202380D01*
X102714285Y-117202380D01*
X102809523Y-117250000D01*
X102857142Y-117297619D01*
X102904761Y-117392857D01*
X102904761Y-117535714D01*
X102857142Y-117630952D01*
X102809523Y-117678571D01*
X102714285Y-117726190D01*
X102333333Y-117726190D01*
X103190476Y-117202380D02*
X103523809Y-118202380D01*
X103857142Y-117202380D01*
X104714285Y-118202380D02*
X104142857Y-118202380D01*
X104428571Y-118202380D02*
X104428571Y-117202380D01*
X104333333Y-117345238D01*
X104238095Y-117440476D01*
X104142857Y-117488095D01*
%TD*%
M02*
