%TF.GenerationSoftware,KiCad,Pcbnew,(5.1.9)-1*%
%TF.CreationDate,2021-05-17T20:36:21+02:00*%
%TF.ProjectId,TIMP_Bowes-Grebene,54494d50-5f42-46f7-9765-732d47726562,rev?*%
%TF.SameCoordinates,Original*%
%TF.FileFunction,Soldermask,Bot*%
%TF.FilePolarity,Negative*%
%FSLAX46Y46*%
G04 Gerber Fmt 4.6, Leading zero omitted, Abs format (unit mm)*
G04 Created by KiCad (PCBNEW (5.1.9)-1) date 2021-05-17 20:36:21*
%MOMM*%
%LPD*%
G01*
G04 APERTURE LIST*
%ADD10R,1.500000X1.500000*%
%ADD11C,6.400000*%
%ADD12C,0.800000*%
%ADD13O,2.500000X1.600000*%
%ADD14O,7.000000X3.500000*%
%ADD15R,1.700000X1.700000*%
%ADD16O,1.700000X1.700000*%
%ADD17C,2.340000*%
G04 APERTURE END LIST*
D10*
%TO.C,REF\u002A\u002A*%
X115750000Y-119500000D03*
%TD*%
%TO.C,REF\u002A\u002A*%
X102000000Y-90750000D03*
%TD*%
%TO.C,REF\u002A\u002A*%
X117500000Y-99750000D03*
%TD*%
D11*
%TO.C,H1*%
X135000000Y-74750000D03*
D12*
X137400000Y-74750000D03*
X136697056Y-76447056D03*
X135000000Y-77150000D03*
X133302944Y-76447056D03*
X132600000Y-74750000D03*
X133302944Y-73052944D03*
X135000000Y-72350000D03*
X136697056Y-73052944D03*
%TD*%
%TO.C,H2*%
X92947056Y-73302944D03*
X91250000Y-72600000D03*
X89552944Y-73302944D03*
X88850000Y-75000000D03*
X89552944Y-76697056D03*
X91250000Y-77400000D03*
X92947056Y-76697056D03*
X93650000Y-75000000D03*
D11*
X91250000Y-75000000D03*
%TD*%
%TO.C,H3*%
X134750000Y-116500000D03*
D12*
X137150000Y-116500000D03*
X136447056Y-118197056D03*
X134750000Y-118900000D03*
X133052944Y-118197056D03*
X132350000Y-116500000D03*
X133052944Y-114802944D03*
X134750000Y-114100000D03*
X136447056Y-114802944D03*
%TD*%
%TO.C,H4*%
X92697056Y-115802944D03*
X91000000Y-115100000D03*
X89302944Y-115802944D03*
X88600000Y-117500000D03*
X89302944Y-119197056D03*
X91000000Y-119900000D03*
X92697056Y-119197056D03*
X93400000Y-117500000D03*
D11*
X91250000Y-117500000D03*
%TD*%
D13*
%TO.C,J1*%
X141750000Y-105710000D03*
X141750000Y-108250000D03*
D14*
X146830000Y-113330000D03*
X146830000Y-103170000D03*
%TD*%
%TO.C,J2*%
X146830000Y-79170000D03*
X146830000Y-89330000D03*
D13*
X141750000Y-84250000D03*
X141750000Y-81710000D03*
%TD*%
D15*
%TO.C,J3*%
X90000000Y-93000000D03*
D16*
X90000000Y-95540000D03*
X90000000Y-98080000D03*
%TD*%
D17*
%TO.C,RV1*%
X101500000Y-120250000D03*
X106500000Y-117750000D03*
X101500000Y-115250000D03*
%TD*%
M02*
