M48
; DRILL file {KiCad (5.1.9)-1} date 05/17/21 20:35:54
; FORMAT={-:-/ absolute / inch / decimal}
; #@! TF.CreationDate,2021-05-17T20:35:54+02:00
; #@! TF.GenerationSoftware,Kicad,Pcbnew,(5.1.9)-1
; #@! TF.FileFunction,Plated,1,2,PTH
FMAT,2
INCH
T1C0.0157
T2C0.0197
T3C0.0276
T4C0.0350
T5C0.0394
T6C0.0512
T7C0.0791
T8C0.1260
%
G90
G05
T1
X3.7008Y-4.1339
X3.7795Y-3.248
X3.8583Y-3.248
X3.9272Y-2.9232
X3.9862Y-4.3701
X4.0748Y-3.9173
X4.124Y-3.3957
X4.1732Y-3.6713
X4.2224Y-4.3504
X4.3504Y-3.6319
X4.3799Y-3.4154
X4.3996Y-3.0709
X4.439Y-4.3504
X4.4882Y-2.9331
X4.5472Y-4.3602
X4.5472Y-4.4685
X4.5571Y-3.376
X4.5571Y-3.7992
X4.5669Y-3.061
X4.6063Y-3.6811
X4.626Y-3.4055
X4.6654Y-3.435
X4.7933Y-4.0256
X4.8228Y-3.9173
X4.8327Y-4.439
X4.8622Y-3.4055
X4.9213Y-3.4646
X4.9606Y-3.3071
X4.9902Y-3.0512
X5.0098Y-3.4843
X5.2461Y-3.9764
T2
X3.4252Y-3.248
X3.4882Y-4.626
X3.498Y-2.9528
X3.5159Y-4.5592
X3.5159Y-4.6928
X3.5257Y-2.8859
X3.5257Y-3.0196
X3.5827Y-4.5315
X3.5827Y-4.7205
X3.5925Y-2.8583
X3.5925Y-3.0472
X3.6495Y-4.5592
X3.6495Y-4.6928
X3.6593Y-2.8859
X3.6593Y-3.0196
X3.6772Y-4.626
X3.687Y-2.9528
X3.8976Y-3.0413
X5.1969Y-4.2126
X5.1969Y-4.3602
X5.2106Y-4.5866
X5.2205Y-2.9429
X5.2383Y-4.5198
X5.2383Y-4.6534
X5.2481Y-2.8761
X5.2481Y-3.0097
X5.2953Y-3.5945
X5.2953Y-3.4173
X5.3051Y-4.4921
X5.3051Y-4.6811
X5.315Y-2.8484
X5.315Y-3.0374
X5.3719Y-4.5198
X5.3719Y-4.6534
X5.3818Y-2.8761
X5.3818Y-3.0097
X5.3996Y-4.5866
X5.4094Y-2.9429
T3
X4.0157Y-3.5728
X4.5571Y-4.7047
X4.626Y-3.9272
T4
X5.5807Y-3.2169
X5.5807Y-3.3169
X5.5807Y-4.1618
X5.5807Y-4.2618
T5
X3.5433Y-3.6614
X3.5433Y-3.7614
X3.5433Y-3.8614
T6
X3.9961Y-4.5374
X3.9961Y-4.7343
X4.1929Y-4.6358
T7
X5.7807Y-3.1169
X5.7807Y-3.5169
X5.7807Y-4.0618
X5.7807Y-4.4618
T8
X3.5925Y-2.9528
X3.5925Y-4.626
X5.3051Y-4.5866
X5.315Y-2.9429
T0
M30
