%TF.GenerationSoftware,KiCad,Pcbnew,(5.1.9)-1*%
%TF.CreationDate,2021-05-17T20:36:20+02:00*%
%TF.ProjectId,TIMP_Bowes-Grebene,54494d50-5f42-46f7-9765-732d47726562,rev?*%
%TF.SameCoordinates,Original*%
%TF.FileFunction,Copper,L2,Bot*%
%TF.FilePolarity,Positive*%
%FSLAX46Y46*%
G04 Gerber Fmt 4.6, Leading zero omitted, Abs format (unit mm)*
G04 Created by KiCad (PCBNEW (5.1.9)-1) date 2021-05-17 20:36:20*
%MOMM*%
%LPD*%
G01*
G04 APERTURE LIST*
%TA.AperFunction,ComponentPad*%
%ADD10R,1.500000X1.500000*%
%TD*%
%TA.AperFunction,ComponentPad*%
%ADD11C,6.400000*%
%TD*%
%TA.AperFunction,ComponentPad*%
%ADD12C,0.800000*%
%TD*%
%TA.AperFunction,ComponentPad*%
%ADD13O,2.500000X1.600000*%
%TD*%
%TA.AperFunction,ComponentPad*%
%ADD14O,7.000000X3.500000*%
%TD*%
%TA.AperFunction,ComponentPad*%
%ADD15R,1.700000X1.700000*%
%TD*%
%TA.AperFunction,ComponentPad*%
%ADD16O,1.700000X1.700000*%
%TD*%
%TA.AperFunction,ComponentPad*%
%ADD17C,2.340000*%
%TD*%
%TA.AperFunction,ViaPad*%
%ADD18C,0.800000*%
%TD*%
%TA.AperFunction,ViaPad*%
%ADD19C,1.000000*%
%TD*%
%TA.AperFunction,Conductor*%
%ADD20C,0.762000*%
%TD*%
%TA.AperFunction,Conductor*%
%ADD21C,0.508000*%
%TD*%
%TA.AperFunction,Conductor*%
%ADD22C,1.000000*%
%TD*%
%TA.AperFunction,Conductor*%
%ADD23C,0.381000*%
%TD*%
%TA.AperFunction,Conductor*%
%ADD24C,0.250000*%
%TD*%
%TA.AperFunction,Conductor*%
%ADD25C,0.254000*%
%TD*%
%TA.AperFunction,Conductor*%
%ADD26C,0.100000*%
%TD*%
G04 APERTURE END LIST*
D10*
%TO.P,REF\u002A\u002A,1*%
%TO.N,GND*%
X115750000Y-119500000D03*
%TD*%
%TO.P,REF\u002A\u002A,1*%
%TO.N,GND*%
X102000000Y-90750000D03*
%TD*%
%TO.P,REF\u002A\u002A,1*%
%TO.N,GND*%
X117500000Y-99750000D03*
%TD*%
D11*
%TO.P,H1,1*%
%TO.N,GND*%
X135000000Y-74750000D03*
D12*
X137400000Y-74750000D03*
X136697056Y-76447056D03*
X135000000Y-77150000D03*
X133302944Y-76447056D03*
X132600000Y-74750000D03*
X133302944Y-73052944D03*
X135000000Y-72350000D03*
X136697056Y-73052944D03*
%TD*%
%TO.P,H2,1*%
%TO.N,GND*%
X92947056Y-73302944D03*
X91250000Y-72600000D03*
X89552944Y-73302944D03*
X88850000Y-75000000D03*
X89552944Y-76697056D03*
X91250000Y-77400000D03*
X92947056Y-76697056D03*
X93650000Y-75000000D03*
D11*
X91250000Y-75000000D03*
%TD*%
%TO.P,H3,1*%
%TO.N,GND*%
X134750000Y-116500000D03*
D12*
X137150000Y-116500000D03*
X136447056Y-118197056D03*
X134750000Y-118900000D03*
X133052944Y-118197056D03*
X132350000Y-116500000D03*
X133052944Y-114802944D03*
X134750000Y-114100000D03*
X136447056Y-114802944D03*
%TD*%
%TO.P,H4,1*%
%TO.N,GND*%
X92697056Y-115802944D03*
X91000000Y-115100000D03*
X89302944Y-115802944D03*
X88600000Y-117500000D03*
X89302944Y-119197056D03*
X91000000Y-119900000D03*
X92697056Y-119197056D03*
X93400000Y-117500000D03*
D11*
X91250000Y-117500000D03*
%TD*%
D13*
%TO.P,J1,2*%
%TO.N,GND*%
X141750000Y-105710000D03*
%TO.P,J1,1*%
%TO.N,Net-(C5-Pad1)*%
X141750000Y-108250000D03*
D14*
%TO.P,J1,2*%
%TO.N,GND*%
X146830000Y-113330000D03*
X146830000Y-103170000D03*
%TD*%
%TO.P,J2,2*%
%TO.N,GND*%
X146830000Y-79170000D03*
X146830000Y-89330000D03*
D13*
%TO.P,J2,1*%
%TO.N,Net-(C6-Pad1)*%
X141750000Y-84250000D03*
%TO.P,J2,2*%
%TO.N,GND*%
X141750000Y-81710000D03*
%TD*%
D15*
%TO.P,J3,1*%
%TO.N,+12V*%
X90000000Y-93000000D03*
D16*
%TO.P,J3,2*%
%TO.N,GND*%
X90000000Y-95540000D03*
%TO.P,J3,3*%
%TO.N,-12V*%
X90000000Y-98080000D03*
%TD*%
D17*
%TO.P,RV1,3*%
%TO.N,Net-(C28-Pad1)*%
X101500000Y-120250000D03*
%TO.P,RV1,2*%
%TO.N,Net-(R28-Pad2)*%
X106500000Y-117750000D03*
%TO.P,RV1,1*%
%TO.N,+12V*%
X101500000Y-115250000D03*
%TD*%
D18*
%TO.N,-12V*%
X114000000Y-74500000D03*
D19*
X132000000Y-110750000D03*
X132000000Y-107000000D03*
D18*
X104750000Y-86250000D03*
D19*
X87000000Y-82500000D03*
X99000000Y-77250000D03*
D18*
X123500000Y-86500000D03*
X126000000Y-84000000D03*
D19*
X134500000Y-91300002D03*
X134500005Y-86800001D03*
D18*
%TO.N,/TRI+*%
X106000000Y-93250000D03*
X111250000Y-86750000D03*
%TO.N,GND*%
X112750000Y-110500000D03*
X110500000Y-92250000D03*
X103500000Y-99500000D03*
X107250000Y-110500000D03*
X122750000Y-112750000D03*
X118500000Y-87250000D03*
X126750000Y-77500000D03*
X99750000Y-74250000D03*
X127250000Y-88500000D03*
X96000000Y-82500000D03*
X98000000Y-82500000D03*
X121750000Y-102250000D03*
X133250000Y-101000000D03*
X94000000Y-105000000D03*
%TO.N,+12V*%
X101250000Y-111000000D03*
%TO.N,/TRI-*%
X117000000Y-93500000D03*
X117500000Y-86500000D03*
%TO.N,Net-(C10-Pad1)*%
X125000000Y-88000000D03*
X122500000Y-99500000D03*
%TO.N,Net-(D2-Pad2)*%
X111750000Y-78000000D03*
X116000000Y-77750000D03*
%TO.N,Net-(R28-Pad2)*%
X115750000Y-85750000D03*
X115500000Y-113500000D03*
X115500000Y-110750000D03*
X115750000Y-96500000D03*
%TD*%
D20*
%TO.N,-12V*%
X132000000Y-110750000D02*
X132000000Y-107000000D01*
D21*
X104750000Y-86250000D02*
X95000000Y-86250000D01*
X94250000Y-85500000D02*
X94250000Y-81000000D01*
X95000000Y-86250000D02*
X94250000Y-85500000D01*
D22*
X87000000Y-82500000D02*
X88500000Y-81000000D01*
X88500000Y-81000000D02*
X94250000Y-81000000D01*
X94250000Y-81000000D02*
X98000000Y-81000000D01*
X98000000Y-81000000D02*
X99000000Y-80000000D01*
X99000000Y-80000000D02*
X99000000Y-77250000D01*
D23*
X99000000Y-76250000D02*
X99000000Y-77250000D01*
X100750000Y-74500000D02*
X99000000Y-76250000D01*
X114000000Y-74500000D02*
X100750000Y-74500000D01*
D24*
X123500000Y-86500000D02*
X123500000Y-84500000D01*
X124000000Y-84000000D02*
X126000000Y-84000000D01*
X123500000Y-84500000D02*
X124000000Y-84000000D01*
D20*
X134500000Y-91300002D02*
X134500000Y-86800006D01*
X134500000Y-86800006D02*
X134500005Y-86800001D01*
D23*
%TO.N,/TRI+*%
X106000000Y-92000000D02*
X106000000Y-93250000D01*
X111250000Y-86750000D02*
X106000000Y-92000000D01*
D21*
%TO.N,+12V*%
X88250000Y-93000000D02*
X90000000Y-93000000D01*
X87250000Y-94000000D02*
X88250000Y-93000000D01*
X87250000Y-108250000D02*
X87250000Y-108750000D01*
X87250000Y-108250000D02*
X87250000Y-94000000D01*
X87250000Y-108750000D02*
X88250000Y-109750000D01*
X100000000Y-109750000D02*
X101250000Y-111000000D01*
X88250000Y-109750000D02*
X100000000Y-109750000D01*
D23*
%TO.N,/TRI-*%
X117000000Y-87000000D02*
X117500000Y-86500000D01*
X117000000Y-93500000D02*
X117000000Y-87000000D01*
D24*
%TO.N,Net-(C10-Pad1)*%
X123750000Y-88000000D02*
X123375000Y-88375000D01*
X125000000Y-88000000D02*
X123750000Y-88000000D01*
D25*
X123375000Y-88375000D02*
X122500000Y-89250000D01*
X123500000Y-88250000D02*
X123375000Y-88375000D01*
X122500000Y-89250000D02*
X122500000Y-99500000D01*
%TO.N,Net-(D2-Pad2)*%
X115750000Y-78000000D02*
X116000000Y-77750000D01*
X111750000Y-78000000D02*
X115750000Y-78000000D01*
%TO.N,Net-(R28-Pad2)*%
X115500000Y-113500000D02*
X115500000Y-110750000D01*
X115750000Y-96500000D02*
X115750000Y-85750000D01*
%TD*%
%TO.N,GND*%
X88707779Y-71659036D02*
X88717580Y-71660001D01*
X89361924Y-71660001D01*
X89129330Y-71782445D01*
X89088912Y-71809452D01*
X88728724Y-72299119D01*
X91250000Y-74820395D01*
X93771276Y-72299119D01*
X93411088Y-71809452D01*
X93135677Y-71660001D01*
X132764950Y-71660001D01*
X132478724Y-72049119D01*
X135000000Y-74570395D01*
X137521276Y-72049119D01*
X137235050Y-71660001D01*
X150739726Y-71660001D01*
X151397885Y-71680523D01*
X151986510Y-71816265D01*
X152537555Y-72063752D01*
X153030030Y-72413553D01*
X153445187Y-72852354D01*
X153767209Y-73363436D01*
X153983825Y-73927326D01*
X154088360Y-74531635D01*
X154089062Y-74732902D01*
X154050247Y-74860945D01*
X154039993Y-74965254D01*
X154048330Y-120035007D01*
X154058622Y-120139312D01*
X154075913Y-120196275D01*
X154036212Y-120601183D01*
X153861617Y-121179471D01*
X153578025Y-121712831D01*
X153196235Y-122180953D01*
X152730790Y-122566002D01*
X152199423Y-122853311D01*
X151622365Y-123031941D01*
X151001465Y-123097200D01*
X150792172Y-123090963D01*
X150782332Y-123089995D01*
X88532242Y-123098319D01*
X87898817Y-123036212D01*
X87320529Y-122861617D01*
X86787169Y-122578025D01*
X86319047Y-122196235D01*
X85933998Y-121730790D01*
X85646689Y-121199423D01*
X85468059Y-120622365D01*
X85402800Y-120001465D01*
X85409038Y-119792146D01*
X85410006Y-119782298D01*
X85409580Y-117475695D01*
X87396520Y-117475695D01*
X87465822Y-118227938D01*
X87680548Y-118952208D01*
X88032445Y-119620670D01*
X88059452Y-119661088D01*
X88549119Y-120021276D01*
X88603180Y-119967216D01*
X88657786Y-120021822D01*
X88776108Y-119903500D01*
X88798963Y-120106792D01*
X88815619Y-120113986D01*
X88728724Y-120200881D01*
X89088912Y-120690548D01*
X89752882Y-121050849D01*
X90474385Y-121274694D01*
X91225695Y-121353480D01*
X91977938Y-121284178D01*
X92702208Y-121069452D01*
X93370670Y-120717555D01*
X93411088Y-120690548D01*
X93771276Y-120200881D01*
X93642618Y-120072223D01*
X99695000Y-120072223D01*
X99695000Y-120427777D01*
X99764365Y-120776499D01*
X99900429Y-121104988D01*
X100097965Y-121400621D01*
X100349379Y-121652035D01*
X100645012Y-121849571D01*
X100973501Y-121985635D01*
X101322223Y-122055000D01*
X101677777Y-122055000D01*
X102026499Y-121985635D01*
X102354988Y-121849571D01*
X102650621Y-121652035D01*
X102902035Y-121400621D01*
X103099571Y-121104988D01*
X103235635Y-120776499D01*
X103305000Y-120427777D01*
X103305000Y-120250000D01*
X114361928Y-120250000D01*
X114374188Y-120374482D01*
X114410498Y-120494180D01*
X114469463Y-120604494D01*
X114548815Y-120701185D01*
X114645506Y-120780537D01*
X114755820Y-120839502D01*
X114875518Y-120875812D01*
X115000000Y-120888072D01*
X115464250Y-120885000D01*
X115623000Y-120726250D01*
X115623000Y-119627000D01*
X115877000Y-119627000D01*
X115877000Y-120726250D01*
X116035750Y-120885000D01*
X116500000Y-120888072D01*
X116624482Y-120875812D01*
X116744180Y-120839502D01*
X116854494Y-120780537D01*
X116951185Y-120701185D01*
X117030537Y-120604494D01*
X117089502Y-120494180D01*
X117125812Y-120374482D01*
X117138072Y-120250000D01*
X117135000Y-119785750D01*
X116976250Y-119627000D01*
X115877000Y-119627000D01*
X115623000Y-119627000D01*
X114523750Y-119627000D01*
X114365000Y-119785750D01*
X114361928Y-120250000D01*
X103305000Y-120250000D01*
X103305000Y-120072223D01*
X103235635Y-119723501D01*
X103099571Y-119395012D01*
X102902035Y-119099379D01*
X102650621Y-118847965D01*
X102354988Y-118650429D01*
X102026499Y-118514365D01*
X101677777Y-118445000D01*
X101322223Y-118445000D01*
X100973501Y-118514365D01*
X100645012Y-118650429D01*
X100349379Y-118847965D01*
X100097965Y-119099379D01*
X99900429Y-119395012D01*
X99764365Y-119723501D01*
X99695000Y-120072223D01*
X93642618Y-120072223D01*
X93467216Y-119896821D01*
X93521822Y-119842214D01*
X93403500Y-119723892D01*
X93606792Y-119701037D01*
X93613986Y-119684381D01*
X93950881Y-120021276D01*
X94440548Y-119661088D01*
X94800849Y-118997118D01*
X95024694Y-118275615D01*
X95098455Y-117572223D01*
X104695000Y-117572223D01*
X104695000Y-117927777D01*
X104764365Y-118276499D01*
X104900429Y-118604988D01*
X105097965Y-118900621D01*
X105349379Y-119152035D01*
X105645012Y-119349571D01*
X105973501Y-119485635D01*
X106322223Y-119555000D01*
X106677777Y-119555000D01*
X107026499Y-119485635D01*
X107354988Y-119349571D01*
X107650621Y-119152035D01*
X107902035Y-118900621D01*
X108002676Y-118750000D01*
X114361928Y-118750000D01*
X114365000Y-119214250D01*
X114523750Y-119373000D01*
X115623000Y-119373000D01*
X115623000Y-118273750D01*
X115877000Y-118273750D01*
X115877000Y-119373000D01*
X116976250Y-119373000D01*
X117135000Y-119214250D01*
X117135088Y-119200881D01*
X132228724Y-119200881D01*
X132588912Y-119690548D01*
X133252882Y-120050849D01*
X133974385Y-120274694D01*
X134725695Y-120353480D01*
X135477938Y-120284178D01*
X136202208Y-120069452D01*
X136870670Y-119717555D01*
X136911088Y-119690548D01*
X137271276Y-119200881D01*
X134750000Y-116679605D01*
X132228724Y-119200881D01*
X117135088Y-119200881D01*
X117138072Y-118750000D01*
X117125812Y-118625518D01*
X117089502Y-118505820D01*
X117030537Y-118395506D01*
X116951185Y-118298815D01*
X116854494Y-118219463D01*
X116744180Y-118160498D01*
X116624482Y-118124188D01*
X116500000Y-118111928D01*
X116035750Y-118115000D01*
X115877000Y-118273750D01*
X115623000Y-118273750D01*
X115464250Y-118115000D01*
X115000000Y-118111928D01*
X114875518Y-118124188D01*
X114755820Y-118160498D01*
X114645506Y-118219463D01*
X114548815Y-118298815D01*
X114469463Y-118395506D01*
X114410498Y-118505820D01*
X114374188Y-118625518D01*
X114361928Y-118750000D01*
X108002676Y-118750000D01*
X108099571Y-118604988D01*
X108235635Y-118276499D01*
X108305000Y-117927777D01*
X108305000Y-117572223D01*
X108235635Y-117223501D01*
X108099571Y-116895012D01*
X107902035Y-116599379D01*
X107778351Y-116475695D01*
X130896520Y-116475695D01*
X130965822Y-117227938D01*
X131180548Y-117952208D01*
X131532445Y-118620670D01*
X131559452Y-118661088D01*
X132049119Y-119021276D01*
X134570395Y-116500000D01*
X134929605Y-116500000D01*
X137450881Y-119021276D01*
X137940548Y-118661088D01*
X138300849Y-117997118D01*
X138524694Y-117275615D01*
X138603480Y-116524305D01*
X138534178Y-115772062D01*
X138319452Y-115047792D01*
X137967555Y-114379330D01*
X137940548Y-114338912D01*
X137450881Y-113978724D01*
X134929605Y-116500000D01*
X134570395Y-116500000D01*
X132049119Y-113978724D01*
X131559452Y-114338912D01*
X131199151Y-115002882D01*
X130975306Y-115724385D01*
X130896520Y-116475695D01*
X107778351Y-116475695D01*
X107650621Y-116347965D01*
X107354988Y-116150429D01*
X107026499Y-116014365D01*
X106677777Y-115945000D01*
X106322223Y-115945000D01*
X105973501Y-116014365D01*
X105645012Y-116150429D01*
X105349379Y-116347965D01*
X105097965Y-116599379D01*
X104900429Y-116895012D01*
X104764365Y-117223501D01*
X104695000Y-117572223D01*
X95098455Y-117572223D01*
X95103480Y-117524305D01*
X95034178Y-116772062D01*
X94819452Y-116047792D01*
X94467555Y-115379330D01*
X94440548Y-115338912D01*
X94077991Y-115072223D01*
X99695000Y-115072223D01*
X99695000Y-115427777D01*
X99764365Y-115776499D01*
X99900429Y-116104988D01*
X100097965Y-116400621D01*
X100349379Y-116652035D01*
X100645012Y-116849571D01*
X100973501Y-116985635D01*
X101322223Y-117055000D01*
X101677777Y-117055000D01*
X102026499Y-116985635D01*
X102354988Y-116849571D01*
X102650621Y-116652035D01*
X102902035Y-116400621D01*
X103099571Y-116104988D01*
X103235635Y-115776499D01*
X103305000Y-115427777D01*
X103305000Y-115072223D01*
X103235635Y-114723501D01*
X103099571Y-114395012D01*
X102902035Y-114099379D01*
X102650621Y-113847965D01*
X102354988Y-113650429D01*
X102026499Y-113514365D01*
X101677777Y-113445000D01*
X101322223Y-113445000D01*
X100973501Y-113514365D01*
X100645012Y-113650429D01*
X100349379Y-113847965D01*
X100097965Y-114099379D01*
X99900429Y-114395012D01*
X99764365Y-114723501D01*
X99695000Y-115072223D01*
X94077991Y-115072223D01*
X93950881Y-114978724D01*
X93615099Y-115314506D01*
X93606792Y-115298963D01*
X93403500Y-115276108D01*
X93521822Y-115157786D01*
X93467216Y-115103180D01*
X93771276Y-114799119D01*
X93411088Y-114309452D01*
X92747118Y-113949151D01*
X92025615Y-113725306D01*
X91274305Y-113646520D01*
X90522062Y-113715822D01*
X89797792Y-113930548D01*
X89129330Y-114282445D01*
X89088912Y-114309452D01*
X88728724Y-114799119D01*
X88814506Y-114884901D01*
X88798963Y-114893208D01*
X88776108Y-115096500D01*
X88657786Y-114978178D01*
X88603180Y-115032785D01*
X88549119Y-114978724D01*
X88059452Y-115338912D01*
X87699151Y-116002882D01*
X87475306Y-116724385D01*
X87396520Y-117475695D01*
X85409580Y-117475695D01*
X85405238Y-94000000D01*
X86356700Y-94000000D01*
X86361001Y-94043670D01*
X86361000Y-108206333D01*
X86361000Y-108706340D01*
X86356700Y-108750000D01*
X86361000Y-108793660D01*
X86361000Y-108793667D01*
X86373864Y-108924274D01*
X86424697Y-109091851D01*
X86507248Y-109246291D01*
X86618342Y-109381659D01*
X86652259Y-109409494D01*
X87590504Y-110347740D01*
X87618341Y-110381659D01*
X87753709Y-110492753D01*
X87908149Y-110575303D01*
X88024892Y-110610716D01*
X88075725Y-110626136D01*
X88250000Y-110643301D01*
X88293668Y-110639000D01*
X99631765Y-110639000D01*
X100244870Y-111252105D01*
X100254774Y-111301898D01*
X100332795Y-111490256D01*
X100446063Y-111659774D01*
X100590226Y-111803937D01*
X100759744Y-111917205D01*
X100948102Y-111995226D01*
X101148061Y-112035000D01*
X101351939Y-112035000D01*
X101551898Y-111995226D01*
X101740256Y-111917205D01*
X101909774Y-111803937D01*
X102053937Y-111659774D01*
X102167205Y-111490256D01*
X102245226Y-111301898D01*
X102285000Y-111101939D01*
X102285000Y-110898061D01*
X102245226Y-110698102D01*
X102224499Y-110648061D01*
X114465000Y-110648061D01*
X114465000Y-110851939D01*
X114504774Y-111051898D01*
X114582795Y-111240256D01*
X114696063Y-111409774D01*
X114738001Y-111451712D01*
X114738000Y-112798289D01*
X114696063Y-112840226D01*
X114582795Y-113009744D01*
X114504774Y-113198102D01*
X114465000Y-113398061D01*
X114465000Y-113601939D01*
X114504774Y-113801898D01*
X114582795Y-113990256D01*
X114696063Y-114159774D01*
X114840226Y-114303937D01*
X115009744Y-114417205D01*
X115198102Y-114495226D01*
X115398061Y-114535000D01*
X115601939Y-114535000D01*
X115801898Y-114495226D01*
X115990256Y-114417205D01*
X116159774Y-114303937D01*
X116303937Y-114159774D01*
X116417205Y-113990256D01*
X116495226Y-113801898D01*
X116495778Y-113799119D01*
X132228724Y-113799119D01*
X134750000Y-116320395D01*
X137242392Y-113828003D01*
X142747573Y-113828003D01*
X142827947Y-114125368D01*
X143026388Y-114549439D01*
X143303748Y-114926648D01*
X143649369Y-115242498D01*
X144049968Y-115484852D01*
X144490150Y-115644396D01*
X144953000Y-115715000D01*
X146703000Y-115715000D01*
X146703000Y-113457000D01*
X146957000Y-113457000D01*
X146957000Y-115715000D01*
X148707000Y-115715000D01*
X149169850Y-115644396D01*
X149610032Y-115484852D01*
X150010631Y-115242498D01*
X150356252Y-114926648D01*
X150633612Y-114549439D01*
X150832053Y-114125368D01*
X150912427Y-113828003D01*
X150802625Y-113457000D01*
X146957000Y-113457000D01*
X146703000Y-113457000D01*
X142857375Y-113457000D01*
X142747573Y-113828003D01*
X137242392Y-113828003D01*
X137271276Y-113799119D01*
X136911088Y-113309452D01*
X136247118Y-112949151D01*
X135869505Y-112831997D01*
X142747573Y-112831997D01*
X142857375Y-113203000D01*
X146703000Y-113203000D01*
X146703000Y-110945000D01*
X146957000Y-110945000D01*
X146957000Y-113203000D01*
X150802625Y-113203000D01*
X150912427Y-112831997D01*
X150832053Y-112534632D01*
X150633612Y-112110561D01*
X150356252Y-111733352D01*
X150010631Y-111417502D01*
X149610032Y-111175148D01*
X149169850Y-111015604D01*
X148707000Y-110945000D01*
X146957000Y-110945000D01*
X146703000Y-110945000D01*
X144953000Y-110945000D01*
X144490150Y-111015604D01*
X144049968Y-111175148D01*
X143649369Y-111417502D01*
X143303748Y-111733352D01*
X143026388Y-112110561D01*
X142827947Y-112534632D01*
X142747573Y-112831997D01*
X135869505Y-112831997D01*
X135525615Y-112725306D01*
X134774305Y-112646520D01*
X134022062Y-112715822D01*
X133297792Y-112930548D01*
X132629330Y-113282445D01*
X132588912Y-113309452D01*
X132228724Y-113799119D01*
X116495778Y-113799119D01*
X116535000Y-113601939D01*
X116535000Y-113398061D01*
X116495226Y-113198102D01*
X116417205Y-113009744D01*
X116303937Y-112840226D01*
X116262000Y-112798289D01*
X116262000Y-111451711D01*
X116303937Y-111409774D01*
X116417205Y-111240256D01*
X116495226Y-111051898D01*
X116535000Y-110851939D01*
X116535000Y-110648061D01*
X116495226Y-110448102D01*
X116417205Y-110259744D01*
X116303937Y-110090226D01*
X116159774Y-109946063D01*
X115990256Y-109832795D01*
X115801898Y-109754774D01*
X115601939Y-109715000D01*
X115398061Y-109715000D01*
X115198102Y-109754774D01*
X115009744Y-109832795D01*
X114840226Y-109946063D01*
X114696063Y-110090226D01*
X114582795Y-110259744D01*
X114504774Y-110448102D01*
X114465000Y-110648061D01*
X102224499Y-110648061D01*
X102167205Y-110509744D01*
X102053937Y-110340226D01*
X101909774Y-110196063D01*
X101740256Y-110082795D01*
X101551898Y-110004774D01*
X101502105Y-109994870D01*
X100659499Y-109152264D01*
X100631659Y-109118341D01*
X100496291Y-109007247D01*
X100341851Y-108924697D01*
X100174274Y-108873864D01*
X100043667Y-108861000D01*
X100043660Y-108861000D01*
X100000000Y-108856700D01*
X99956340Y-108861000D01*
X88618236Y-108861000D01*
X88139000Y-108381765D01*
X88139000Y-106888212D01*
X130865000Y-106888212D01*
X130865000Y-107111788D01*
X130908617Y-107331067D01*
X130984001Y-107513059D01*
X130984000Y-110236943D01*
X130908617Y-110418933D01*
X130865000Y-110638212D01*
X130865000Y-110861788D01*
X130908617Y-111081067D01*
X130994176Y-111287624D01*
X131118388Y-111473520D01*
X131276480Y-111631612D01*
X131462376Y-111755824D01*
X131668933Y-111841383D01*
X131888212Y-111885000D01*
X132111788Y-111885000D01*
X132331067Y-111841383D01*
X132537624Y-111755824D01*
X132723520Y-111631612D01*
X132881612Y-111473520D01*
X133005824Y-111287624D01*
X133091383Y-111081067D01*
X133135000Y-110861788D01*
X133135000Y-110638212D01*
X133091383Y-110418933D01*
X133016000Y-110236943D01*
X133016000Y-108250000D01*
X139858057Y-108250000D01*
X139885764Y-108531309D01*
X139967818Y-108801808D01*
X140101068Y-109051101D01*
X140280392Y-109269608D01*
X140498899Y-109448932D01*
X140748192Y-109582182D01*
X141018691Y-109664236D01*
X141229508Y-109685000D01*
X142270492Y-109685000D01*
X142481309Y-109664236D01*
X142751808Y-109582182D01*
X143001101Y-109448932D01*
X143219608Y-109269608D01*
X143398932Y-109051101D01*
X143532182Y-108801808D01*
X143614236Y-108531309D01*
X143641943Y-108250000D01*
X143614236Y-107968691D01*
X143532182Y-107698192D01*
X143398932Y-107448899D01*
X143219608Y-107230392D01*
X143001101Y-107051068D01*
X142873259Y-106982735D01*
X143102839Y-106832601D01*
X143304500Y-106634895D01*
X143463715Y-106401646D01*
X143574367Y-106141818D01*
X143591904Y-106059039D01*
X143469915Y-105837000D01*
X141877000Y-105837000D01*
X141877000Y-105857000D01*
X141623000Y-105857000D01*
X141623000Y-105837000D01*
X140030085Y-105837000D01*
X139908096Y-106059039D01*
X139925633Y-106141818D01*
X140036285Y-106401646D01*
X140195500Y-106634895D01*
X140397161Y-106832601D01*
X140626741Y-106982735D01*
X140498899Y-107051068D01*
X140280392Y-107230392D01*
X140101068Y-107448899D01*
X139967818Y-107698192D01*
X139885764Y-107968691D01*
X139858057Y-108250000D01*
X133016000Y-108250000D01*
X133016000Y-107513057D01*
X133091383Y-107331067D01*
X133135000Y-107111788D01*
X133135000Y-106888212D01*
X133091383Y-106668933D01*
X133005824Y-106462376D01*
X132881612Y-106276480D01*
X132723520Y-106118388D01*
X132537624Y-105994176D01*
X132331067Y-105908617D01*
X132111788Y-105865000D01*
X131888212Y-105865000D01*
X131668933Y-105908617D01*
X131462376Y-105994176D01*
X131276480Y-106118388D01*
X131118388Y-106276480D01*
X130994176Y-106462376D01*
X130908617Y-106668933D01*
X130865000Y-106888212D01*
X88139000Y-106888212D01*
X88139000Y-105360961D01*
X139908096Y-105360961D01*
X140030085Y-105583000D01*
X141623000Y-105583000D01*
X141623000Y-104275000D01*
X141877000Y-104275000D01*
X141877000Y-105583000D01*
X143469915Y-105583000D01*
X143591904Y-105360961D01*
X143574367Y-105278182D01*
X143463715Y-105018354D01*
X143304500Y-104785105D01*
X143102839Y-104587399D01*
X142866483Y-104432834D01*
X142604514Y-104327350D01*
X142327000Y-104275000D01*
X141877000Y-104275000D01*
X141623000Y-104275000D01*
X141173000Y-104275000D01*
X140895486Y-104327350D01*
X140633517Y-104432834D01*
X140397161Y-104587399D01*
X140195500Y-104785105D01*
X140036285Y-105018354D01*
X139925633Y-105278182D01*
X139908096Y-105360961D01*
X88139000Y-105360961D01*
X88139000Y-103668003D01*
X142747573Y-103668003D01*
X142827947Y-103965368D01*
X143026388Y-104389439D01*
X143303748Y-104766648D01*
X143649369Y-105082498D01*
X144049968Y-105324852D01*
X144490150Y-105484396D01*
X144953000Y-105555000D01*
X146703000Y-105555000D01*
X146703000Y-103297000D01*
X146957000Y-103297000D01*
X146957000Y-105555000D01*
X148707000Y-105555000D01*
X149169850Y-105484396D01*
X149610032Y-105324852D01*
X150010631Y-105082498D01*
X150356252Y-104766648D01*
X150633612Y-104389439D01*
X150832053Y-103965368D01*
X150912427Y-103668003D01*
X150802625Y-103297000D01*
X146957000Y-103297000D01*
X146703000Y-103297000D01*
X142857375Y-103297000D01*
X142747573Y-103668003D01*
X88139000Y-103668003D01*
X88139000Y-102671997D01*
X142747573Y-102671997D01*
X142857375Y-103043000D01*
X146703000Y-103043000D01*
X146703000Y-100785000D01*
X146957000Y-100785000D01*
X146957000Y-103043000D01*
X150802625Y-103043000D01*
X150912427Y-102671997D01*
X150832053Y-102374632D01*
X150633612Y-101950561D01*
X150356252Y-101573352D01*
X150010631Y-101257502D01*
X149610032Y-101015148D01*
X149169850Y-100855604D01*
X148707000Y-100785000D01*
X146957000Y-100785000D01*
X146703000Y-100785000D01*
X144953000Y-100785000D01*
X144490150Y-100855604D01*
X144049968Y-101015148D01*
X143649369Y-101257502D01*
X143303748Y-101573352D01*
X143026388Y-101950561D01*
X142827947Y-102374632D01*
X142747573Y-102671997D01*
X88139000Y-102671997D01*
X88139000Y-100500000D01*
X116111928Y-100500000D01*
X116124188Y-100624482D01*
X116160498Y-100744180D01*
X116219463Y-100854494D01*
X116298815Y-100951185D01*
X116395506Y-101030537D01*
X116505820Y-101089502D01*
X116625518Y-101125812D01*
X116750000Y-101138072D01*
X117214250Y-101135000D01*
X117373000Y-100976250D01*
X117373000Y-99877000D01*
X117627000Y-99877000D01*
X117627000Y-100976250D01*
X117785750Y-101135000D01*
X118250000Y-101138072D01*
X118374482Y-101125812D01*
X118494180Y-101089502D01*
X118604494Y-101030537D01*
X118701185Y-100951185D01*
X118780537Y-100854494D01*
X118839502Y-100744180D01*
X118875812Y-100624482D01*
X118888072Y-100500000D01*
X118885000Y-100035750D01*
X118726250Y-99877000D01*
X117627000Y-99877000D01*
X117373000Y-99877000D01*
X116273750Y-99877000D01*
X116115000Y-100035750D01*
X116111928Y-100500000D01*
X88139000Y-100500000D01*
X88139000Y-97933740D01*
X88515000Y-97933740D01*
X88515000Y-98226260D01*
X88572068Y-98513158D01*
X88684010Y-98783411D01*
X88846525Y-99026632D01*
X89053368Y-99233475D01*
X89296589Y-99395990D01*
X89566842Y-99507932D01*
X89853740Y-99565000D01*
X90146260Y-99565000D01*
X90433158Y-99507932D01*
X90703411Y-99395990D01*
X90946632Y-99233475D01*
X91153475Y-99026632D01*
X91171269Y-99000000D01*
X116111928Y-99000000D01*
X116115000Y-99464250D01*
X116273750Y-99623000D01*
X117373000Y-99623000D01*
X117373000Y-98523750D01*
X117627000Y-98523750D01*
X117627000Y-99623000D01*
X118726250Y-99623000D01*
X118885000Y-99464250D01*
X118885437Y-99398061D01*
X121465000Y-99398061D01*
X121465000Y-99601939D01*
X121504774Y-99801898D01*
X121582795Y-99990256D01*
X121696063Y-100159774D01*
X121840226Y-100303937D01*
X122009744Y-100417205D01*
X122198102Y-100495226D01*
X122398061Y-100535000D01*
X122601939Y-100535000D01*
X122801898Y-100495226D01*
X122990256Y-100417205D01*
X123159774Y-100303937D01*
X123303937Y-100159774D01*
X123417205Y-99990256D01*
X123495226Y-99801898D01*
X123535000Y-99601939D01*
X123535000Y-99398061D01*
X123495226Y-99198102D01*
X123417205Y-99009744D01*
X123303937Y-98840226D01*
X123262000Y-98798289D01*
X123262000Y-91188214D01*
X133365000Y-91188214D01*
X133365000Y-91411790D01*
X133408617Y-91631069D01*
X133494176Y-91837626D01*
X133618388Y-92023522D01*
X133776480Y-92181614D01*
X133962376Y-92305826D01*
X134168933Y-92391385D01*
X134388212Y-92435002D01*
X134611788Y-92435002D01*
X134831067Y-92391385D01*
X135037624Y-92305826D01*
X135223520Y-92181614D01*
X135381612Y-92023522D01*
X135505824Y-91837626D01*
X135591383Y-91631069D01*
X135635000Y-91411790D01*
X135635000Y-91188214D01*
X135591383Y-90968935D01*
X135516000Y-90786945D01*
X135516000Y-89828003D01*
X142747573Y-89828003D01*
X142827947Y-90125368D01*
X143026388Y-90549439D01*
X143303748Y-90926648D01*
X143649369Y-91242498D01*
X144049968Y-91484852D01*
X144490150Y-91644396D01*
X144953000Y-91715000D01*
X146703000Y-91715000D01*
X146703000Y-89457000D01*
X146957000Y-89457000D01*
X146957000Y-91715000D01*
X148707000Y-91715000D01*
X149169850Y-91644396D01*
X149610032Y-91484852D01*
X150010631Y-91242498D01*
X150356252Y-90926648D01*
X150633612Y-90549439D01*
X150832053Y-90125368D01*
X150912427Y-89828003D01*
X150802625Y-89457000D01*
X146957000Y-89457000D01*
X146703000Y-89457000D01*
X142857375Y-89457000D01*
X142747573Y-89828003D01*
X135516000Y-89828003D01*
X135516000Y-88831997D01*
X142747573Y-88831997D01*
X142857375Y-89203000D01*
X146703000Y-89203000D01*
X146703000Y-86945000D01*
X146957000Y-86945000D01*
X146957000Y-89203000D01*
X150802625Y-89203000D01*
X150912427Y-88831997D01*
X150832053Y-88534632D01*
X150633612Y-88110561D01*
X150356252Y-87733352D01*
X150010631Y-87417502D01*
X149610032Y-87175148D01*
X149169850Y-87015604D01*
X148707000Y-86945000D01*
X146957000Y-86945000D01*
X146703000Y-86945000D01*
X144953000Y-86945000D01*
X144490150Y-87015604D01*
X144049968Y-87175148D01*
X143649369Y-87417502D01*
X143303748Y-87733352D01*
X143026388Y-88110561D01*
X142827947Y-88534632D01*
X142747573Y-88831997D01*
X135516000Y-88831997D01*
X135516000Y-87313070D01*
X135591388Y-87131068D01*
X135635005Y-86911789D01*
X135635005Y-86688213D01*
X135591388Y-86468934D01*
X135505829Y-86262377D01*
X135381617Y-86076481D01*
X135223525Y-85918389D01*
X135037629Y-85794177D01*
X134831072Y-85708618D01*
X134611793Y-85665001D01*
X134388217Y-85665001D01*
X134168938Y-85708618D01*
X133962381Y-85794177D01*
X133776485Y-85918389D01*
X133618393Y-86076481D01*
X133494181Y-86262377D01*
X133408622Y-86468934D01*
X133365005Y-86688213D01*
X133365005Y-86911789D01*
X133408622Y-87131068D01*
X133484001Y-87313048D01*
X133484000Y-90786945D01*
X133408617Y-90968935D01*
X133365000Y-91188214D01*
X123262000Y-91188214D01*
X123262000Y-89565630D01*
X123940279Y-88887352D01*
X123940285Y-88887345D01*
X124065279Y-88762350D01*
X124067208Y-88760000D01*
X124296289Y-88760000D01*
X124340226Y-88803937D01*
X124509744Y-88917205D01*
X124698102Y-88995226D01*
X124898061Y-89035000D01*
X125101939Y-89035000D01*
X125301898Y-88995226D01*
X125490256Y-88917205D01*
X125659774Y-88803937D01*
X125803937Y-88659774D01*
X125917205Y-88490256D01*
X125995226Y-88301898D01*
X126035000Y-88101939D01*
X126035000Y-87898061D01*
X125995226Y-87698102D01*
X125917205Y-87509744D01*
X125803937Y-87340226D01*
X125659774Y-87196063D01*
X125490256Y-87082795D01*
X125301898Y-87004774D01*
X125101939Y-86965000D01*
X124898061Y-86965000D01*
X124698102Y-87004774D01*
X124509744Y-87082795D01*
X124340226Y-87196063D01*
X124296289Y-87240000D01*
X124223711Y-87240000D01*
X124303937Y-87159774D01*
X124417205Y-86990256D01*
X124495226Y-86801898D01*
X124535000Y-86601939D01*
X124535000Y-86398061D01*
X124495226Y-86198102D01*
X124417205Y-86009744D01*
X124303937Y-85840226D01*
X124260000Y-85796289D01*
X124260000Y-84814801D01*
X124314801Y-84760000D01*
X125296289Y-84760000D01*
X125340226Y-84803937D01*
X125509744Y-84917205D01*
X125698102Y-84995226D01*
X125898061Y-85035000D01*
X126101939Y-85035000D01*
X126301898Y-84995226D01*
X126490256Y-84917205D01*
X126659774Y-84803937D01*
X126803937Y-84659774D01*
X126917205Y-84490256D01*
X126995226Y-84301898D01*
X127005549Y-84250000D01*
X139858057Y-84250000D01*
X139885764Y-84531309D01*
X139967818Y-84801808D01*
X140101068Y-85051101D01*
X140280392Y-85269608D01*
X140498899Y-85448932D01*
X140748192Y-85582182D01*
X141018691Y-85664236D01*
X141229508Y-85685000D01*
X142270492Y-85685000D01*
X142481309Y-85664236D01*
X142751808Y-85582182D01*
X143001101Y-85448932D01*
X143219608Y-85269608D01*
X143398932Y-85051101D01*
X143532182Y-84801808D01*
X143614236Y-84531309D01*
X143641943Y-84250000D01*
X143614236Y-83968691D01*
X143532182Y-83698192D01*
X143398932Y-83448899D01*
X143219608Y-83230392D01*
X143001101Y-83051068D01*
X142873259Y-82982735D01*
X143102839Y-82832601D01*
X143304500Y-82634895D01*
X143463715Y-82401646D01*
X143574367Y-82141818D01*
X143591904Y-82059039D01*
X143469915Y-81837000D01*
X141877000Y-81837000D01*
X141877000Y-81857000D01*
X141623000Y-81857000D01*
X141623000Y-81837000D01*
X140030085Y-81837000D01*
X139908096Y-82059039D01*
X139925633Y-82141818D01*
X140036285Y-82401646D01*
X140195500Y-82634895D01*
X140397161Y-82832601D01*
X140626741Y-82982735D01*
X140498899Y-83051068D01*
X140280392Y-83230392D01*
X140101068Y-83448899D01*
X139967818Y-83698192D01*
X139885764Y-83968691D01*
X139858057Y-84250000D01*
X127005549Y-84250000D01*
X127035000Y-84101939D01*
X127035000Y-83898061D01*
X126995226Y-83698102D01*
X126917205Y-83509744D01*
X126803937Y-83340226D01*
X126659774Y-83196063D01*
X126490256Y-83082795D01*
X126301898Y-83004774D01*
X126101939Y-82965000D01*
X125898061Y-82965000D01*
X125698102Y-83004774D01*
X125509744Y-83082795D01*
X125340226Y-83196063D01*
X125296289Y-83240000D01*
X124037325Y-83240000D01*
X124000000Y-83236324D01*
X123962675Y-83240000D01*
X123962667Y-83240000D01*
X123851014Y-83250997D01*
X123707753Y-83294454D01*
X123575724Y-83365026D01*
X123459999Y-83459999D01*
X123436196Y-83489003D01*
X122988998Y-83936201D01*
X122960000Y-83959999D01*
X122936202Y-83988997D01*
X122936201Y-83988998D01*
X122865026Y-84075724D01*
X122794454Y-84207754D01*
X122750998Y-84351015D01*
X122736324Y-84500000D01*
X122740001Y-84537332D01*
X122740000Y-85796289D01*
X122696063Y-85840226D01*
X122582795Y-86009744D01*
X122504774Y-86198102D01*
X122465000Y-86398061D01*
X122465000Y-86601939D01*
X122504774Y-86801898D01*
X122582795Y-86990256D01*
X122696063Y-87159774D01*
X122840226Y-87303937D01*
X123009744Y-87417205D01*
X123185283Y-87489916D01*
X123003422Y-87671777D01*
X122987650Y-87684721D01*
X122862655Y-87809715D01*
X122862648Y-87809721D01*
X121987653Y-88684716D01*
X121958578Y-88708578D01*
X121916378Y-88760000D01*
X121863355Y-88824608D01*
X121859406Y-88831997D01*
X121792598Y-88956986D01*
X121749026Y-89100623D01*
X121738943Y-89203000D01*
X121734314Y-89250000D01*
X121738000Y-89287423D01*
X121738001Y-98798288D01*
X121696063Y-98840226D01*
X121582795Y-99009744D01*
X121504774Y-99198102D01*
X121465000Y-99398061D01*
X118885437Y-99398061D01*
X118888072Y-99000000D01*
X118875812Y-98875518D01*
X118839502Y-98755820D01*
X118780537Y-98645506D01*
X118701185Y-98548815D01*
X118604494Y-98469463D01*
X118494180Y-98410498D01*
X118374482Y-98374188D01*
X118250000Y-98361928D01*
X117785750Y-98365000D01*
X117627000Y-98523750D01*
X117373000Y-98523750D01*
X117214250Y-98365000D01*
X116750000Y-98361928D01*
X116625518Y-98374188D01*
X116505820Y-98410498D01*
X116395506Y-98469463D01*
X116298815Y-98548815D01*
X116219463Y-98645506D01*
X116160498Y-98755820D01*
X116124188Y-98875518D01*
X116111928Y-99000000D01*
X91171269Y-99000000D01*
X91315990Y-98783411D01*
X91427932Y-98513158D01*
X91485000Y-98226260D01*
X91485000Y-97933740D01*
X91427932Y-97646842D01*
X91315990Y-97376589D01*
X91153475Y-97133368D01*
X90946632Y-96926525D01*
X90764466Y-96804805D01*
X90881355Y-96735178D01*
X91097588Y-96540269D01*
X91271641Y-96306920D01*
X91396825Y-96044099D01*
X91441476Y-95896890D01*
X91320155Y-95667000D01*
X90127000Y-95667000D01*
X90127000Y-95687000D01*
X89873000Y-95687000D01*
X89873000Y-95667000D01*
X88679845Y-95667000D01*
X88558524Y-95896890D01*
X88603175Y-96044099D01*
X88728359Y-96306920D01*
X88902412Y-96540269D01*
X89118645Y-96735178D01*
X89235534Y-96804805D01*
X89053368Y-96926525D01*
X88846525Y-97133368D01*
X88684010Y-97376589D01*
X88572068Y-97646842D01*
X88515000Y-97933740D01*
X88139000Y-97933740D01*
X88139000Y-94368235D01*
X88526182Y-93981054D01*
X88560498Y-94094180D01*
X88619463Y-94204494D01*
X88698815Y-94301185D01*
X88795506Y-94380537D01*
X88905820Y-94439502D01*
X88986466Y-94463966D01*
X88902412Y-94539731D01*
X88728359Y-94773080D01*
X88603175Y-95035901D01*
X88558524Y-95183110D01*
X88679845Y-95413000D01*
X89873000Y-95413000D01*
X89873000Y-95393000D01*
X90127000Y-95393000D01*
X90127000Y-95413000D01*
X91320155Y-95413000D01*
X91441476Y-95183110D01*
X91396825Y-95035901D01*
X91271641Y-94773080D01*
X91097588Y-94539731D01*
X91013534Y-94463966D01*
X91094180Y-94439502D01*
X91204494Y-94380537D01*
X91301185Y-94301185D01*
X91380537Y-94204494D01*
X91439502Y-94094180D01*
X91475812Y-93974482D01*
X91488072Y-93850000D01*
X91488072Y-93148061D01*
X104965000Y-93148061D01*
X104965000Y-93351939D01*
X105004774Y-93551898D01*
X105082795Y-93740256D01*
X105196063Y-93909774D01*
X105340226Y-94053937D01*
X105509744Y-94167205D01*
X105698102Y-94245226D01*
X105898061Y-94285000D01*
X106101939Y-94285000D01*
X106301898Y-94245226D01*
X106490256Y-94167205D01*
X106659774Y-94053937D01*
X106803937Y-93909774D01*
X106917205Y-93740256D01*
X106995226Y-93551898D01*
X107035000Y-93351939D01*
X107035000Y-93148061D01*
X106995226Y-92948102D01*
X106917205Y-92759744D01*
X106825500Y-92622497D01*
X106825500Y-92341932D01*
X111390005Y-87777428D01*
X111551898Y-87745226D01*
X111740256Y-87667205D01*
X111909774Y-87553937D01*
X112053937Y-87409774D01*
X112167205Y-87240256D01*
X112245226Y-87051898D01*
X112285000Y-86851939D01*
X112285000Y-86648061D01*
X112245226Y-86448102D01*
X112167205Y-86259744D01*
X112053937Y-86090226D01*
X111909774Y-85946063D01*
X111740256Y-85832795D01*
X111551898Y-85754774D01*
X111351939Y-85715000D01*
X111148061Y-85715000D01*
X110948102Y-85754774D01*
X110759744Y-85832795D01*
X110590226Y-85946063D01*
X110446063Y-86090226D01*
X110332795Y-86259744D01*
X110254774Y-86448102D01*
X110222572Y-86609995D01*
X105444966Y-91387602D01*
X105413459Y-91413459D01*
X105354869Y-91484852D01*
X105310301Y-91539158D01*
X105254050Y-91644396D01*
X105233647Y-91682567D01*
X105186444Y-91838175D01*
X105179782Y-91905820D01*
X105170506Y-92000000D01*
X105174500Y-92040551D01*
X105174500Y-92622497D01*
X105082795Y-92759744D01*
X105004774Y-92948102D01*
X104965000Y-93148061D01*
X91488072Y-93148061D01*
X91488072Y-92150000D01*
X91475812Y-92025518D01*
X91439502Y-91905820D01*
X91380537Y-91795506D01*
X91301185Y-91698815D01*
X91204494Y-91619463D01*
X91094180Y-91560498D01*
X90974482Y-91524188D01*
X90850000Y-91511928D01*
X89150000Y-91511928D01*
X89025518Y-91524188D01*
X88905820Y-91560498D01*
X88795506Y-91619463D01*
X88698815Y-91698815D01*
X88619463Y-91795506D01*
X88560498Y-91905820D01*
X88524188Y-92025518D01*
X88515769Y-92111000D01*
X88293668Y-92111000D01*
X88250000Y-92106699D01*
X88075725Y-92123864D01*
X88039015Y-92135000D01*
X87908149Y-92174697D01*
X87753709Y-92257247D01*
X87618341Y-92368341D01*
X87590505Y-92402259D01*
X86652259Y-93340506D01*
X86618342Y-93368341D01*
X86590507Y-93402258D01*
X86590505Y-93402260D01*
X86507248Y-93503709D01*
X86424698Y-93658148D01*
X86373864Y-93825726D01*
X86356700Y-94000000D01*
X85405238Y-94000000D01*
X85404776Y-91500000D01*
X100611928Y-91500000D01*
X100624188Y-91624482D01*
X100660498Y-91744180D01*
X100719463Y-91854494D01*
X100798815Y-91951185D01*
X100895506Y-92030537D01*
X101005820Y-92089502D01*
X101125518Y-92125812D01*
X101250000Y-92138072D01*
X101714250Y-92135000D01*
X101873000Y-91976250D01*
X101873000Y-90877000D01*
X102127000Y-90877000D01*
X102127000Y-91976250D01*
X102285750Y-92135000D01*
X102750000Y-92138072D01*
X102874482Y-92125812D01*
X102994180Y-92089502D01*
X103104494Y-92030537D01*
X103201185Y-91951185D01*
X103280537Y-91854494D01*
X103339502Y-91744180D01*
X103375812Y-91624482D01*
X103388072Y-91500000D01*
X103385000Y-91035750D01*
X103226250Y-90877000D01*
X102127000Y-90877000D01*
X101873000Y-90877000D01*
X100773750Y-90877000D01*
X100615000Y-91035750D01*
X100611928Y-91500000D01*
X85404776Y-91500000D01*
X85404499Y-90000000D01*
X100611928Y-90000000D01*
X100615000Y-90464250D01*
X100773750Y-90623000D01*
X101873000Y-90623000D01*
X101873000Y-89523750D01*
X102127000Y-89523750D01*
X102127000Y-90623000D01*
X103226250Y-90623000D01*
X103385000Y-90464250D01*
X103388072Y-90000000D01*
X103375812Y-89875518D01*
X103339502Y-89755820D01*
X103280537Y-89645506D01*
X103201185Y-89548815D01*
X103104494Y-89469463D01*
X102994180Y-89410498D01*
X102874482Y-89374188D01*
X102750000Y-89361928D01*
X102285750Y-89365000D01*
X102127000Y-89523750D01*
X101873000Y-89523750D01*
X101714250Y-89365000D01*
X101250000Y-89361928D01*
X101125518Y-89374188D01*
X101005820Y-89410498D01*
X100895506Y-89469463D01*
X100798815Y-89548815D01*
X100719463Y-89645506D01*
X100660498Y-89755820D01*
X100624188Y-89875518D01*
X100611928Y-90000000D01*
X85404499Y-90000000D01*
X85403110Y-82500000D01*
X85859509Y-82500000D01*
X85865000Y-82555751D01*
X85865000Y-82611788D01*
X85875932Y-82666748D01*
X85881423Y-82722498D01*
X85897684Y-82776103D01*
X85908617Y-82831067D01*
X85930064Y-82882845D01*
X85946324Y-82936446D01*
X85972728Y-82985845D01*
X85994176Y-83037624D01*
X86025313Y-83084224D01*
X86051717Y-83133622D01*
X86087251Y-83176920D01*
X86118388Y-83223520D01*
X86158019Y-83263151D01*
X86193552Y-83306448D01*
X86236849Y-83341981D01*
X86276480Y-83381612D01*
X86323080Y-83412749D01*
X86366378Y-83448283D01*
X86415776Y-83474687D01*
X86462376Y-83505824D01*
X86514155Y-83527272D01*
X86563554Y-83553676D01*
X86617155Y-83569936D01*
X86668933Y-83591383D01*
X86723897Y-83602316D01*
X86777502Y-83618577D01*
X86833252Y-83624068D01*
X86888212Y-83635000D01*
X86944249Y-83635000D01*
X87000000Y-83640491D01*
X87055751Y-83635000D01*
X87111788Y-83635000D01*
X87166748Y-83624068D01*
X87222498Y-83618577D01*
X87276103Y-83602316D01*
X87331067Y-83591383D01*
X87382845Y-83569936D01*
X87436446Y-83553676D01*
X87485845Y-83527272D01*
X87537624Y-83505824D01*
X87584224Y-83474687D01*
X87633622Y-83448283D01*
X87676921Y-83412749D01*
X87723520Y-83381612D01*
X87881612Y-83223520D01*
X87881614Y-83223517D01*
X88970132Y-82135000D01*
X93361001Y-82135000D01*
X93361000Y-85456340D01*
X93356700Y-85500000D01*
X93361000Y-85543660D01*
X93361000Y-85543666D01*
X93373864Y-85674273D01*
X93424697Y-85841850D01*
X93507247Y-85996290D01*
X93618341Y-86131659D01*
X93652263Y-86159499D01*
X94340505Y-86847741D01*
X94368341Y-86881659D01*
X94503709Y-86992753D01*
X94658149Y-87075303D01*
X94724058Y-87095296D01*
X94825724Y-87126136D01*
X94858924Y-87129406D01*
X94956333Y-87139000D01*
X94956339Y-87139000D01*
X94999999Y-87143300D01*
X95043659Y-87139000D01*
X104217532Y-87139000D01*
X104259744Y-87167205D01*
X104448102Y-87245226D01*
X104648061Y-87285000D01*
X104851939Y-87285000D01*
X105051898Y-87245226D01*
X105240256Y-87167205D01*
X105409774Y-87053937D01*
X105553937Y-86909774D01*
X105667205Y-86740256D01*
X105745226Y-86551898D01*
X105785000Y-86351939D01*
X105785000Y-86148061D01*
X105745226Y-85948102D01*
X105667205Y-85759744D01*
X105592582Y-85648061D01*
X114715000Y-85648061D01*
X114715000Y-85851939D01*
X114754774Y-86051898D01*
X114832795Y-86240256D01*
X114946063Y-86409774D01*
X114988001Y-86451712D01*
X114988000Y-95798289D01*
X114946063Y-95840226D01*
X114832795Y-96009744D01*
X114754774Y-96198102D01*
X114715000Y-96398061D01*
X114715000Y-96601939D01*
X114754774Y-96801898D01*
X114832795Y-96990256D01*
X114946063Y-97159774D01*
X115090226Y-97303937D01*
X115259744Y-97417205D01*
X115448102Y-97495226D01*
X115648061Y-97535000D01*
X115851939Y-97535000D01*
X116051898Y-97495226D01*
X116240256Y-97417205D01*
X116409774Y-97303937D01*
X116553937Y-97159774D01*
X116667205Y-96990256D01*
X116745226Y-96801898D01*
X116785000Y-96601939D01*
X116785000Y-96398061D01*
X116745226Y-96198102D01*
X116667205Y-96009744D01*
X116553937Y-95840226D01*
X116512000Y-95798289D01*
X116512000Y-94418139D01*
X116698102Y-94495226D01*
X116898061Y-94535000D01*
X117101939Y-94535000D01*
X117301898Y-94495226D01*
X117490256Y-94417205D01*
X117659774Y-94303937D01*
X117803937Y-94159774D01*
X117917205Y-93990256D01*
X117995226Y-93801898D01*
X118035000Y-93601939D01*
X118035000Y-93398061D01*
X117995226Y-93198102D01*
X117917205Y-93009744D01*
X117825500Y-92872497D01*
X117825500Y-87485450D01*
X117990256Y-87417205D01*
X118159774Y-87303937D01*
X118303937Y-87159774D01*
X118417205Y-86990256D01*
X118495226Y-86801898D01*
X118535000Y-86601939D01*
X118535000Y-86398061D01*
X118495226Y-86198102D01*
X118417205Y-86009744D01*
X118303937Y-85840226D01*
X118159774Y-85696063D01*
X117990256Y-85582795D01*
X117801898Y-85504774D01*
X117601939Y-85465000D01*
X117398061Y-85465000D01*
X117198102Y-85504774D01*
X117009744Y-85582795D01*
X116840226Y-85696063D01*
X116785000Y-85751289D01*
X116785000Y-85648061D01*
X116745226Y-85448102D01*
X116667205Y-85259744D01*
X116553937Y-85090226D01*
X116409774Y-84946063D01*
X116240256Y-84832795D01*
X116051898Y-84754774D01*
X115851939Y-84715000D01*
X115648061Y-84715000D01*
X115448102Y-84754774D01*
X115259744Y-84832795D01*
X115090226Y-84946063D01*
X114946063Y-85090226D01*
X114832795Y-85259744D01*
X114754774Y-85448102D01*
X114715000Y-85648061D01*
X105592582Y-85648061D01*
X105553937Y-85590226D01*
X105409774Y-85446063D01*
X105240256Y-85332795D01*
X105051898Y-85254774D01*
X104851939Y-85215000D01*
X104648061Y-85215000D01*
X104448102Y-85254774D01*
X104259744Y-85332795D01*
X104217532Y-85361000D01*
X95368236Y-85361000D01*
X95139000Y-85131765D01*
X95139000Y-82135000D01*
X97944249Y-82135000D01*
X98000000Y-82140491D01*
X98055751Y-82135000D01*
X98055752Y-82135000D01*
X98222499Y-82118577D01*
X98436447Y-82053676D01*
X98633623Y-81948284D01*
X98806449Y-81806449D01*
X98841995Y-81763136D01*
X99244170Y-81360961D01*
X139908096Y-81360961D01*
X140030085Y-81583000D01*
X141623000Y-81583000D01*
X141623000Y-80275000D01*
X141877000Y-80275000D01*
X141877000Y-81583000D01*
X143469915Y-81583000D01*
X143591904Y-81360961D01*
X143574367Y-81278182D01*
X143463715Y-81018354D01*
X143304500Y-80785105D01*
X143102839Y-80587399D01*
X142866483Y-80432834D01*
X142604514Y-80327350D01*
X142327000Y-80275000D01*
X141877000Y-80275000D01*
X141623000Y-80275000D01*
X141173000Y-80275000D01*
X140895486Y-80327350D01*
X140633517Y-80432834D01*
X140397161Y-80587399D01*
X140195500Y-80785105D01*
X140036285Y-81018354D01*
X139925633Y-81278182D01*
X139908096Y-81360961D01*
X99244170Y-81360961D01*
X99763145Y-80841987D01*
X99806449Y-80806449D01*
X99948284Y-80633623D01*
X100053676Y-80436447D01*
X100118577Y-80222499D01*
X100135000Y-80055752D01*
X100135000Y-80055751D01*
X100140491Y-80000000D01*
X100135000Y-79944248D01*
X100135000Y-79668003D01*
X142747573Y-79668003D01*
X142827947Y-79965368D01*
X143026388Y-80389439D01*
X143303748Y-80766648D01*
X143649369Y-81082498D01*
X144049968Y-81324852D01*
X144490150Y-81484396D01*
X144953000Y-81555000D01*
X146703000Y-81555000D01*
X146703000Y-79297000D01*
X146957000Y-79297000D01*
X146957000Y-81555000D01*
X148707000Y-81555000D01*
X149169850Y-81484396D01*
X149610032Y-81324852D01*
X150010631Y-81082498D01*
X150356252Y-80766648D01*
X150633612Y-80389439D01*
X150832053Y-79965368D01*
X150912427Y-79668003D01*
X150802625Y-79297000D01*
X146957000Y-79297000D01*
X146703000Y-79297000D01*
X142857375Y-79297000D01*
X142747573Y-79668003D01*
X100135000Y-79668003D01*
X100135000Y-77898061D01*
X110715000Y-77898061D01*
X110715000Y-78101939D01*
X110754774Y-78301898D01*
X110832795Y-78490256D01*
X110946063Y-78659774D01*
X111090226Y-78803937D01*
X111259744Y-78917205D01*
X111448102Y-78995226D01*
X111648061Y-79035000D01*
X111851939Y-79035000D01*
X112051898Y-78995226D01*
X112240256Y-78917205D01*
X112409774Y-78803937D01*
X112451711Y-78762000D01*
X115712577Y-78762000D01*
X115750000Y-78765686D01*
X115784084Y-78762329D01*
X115898061Y-78785000D01*
X116101939Y-78785000D01*
X116301898Y-78745226D01*
X116478687Y-78671997D01*
X142747573Y-78671997D01*
X142857375Y-79043000D01*
X146703000Y-79043000D01*
X146703000Y-76785000D01*
X146957000Y-76785000D01*
X146957000Y-79043000D01*
X150802625Y-79043000D01*
X150912427Y-78671997D01*
X150832053Y-78374632D01*
X150633612Y-77950561D01*
X150356252Y-77573352D01*
X150010631Y-77257502D01*
X149610032Y-77015148D01*
X149169850Y-76855604D01*
X148707000Y-76785000D01*
X146957000Y-76785000D01*
X146703000Y-76785000D01*
X144953000Y-76785000D01*
X144490150Y-76855604D01*
X144049968Y-77015148D01*
X143649369Y-77257502D01*
X143303748Y-77573352D01*
X143026388Y-77950561D01*
X142827947Y-78374632D01*
X142747573Y-78671997D01*
X116478687Y-78671997D01*
X116490256Y-78667205D01*
X116659774Y-78553937D01*
X116803937Y-78409774D01*
X116917205Y-78240256D01*
X116995226Y-78051898D01*
X117035000Y-77851939D01*
X117035000Y-77648061D01*
X116995779Y-77450881D01*
X132478724Y-77450881D01*
X132838912Y-77940548D01*
X133502882Y-78300849D01*
X134224385Y-78524694D01*
X134975695Y-78603480D01*
X135727938Y-78534178D01*
X136452208Y-78319452D01*
X137120670Y-77967555D01*
X137161088Y-77940548D01*
X137521276Y-77450881D01*
X135000000Y-74929605D01*
X132478724Y-77450881D01*
X116995779Y-77450881D01*
X116995226Y-77448102D01*
X116917205Y-77259744D01*
X116803937Y-77090226D01*
X116659774Y-76946063D01*
X116490256Y-76832795D01*
X116301898Y-76754774D01*
X116101939Y-76715000D01*
X115898061Y-76715000D01*
X115698102Y-76754774D01*
X115509744Y-76832795D01*
X115340226Y-76946063D01*
X115196063Y-77090226D01*
X115097324Y-77238000D01*
X112451711Y-77238000D01*
X112409774Y-77196063D01*
X112240256Y-77082795D01*
X112051898Y-77004774D01*
X111851939Y-76965000D01*
X111648061Y-76965000D01*
X111448102Y-77004774D01*
X111259744Y-77082795D01*
X111090226Y-77196063D01*
X110946063Y-77340226D01*
X110832795Y-77509744D01*
X110754774Y-77698102D01*
X110715000Y-77898061D01*
X100135000Y-77898061D01*
X100135000Y-77138212D01*
X100124068Y-77083253D01*
X100118577Y-77027501D01*
X100102315Y-76973892D01*
X100091383Y-76918933D01*
X100069937Y-76867158D01*
X100053676Y-76813553D01*
X100027269Y-76764149D01*
X100005824Y-76712376D01*
X99974693Y-76665786D01*
X99948284Y-76616377D01*
X99912741Y-76573068D01*
X99885353Y-76532079D01*
X101091934Y-75325500D01*
X113372497Y-75325500D01*
X113509744Y-75417205D01*
X113698102Y-75495226D01*
X113898061Y-75535000D01*
X114101939Y-75535000D01*
X114301898Y-75495226D01*
X114490256Y-75417205D01*
X114659774Y-75303937D01*
X114803937Y-75159774D01*
X114917205Y-74990256D01*
X114995226Y-74801898D01*
X115010383Y-74725695D01*
X131146520Y-74725695D01*
X131215822Y-75477938D01*
X131430548Y-76202208D01*
X131782445Y-76870670D01*
X131809452Y-76911088D01*
X132299119Y-77271276D01*
X134820395Y-74750000D01*
X135179605Y-74750000D01*
X137700881Y-77271276D01*
X138190548Y-76911088D01*
X138550849Y-76247118D01*
X138774694Y-75525615D01*
X138853480Y-74774305D01*
X138784178Y-74022062D01*
X138569452Y-73297792D01*
X138217555Y-72629330D01*
X138190548Y-72588912D01*
X137700881Y-72228724D01*
X135179605Y-74750000D01*
X134820395Y-74750000D01*
X132299119Y-72228724D01*
X131809452Y-72588912D01*
X131449151Y-73252882D01*
X131225306Y-73974385D01*
X131146520Y-74725695D01*
X115010383Y-74725695D01*
X115035000Y-74601939D01*
X115035000Y-74398061D01*
X114995226Y-74198102D01*
X114917205Y-74009744D01*
X114803937Y-73840226D01*
X114659774Y-73696063D01*
X114490256Y-73582795D01*
X114301898Y-73504774D01*
X114101939Y-73465000D01*
X113898061Y-73465000D01*
X113698102Y-73504774D01*
X113509744Y-73582795D01*
X113372497Y-73674500D01*
X100790550Y-73674500D01*
X100750000Y-73670506D01*
X100709449Y-73674500D01*
X100709447Y-73674500D01*
X100588174Y-73686444D01*
X100458141Y-73725889D01*
X100432566Y-73733647D01*
X100289157Y-73810301D01*
X100194958Y-73887608D01*
X100194955Y-73887611D01*
X100163459Y-73913459D01*
X100137611Y-73944955D01*
X98444966Y-75637602D01*
X98413459Y-75663459D01*
X98350171Y-75740577D01*
X98310301Y-75789158D01*
X98240247Y-75920220D01*
X98233647Y-75932567D01*
X98186444Y-76088175D01*
X98179427Y-76159423D01*
X98170506Y-76250000D01*
X98174500Y-76290551D01*
X98174500Y-76466766D01*
X98158014Y-76486854D01*
X98118388Y-76526480D01*
X98087254Y-76573075D01*
X98051717Y-76616377D01*
X98025312Y-76665778D01*
X97994176Y-76712376D01*
X97972728Y-76764157D01*
X97946325Y-76813553D01*
X97930067Y-76867149D01*
X97908617Y-76918933D01*
X97897683Y-76973904D01*
X97881424Y-77027501D01*
X97875934Y-77083243D01*
X97865000Y-77138212D01*
X97865000Y-77361788D01*
X97865001Y-77361793D01*
X97865000Y-79529868D01*
X97529868Y-79865000D01*
X88555741Y-79865000D01*
X88499999Y-79859510D01*
X88444257Y-79865000D01*
X88444248Y-79865000D01*
X88277501Y-79881423D01*
X88063553Y-79946324D01*
X87866377Y-80051716D01*
X87693551Y-80193551D01*
X87658011Y-80236857D01*
X86276483Y-81618386D01*
X86276480Y-81618388D01*
X86118388Y-81776480D01*
X86087251Y-81823079D01*
X86051717Y-81866378D01*
X86025313Y-81915776D01*
X85994176Y-81962376D01*
X85972728Y-82014155D01*
X85946324Y-82063554D01*
X85930064Y-82117155D01*
X85908617Y-82168933D01*
X85897684Y-82223897D01*
X85881423Y-82277502D01*
X85875932Y-82333252D01*
X85865000Y-82388212D01*
X85865000Y-82444249D01*
X85859509Y-82500000D01*
X85403110Y-82500000D01*
X85402223Y-77700881D01*
X88728724Y-77700881D01*
X89088912Y-78190548D01*
X89752882Y-78550849D01*
X90474385Y-78774694D01*
X91225695Y-78853480D01*
X91977938Y-78784178D01*
X92702208Y-78569452D01*
X93370670Y-78217555D01*
X93411088Y-78190548D01*
X93771276Y-77700881D01*
X91250000Y-75179605D01*
X88728724Y-77700881D01*
X85402223Y-77700881D01*
X85401718Y-74975695D01*
X87396520Y-74975695D01*
X87465822Y-75727938D01*
X87680548Y-76452208D01*
X88032445Y-77120670D01*
X88059452Y-77161088D01*
X88549119Y-77521276D01*
X91070395Y-75000000D01*
X91429605Y-75000000D01*
X93950881Y-77521276D01*
X94440548Y-77161088D01*
X94800849Y-76497118D01*
X95024694Y-75775615D01*
X95103480Y-75024305D01*
X95034178Y-74272062D01*
X94819452Y-73547792D01*
X94467555Y-72879330D01*
X94440548Y-72838912D01*
X93950881Y-72478724D01*
X91429605Y-75000000D01*
X91070395Y-75000000D01*
X88549119Y-72478724D01*
X88059452Y-72838912D01*
X87699151Y-73502882D01*
X87475306Y-74224385D01*
X87396520Y-74975695D01*
X85401718Y-74975695D01*
X85401682Y-74782228D01*
X85463788Y-74148817D01*
X85638385Y-73570525D01*
X85921976Y-73037166D01*
X86303762Y-72569050D01*
X86769209Y-72183999D01*
X87300577Y-71896689D01*
X87877634Y-71718059D01*
X88498534Y-71652800D01*
X88707779Y-71659036D01*
%TA.AperFunction,Conductor*%
D26*
G36*
X88707779Y-71659036D02*
G01*
X88717580Y-71660001D01*
X89361924Y-71660001D01*
X89129330Y-71782445D01*
X89088912Y-71809452D01*
X88728724Y-72299119D01*
X91250000Y-74820395D01*
X93771276Y-72299119D01*
X93411088Y-71809452D01*
X93135677Y-71660001D01*
X132764950Y-71660001D01*
X132478724Y-72049119D01*
X135000000Y-74570395D01*
X137521276Y-72049119D01*
X137235050Y-71660001D01*
X150739726Y-71660001D01*
X151397885Y-71680523D01*
X151986510Y-71816265D01*
X152537555Y-72063752D01*
X153030030Y-72413553D01*
X153445187Y-72852354D01*
X153767209Y-73363436D01*
X153983825Y-73927326D01*
X154088360Y-74531635D01*
X154089062Y-74732902D01*
X154050247Y-74860945D01*
X154039993Y-74965254D01*
X154048330Y-120035007D01*
X154058622Y-120139312D01*
X154075913Y-120196275D01*
X154036212Y-120601183D01*
X153861617Y-121179471D01*
X153578025Y-121712831D01*
X153196235Y-122180953D01*
X152730790Y-122566002D01*
X152199423Y-122853311D01*
X151622365Y-123031941D01*
X151001465Y-123097200D01*
X150792172Y-123090963D01*
X150782332Y-123089995D01*
X88532242Y-123098319D01*
X87898817Y-123036212D01*
X87320529Y-122861617D01*
X86787169Y-122578025D01*
X86319047Y-122196235D01*
X85933998Y-121730790D01*
X85646689Y-121199423D01*
X85468059Y-120622365D01*
X85402800Y-120001465D01*
X85409038Y-119792146D01*
X85410006Y-119782298D01*
X85409580Y-117475695D01*
X87396520Y-117475695D01*
X87465822Y-118227938D01*
X87680548Y-118952208D01*
X88032445Y-119620670D01*
X88059452Y-119661088D01*
X88549119Y-120021276D01*
X88603180Y-119967216D01*
X88657786Y-120021822D01*
X88776108Y-119903500D01*
X88798963Y-120106792D01*
X88815619Y-120113986D01*
X88728724Y-120200881D01*
X89088912Y-120690548D01*
X89752882Y-121050849D01*
X90474385Y-121274694D01*
X91225695Y-121353480D01*
X91977938Y-121284178D01*
X92702208Y-121069452D01*
X93370670Y-120717555D01*
X93411088Y-120690548D01*
X93771276Y-120200881D01*
X93642618Y-120072223D01*
X99695000Y-120072223D01*
X99695000Y-120427777D01*
X99764365Y-120776499D01*
X99900429Y-121104988D01*
X100097965Y-121400621D01*
X100349379Y-121652035D01*
X100645012Y-121849571D01*
X100973501Y-121985635D01*
X101322223Y-122055000D01*
X101677777Y-122055000D01*
X102026499Y-121985635D01*
X102354988Y-121849571D01*
X102650621Y-121652035D01*
X102902035Y-121400621D01*
X103099571Y-121104988D01*
X103235635Y-120776499D01*
X103305000Y-120427777D01*
X103305000Y-120250000D01*
X114361928Y-120250000D01*
X114374188Y-120374482D01*
X114410498Y-120494180D01*
X114469463Y-120604494D01*
X114548815Y-120701185D01*
X114645506Y-120780537D01*
X114755820Y-120839502D01*
X114875518Y-120875812D01*
X115000000Y-120888072D01*
X115464250Y-120885000D01*
X115623000Y-120726250D01*
X115623000Y-119627000D01*
X115877000Y-119627000D01*
X115877000Y-120726250D01*
X116035750Y-120885000D01*
X116500000Y-120888072D01*
X116624482Y-120875812D01*
X116744180Y-120839502D01*
X116854494Y-120780537D01*
X116951185Y-120701185D01*
X117030537Y-120604494D01*
X117089502Y-120494180D01*
X117125812Y-120374482D01*
X117138072Y-120250000D01*
X117135000Y-119785750D01*
X116976250Y-119627000D01*
X115877000Y-119627000D01*
X115623000Y-119627000D01*
X114523750Y-119627000D01*
X114365000Y-119785750D01*
X114361928Y-120250000D01*
X103305000Y-120250000D01*
X103305000Y-120072223D01*
X103235635Y-119723501D01*
X103099571Y-119395012D01*
X102902035Y-119099379D01*
X102650621Y-118847965D01*
X102354988Y-118650429D01*
X102026499Y-118514365D01*
X101677777Y-118445000D01*
X101322223Y-118445000D01*
X100973501Y-118514365D01*
X100645012Y-118650429D01*
X100349379Y-118847965D01*
X100097965Y-119099379D01*
X99900429Y-119395012D01*
X99764365Y-119723501D01*
X99695000Y-120072223D01*
X93642618Y-120072223D01*
X93467216Y-119896821D01*
X93521822Y-119842214D01*
X93403500Y-119723892D01*
X93606792Y-119701037D01*
X93613986Y-119684381D01*
X93950881Y-120021276D01*
X94440548Y-119661088D01*
X94800849Y-118997118D01*
X95024694Y-118275615D01*
X95098455Y-117572223D01*
X104695000Y-117572223D01*
X104695000Y-117927777D01*
X104764365Y-118276499D01*
X104900429Y-118604988D01*
X105097965Y-118900621D01*
X105349379Y-119152035D01*
X105645012Y-119349571D01*
X105973501Y-119485635D01*
X106322223Y-119555000D01*
X106677777Y-119555000D01*
X107026499Y-119485635D01*
X107354988Y-119349571D01*
X107650621Y-119152035D01*
X107902035Y-118900621D01*
X108002676Y-118750000D01*
X114361928Y-118750000D01*
X114365000Y-119214250D01*
X114523750Y-119373000D01*
X115623000Y-119373000D01*
X115623000Y-118273750D01*
X115877000Y-118273750D01*
X115877000Y-119373000D01*
X116976250Y-119373000D01*
X117135000Y-119214250D01*
X117135088Y-119200881D01*
X132228724Y-119200881D01*
X132588912Y-119690548D01*
X133252882Y-120050849D01*
X133974385Y-120274694D01*
X134725695Y-120353480D01*
X135477938Y-120284178D01*
X136202208Y-120069452D01*
X136870670Y-119717555D01*
X136911088Y-119690548D01*
X137271276Y-119200881D01*
X134750000Y-116679605D01*
X132228724Y-119200881D01*
X117135088Y-119200881D01*
X117138072Y-118750000D01*
X117125812Y-118625518D01*
X117089502Y-118505820D01*
X117030537Y-118395506D01*
X116951185Y-118298815D01*
X116854494Y-118219463D01*
X116744180Y-118160498D01*
X116624482Y-118124188D01*
X116500000Y-118111928D01*
X116035750Y-118115000D01*
X115877000Y-118273750D01*
X115623000Y-118273750D01*
X115464250Y-118115000D01*
X115000000Y-118111928D01*
X114875518Y-118124188D01*
X114755820Y-118160498D01*
X114645506Y-118219463D01*
X114548815Y-118298815D01*
X114469463Y-118395506D01*
X114410498Y-118505820D01*
X114374188Y-118625518D01*
X114361928Y-118750000D01*
X108002676Y-118750000D01*
X108099571Y-118604988D01*
X108235635Y-118276499D01*
X108305000Y-117927777D01*
X108305000Y-117572223D01*
X108235635Y-117223501D01*
X108099571Y-116895012D01*
X107902035Y-116599379D01*
X107778351Y-116475695D01*
X130896520Y-116475695D01*
X130965822Y-117227938D01*
X131180548Y-117952208D01*
X131532445Y-118620670D01*
X131559452Y-118661088D01*
X132049119Y-119021276D01*
X134570395Y-116500000D01*
X134929605Y-116500000D01*
X137450881Y-119021276D01*
X137940548Y-118661088D01*
X138300849Y-117997118D01*
X138524694Y-117275615D01*
X138603480Y-116524305D01*
X138534178Y-115772062D01*
X138319452Y-115047792D01*
X137967555Y-114379330D01*
X137940548Y-114338912D01*
X137450881Y-113978724D01*
X134929605Y-116500000D01*
X134570395Y-116500000D01*
X132049119Y-113978724D01*
X131559452Y-114338912D01*
X131199151Y-115002882D01*
X130975306Y-115724385D01*
X130896520Y-116475695D01*
X107778351Y-116475695D01*
X107650621Y-116347965D01*
X107354988Y-116150429D01*
X107026499Y-116014365D01*
X106677777Y-115945000D01*
X106322223Y-115945000D01*
X105973501Y-116014365D01*
X105645012Y-116150429D01*
X105349379Y-116347965D01*
X105097965Y-116599379D01*
X104900429Y-116895012D01*
X104764365Y-117223501D01*
X104695000Y-117572223D01*
X95098455Y-117572223D01*
X95103480Y-117524305D01*
X95034178Y-116772062D01*
X94819452Y-116047792D01*
X94467555Y-115379330D01*
X94440548Y-115338912D01*
X94077991Y-115072223D01*
X99695000Y-115072223D01*
X99695000Y-115427777D01*
X99764365Y-115776499D01*
X99900429Y-116104988D01*
X100097965Y-116400621D01*
X100349379Y-116652035D01*
X100645012Y-116849571D01*
X100973501Y-116985635D01*
X101322223Y-117055000D01*
X101677777Y-117055000D01*
X102026499Y-116985635D01*
X102354988Y-116849571D01*
X102650621Y-116652035D01*
X102902035Y-116400621D01*
X103099571Y-116104988D01*
X103235635Y-115776499D01*
X103305000Y-115427777D01*
X103305000Y-115072223D01*
X103235635Y-114723501D01*
X103099571Y-114395012D01*
X102902035Y-114099379D01*
X102650621Y-113847965D01*
X102354988Y-113650429D01*
X102026499Y-113514365D01*
X101677777Y-113445000D01*
X101322223Y-113445000D01*
X100973501Y-113514365D01*
X100645012Y-113650429D01*
X100349379Y-113847965D01*
X100097965Y-114099379D01*
X99900429Y-114395012D01*
X99764365Y-114723501D01*
X99695000Y-115072223D01*
X94077991Y-115072223D01*
X93950881Y-114978724D01*
X93615099Y-115314506D01*
X93606792Y-115298963D01*
X93403500Y-115276108D01*
X93521822Y-115157786D01*
X93467216Y-115103180D01*
X93771276Y-114799119D01*
X93411088Y-114309452D01*
X92747118Y-113949151D01*
X92025615Y-113725306D01*
X91274305Y-113646520D01*
X90522062Y-113715822D01*
X89797792Y-113930548D01*
X89129330Y-114282445D01*
X89088912Y-114309452D01*
X88728724Y-114799119D01*
X88814506Y-114884901D01*
X88798963Y-114893208D01*
X88776108Y-115096500D01*
X88657786Y-114978178D01*
X88603180Y-115032785D01*
X88549119Y-114978724D01*
X88059452Y-115338912D01*
X87699151Y-116002882D01*
X87475306Y-116724385D01*
X87396520Y-117475695D01*
X85409580Y-117475695D01*
X85405238Y-94000000D01*
X86356700Y-94000000D01*
X86361001Y-94043670D01*
X86361000Y-108206333D01*
X86361000Y-108706340D01*
X86356700Y-108750000D01*
X86361000Y-108793660D01*
X86361000Y-108793667D01*
X86373864Y-108924274D01*
X86424697Y-109091851D01*
X86507248Y-109246291D01*
X86618342Y-109381659D01*
X86652259Y-109409494D01*
X87590504Y-110347740D01*
X87618341Y-110381659D01*
X87753709Y-110492753D01*
X87908149Y-110575303D01*
X88024892Y-110610716D01*
X88075725Y-110626136D01*
X88250000Y-110643301D01*
X88293668Y-110639000D01*
X99631765Y-110639000D01*
X100244870Y-111252105D01*
X100254774Y-111301898D01*
X100332795Y-111490256D01*
X100446063Y-111659774D01*
X100590226Y-111803937D01*
X100759744Y-111917205D01*
X100948102Y-111995226D01*
X101148061Y-112035000D01*
X101351939Y-112035000D01*
X101551898Y-111995226D01*
X101740256Y-111917205D01*
X101909774Y-111803937D01*
X102053937Y-111659774D01*
X102167205Y-111490256D01*
X102245226Y-111301898D01*
X102285000Y-111101939D01*
X102285000Y-110898061D01*
X102245226Y-110698102D01*
X102224499Y-110648061D01*
X114465000Y-110648061D01*
X114465000Y-110851939D01*
X114504774Y-111051898D01*
X114582795Y-111240256D01*
X114696063Y-111409774D01*
X114738001Y-111451712D01*
X114738000Y-112798289D01*
X114696063Y-112840226D01*
X114582795Y-113009744D01*
X114504774Y-113198102D01*
X114465000Y-113398061D01*
X114465000Y-113601939D01*
X114504774Y-113801898D01*
X114582795Y-113990256D01*
X114696063Y-114159774D01*
X114840226Y-114303937D01*
X115009744Y-114417205D01*
X115198102Y-114495226D01*
X115398061Y-114535000D01*
X115601939Y-114535000D01*
X115801898Y-114495226D01*
X115990256Y-114417205D01*
X116159774Y-114303937D01*
X116303937Y-114159774D01*
X116417205Y-113990256D01*
X116495226Y-113801898D01*
X116495778Y-113799119D01*
X132228724Y-113799119D01*
X134750000Y-116320395D01*
X137242392Y-113828003D01*
X142747573Y-113828003D01*
X142827947Y-114125368D01*
X143026388Y-114549439D01*
X143303748Y-114926648D01*
X143649369Y-115242498D01*
X144049968Y-115484852D01*
X144490150Y-115644396D01*
X144953000Y-115715000D01*
X146703000Y-115715000D01*
X146703000Y-113457000D01*
X146957000Y-113457000D01*
X146957000Y-115715000D01*
X148707000Y-115715000D01*
X149169850Y-115644396D01*
X149610032Y-115484852D01*
X150010631Y-115242498D01*
X150356252Y-114926648D01*
X150633612Y-114549439D01*
X150832053Y-114125368D01*
X150912427Y-113828003D01*
X150802625Y-113457000D01*
X146957000Y-113457000D01*
X146703000Y-113457000D01*
X142857375Y-113457000D01*
X142747573Y-113828003D01*
X137242392Y-113828003D01*
X137271276Y-113799119D01*
X136911088Y-113309452D01*
X136247118Y-112949151D01*
X135869505Y-112831997D01*
X142747573Y-112831997D01*
X142857375Y-113203000D01*
X146703000Y-113203000D01*
X146703000Y-110945000D01*
X146957000Y-110945000D01*
X146957000Y-113203000D01*
X150802625Y-113203000D01*
X150912427Y-112831997D01*
X150832053Y-112534632D01*
X150633612Y-112110561D01*
X150356252Y-111733352D01*
X150010631Y-111417502D01*
X149610032Y-111175148D01*
X149169850Y-111015604D01*
X148707000Y-110945000D01*
X146957000Y-110945000D01*
X146703000Y-110945000D01*
X144953000Y-110945000D01*
X144490150Y-111015604D01*
X144049968Y-111175148D01*
X143649369Y-111417502D01*
X143303748Y-111733352D01*
X143026388Y-112110561D01*
X142827947Y-112534632D01*
X142747573Y-112831997D01*
X135869505Y-112831997D01*
X135525615Y-112725306D01*
X134774305Y-112646520D01*
X134022062Y-112715822D01*
X133297792Y-112930548D01*
X132629330Y-113282445D01*
X132588912Y-113309452D01*
X132228724Y-113799119D01*
X116495778Y-113799119D01*
X116535000Y-113601939D01*
X116535000Y-113398061D01*
X116495226Y-113198102D01*
X116417205Y-113009744D01*
X116303937Y-112840226D01*
X116262000Y-112798289D01*
X116262000Y-111451711D01*
X116303937Y-111409774D01*
X116417205Y-111240256D01*
X116495226Y-111051898D01*
X116535000Y-110851939D01*
X116535000Y-110648061D01*
X116495226Y-110448102D01*
X116417205Y-110259744D01*
X116303937Y-110090226D01*
X116159774Y-109946063D01*
X115990256Y-109832795D01*
X115801898Y-109754774D01*
X115601939Y-109715000D01*
X115398061Y-109715000D01*
X115198102Y-109754774D01*
X115009744Y-109832795D01*
X114840226Y-109946063D01*
X114696063Y-110090226D01*
X114582795Y-110259744D01*
X114504774Y-110448102D01*
X114465000Y-110648061D01*
X102224499Y-110648061D01*
X102167205Y-110509744D01*
X102053937Y-110340226D01*
X101909774Y-110196063D01*
X101740256Y-110082795D01*
X101551898Y-110004774D01*
X101502105Y-109994870D01*
X100659499Y-109152264D01*
X100631659Y-109118341D01*
X100496291Y-109007247D01*
X100341851Y-108924697D01*
X100174274Y-108873864D01*
X100043667Y-108861000D01*
X100043660Y-108861000D01*
X100000000Y-108856700D01*
X99956340Y-108861000D01*
X88618236Y-108861000D01*
X88139000Y-108381765D01*
X88139000Y-106888212D01*
X130865000Y-106888212D01*
X130865000Y-107111788D01*
X130908617Y-107331067D01*
X130984001Y-107513059D01*
X130984000Y-110236943D01*
X130908617Y-110418933D01*
X130865000Y-110638212D01*
X130865000Y-110861788D01*
X130908617Y-111081067D01*
X130994176Y-111287624D01*
X131118388Y-111473520D01*
X131276480Y-111631612D01*
X131462376Y-111755824D01*
X131668933Y-111841383D01*
X131888212Y-111885000D01*
X132111788Y-111885000D01*
X132331067Y-111841383D01*
X132537624Y-111755824D01*
X132723520Y-111631612D01*
X132881612Y-111473520D01*
X133005824Y-111287624D01*
X133091383Y-111081067D01*
X133135000Y-110861788D01*
X133135000Y-110638212D01*
X133091383Y-110418933D01*
X133016000Y-110236943D01*
X133016000Y-108250000D01*
X139858057Y-108250000D01*
X139885764Y-108531309D01*
X139967818Y-108801808D01*
X140101068Y-109051101D01*
X140280392Y-109269608D01*
X140498899Y-109448932D01*
X140748192Y-109582182D01*
X141018691Y-109664236D01*
X141229508Y-109685000D01*
X142270492Y-109685000D01*
X142481309Y-109664236D01*
X142751808Y-109582182D01*
X143001101Y-109448932D01*
X143219608Y-109269608D01*
X143398932Y-109051101D01*
X143532182Y-108801808D01*
X143614236Y-108531309D01*
X143641943Y-108250000D01*
X143614236Y-107968691D01*
X143532182Y-107698192D01*
X143398932Y-107448899D01*
X143219608Y-107230392D01*
X143001101Y-107051068D01*
X142873259Y-106982735D01*
X143102839Y-106832601D01*
X143304500Y-106634895D01*
X143463715Y-106401646D01*
X143574367Y-106141818D01*
X143591904Y-106059039D01*
X143469915Y-105837000D01*
X141877000Y-105837000D01*
X141877000Y-105857000D01*
X141623000Y-105857000D01*
X141623000Y-105837000D01*
X140030085Y-105837000D01*
X139908096Y-106059039D01*
X139925633Y-106141818D01*
X140036285Y-106401646D01*
X140195500Y-106634895D01*
X140397161Y-106832601D01*
X140626741Y-106982735D01*
X140498899Y-107051068D01*
X140280392Y-107230392D01*
X140101068Y-107448899D01*
X139967818Y-107698192D01*
X139885764Y-107968691D01*
X139858057Y-108250000D01*
X133016000Y-108250000D01*
X133016000Y-107513057D01*
X133091383Y-107331067D01*
X133135000Y-107111788D01*
X133135000Y-106888212D01*
X133091383Y-106668933D01*
X133005824Y-106462376D01*
X132881612Y-106276480D01*
X132723520Y-106118388D01*
X132537624Y-105994176D01*
X132331067Y-105908617D01*
X132111788Y-105865000D01*
X131888212Y-105865000D01*
X131668933Y-105908617D01*
X131462376Y-105994176D01*
X131276480Y-106118388D01*
X131118388Y-106276480D01*
X130994176Y-106462376D01*
X130908617Y-106668933D01*
X130865000Y-106888212D01*
X88139000Y-106888212D01*
X88139000Y-105360961D01*
X139908096Y-105360961D01*
X140030085Y-105583000D01*
X141623000Y-105583000D01*
X141623000Y-104275000D01*
X141877000Y-104275000D01*
X141877000Y-105583000D01*
X143469915Y-105583000D01*
X143591904Y-105360961D01*
X143574367Y-105278182D01*
X143463715Y-105018354D01*
X143304500Y-104785105D01*
X143102839Y-104587399D01*
X142866483Y-104432834D01*
X142604514Y-104327350D01*
X142327000Y-104275000D01*
X141877000Y-104275000D01*
X141623000Y-104275000D01*
X141173000Y-104275000D01*
X140895486Y-104327350D01*
X140633517Y-104432834D01*
X140397161Y-104587399D01*
X140195500Y-104785105D01*
X140036285Y-105018354D01*
X139925633Y-105278182D01*
X139908096Y-105360961D01*
X88139000Y-105360961D01*
X88139000Y-103668003D01*
X142747573Y-103668003D01*
X142827947Y-103965368D01*
X143026388Y-104389439D01*
X143303748Y-104766648D01*
X143649369Y-105082498D01*
X144049968Y-105324852D01*
X144490150Y-105484396D01*
X144953000Y-105555000D01*
X146703000Y-105555000D01*
X146703000Y-103297000D01*
X146957000Y-103297000D01*
X146957000Y-105555000D01*
X148707000Y-105555000D01*
X149169850Y-105484396D01*
X149610032Y-105324852D01*
X150010631Y-105082498D01*
X150356252Y-104766648D01*
X150633612Y-104389439D01*
X150832053Y-103965368D01*
X150912427Y-103668003D01*
X150802625Y-103297000D01*
X146957000Y-103297000D01*
X146703000Y-103297000D01*
X142857375Y-103297000D01*
X142747573Y-103668003D01*
X88139000Y-103668003D01*
X88139000Y-102671997D01*
X142747573Y-102671997D01*
X142857375Y-103043000D01*
X146703000Y-103043000D01*
X146703000Y-100785000D01*
X146957000Y-100785000D01*
X146957000Y-103043000D01*
X150802625Y-103043000D01*
X150912427Y-102671997D01*
X150832053Y-102374632D01*
X150633612Y-101950561D01*
X150356252Y-101573352D01*
X150010631Y-101257502D01*
X149610032Y-101015148D01*
X149169850Y-100855604D01*
X148707000Y-100785000D01*
X146957000Y-100785000D01*
X146703000Y-100785000D01*
X144953000Y-100785000D01*
X144490150Y-100855604D01*
X144049968Y-101015148D01*
X143649369Y-101257502D01*
X143303748Y-101573352D01*
X143026388Y-101950561D01*
X142827947Y-102374632D01*
X142747573Y-102671997D01*
X88139000Y-102671997D01*
X88139000Y-100500000D01*
X116111928Y-100500000D01*
X116124188Y-100624482D01*
X116160498Y-100744180D01*
X116219463Y-100854494D01*
X116298815Y-100951185D01*
X116395506Y-101030537D01*
X116505820Y-101089502D01*
X116625518Y-101125812D01*
X116750000Y-101138072D01*
X117214250Y-101135000D01*
X117373000Y-100976250D01*
X117373000Y-99877000D01*
X117627000Y-99877000D01*
X117627000Y-100976250D01*
X117785750Y-101135000D01*
X118250000Y-101138072D01*
X118374482Y-101125812D01*
X118494180Y-101089502D01*
X118604494Y-101030537D01*
X118701185Y-100951185D01*
X118780537Y-100854494D01*
X118839502Y-100744180D01*
X118875812Y-100624482D01*
X118888072Y-100500000D01*
X118885000Y-100035750D01*
X118726250Y-99877000D01*
X117627000Y-99877000D01*
X117373000Y-99877000D01*
X116273750Y-99877000D01*
X116115000Y-100035750D01*
X116111928Y-100500000D01*
X88139000Y-100500000D01*
X88139000Y-97933740D01*
X88515000Y-97933740D01*
X88515000Y-98226260D01*
X88572068Y-98513158D01*
X88684010Y-98783411D01*
X88846525Y-99026632D01*
X89053368Y-99233475D01*
X89296589Y-99395990D01*
X89566842Y-99507932D01*
X89853740Y-99565000D01*
X90146260Y-99565000D01*
X90433158Y-99507932D01*
X90703411Y-99395990D01*
X90946632Y-99233475D01*
X91153475Y-99026632D01*
X91171269Y-99000000D01*
X116111928Y-99000000D01*
X116115000Y-99464250D01*
X116273750Y-99623000D01*
X117373000Y-99623000D01*
X117373000Y-98523750D01*
X117627000Y-98523750D01*
X117627000Y-99623000D01*
X118726250Y-99623000D01*
X118885000Y-99464250D01*
X118885437Y-99398061D01*
X121465000Y-99398061D01*
X121465000Y-99601939D01*
X121504774Y-99801898D01*
X121582795Y-99990256D01*
X121696063Y-100159774D01*
X121840226Y-100303937D01*
X122009744Y-100417205D01*
X122198102Y-100495226D01*
X122398061Y-100535000D01*
X122601939Y-100535000D01*
X122801898Y-100495226D01*
X122990256Y-100417205D01*
X123159774Y-100303937D01*
X123303937Y-100159774D01*
X123417205Y-99990256D01*
X123495226Y-99801898D01*
X123535000Y-99601939D01*
X123535000Y-99398061D01*
X123495226Y-99198102D01*
X123417205Y-99009744D01*
X123303937Y-98840226D01*
X123262000Y-98798289D01*
X123262000Y-91188214D01*
X133365000Y-91188214D01*
X133365000Y-91411790D01*
X133408617Y-91631069D01*
X133494176Y-91837626D01*
X133618388Y-92023522D01*
X133776480Y-92181614D01*
X133962376Y-92305826D01*
X134168933Y-92391385D01*
X134388212Y-92435002D01*
X134611788Y-92435002D01*
X134831067Y-92391385D01*
X135037624Y-92305826D01*
X135223520Y-92181614D01*
X135381612Y-92023522D01*
X135505824Y-91837626D01*
X135591383Y-91631069D01*
X135635000Y-91411790D01*
X135635000Y-91188214D01*
X135591383Y-90968935D01*
X135516000Y-90786945D01*
X135516000Y-89828003D01*
X142747573Y-89828003D01*
X142827947Y-90125368D01*
X143026388Y-90549439D01*
X143303748Y-90926648D01*
X143649369Y-91242498D01*
X144049968Y-91484852D01*
X144490150Y-91644396D01*
X144953000Y-91715000D01*
X146703000Y-91715000D01*
X146703000Y-89457000D01*
X146957000Y-89457000D01*
X146957000Y-91715000D01*
X148707000Y-91715000D01*
X149169850Y-91644396D01*
X149610032Y-91484852D01*
X150010631Y-91242498D01*
X150356252Y-90926648D01*
X150633612Y-90549439D01*
X150832053Y-90125368D01*
X150912427Y-89828003D01*
X150802625Y-89457000D01*
X146957000Y-89457000D01*
X146703000Y-89457000D01*
X142857375Y-89457000D01*
X142747573Y-89828003D01*
X135516000Y-89828003D01*
X135516000Y-88831997D01*
X142747573Y-88831997D01*
X142857375Y-89203000D01*
X146703000Y-89203000D01*
X146703000Y-86945000D01*
X146957000Y-86945000D01*
X146957000Y-89203000D01*
X150802625Y-89203000D01*
X150912427Y-88831997D01*
X150832053Y-88534632D01*
X150633612Y-88110561D01*
X150356252Y-87733352D01*
X150010631Y-87417502D01*
X149610032Y-87175148D01*
X149169850Y-87015604D01*
X148707000Y-86945000D01*
X146957000Y-86945000D01*
X146703000Y-86945000D01*
X144953000Y-86945000D01*
X144490150Y-87015604D01*
X144049968Y-87175148D01*
X143649369Y-87417502D01*
X143303748Y-87733352D01*
X143026388Y-88110561D01*
X142827947Y-88534632D01*
X142747573Y-88831997D01*
X135516000Y-88831997D01*
X135516000Y-87313070D01*
X135591388Y-87131068D01*
X135635005Y-86911789D01*
X135635005Y-86688213D01*
X135591388Y-86468934D01*
X135505829Y-86262377D01*
X135381617Y-86076481D01*
X135223525Y-85918389D01*
X135037629Y-85794177D01*
X134831072Y-85708618D01*
X134611793Y-85665001D01*
X134388217Y-85665001D01*
X134168938Y-85708618D01*
X133962381Y-85794177D01*
X133776485Y-85918389D01*
X133618393Y-86076481D01*
X133494181Y-86262377D01*
X133408622Y-86468934D01*
X133365005Y-86688213D01*
X133365005Y-86911789D01*
X133408622Y-87131068D01*
X133484001Y-87313048D01*
X133484000Y-90786945D01*
X133408617Y-90968935D01*
X133365000Y-91188214D01*
X123262000Y-91188214D01*
X123262000Y-89565630D01*
X123940279Y-88887352D01*
X123940285Y-88887345D01*
X124065279Y-88762350D01*
X124067208Y-88760000D01*
X124296289Y-88760000D01*
X124340226Y-88803937D01*
X124509744Y-88917205D01*
X124698102Y-88995226D01*
X124898061Y-89035000D01*
X125101939Y-89035000D01*
X125301898Y-88995226D01*
X125490256Y-88917205D01*
X125659774Y-88803937D01*
X125803937Y-88659774D01*
X125917205Y-88490256D01*
X125995226Y-88301898D01*
X126035000Y-88101939D01*
X126035000Y-87898061D01*
X125995226Y-87698102D01*
X125917205Y-87509744D01*
X125803937Y-87340226D01*
X125659774Y-87196063D01*
X125490256Y-87082795D01*
X125301898Y-87004774D01*
X125101939Y-86965000D01*
X124898061Y-86965000D01*
X124698102Y-87004774D01*
X124509744Y-87082795D01*
X124340226Y-87196063D01*
X124296289Y-87240000D01*
X124223711Y-87240000D01*
X124303937Y-87159774D01*
X124417205Y-86990256D01*
X124495226Y-86801898D01*
X124535000Y-86601939D01*
X124535000Y-86398061D01*
X124495226Y-86198102D01*
X124417205Y-86009744D01*
X124303937Y-85840226D01*
X124260000Y-85796289D01*
X124260000Y-84814801D01*
X124314801Y-84760000D01*
X125296289Y-84760000D01*
X125340226Y-84803937D01*
X125509744Y-84917205D01*
X125698102Y-84995226D01*
X125898061Y-85035000D01*
X126101939Y-85035000D01*
X126301898Y-84995226D01*
X126490256Y-84917205D01*
X126659774Y-84803937D01*
X126803937Y-84659774D01*
X126917205Y-84490256D01*
X126995226Y-84301898D01*
X127005549Y-84250000D01*
X139858057Y-84250000D01*
X139885764Y-84531309D01*
X139967818Y-84801808D01*
X140101068Y-85051101D01*
X140280392Y-85269608D01*
X140498899Y-85448932D01*
X140748192Y-85582182D01*
X141018691Y-85664236D01*
X141229508Y-85685000D01*
X142270492Y-85685000D01*
X142481309Y-85664236D01*
X142751808Y-85582182D01*
X143001101Y-85448932D01*
X143219608Y-85269608D01*
X143398932Y-85051101D01*
X143532182Y-84801808D01*
X143614236Y-84531309D01*
X143641943Y-84250000D01*
X143614236Y-83968691D01*
X143532182Y-83698192D01*
X143398932Y-83448899D01*
X143219608Y-83230392D01*
X143001101Y-83051068D01*
X142873259Y-82982735D01*
X143102839Y-82832601D01*
X143304500Y-82634895D01*
X143463715Y-82401646D01*
X143574367Y-82141818D01*
X143591904Y-82059039D01*
X143469915Y-81837000D01*
X141877000Y-81837000D01*
X141877000Y-81857000D01*
X141623000Y-81857000D01*
X141623000Y-81837000D01*
X140030085Y-81837000D01*
X139908096Y-82059039D01*
X139925633Y-82141818D01*
X140036285Y-82401646D01*
X140195500Y-82634895D01*
X140397161Y-82832601D01*
X140626741Y-82982735D01*
X140498899Y-83051068D01*
X140280392Y-83230392D01*
X140101068Y-83448899D01*
X139967818Y-83698192D01*
X139885764Y-83968691D01*
X139858057Y-84250000D01*
X127005549Y-84250000D01*
X127035000Y-84101939D01*
X127035000Y-83898061D01*
X126995226Y-83698102D01*
X126917205Y-83509744D01*
X126803937Y-83340226D01*
X126659774Y-83196063D01*
X126490256Y-83082795D01*
X126301898Y-83004774D01*
X126101939Y-82965000D01*
X125898061Y-82965000D01*
X125698102Y-83004774D01*
X125509744Y-83082795D01*
X125340226Y-83196063D01*
X125296289Y-83240000D01*
X124037325Y-83240000D01*
X124000000Y-83236324D01*
X123962675Y-83240000D01*
X123962667Y-83240000D01*
X123851014Y-83250997D01*
X123707753Y-83294454D01*
X123575724Y-83365026D01*
X123459999Y-83459999D01*
X123436196Y-83489003D01*
X122988998Y-83936201D01*
X122960000Y-83959999D01*
X122936202Y-83988997D01*
X122936201Y-83988998D01*
X122865026Y-84075724D01*
X122794454Y-84207754D01*
X122750998Y-84351015D01*
X122736324Y-84500000D01*
X122740001Y-84537332D01*
X122740000Y-85796289D01*
X122696063Y-85840226D01*
X122582795Y-86009744D01*
X122504774Y-86198102D01*
X122465000Y-86398061D01*
X122465000Y-86601939D01*
X122504774Y-86801898D01*
X122582795Y-86990256D01*
X122696063Y-87159774D01*
X122840226Y-87303937D01*
X123009744Y-87417205D01*
X123185283Y-87489916D01*
X123003422Y-87671777D01*
X122987650Y-87684721D01*
X122862655Y-87809715D01*
X122862648Y-87809721D01*
X121987653Y-88684716D01*
X121958578Y-88708578D01*
X121916378Y-88760000D01*
X121863355Y-88824608D01*
X121859406Y-88831997D01*
X121792598Y-88956986D01*
X121749026Y-89100623D01*
X121738943Y-89203000D01*
X121734314Y-89250000D01*
X121738000Y-89287423D01*
X121738001Y-98798288D01*
X121696063Y-98840226D01*
X121582795Y-99009744D01*
X121504774Y-99198102D01*
X121465000Y-99398061D01*
X118885437Y-99398061D01*
X118888072Y-99000000D01*
X118875812Y-98875518D01*
X118839502Y-98755820D01*
X118780537Y-98645506D01*
X118701185Y-98548815D01*
X118604494Y-98469463D01*
X118494180Y-98410498D01*
X118374482Y-98374188D01*
X118250000Y-98361928D01*
X117785750Y-98365000D01*
X117627000Y-98523750D01*
X117373000Y-98523750D01*
X117214250Y-98365000D01*
X116750000Y-98361928D01*
X116625518Y-98374188D01*
X116505820Y-98410498D01*
X116395506Y-98469463D01*
X116298815Y-98548815D01*
X116219463Y-98645506D01*
X116160498Y-98755820D01*
X116124188Y-98875518D01*
X116111928Y-99000000D01*
X91171269Y-99000000D01*
X91315990Y-98783411D01*
X91427932Y-98513158D01*
X91485000Y-98226260D01*
X91485000Y-97933740D01*
X91427932Y-97646842D01*
X91315990Y-97376589D01*
X91153475Y-97133368D01*
X90946632Y-96926525D01*
X90764466Y-96804805D01*
X90881355Y-96735178D01*
X91097588Y-96540269D01*
X91271641Y-96306920D01*
X91396825Y-96044099D01*
X91441476Y-95896890D01*
X91320155Y-95667000D01*
X90127000Y-95667000D01*
X90127000Y-95687000D01*
X89873000Y-95687000D01*
X89873000Y-95667000D01*
X88679845Y-95667000D01*
X88558524Y-95896890D01*
X88603175Y-96044099D01*
X88728359Y-96306920D01*
X88902412Y-96540269D01*
X89118645Y-96735178D01*
X89235534Y-96804805D01*
X89053368Y-96926525D01*
X88846525Y-97133368D01*
X88684010Y-97376589D01*
X88572068Y-97646842D01*
X88515000Y-97933740D01*
X88139000Y-97933740D01*
X88139000Y-94368235D01*
X88526182Y-93981054D01*
X88560498Y-94094180D01*
X88619463Y-94204494D01*
X88698815Y-94301185D01*
X88795506Y-94380537D01*
X88905820Y-94439502D01*
X88986466Y-94463966D01*
X88902412Y-94539731D01*
X88728359Y-94773080D01*
X88603175Y-95035901D01*
X88558524Y-95183110D01*
X88679845Y-95413000D01*
X89873000Y-95413000D01*
X89873000Y-95393000D01*
X90127000Y-95393000D01*
X90127000Y-95413000D01*
X91320155Y-95413000D01*
X91441476Y-95183110D01*
X91396825Y-95035901D01*
X91271641Y-94773080D01*
X91097588Y-94539731D01*
X91013534Y-94463966D01*
X91094180Y-94439502D01*
X91204494Y-94380537D01*
X91301185Y-94301185D01*
X91380537Y-94204494D01*
X91439502Y-94094180D01*
X91475812Y-93974482D01*
X91488072Y-93850000D01*
X91488072Y-93148061D01*
X104965000Y-93148061D01*
X104965000Y-93351939D01*
X105004774Y-93551898D01*
X105082795Y-93740256D01*
X105196063Y-93909774D01*
X105340226Y-94053937D01*
X105509744Y-94167205D01*
X105698102Y-94245226D01*
X105898061Y-94285000D01*
X106101939Y-94285000D01*
X106301898Y-94245226D01*
X106490256Y-94167205D01*
X106659774Y-94053937D01*
X106803937Y-93909774D01*
X106917205Y-93740256D01*
X106995226Y-93551898D01*
X107035000Y-93351939D01*
X107035000Y-93148061D01*
X106995226Y-92948102D01*
X106917205Y-92759744D01*
X106825500Y-92622497D01*
X106825500Y-92341932D01*
X111390005Y-87777428D01*
X111551898Y-87745226D01*
X111740256Y-87667205D01*
X111909774Y-87553937D01*
X112053937Y-87409774D01*
X112167205Y-87240256D01*
X112245226Y-87051898D01*
X112285000Y-86851939D01*
X112285000Y-86648061D01*
X112245226Y-86448102D01*
X112167205Y-86259744D01*
X112053937Y-86090226D01*
X111909774Y-85946063D01*
X111740256Y-85832795D01*
X111551898Y-85754774D01*
X111351939Y-85715000D01*
X111148061Y-85715000D01*
X110948102Y-85754774D01*
X110759744Y-85832795D01*
X110590226Y-85946063D01*
X110446063Y-86090226D01*
X110332795Y-86259744D01*
X110254774Y-86448102D01*
X110222572Y-86609995D01*
X105444966Y-91387602D01*
X105413459Y-91413459D01*
X105354869Y-91484852D01*
X105310301Y-91539158D01*
X105254050Y-91644396D01*
X105233647Y-91682567D01*
X105186444Y-91838175D01*
X105179782Y-91905820D01*
X105170506Y-92000000D01*
X105174500Y-92040551D01*
X105174500Y-92622497D01*
X105082795Y-92759744D01*
X105004774Y-92948102D01*
X104965000Y-93148061D01*
X91488072Y-93148061D01*
X91488072Y-92150000D01*
X91475812Y-92025518D01*
X91439502Y-91905820D01*
X91380537Y-91795506D01*
X91301185Y-91698815D01*
X91204494Y-91619463D01*
X91094180Y-91560498D01*
X90974482Y-91524188D01*
X90850000Y-91511928D01*
X89150000Y-91511928D01*
X89025518Y-91524188D01*
X88905820Y-91560498D01*
X88795506Y-91619463D01*
X88698815Y-91698815D01*
X88619463Y-91795506D01*
X88560498Y-91905820D01*
X88524188Y-92025518D01*
X88515769Y-92111000D01*
X88293668Y-92111000D01*
X88250000Y-92106699D01*
X88075725Y-92123864D01*
X88039015Y-92135000D01*
X87908149Y-92174697D01*
X87753709Y-92257247D01*
X87618341Y-92368341D01*
X87590505Y-92402259D01*
X86652259Y-93340506D01*
X86618342Y-93368341D01*
X86590507Y-93402258D01*
X86590505Y-93402260D01*
X86507248Y-93503709D01*
X86424698Y-93658148D01*
X86373864Y-93825726D01*
X86356700Y-94000000D01*
X85405238Y-94000000D01*
X85404776Y-91500000D01*
X100611928Y-91500000D01*
X100624188Y-91624482D01*
X100660498Y-91744180D01*
X100719463Y-91854494D01*
X100798815Y-91951185D01*
X100895506Y-92030537D01*
X101005820Y-92089502D01*
X101125518Y-92125812D01*
X101250000Y-92138072D01*
X101714250Y-92135000D01*
X101873000Y-91976250D01*
X101873000Y-90877000D01*
X102127000Y-90877000D01*
X102127000Y-91976250D01*
X102285750Y-92135000D01*
X102750000Y-92138072D01*
X102874482Y-92125812D01*
X102994180Y-92089502D01*
X103104494Y-92030537D01*
X103201185Y-91951185D01*
X103280537Y-91854494D01*
X103339502Y-91744180D01*
X103375812Y-91624482D01*
X103388072Y-91500000D01*
X103385000Y-91035750D01*
X103226250Y-90877000D01*
X102127000Y-90877000D01*
X101873000Y-90877000D01*
X100773750Y-90877000D01*
X100615000Y-91035750D01*
X100611928Y-91500000D01*
X85404776Y-91500000D01*
X85404499Y-90000000D01*
X100611928Y-90000000D01*
X100615000Y-90464250D01*
X100773750Y-90623000D01*
X101873000Y-90623000D01*
X101873000Y-89523750D01*
X102127000Y-89523750D01*
X102127000Y-90623000D01*
X103226250Y-90623000D01*
X103385000Y-90464250D01*
X103388072Y-90000000D01*
X103375812Y-89875518D01*
X103339502Y-89755820D01*
X103280537Y-89645506D01*
X103201185Y-89548815D01*
X103104494Y-89469463D01*
X102994180Y-89410498D01*
X102874482Y-89374188D01*
X102750000Y-89361928D01*
X102285750Y-89365000D01*
X102127000Y-89523750D01*
X101873000Y-89523750D01*
X101714250Y-89365000D01*
X101250000Y-89361928D01*
X101125518Y-89374188D01*
X101005820Y-89410498D01*
X100895506Y-89469463D01*
X100798815Y-89548815D01*
X100719463Y-89645506D01*
X100660498Y-89755820D01*
X100624188Y-89875518D01*
X100611928Y-90000000D01*
X85404499Y-90000000D01*
X85403110Y-82500000D01*
X85859509Y-82500000D01*
X85865000Y-82555751D01*
X85865000Y-82611788D01*
X85875932Y-82666748D01*
X85881423Y-82722498D01*
X85897684Y-82776103D01*
X85908617Y-82831067D01*
X85930064Y-82882845D01*
X85946324Y-82936446D01*
X85972728Y-82985845D01*
X85994176Y-83037624D01*
X86025313Y-83084224D01*
X86051717Y-83133622D01*
X86087251Y-83176920D01*
X86118388Y-83223520D01*
X86158019Y-83263151D01*
X86193552Y-83306448D01*
X86236849Y-83341981D01*
X86276480Y-83381612D01*
X86323080Y-83412749D01*
X86366378Y-83448283D01*
X86415776Y-83474687D01*
X86462376Y-83505824D01*
X86514155Y-83527272D01*
X86563554Y-83553676D01*
X86617155Y-83569936D01*
X86668933Y-83591383D01*
X86723897Y-83602316D01*
X86777502Y-83618577D01*
X86833252Y-83624068D01*
X86888212Y-83635000D01*
X86944249Y-83635000D01*
X87000000Y-83640491D01*
X87055751Y-83635000D01*
X87111788Y-83635000D01*
X87166748Y-83624068D01*
X87222498Y-83618577D01*
X87276103Y-83602316D01*
X87331067Y-83591383D01*
X87382845Y-83569936D01*
X87436446Y-83553676D01*
X87485845Y-83527272D01*
X87537624Y-83505824D01*
X87584224Y-83474687D01*
X87633622Y-83448283D01*
X87676921Y-83412749D01*
X87723520Y-83381612D01*
X87881612Y-83223520D01*
X87881614Y-83223517D01*
X88970132Y-82135000D01*
X93361001Y-82135000D01*
X93361000Y-85456340D01*
X93356700Y-85500000D01*
X93361000Y-85543660D01*
X93361000Y-85543666D01*
X93373864Y-85674273D01*
X93424697Y-85841850D01*
X93507247Y-85996290D01*
X93618341Y-86131659D01*
X93652263Y-86159499D01*
X94340505Y-86847741D01*
X94368341Y-86881659D01*
X94503709Y-86992753D01*
X94658149Y-87075303D01*
X94724058Y-87095296D01*
X94825724Y-87126136D01*
X94858924Y-87129406D01*
X94956333Y-87139000D01*
X94956339Y-87139000D01*
X94999999Y-87143300D01*
X95043659Y-87139000D01*
X104217532Y-87139000D01*
X104259744Y-87167205D01*
X104448102Y-87245226D01*
X104648061Y-87285000D01*
X104851939Y-87285000D01*
X105051898Y-87245226D01*
X105240256Y-87167205D01*
X105409774Y-87053937D01*
X105553937Y-86909774D01*
X105667205Y-86740256D01*
X105745226Y-86551898D01*
X105785000Y-86351939D01*
X105785000Y-86148061D01*
X105745226Y-85948102D01*
X105667205Y-85759744D01*
X105592582Y-85648061D01*
X114715000Y-85648061D01*
X114715000Y-85851939D01*
X114754774Y-86051898D01*
X114832795Y-86240256D01*
X114946063Y-86409774D01*
X114988001Y-86451712D01*
X114988000Y-95798289D01*
X114946063Y-95840226D01*
X114832795Y-96009744D01*
X114754774Y-96198102D01*
X114715000Y-96398061D01*
X114715000Y-96601939D01*
X114754774Y-96801898D01*
X114832795Y-96990256D01*
X114946063Y-97159774D01*
X115090226Y-97303937D01*
X115259744Y-97417205D01*
X115448102Y-97495226D01*
X115648061Y-97535000D01*
X115851939Y-97535000D01*
X116051898Y-97495226D01*
X116240256Y-97417205D01*
X116409774Y-97303937D01*
X116553937Y-97159774D01*
X116667205Y-96990256D01*
X116745226Y-96801898D01*
X116785000Y-96601939D01*
X116785000Y-96398061D01*
X116745226Y-96198102D01*
X116667205Y-96009744D01*
X116553937Y-95840226D01*
X116512000Y-95798289D01*
X116512000Y-94418139D01*
X116698102Y-94495226D01*
X116898061Y-94535000D01*
X117101939Y-94535000D01*
X117301898Y-94495226D01*
X117490256Y-94417205D01*
X117659774Y-94303937D01*
X117803937Y-94159774D01*
X117917205Y-93990256D01*
X117995226Y-93801898D01*
X118035000Y-93601939D01*
X118035000Y-93398061D01*
X117995226Y-93198102D01*
X117917205Y-93009744D01*
X117825500Y-92872497D01*
X117825500Y-87485450D01*
X117990256Y-87417205D01*
X118159774Y-87303937D01*
X118303937Y-87159774D01*
X118417205Y-86990256D01*
X118495226Y-86801898D01*
X118535000Y-86601939D01*
X118535000Y-86398061D01*
X118495226Y-86198102D01*
X118417205Y-86009744D01*
X118303937Y-85840226D01*
X118159774Y-85696063D01*
X117990256Y-85582795D01*
X117801898Y-85504774D01*
X117601939Y-85465000D01*
X117398061Y-85465000D01*
X117198102Y-85504774D01*
X117009744Y-85582795D01*
X116840226Y-85696063D01*
X116785000Y-85751289D01*
X116785000Y-85648061D01*
X116745226Y-85448102D01*
X116667205Y-85259744D01*
X116553937Y-85090226D01*
X116409774Y-84946063D01*
X116240256Y-84832795D01*
X116051898Y-84754774D01*
X115851939Y-84715000D01*
X115648061Y-84715000D01*
X115448102Y-84754774D01*
X115259744Y-84832795D01*
X115090226Y-84946063D01*
X114946063Y-85090226D01*
X114832795Y-85259744D01*
X114754774Y-85448102D01*
X114715000Y-85648061D01*
X105592582Y-85648061D01*
X105553937Y-85590226D01*
X105409774Y-85446063D01*
X105240256Y-85332795D01*
X105051898Y-85254774D01*
X104851939Y-85215000D01*
X104648061Y-85215000D01*
X104448102Y-85254774D01*
X104259744Y-85332795D01*
X104217532Y-85361000D01*
X95368236Y-85361000D01*
X95139000Y-85131765D01*
X95139000Y-82135000D01*
X97944249Y-82135000D01*
X98000000Y-82140491D01*
X98055751Y-82135000D01*
X98055752Y-82135000D01*
X98222499Y-82118577D01*
X98436447Y-82053676D01*
X98633623Y-81948284D01*
X98806449Y-81806449D01*
X98841995Y-81763136D01*
X99244170Y-81360961D01*
X139908096Y-81360961D01*
X140030085Y-81583000D01*
X141623000Y-81583000D01*
X141623000Y-80275000D01*
X141877000Y-80275000D01*
X141877000Y-81583000D01*
X143469915Y-81583000D01*
X143591904Y-81360961D01*
X143574367Y-81278182D01*
X143463715Y-81018354D01*
X143304500Y-80785105D01*
X143102839Y-80587399D01*
X142866483Y-80432834D01*
X142604514Y-80327350D01*
X142327000Y-80275000D01*
X141877000Y-80275000D01*
X141623000Y-80275000D01*
X141173000Y-80275000D01*
X140895486Y-80327350D01*
X140633517Y-80432834D01*
X140397161Y-80587399D01*
X140195500Y-80785105D01*
X140036285Y-81018354D01*
X139925633Y-81278182D01*
X139908096Y-81360961D01*
X99244170Y-81360961D01*
X99763145Y-80841987D01*
X99806449Y-80806449D01*
X99948284Y-80633623D01*
X100053676Y-80436447D01*
X100118577Y-80222499D01*
X100135000Y-80055752D01*
X100135000Y-80055751D01*
X100140491Y-80000000D01*
X100135000Y-79944248D01*
X100135000Y-79668003D01*
X142747573Y-79668003D01*
X142827947Y-79965368D01*
X143026388Y-80389439D01*
X143303748Y-80766648D01*
X143649369Y-81082498D01*
X144049968Y-81324852D01*
X144490150Y-81484396D01*
X144953000Y-81555000D01*
X146703000Y-81555000D01*
X146703000Y-79297000D01*
X146957000Y-79297000D01*
X146957000Y-81555000D01*
X148707000Y-81555000D01*
X149169850Y-81484396D01*
X149610032Y-81324852D01*
X150010631Y-81082498D01*
X150356252Y-80766648D01*
X150633612Y-80389439D01*
X150832053Y-79965368D01*
X150912427Y-79668003D01*
X150802625Y-79297000D01*
X146957000Y-79297000D01*
X146703000Y-79297000D01*
X142857375Y-79297000D01*
X142747573Y-79668003D01*
X100135000Y-79668003D01*
X100135000Y-77898061D01*
X110715000Y-77898061D01*
X110715000Y-78101939D01*
X110754774Y-78301898D01*
X110832795Y-78490256D01*
X110946063Y-78659774D01*
X111090226Y-78803937D01*
X111259744Y-78917205D01*
X111448102Y-78995226D01*
X111648061Y-79035000D01*
X111851939Y-79035000D01*
X112051898Y-78995226D01*
X112240256Y-78917205D01*
X112409774Y-78803937D01*
X112451711Y-78762000D01*
X115712577Y-78762000D01*
X115750000Y-78765686D01*
X115784084Y-78762329D01*
X115898061Y-78785000D01*
X116101939Y-78785000D01*
X116301898Y-78745226D01*
X116478687Y-78671997D01*
X142747573Y-78671997D01*
X142857375Y-79043000D01*
X146703000Y-79043000D01*
X146703000Y-76785000D01*
X146957000Y-76785000D01*
X146957000Y-79043000D01*
X150802625Y-79043000D01*
X150912427Y-78671997D01*
X150832053Y-78374632D01*
X150633612Y-77950561D01*
X150356252Y-77573352D01*
X150010631Y-77257502D01*
X149610032Y-77015148D01*
X149169850Y-76855604D01*
X148707000Y-76785000D01*
X146957000Y-76785000D01*
X146703000Y-76785000D01*
X144953000Y-76785000D01*
X144490150Y-76855604D01*
X144049968Y-77015148D01*
X143649369Y-77257502D01*
X143303748Y-77573352D01*
X143026388Y-77950561D01*
X142827947Y-78374632D01*
X142747573Y-78671997D01*
X116478687Y-78671997D01*
X116490256Y-78667205D01*
X116659774Y-78553937D01*
X116803937Y-78409774D01*
X116917205Y-78240256D01*
X116995226Y-78051898D01*
X117035000Y-77851939D01*
X117035000Y-77648061D01*
X116995779Y-77450881D01*
X132478724Y-77450881D01*
X132838912Y-77940548D01*
X133502882Y-78300849D01*
X134224385Y-78524694D01*
X134975695Y-78603480D01*
X135727938Y-78534178D01*
X136452208Y-78319452D01*
X137120670Y-77967555D01*
X137161088Y-77940548D01*
X137521276Y-77450881D01*
X135000000Y-74929605D01*
X132478724Y-77450881D01*
X116995779Y-77450881D01*
X116995226Y-77448102D01*
X116917205Y-77259744D01*
X116803937Y-77090226D01*
X116659774Y-76946063D01*
X116490256Y-76832795D01*
X116301898Y-76754774D01*
X116101939Y-76715000D01*
X115898061Y-76715000D01*
X115698102Y-76754774D01*
X115509744Y-76832795D01*
X115340226Y-76946063D01*
X115196063Y-77090226D01*
X115097324Y-77238000D01*
X112451711Y-77238000D01*
X112409774Y-77196063D01*
X112240256Y-77082795D01*
X112051898Y-77004774D01*
X111851939Y-76965000D01*
X111648061Y-76965000D01*
X111448102Y-77004774D01*
X111259744Y-77082795D01*
X111090226Y-77196063D01*
X110946063Y-77340226D01*
X110832795Y-77509744D01*
X110754774Y-77698102D01*
X110715000Y-77898061D01*
X100135000Y-77898061D01*
X100135000Y-77138212D01*
X100124068Y-77083253D01*
X100118577Y-77027501D01*
X100102315Y-76973892D01*
X100091383Y-76918933D01*
X100069937Y-76867158D01*
X100053676Y-76813553D01*
X100027269Y-76764149D01*
X100005824Y-76712376D01*
X99974693Y-76665786D01*
X99948284Y-76616377D01*
X99912741Y-76573068D01*
X99885353Y-76532079D01*
X101091934Y-75325500D01*
X113372497Y-75325500D01*
X113509744Y-75417205D01*
X113698102Y-75495226D01*
X113898061Y-75535000D01*
X114101939Y-75535000D01*
X114301898Y-75495226D01*
X114490256Y-75417205D01*
X114659774Y-75303937D01*
X114803937Y-75159774D01*
X114917205Y-74990256D01*
X114995226Y-74801898D01*
X115010383Y-74725695D01*
X131146520Y-74725695D01*
X131215822Y-75477938D01*
X131430548Y-76202208D01*
X131782445Y-76870670D01*
X131809452Y-76911088D01*
X132299119Y-77271276D01*
X134820395Y-74750000D01*
X135179605Y-74750000D01*
X137700881Y-77271276D01*
X138190548Y-76911088D01*
X138550849Y-76247118D01*
X138774694Y-75525615D01*
X138853480Y-74774305D01*
X138784178Y-74022062D01*
X138569452Y-73297792D01*
X138217555Y-72629330D01*
X138190548Y-72588912D01*
X137700881Y-72228724D01*
X135179605Y-74750000D01*
X134820395Y-74750000D01*
X132299119Y-72228724D01*
X131809452Y-72588912D01*
X131449151Y-73252882D01*
X131225306Y-73974385D01*
X131146520Y-74725695D01*
X115010383Y-74725695D01*
X115035000Y-74601939D01*
X115035000Y-74398061D01*
X114995226Y-74198102D01*
X114917205Y-74009744D01*
X114803937Y-73840226D01*
X114659774Y-73696063D01*
X114490256Y-73582795D01*
X114301898Y-73504774D01*
X114101939Y-73465000D01*
X113898061Y-73465000D01*
X113698102Y-73504774D01*
X113509744Y-73582795D01*
X113372497Y-73674500D01*
X100790550Y-73674500D01*
X100750000Y-73670506D01*
X100709449Y-73674500D01*
X100709447Y-73674500D01*
X100588174Y-73686444D01*
X100458141Y-73725889D01*
X100432566Y-73733647D01*
X100289157Y-73810301D01*
X100194958Y-73887608D01*
X100194955Y-73887611D01*
X100163459Y-73913459D01*
X100137611Y-73944955D01*
X98444966Y-75637602D01*
X98413459Y-75663459D01*
X98350171Y-75740577D01*
X98310301Y-75789158D01*
X98240247Y-75920220D01*
X98233647Y-75932567D01*
X98186444Y-76088175D01*
X98179427Y-76159423D01*
X98170506Y-76250000D01*
X98174500Y-76290551D01*
X98174500Y-76466766D01*
X98158014Y-76486854D01*
X98118388Y-76526480D01*
X98087254Y-76573075D01*
X98051717Y-76616377D01*
X98025312Y-76665778D01*
X97994176Y-76712376D01*
X97972728Y-76764157D01*
X97946325Y-76813553D01*
X97930067Y-76867149D01*
X97908617Y-76918933D01*
X97897683Y-76973904D01*
X97881424Y-77027501D01*
X97875934Y-77083243D01*
X97865000Y-77138212D01*
X97865000Y-77361788D01*
X97865001Y-77361793D01*
X97865000Y-79529868D01*
X97529868Y-79865000D01*
X88555741Y-79865000D01*
X88499999Y-79859510D01*
X88444257Y-79865000D01*
X88444248Y-79865000D01*
X88277501Y-79881423D01*
X88063553Y-79946324D01*
X87866377Y-80051716D01*
X87693551Y-80193551D01*
X87658011Y-80236857D01*
X86276483Y-81618386D01*
X86276480Y-81618388D01*
X86118388Y-81776480D01*
X86087251Y-81823079D01*
X86051717Y-81866378D01*
X86025313Y-81915776D01*
X85994176Y-81962376D01*
X85972728Y-82014155D01*
X85946324Y-82063554D01*
X85930064Y-82117155D01*
X85908617Y-82168933D01*
X85897684Y-82223897D01*
X85881423Y-82277502D01*
X85875932Y-82333252D01*
X85865000Y-82388212D01*
X85865000Y-82444249D01*
X85859509Y-82500000D01*
X85403110Y-82500000D01*
X85402223Y-77700881D01*
X88728724Y-77700881D01*
X89088912Y-78190548D01*
X89752882Y-78550849D01*
X90474385Y-78774694D01*
X91225695Y-78853480D01*
X91977938Y-78784178D01*
X92702208Y-78569452D01*
X93370670Y-78217555D01*
X93411088Y-78190548D01*
X93771276Y-77700881D01*
X91250000Y-75179605D01*
X88728724Y-77700881D01*
X85402223Y-77700881D01*
X85401718Y-74975695D01*
X87396520Y-74975695D01*
X87465822Y-75727938D01*
X87680548Y-76452208D01*
X88032445Y-77120670D01*
X88059452Y-77161088D01*
X88549119Y-77521276D01*
X91070395Y-75000000D01*
X91429605Y-75000000D01*
X93950881Y-77521276D01*
X94440548Y-77161088D01*
X94800849Y-76497118D01*
X95024694Y-75775615D01*
X95103480Y-75024305D01*
X95034178Y-74272062D01*
X94819452Y-73547792D01*
X94467555Y-72879330D01*
X94440548Y-72838912D01*
X93950881Y-72478724D01*
X91429605Y-75000000D01*
X91070395Y-75000000D01*
X88549119Y-72478724D01*
X88059452Y-72838912D01*
X87699151Y-73502882D01*
X87475306Y-74224385D01*
X87396520Y-74975695D01*
X85401718Y-74975695D01*
X85401682Y-74782228D01*
X85463788Y-74148817D01*
X85638385Y-73570525D01*
X85921976Y-73037166D01*
X86303762Y-72569050D01*
X86769209Y-72183999D01*
X87300577Y-71896689D01*
X87877634Y-71718059D01*
X88498534Y-71652800D01*
X88707779Y-71659036D01*
G37*
%TD.AperFunction*%
D25*
X89496692Y-119182914D02*
X89482549Y-119197056D01*
X89496692Y-119211199D01*
X89317087Y-119390804D01*
X89302944Y-119376661D01*
X89288802Y-119390804D01*
X89234197Y-119336199D01*
X89442087Y-119128309D01*
X89496692Y-119182914D01*
%TA.AperFunction,Conductor*%
D26*
G36*
X89496692Y-119182914D02*
G01*
X89482549Y-119197056D01*
X89496692Y-119211199D01*
X89317087Y-119390804D01*
X89302944Y-119376661D01*
X89288802Y-119390804D01*
X89234197Y-119336199D01*
X89442087Y-119128309D01*
X89496692Y-119182914D01*
G37*
%TD.AperFunction*%
D25*
X92890804Y-119182914D02*
X92876661Y-119197056D01*
X92890804Y-119211199D01*
X92836199Y-119265804D01*
X92628309Y-119057914D01*
X92682914Y-119003309D01*
X92697056Y-119017451D01*
X92711199Y-119003309D01*
X92890804Y-119182914D01*
%TA.AperFunction,Conductor*%
D26*
G36*
X92890804Y-119182914D02*
G01*
X92876661Y-119197056D01*
X92890804Y-119211199D01*
X92836199Y-119265804D01*
X92628309Y-119057914D01*
X92682914Y-119003309D01*
X92697056Y-119017451D01*
X92711199Y-119003309D01*
X92890804Y-119182914D01*
G37*
%TD.AperFunction*%
D25*
X91250000Y-117320395D02*
X91997292Y-116573104D01*
X92051898Y-116627710D01*
X92170220Y-116509388D01*
X92193075Y-116712680D01*
X92209731Y-116719874D01*
X91429605Y-117500000D01*
X92208618Y-118279013D01*
X92193075Y-118287320D01*
X92170220Y-118490612D01*
X92051898Y-118372290D01*
X91997292Y-118426897D01*
X91250000Y-117679605D01*
X90220987Y-118708618D01*
X90212680Y-118693075D01*
X90009388Y-118670220D01*
X90127710Y-118551898D01*
X90073104Y-118497292D01*
X91070395Y-117500000D01*
X90073104Y-116502709D01*
X90127710Y-116448102D01*
X90009388Y-116329780D01*
X90212680Y-116306925D01*
X90219874Y-116290269D01*
X91250000Y-117320395D01*
%TA.AperFunction,Conductor*%
D26*
G36*
X91250000Y-117320395D02*
G01*
X91997292Y-116573104D01*
X92051898Y-116627710D01*
X92170220Y-116509388D01*
X92193075Y-116712680D01*
X92209731Y-116719874D01*
X91429605Y-117500000D01*
X92208618Y-118279013D01*
X92193075Y-118287320D01*
X92170220Y-118490612D01*
X92051898Y-118372290D01*
X91997292Y-118426897D01*
X91250000Y-117679605D01*
X90220987Y-118708618D01*
X90212680Y-118693075D01*
X90009388Y-118670220D01*
X90127710Y-118551898D01*
X90073104Y-118497292D01*
X91070395Y-117500000D01*
X90073104Y-116502709D01*
X90127710Y-116448102D01*
X90009388Y-116329780D01*
X90212680Y-116306925D01*
X90219874Y-116290269D01*
X91250000Y-117320395D01*
G37*
%TD.AperFunction*%
D25*
X92890804Y-115788802D02*
X92876661Y-115802944D01*
X92890804Y-115817087D01*
X92711199Y-115996692D01*
X92697056Y-115982549D01*
X92682914Y-115996692D01*
X92628309Y-115942087D01*
X92836199Y-115734197D01*
X92890804Y-115788802D01*
%TA.AperFunction,Conductor*%
D26*
G36*
X92890804Y-115788802D02*
G01*
X92876661Y-115802944D01*
X92890804Y-115817087D01*
X92711199Y-115996692D01*
X92697056Y-115982549D01*
X92682914Y-115996692D01*
X92628309Y-115942087D01*
X92836199Y-115734197D01*
X92890804Y-115788802D01*
G37*
%TD.AperFunction*%
D25*
X89496692Y-115788802D02*
X89482549Y-115802944D01*
X89496692Y-115817087D01*
X89442087Y-115871692D01*
X89234197Y-115663802D01*
X89288802Y-115609197D01*
X89302944Y-115623339D01*
X89317087Y-115609197D01*
X89496692Y-115788802D01*
%TA.AperFunction,Conductor*%
D26*
G36*
X89496692Y-115788802D02*
G01*
X89482549Y-115802944D01*
X89496692Y-115817087D01*
X89442087Y-115871692D01*
X89234197Y-115663802D01*
X89288802Y-115609197D01*
X89302944Y-115623339D01*
X89317087Y-115609197D01*
X89496692Y-115788802D01*
G37*
%TD.AperFunction*%
%TD*%
M02*
